<mxfile host="app.diagrams.net" modified="2022-08-09T18:36:05.472Z" agent="5.0 (Windows NT 10.0; Win64; x64) AppleWebKit/537.36 (KHTML, like Gecko) Chrome/104.0.0.0 Safari/537.36" etag="f6UopBVvsItoE2P2OGC0" version="20.2.3" type="github">
  <diagram id="Gk7SVp5fm0p9tkcXaZWZ" name="Page-1">
    <mxGraphModel dx="2858" dy="925" grid="1" gridSize="10" guides="1" tooltips="1" connect="1" arrows="1" fold="1" page="1" pageScale="1" pageWidth="850" pageHeight="1100" math="0" shadow="0">
      <root>
        <mxCell id="0" />
        <mxCell id="1" parent="0" />
        <mxCell id="aXY6HCCz9jmhqLr8vIO--3" value="" style="shape=image;verticalLabelPosition=bottom;labelBackgroundColor=default;verticalAlign=top;aspect=fixed;imageAspect=0;image=data:image/png,iVBORw0KGgoAAAANSUhEUgAABw0AAAMgCAYAAADRCv2KAAAAAXNSR0IArs4c6QAAAARnQU1BAACxjwv8YQUAAAAJcEhZcwAADsMAAA7DAcdvqGQAAAASdEVYdFNvZnR3YXJlAEdyZWVuc2hvdF5VCAUAAP+HSURBVHhe7P19cFRlvu/9c88/9x/n/HnOFGXVuWvPlDW153em9u0MfxzxFKccKK2NNc6c7aBz5KgzgLM36AFHnYzDoNwD4xYFBEZhGHkUFTSigPIoJtEIITyYxEBMImGSQAgREogmQAwP8/ld13roXt3pdDrJlaRD3q+qS7vXWr169XetXp3uD9e1Rl3++ops62i7SqPRaDQajUaj0Wg0Go1Go9FoNBqNRqPRRmAjNKTRaDQajUaj0Wg0Go1Go9FoNBqNRqPRRngjNKTRaDQajUaj0Wg0Go1Go9FoNBqNRqPRRngjNKTRaDQajUaj0Wg0Go1Go9FoNBqNRqPRRngjNKTRaDQajUaj0Wg0Go1Go9FoNBqNRqPRRngjNKTRaDQajUaj0Wg0Go1Go9FoNBqNRqPRRngjNKTRaDQajUaj0Wg0Go1Go9FoNBqNRqPRRngjNKTRaDQajUaj0Wg0Go1Go9FoNBqNRqPRRngjNKTRaDQajUaj0Wg0Go1Go9FoNBqNRqPRRnjrc2jYefmarl35u/5+/e8CAAAAAAAAAAAAkH1slmczPZvtpcr8wtbr0LDz0jVdv0ZQCAAAAAAAAAAAAAwnNuOzWV+qDLBXoaFNIAEAAAAAAAAAAAAMX6l6HWYcGtrUEQAAAAAAAAAAAMDwl9zjMOPQkCFJAQAAAAAAAAAAgBuDzf6iWWBGoSHDkgIAAAAAAAAAAAA3lugwpRmFhteu0MsQAAAAAAAAAAAAuJHYDDDMAzMKDf9+ndAQAAAAAAAAAAAAuJHYDDDMAzMKDQEAAAAAAAAAAADceMI8kNAQAAAAAAAAAAAAGKHCPJDQEAAAAAAAAAAAABihwjyQ0BAAAAAAAAAAAAAYocI8kNAQAAAAAAAAAAAAGKHCPJDQEAAAAAAAAAAAABihwjyQ0BAAAAAAAAAAAAAYocI8kNAQAAAAAAAAAAAAGKHCPJDQEAAAAAAAAAAAABihwjyQ0BAAAAAAAAAAAAAYocI8kNAQAAAAAAAAAAAAGKHCPJDQEAAAAAAAAAAAABihwjyQ0BAAAAAAAAAAAAAYocI8kNAQAAAAAAAAAAAAGKHCPJDQEAAAAAAAAAAAABihwjyQ0NCF4VSi4bCtA7CNTcWlagpuAwAAAAAAAAAAwBfmgVkcGnao6Ui+8gtMO9Jk7mWjVuXnjNWoUaP0nZk7zb3s1lrwpMaabR1186Pa2RxMHEIdDaX+/i0oVVOwg7vfxlYdeOlR3XPrd0y9n9UBO6lqje4abZYdPV7Ly7yFumg9tlFPTow8BgAAAAAAAAAAADFhHjjIoWGrDqxbrMULk9pLG7WzuFKtCU/VpI33jvICuVH3bszSXmIH9KzdPq9lfyh1YH64raP0bHEwcQg1bbon2J57tLHBn5Z6GztU+pwfzvrNr3X88aN0z6akI6SjVMvvtWGhnf8d3ZWzk56GAAAAAAAAAAAAScI8cJBDw0gQmKrdPE1rqsI+hcMhNJRq339S99xxj558vzaYksXqdurJe8frnpydyoatTRUaptzGjnw9GRwjP7TTW4NjpL1Uy6eM1/gpy1Xa7k+Kadioe0aP17SX7PLBNAAAAAAAAAAAACQI88ChCw3vmKN3vaEpd2rjS0/6w0za6bc8qwNeJpRBaNjRqtYwQOqVDnX05mFm4b48S4JM19FuXlNyANYbfa5JxFWzrd3t9nTzUrHb083rSRkapmIDQG+5UZqzL5jWE/u8djttPftbDwAAAAAAAAAAgBtUmAcOXWiYFAR2FMzRaC8YGq1nj9gpaZatCq9TF8y/+R49u6tWtbEQKj5UaEIwdeSAFt///eB5Rmn0DyZr8b5oN7TE5yzdt1iTfzA6ePxoff/+xTqQcJ29VNvY23X4WhOW87dt+ZHW+HCdSTVIlvz4UaO/r8kLDyRcZzFVSBedtqbg3YS6RuuTXPNw++ISX3dliuUXFyS+gp62x5tW/GxwP9q6zkscbrVVlZue1F03Rx7j1SNfTS4PZwAAAAAAAAAAgGEuzAOzJjRUXbw3mR8ApV6248izGhssl9hGa+ytPwxupwoNu2tjzfOFPdEiz9ldu9WsO9ZzLtU29nYd5hFvT44FmYltrHlNwe00oWFCTW4eq/G3xsO6sfMPxHo4pg/pumumPi91V3Mz70iK2o0e3c3rGa3Jm+IDow5MaNihA/Oj1z9MbKMf3JgVQ7MCAAAAAAAAAABkgzAPzJrQsHZdGBbdpTU1dkqqZWu1ZmIwbfR4zdlVKzvyZEdzqTbOjAZFqUPD0Q+uUWnQy6+1bI0mh0Oipgz8RmvyqlJ/iMurrSpdFQ/27tkUbnmqbezlOjryNSfcDntNx7Im2eE/O+ry9ezdkZ6DaULDWG/EKe/Glmnd9WTwXI9qZ9AhsKfQcPTdzyq/zhT0aodqC56NDxlr59naNaWYZ57TX330dSeuq6lsox4Nw8/RZnuCfZBRaGhFhidN6FGYIjSM9lid/FptPDDdNScWfN61jtgQAAAAAAAAAADACvPAoQsNR39f4+8Y77WxkWEkR8/Y2TWECgOzmjUaHywXD+5CkUAxZWg4Pggj42pXjU9aPvKcd6xJ6pFm1n9HMG9+bO1dt7GX6+jY+6R/f9QPIz0eA+35erJLsNlV6XNBuHjLk3q3KhwytEOtrfZ6fq0Z9jTsWp/ShWHPzXTzUtRu1DS9mzwEa9li/dCbN0qPvh/sYeehYYfyc/z78TAz7sAzwbwu+wUAAAAAAAAAAGBkCvPAoQsNk1uXa/ClCORiIdE92ljnLZSgdEm64UkjIVQgPm+y3vWeIFUIGIrMezDs0Zdq+d6tI74Nc2LbHNeqnTO6W1dE3buaFr1+381jdc+MxdpYnPTsmYZ0gczmpQgNU27rAT3rLT9KP1xS6k3JeHsyDg0j25C2xY8PAAAAAAAAAACAkSzMA4cuNPyXNaoMesK12jFGu0gRQg1YaBjOSxd8pZqX6bRQ13nxbehHaGh1NOnApsV69O7vJ1xPMPNrGmZSn7j4vCwNDe21HYOerF3bcvlbAAAAAAAAAAAAMLKFeWDWXNOwqxTLRoYnvWtV8gCTPQ1Pmkkolm77Us3LdFqo67z48KSj9eTevg1P2hGGr+HDO6LXT4wPLZpxSBfIbF6K0DBLhyeN1SllSA0AAAAAAAAAADDyhHng8AoNo8Hg6PGas6tWHXbz2mu1c/ZYf7rXhk9oqI58zQmDwZunaU2Zfw3CjuZSrXkwuFZhynWFoutco9pwd1UtDwLW0Xr2iD8p45AukNm8VKHhKI2++1nlN3ivRK1lG/XorcG80Y9qZxAoZrw9GYeG5tkK5gRh6Q/16Nvm+PAnq2nXHI0Nlr1rHVc0BAAAAAAAAAAAsMI8cJiFhmbDjzwbC38S22iNvXX4DU/qTX077BWY3Maa1xTc7rKuuI7iSE28YTnH6jvh/VsXx4bizDikC2Q2L0VoOHp0N69ntCZvigd2GW9PL0JDG1IemB8NkBPb6Ac3isgQAAAAAAAAAADAF+aBwy40tDqqNurJid+Jh0E336Unt9SqtkuQ1U0IFeg6r7eBX6bTQt3Pa923WJN/EO9ZOPrHT2rjsVYdmN/duhK1HkuqyajR+v79i3UgMkxoxiFdILN5KUJDs62Vdnt+HHk9P5isxQVJ1ch0e3oVGlqtqtz0pO662Z/ntdHf1+SF+WpyeTgDAAAAAAAAAAAMc2EeOMihoWPtN+D16exrag9uR6/R10NoGNPhX7fPG7Z1UHUTiA71ProRjxEAAAAAAAAAAABHwjxweIeGN4L2fM25Y7zGm/bkrtZgYsDMezK43uHo58JBRrNVuh6WAAAAAAAAAAAAyEZhHkhoOORatXNGOIznWE176V0dqKpVZfG7evbu+PTFZcHiWYvQEAAAAAAAAAAAYLgJ80BCw2xQt1OP3hoEbl3aaE1eV6vsH2CT0BAAAAAAAAAAAGC4CfNAQsNscbVJBzYt1qP3jtf4H3xH3//xeN0zY7HePZY0ZGnWatLOx/1hVsc/vpPQEAAAAAAAAAAAYBgI80BCQwAAAAAAAAAAAGCECvNAQkMAAAAAAAAAAABghArzQEJDAAAAAAAAAAAAYIQK80BCQwAAAAAAAAAAAGCECvNAQkMAAAAAAAAAAABghArzQEJDAAAAAAAAAAAAYIQK80BCQwA3pL//PbgBAAAAAAAAAAC6FeaBgxoaNtW20mg3TEN2OVN5UR+8eFLL/6Vcs793QDP+Q4Hem1erad/Ko/WiLRxfknI6jTbUbbp5T8/+XpGW31OuD5ed0rm/XQ7e/QAAAAAAuNN47gKNNqQtKtV8Wna1G0WYBw56aAjcCDiWs0dVwQUvKHzsPxfq9RnV+vTds2quI0zoKxvOANmo89I1NVVf0uHcL/Xav1Vp1n8q9ALE4/s4HwMAAAAA3LEhQGvjNzTakLTkEIrjMbsboWE/EbTgRsGxPPSudFzXG49W67f/z359/MrpYCr6i9AQw0nBXxr05H/Zp40zvwimAAAAAADQP4Q0tKFshIbDqxEa9hNBC24UHMtDq6nqkp699bBem17FtQsdIzTEcGN7INqeh/acwJClAAAAAID+IqShDWUjNBxejdCwnwhacKPgWB46NjC01zXbu/RkMAUuERpiuNqzuF7/+n/nExwCAAAAAPqFkIY2lI3QcHg1QsN+ImjBjYJjeWjYIUltb6K9S08FU+AaoSGGMxsc2nMEAAAAAAB9RUhDG8pGaDi8GqFhPxG04EbBsTw07DUM7ZCkGDiEhhju7FClXOMQAAAAANBXhDS0oWyEhsOrERr2E0ELbhQcy4OvquCCnvwv+7iG4QAjNMRwZ69xaM8Vx/dxngYAAAAA9B4hDW0oG6Hh8GqEhv1E0IIbBcfy4Fv+L+X6+JXTwb2eXFVna5vak1t7qvPZVZU8M1sTZhapPZgykhEa4kZQ8JcGLb+nPLgHAAAAAEDmCGloQ9kIDYdXIzTsJ4IW3Cg4lgfXmcqLeuw/Fwb3MnFMy0flaFxym38smJ/ozN5NWr6uRp3B/cFwftMijbs3T+eD+9mir6Hhmfdf0fOr6t3WsD0MfC8HEwZJ8zG9+cxWVTQH928EHedVX1yqkrLT6kzxsd7ZXK+KgirVN6Wo9dXLOlNmHltcr/MdwbSYq+qsq1GJfWyzu78XYpoPafmvN+t4HxL9Wf+pUOf+NsjHDgAAAABg2COkoQ1lIzQcXo3QsJ8IWnCj4FgeXB+8eLKP1zI8qx335ihn09ngvtFx1gtHzrSe1/EtRaowu7K9qlQlVW3ebP/2ebXXlGrHS1u1o+C03wPxql1+u1avK9TxhqTz4tU21Rfk6c2FkeVDradVsmlr4uOa67X3mfkad8cG7S0oVX1z0vOadfiu6kxZobYs3KQtW2p0fgAymWR9CQ1tYPjA6PlaXew2oKmYHwa+G1QRTOufNlWs26TV76fvsdq5b4MmmOddfSSYMJhqirR64R7vuHSls2yzpo/O0YQfzNfUH5h63rxMe+uCmbps6jw3IVyfOKUwHmbXFen5W+1j5mrqrbM1LmE/n1XhTPvY2XrgjrmaaB479bljjsP3s9o7ZbYm3N374NBe2/DDZaeCewAAAAAAZIaQhjaUjdBweDVCw34iaMGNInuO5SAEWRhvhTXBrG7YICYhRMtEQ55ywuAmenuQ2KFJP323l9vsSREaets/Vw/cOls/+/ErKmwKwqmgF6J3e3SOfnbvWlPPtXrs5hxNePAVPT9xrnJyNmn5r+drgnn88jA4aT+m1T/O0cSJy7V84QbNM7cnPJinM3aefS6zrumPm32Ts0gTzeNWHzHn1JoiLXlwrsbdskxLgn3mPe+tZrtsOPOSDUiDsOQHi7xlltw728w3dR/gMVR7Gxp6gWG0Hi61t+n4qgUOQ0P/eOiux2lUZ8qhbAdB8QbzehdpR0Nwv99Oa8vEHN33TGkQ5p03x5WpQc4h/37ZZt1n998+PzRX3R7z/sjRkgL7+q+qZLZZ9t49/vFs7lc8Z47bO7ar3tzrLFhr3gtmW8MA8sgms6752tLDOaj3zH570LyvehkcHs79kiFKAQAAAAC9RkhDG8pGaDi8GqFhPw110NLZUKWSI2cHZgjCwR7OrrneGw7uTJeh4rLNVdW/v0mr33Y8bOEQy57Q0A9Bps+4sUPD2d8rUnNdXw727kLDHM15Oz4waJfQ8I6tXijiqdqqqXb5LUGoYhxfOFfjZvjXQDyzboHGTfRDFF+VNtySo3nvm+W9AOgVFXtBx1Ud37RJG3b5vdyShyf1nveWTaoITrleIDN6bfBYq80Le+5b0v0Orpifar8c0/IMQrJQb0LDAQ0MA16dEo638ypZuEg/G23qZXvFTVyrHVXh8/vD0i5/rUjP/7jrce7V2MwP2/JiM9E7HhbpzS1bvYA4Os0P7vx1Pr9wq3JsLz1ze8IPlmtLVZvO79vsPSbcjsJY7z2juVQb7p/t9Vi0PfGm5+SpPrYvz6t4/nyvZ5732Hs3q8R+dgTHZrh94fHhbfcze1T4+HxNCI+ZtOuPOq3CpPNC/V/M8Rus5/gSc/tfwlDQalPhDPMan7PBtf+PErYUx4/9zl2vmOfz90d78R6tXlcV71nbfkjPm+3xauhc74PDpupL3rkDAAAAAIDeIKRJarUNOrj5qKprU8wbgHbu06Mq3NWgcynm+a1FxzYf0rFjqeYN/3bjhIYXdezVN/TyKzVJ+/Ki6ja/ozkLjkamdd8OPr1Qr2xOdzwMbSM07CcnQUtzqd6csUhT75hv2jIt35J5GOXuGmJdh7gb9OHsnPdGGShnteNfcjTuwQzrPgBD8w2EbAsNU/1If+b9tZqeItCwAcRjz2zSvCAAmXjv1viP8O1VejMMIkbPVs5LQSAQDQqjt3VZx1+KBzg/u39rbN91lvkhjP/8m/vVQ276fyjQ3/8e3OmV7kLDBfHeUYYXykRDw4SQLQiiIjWOnku85W3vQO+c5DdbDz908XsL2lpOnbJBO4rj74KUoeEzpcG9YL59XGS9D9h6mvdSasfMa00O2MJrO0anpZdpaDgYgaGVGBoGPd1ufUU7ys6r3Q79+twCTRi9THsjAd+40Qu0fNMhVSQPI9teoy32fDT7kHetRO/afmFQd+syvbnFHyrWn5YYGo67da322uFjm2q0Y4bZBruPzbTiuja11x3ThgftMkHY3FGl1bfm6IGZeTreZOeXavXdZvngPNj+/nLzmhZ5waNd35vmGJ0w2/YEvKr2XWvNvAXacsxey9Hffu/YMNswfXaeiu0/fOlh/en54fOEbo/3YFo36/IC8+4+R71eiwP5udS74LDz0jXv3AEAAAAAQG/0LaQ5qnX/Y55+GW2/LlRdymUHtp3evlMvP12o6hTz+tQ+3aPfjFqotz9NMa+H1pdtqVuxUON+sidN7Ur14qgcvbg91bzh31yEhnWvrowciws15zfbVFh2MeWyA9ca9PbEHI2bFNmXVUf1yk9m6+7/+ZbyDrYmLN/tsVJ2SOv+9zz9823rVViVNC8LGqFhP/U/aKnRBu+H0u0qLijV3oV2uL+gR08G3IWGfhCR/EProA5nN2xCQ+PqZf/H+UwMk9eVbaHhnL+UqsS8J0oK6v2Qr2yzHhi9TDvqbOGv6sw6c+xP3O71JvICARvi2ZfQcVpbzOP93mt+D6MH5pf662j1wwzv/dVNaGjDjwm3blCJV442Hf/LIk3weuD5QyI+v8sGSm1er6qcdfG+eL3Reflan66z5+suNEw8xqLBSdcQpYfQ8DmzfE6RzrfakCfSoueD9tM6vsXvlfbYa2l6Gkae9/zbyzTu7q06nrzeIEjqTjxkC8KupPNUTzKqdc12TTfrfuAl5+NQdpEQGrYWaZ553iV7ozWo15Y7cjR1lT2+/NfcfU/aFOfuIDRMCN5ThIYJnzN1e/SYfcy+4L4VCcz8UHCtiqOdY03Npo6a7w3d6Q/ruUDLC07758aOy/H9muIc6B0bkWOlp/Wnc2bTskjIGgw/mnSMJD9fqNNsmw2KvSF2k7WbOtnP5+eqBrZXeXAMTMw5FO/hmEbfzx0AAAAAgJGqb6GhH2T9bsEhFW4OWtrecgPXvNBt1HodTDGvT60foWFftoXQ0EFoaGv4P9Zrm3csFuntmc9p/LeXalsf9mG/2slWnTsZuV9Vo4NFLYnLBK3HY6WsUscIDQdUmAcOr9DQ+6F6gbbEegi1qWJV4tCXnVV5WjJxtjnAcvyeUgtLYz98Jv9In25ZrwfVuuWaGvSgstcV27DPn+v9oGofEzTvx+bkICJh6DjbAysYfs7j/widONzdIr1Z1l2PncTeXN5Qdm8n/bCcdqi6y6o3ryV8/IQfvxIZzi/K367lb0fWFe1tZvg13Kq9Znsmxnr/JA4XGK2VlRyGdFv34Md7b7pt3r7KdNsHV7aFhhNvDXujbfX2yZnXFiT0Wouy++Ox1+KhirdPvaCv1Oz/2XosJz7UqXfdPXvtM2/fdA0NS54Jr/0XPGb2Mt3nhRl+j7AJP16u1Zts762+n0dsD8MZfe4tNPChYeeRTV5Aa3uGWe37/GBlQ5mZ5w0xGoa3bSqcaY5hrwdisI5/2e6FgjY46vK8djtHz9WSXcF7yV5rzrwPMvlHEt667XsoKQzKRKYhix8gzdact7sL6NzwX0v02PPPBV2a91q77qtE3YWGicdD4rQU6wy2o7ugMVb/FM1/jDmvbQp7Apvz9Yyt8c+H7kLDyDb3vP7Uzu9d6x2bz78f32feupPOFd608JqHgc6q7f71OZekCAXb67WlD9cc7LXg+qGxa4b2gJ6GAAAAAIC+6EtI022QdaxQc76do9/8uSFyf65e3NoaC+PWvb5HC8YHv5X+wzwtWFMbWUeTCp9eqLvNOuz88f+4UK9sbYrN9wO2d7TtTwv1zzZw2b4+4XeCcTml/rLHDumV/zlb473ps/XwjD06djx4jnA71ryjR/8hxWvoEhombtM/j1+ttwsTe415rZttObf3Hf3mH4Np/2BfT75Xu9+s8GsUvqa8Fav1sNme8Dm2HQx7yiXXuoftOVgYr++352n+iiKt+4m5HWzPwRxzOymk9KaFtRvklhxC9eV47Bq8VuqV/xrWOKjfnws1/7Z43c8VRo7D7o6RNMeqV7Pf7NSuX8/T+OC5E+vYqmORfZpwLPfluDX7PS9nnjnu/cf880/eUuEQDFmbvL+GszAPHF6hYWuRnh8dDMmWKoSwP9raHzWfK9WZ1jadL8vT85GeD94PrWFo2NOyb9veGAu0uuC02lvP6/gqcz8IArof4i74oTcYOm7Cg1tVkTB03SZVeD1D/B+huw53t1YlKS7b5m2L/aF3U43Om22p37IhCDMTn6/boeq8HjBztXyvP5xfYY55rqDXWaJgu8yyS7bUB89lf2Q2dfJ68cR/rH5gylbt9Xq1BcMFjl6mDcW2VqdV8ZK/vWFvlIQfvNPWPcXQfBlve2ourvGWSraFhslBQf2q+WlDw2iIFntfdBzSklHzvdDY77UYtGPmKPKO7+TQ8KqKzYl/6jOFicsXmOPUW7PZn1Wl2rFwuabfPFtztvQ9XJr9vQNqrutLWDzwoaEVHQp23M3ztSQWyviBenjtOht6x657V5cXGyLWrrvr88ob4jX8hwVhgN8lsHGsNz2zwp5n0RDKNf+cExx7KXsaRqUI+BIMTmiYsidgVHvYY/SqOs3nwxZ7/g/PaxmEhj2uv4urXg/Difbcbs6lUV59o9fwDHoJ+z03fe37NnmfOTlmWpfjr9V83nhB3vZurqnoSHuVNgSfa5me/7mmIQAAAACgL5yGhqadfvUlr5fX2wdblDcjR+NnFPk9EL0gxnznN/Ne2V6r01W1OvinpV5AsuBNG3pd1MHfz00xf65e3uUHaH7vrBzd/4t3tG1zjU6fbFXJwufMtNXKq2rR6eNmudqjevlHZpmpe1RSZqYdPKSX7zDbEQ4bGW7Hj5Zq3ZoU1wpMCA2DbfrRSr29t8nbpsLfd9OLLdW22HV9O74tdYX5evE289zm+RNCQ3N//KR3dNDU7PTBUr0yydbJrMcLjKK17mF7gtc+/o43VBisa90vgtDLYWi4b/F67esyvVwvLi5PmtZzG5DQ8HiR5tsav2JDOr9+4779nF5cUaSDn0b2y8x8HQv2ywJbt+RjpNtjNaiZuf/wzD3KC3rZRutY94pZ3jzny5vt45tUsmKl7g+P5T4ct/Z9Nc4clxsLzbyySi8IHj/zUGa9e4/u0YtvnO4y/Ys31uuto4nTemqEhv3kImiJ9lKb8IMFmvdSvHfg8SXmBHHH9siPn2b5vTaE8n9cjf7Qn37ZGm24JfFHU+/H3dY2tXs/0qb/4dlfzzLtjfUsNJoLNcdss99LyP8ROtVwd12viehvy30L/d5JoTPrFpjnSPMDdXSoOq+H5lzNe61G5+0yV+1QeN33NJz6l+jrlur/Ml/jbtms4+a2V8PRkSDOC5pyNGdLtPeTf80sv/da4g/ePe2jLj+YZ7ztqbi5xlsq2R4axocntXdsYLBcUx/c49Xd7o+UoaHtCWf+cLE9ibzf/q/Wa8sUG4CZd4x3fAc1i9y2x96EcKhT8zz165Zpqh2q0xy3b949X8v3+seFdwyZD4i+Bl7L/6Vcn747cMGUK90PUWzOH9H3Z2+1D17v2t4O5zjQwWFCaGjqWDHfnEO8awleNvUO/0GHOWd4x3pPoeF57bX/gGNmoTecbJd/8BFKmNb70FAd5jHmvP3A7EM6Y85Xnc01Xk+8cffu8QIv/5xte5ef915D8TOR8+KRTeb1zNebR8JgMUWg3MP6E102590FZp3mvT2/0Bva2w/3q3TGHpPNRZrn/UMOP/zfa68Raf/hRjDMqX/tyhz97Nf+sODhPw7wrv1YV+T9o49x/7hcb+6Nzyup6rk3bK/0ITC0Dud+qeX3lAf3AAAAAADITH9CQy+MClo8QGzQtkk5Gn/bPN0fC75MC4KY+a9He+m1Km+qefxDhTpdW6QFZv7v1kSHc2zRtl8E8819Lxz6duKQjn7oFp/mhyvmeWvjy7QWbdMvR83TxiJzO9iOVIGn17z5QWhY5f/GveDNi5FlarTxf+TolwtrItP8lrwtJX+cq3H/9S2VRJax2/KwWWdiaLgyXifbgtBrzqu2FpHQsIft8V/7Um2LBqG1h7TA9kp0FhqW663H5unOn0aDw3K9+NNfJk3LrDkLDb89O3Zdw/v/wR5/b+hgJHQN623bsYXzuu6XvW9p0qi5emWvud3TsWrup6+j39Mx8Ri56IXoNkOwQV9vj9tzm1dr/Kjn9OLmWn8I1NpWna6KHgfdty/y1utRs38ejQSHX7xh92HitEwaoWE/OQ1avGuEbdL00Tl6wLseW/DDqjl4uzb/h9xoaJh+Wf9H4oTeSQnSh4aJP3KHouvM8EdoTzfbEgnX/OdLfh1+C9d3ft/mWI+ln92/QXurug8Nu2yD91z+64nW0NPNdnv1jdY6qFVP+yhVL5vMtr178f3hv76E/dZH2RYaRmvp74urOrPllfjwupEebnYfpA4NjfYqvXlvvBv69PmH/Onefg6O6ejtYOjcsCfdxIkbVByE5baXnL2Gn7eum5dpR03fzyUfvHhSr8+oDu5hIPXlGnCdxbYn2sAEh13Pp2dVmDM/3nvTDu18JAypujmHRXQWb471CvWWi5y7YxKmZXi+Tl5PXVF8GGbTfnb/1iBct5J6oCYMT31We38dDA+d4hwak3b9UeY97Q1dnNzMOaHJX6KzbLvmBeuaeOuyyPDS51X4eKrH2lDTzH3fnGNSzJv6UuI/cumXIDCcOKV3gaH12r9V6cNlp4J7AAAAAABkpi8hTRjELHi9RadtTynTEq7llv+O7jfzH14SGXo0GsaF00zzwhMbvnQT5kXDmdiykfnJ4Yt/3//9ILl56+5mO2ItOj/YplTrShWyJW9LqmApOcRK9Zps8Pr2T8JlIqFhD9uT/PzRdbkLDf3mh042JAwCwz70MrQtOYTqy/Hove7YNQ1N2xu9vmakfsG0lPslevx1c4xE91WqmsWn+c+Zcj8Fj0/eV/79FMub5m97dLjT2Xr4oXd6OTypv59sSOjvu3m97mVoW/L+Gs7CPHCYDU96Ot7DIRANp1L1YouKhiPpl3XR0/AVFUeHams/pOfNAR3tadjjj9CePvY0jOqI987rbK5X8Xzz2JRDofrblfi6U/Q0DAMmK+hp+PyuaJB3WcUzTX0y7GmYIDk0zHjb0/ODh6R91g/ZExqODGcqL+qx/1wY3MNA6ktoaHUWb9XyLaeDe4Ohn703B8tVs53Bza7MvG57p2Yo7fpvAK1VenN+7wNDa9Z/KtS5v/XuH5kAAAAAANCf0DAaxMRbq9ej6p//YXZkiE3TglAmsZdc156G6Xp3RUObcJnk8CVlj61o6yYQSjk/Zc++7lvytmTe0zBpe3vV0zDeMupp+Htze+JOVYfzG1u066H4/N60sLdaXwND25yFhskhYKx1PVa9nob/4x0diy5X+I5+mdTTsNtj1dxPHxqm6mmY2Hp93B634bzdnos6d7BUGx8yx9b4bZH9mEkLe4T2LTC0jdCwn/ofGgbXNPSGZGtTe90hLbk1EqgFwVvOqhqdb7+sznD+M/6wiAmBVw/LeqHc6GXa4g0fd1n1by/3rq3nXdPQrCHtEHfJ1xhsqtGWKeZDIemahpmFhmHgFV5nsE1nCvwelrFwraeh6oLrAi55/7T/WtbZ9aUKGf3tGhe7lqN5rl3+9RMTrmkYDQ3tcIH2moa3vqIdplbe9R/X+dfO6vaahmnq3mVovoy3fXARGg4+O0Tpx68MZig1MvU1NASyScFfGhiaFAAAAADQJ/0JDaM9DcOhEs+9uVrj/+t6FVZV6pUf5WjSb4LrrgVBTPx6fE0qWbJU/2zXE72mYZf5Sdc0TA4NX1kqO7znLnsdOO/acGbb/qu9Xl2Rqqtade5YpTbaawT+JAjKehMa2m3Ksdu0WnkHzbqOm21aaK9tZ+YfTHqcaV22JXjN4bXzwuvU2c4eiaFh5Fp2ZWZ77XUIu7umYbrtCV577PqIZl1vTzXLm8eHAZc/zOVczV9T4+236tdXe71C+xIaumhDERp6++XbOXr494fMMWL3S5F3rcmu173s7ljtKTQMtunbS7XRPP7c8dagznP14lb/8b09bv1QcaHWeetrUt5vzH79H9sSg89BaISG/eQiaLFDHoZDVXrDJ+YU6kxkE9PNTw680q+rTRUvLdLPguEdx91sr88Wj8p6HOKu+ZCWJwwdt1klsR6SvQsNk7dl4sS1KnwtqUde2qHqLqt+U3yoSvtalqQcRjDYrrej2z5bjy2MXzeya2honVfx/MThAuPD23UdWi993ZOH5st02wcXoeHgqyq4oCf/yz79/e/BBAwIQkMMd52XrnnniuP7OE8DAAAAAHqvP6Gh/3tn0Gxoc/yQF3z4PeTMcnvfigclQRi37vVtmvOPwWO+PU/zV9REhpJsUl7OPC+csfPH/+NCvbK1KZjXTTh0vFSvjA9+2w1DnIOFWhBOM+3u//mODlYFyyeEgilal/kN2jUjcZvW7YpedzHSUmzL6V3v6Dfh6/2HeVrw6k6vdonDk76jbX9aqLttj0D7HLet1NuFYY/L5NCrh+05mB9/7d+erd/8KV/rIsOT2h5zJZHn+mfz3K/YHnRJAdhgtSEJDU07Vxg5DkfN1sMz9uhYQq/Y9MdqT6Fhcp29fb8mMlxvb49b894ofHph4n7fGx4jg9cIDftpUIOWjl5sdw/LdvZmXcmcDh2XwXB8PTxf+qHwksLMXr/u1NuX8npcVi/X3+9h/BwiNBwaG/9PtV6b7vB6aeiC0BDDnb2W4caZXwT3AAAAAADonb6Fhn1oyWFcrd97MHW7qHPdDdPYm3bSrCfV9D61fm5T2tcbtt48Rw/LZvR8Q99chIb9aqnq1Ktjted2rrePT3vcmnm2Z2LKeQPfCA37iaAl26XoAdlvV1Vs/0WBo2sJZguO5aFxpeO6/n3sEX2w5GQwBa4RGmI427O4Xs/eeji4BwAAAABA7w1ZaEijmTbkoWGqxrHabSM07CeClmznOjT012e7B897vy2YdmPgWB46Z6ouavb3irR36algClwiNMRwZQPDf/2/83Xub5eDKQAAAAAA9B6hIW0oG6Hh8GqEhv1E0JLtrqqztU2dzna5v7721uwZVtQVjuWh1VR1yetNZIcq5RqHbhEaYrix1zC0Q5LacwKBIQAAAACgvwYvpLmo01WtDocLpd0ILStDQ47VbhuhYT8RtOBGwbE89OxQpW88Wq3f/j/79fErp4Op6C9CQwwnBX9p0JP/ZR/XMAQAAAAAOJMdIQ1tpLbsDA1p3TVCw34iaMGNgmM5e1QVXNDyfynXY/+50Ot5+Om7Z9Vcd1l/pwtinxAaIlvZHoVN1Zd0OPdLr2fhrP9UqOX3lOv4Ps7HAAAAAAB3CGloQ9kIDYdXIzTsJ4IW3Cg4lrPPmcqL+uDFk16AaK95OOM/FOi9ebVeCEbLvC0cX5JyOo021G26eU/b97YNCj9cdoqhSAEAAAAAA4KQhjaUjdBweDVCw34iaMGNgmMZAAAAAAAAuPEQ0tCGshEaDq9GaNhPBC24UXAsAwAAAAAAADceQhraUDZCw+HVCA37iaAFNwqOZQAAAAAAAODGQ0hDG8pGaDi8GqFhPxG04EbBsQwAAAAAAADceAhpaEPZCA2HVyM07CeCFtwoOJYBAAAAAACAGw8hDW0oG6Hh8GqEhv1E0IIbBccyAAAAAAAAcOMhpKENZSM0HF6N0LCfCFpwo+BYBgAAAAAAAG48hDS0oWyEhsOrERr2kw1aaLQbpQEAAAAAAAC4sdgQgEYbyhaVaj4tu9qNIswDBzU0BAAAAAAAAAAAAJA9wjyQ0BAAAAAAAAAAAAAYocI8kNAQAAAAAAAAAAAAGKHCPJDQEAAAAAAAAAAAABihwjyQ0BAAAAAAAAAAAAAYocI8kNAQAAAAAAAAAAAAGKHCPJDQEAAAAAAAAAAAABihwjyQ0BAAAAAAAAAAAAAYocI8kNAQAAAAAAAAAAAAGKHCPJDQEAAAAAAAAAAAABihwjyQ0BAAAAAAAAAAAAAYocI8kNAQAAAAAAAAAAAAGKHCPJDQEAAAAAAAAAAAABihwjyQ0BAAAAAAAAAAAAAYocI8kNAQAAAAAAAAAAAAGKHCPJDQEAAAAAAAAAAAABihwjyQ0BAAAAAAAAAAAAAYocI8MKtCw+vX/66LX3fowpdt+rL+ghpPNOt0DY3WfbPHiD1W7DFjjx17DAEAAAAAAAAAACAzYR6YFaHh9WvX1Xqu3QuBmmpbdba+TS2nLqq18RsaLW27cLrDa+dOtnvHjj2G7LFkjykAAAAAAAAAAACkF+aBQx4a2t5htreYDQpThUI0Wm+aDRDtsWSPKXtsAQAAAAAAAAAAoHthHjikoeFXzRfVeOI8vQppzpsND+2xZY8xAMhWF89f0cerTuuv/+uY5nz/gGb8x4807Vt5tCxodl/YfWL3jd1Hdl8BAAAAAAAAN6IwDxyy0NCGOXY4yVSBD43motng0B5jBIcAsk3r6W/0xqPVXji16n9X6MBrZ9T4+UV9c/FasASGmt0Xdp/YfWP3kd1Xdp/ZfYfsYT/naTQajUYbbg0AAADINmEeOCShoT8k6fmUQQ+N5rKFPQ6zZajSAzsqtfBf39Gv/mmJ7vyPT2vcqJwR2+zrt3Ww9bB1GSwjdR8MVb3Rle21ZnuxvTP7hNrO0XttuLD7yu4zu+/sPkR2sD+81lWcpdFoNBpt2DRCQwAAAGSjMA8c9NDw+rXr3vXmGJKUNljNDw6bvWNvqBTklnuBzSP/fYXeXvqJvig5rUttI7u3in39tg62HrYutj62TgNlpO+Dwa43Uns7p0bzxhxS7eGvgykYbuy+s/vQ7ksMvTA0BABgOCA0BAAAQLYK88BBDw1bz7V7fySnCndotIFq3jFnjr2hYHt2Tfl/l+rAjqpgClKx9bF1svVyjX3Q1UDWG6nZkOnFO0sZgvQGYPeh3ZcEh0OP0BAAMJwQGgIAACBbhXngoIaG16//Xadrmr2eX6mCnUza6aJDevtPb+jlp0370x4VFrWkXC6h1TXo04JD2h9rlaqqddvT8cSWhcpZsEcnUswb0HZsj57PWagdx1LMo8WaPebssWePwcH0h//5qp596K3gHjJh62Xr5gr7ID3X9UZqdjhL2zuNwPDGYfel3acMVTq0CA0BAMMJoSEAAACyVZgHDmpoaK8r5/X4ShHq9NhO1mrb1Lnetbnuvm2pFjy9Wr+7bbbGm/v3T81X9ckUjwmbF6zN1Ysr39Cr60xbsVC/f2q2XtzakHr5PjRCw+xv9tgbzGsb2h5chFV9Y+vmogcc+yAzruqdkYHOzLIwk2s9/Y13HTyGJL3x2H1q963dxxgahIYAgOGE0BAAAADZKswDBzU0vPBlm86dbE8Z6KRvDdo2KUfjfrRaeWVJPQTLirTgRzkaP2mP6qLToy1VsLb/LT3z1Grtr4tPa/miRp/u2aO33srXpyUtagmXDdupFlXsK9KO17dpT0Gl6k7F58VCw7oGle3YplftOkpT9IKMrmNfjU5H1tFSflT79zeoyVtHoT49HsxruKgTxYe05613tGPPUVWF020LX1u5XSZf76yz663V6YbIMl3WUWm2MzLP64l5VCdq/XXk7cug9+YwbPbYs8fgYLDXirNDP6LvbP36c8099kHv9LfenRcvqf3roHWTzTcdflOP/alQF4L7XV1R2ZrZenhzfXC/D1oKteCFPNVkUT73xqPVemf2ieDeSHNWxS/l6XgGo0Of2btVO8ouB/fSadPxTdtV3BTcHWJ239p9jKFBaAgAGE4IDQEAAJCtwjxwUEPDL+sv9Glo0nObV2v8t5fq7YOp57ce3KPffDtHCzZ3M+RoqtAwaVpT4Xo989Q8LXvF9kZcr2V/zNHvF+/RiTB8qy3Vmrk5+uOL673eimtenKec3y/VjnJ/vhcaPj1Pf5y7UH+1vRlfeUl/fCpHL26J9GbMZB3zlurFP87WH+etVN7nZnpDg3YsNNuyYHWkl+Q8vVoY9Nj0Xsdc/fGPc/X8ivi25yyMbHtG65inFxfO0+//OE8rdjb502+wZo89ewwOhl/905I+XD/vqtpb22KtM+1b76z2/nq+luzqQwjaUKh5P16r4rTfVa/qfMFm5cwo1PlgymCz9bN17Ku+7YNQuC8yCTBuDP2r9zm9l/NL/eSXv9VD/2bawzN0zxPvqPJiMNuofO15LcmrV3sPPQEvlOVpd82l4F4fXajRe4uf16aEy81VavlPX1NZcG+wXDx/RdO+lae2c1eCKb3QVKTn71irwubgfpLjf1mkqS9l2XU6a4q0el2VYhlhq3kNN8/Xm8eC+91qU+HM2Zr6Fz8wbi/eo9Xvdx32s7MmT8/fvUBLzM4dmqvUdmX3rd3Hdl87de1KPIg3rZORbVMiNAQADCeEhgAAAMhWYR44qKFh44m+XM/wovJm5Gh8TmmKefF2MCdH435zKOW8VKHhiS1LlTP3LZXZYK3ukP761Fxt3B8JHRsatG1Bjl7cYXvdXdT+lTl6ZlWpmsL5plVsek45Swt12tz2Ar+nVuuj2vj8pgIbRK7XQS+8C9ax/mhCD8YT75jHLc6Pr8Ns57YgRLSt6i3zHNEA0LSmvauV87TZdnvfe205+uveyLCvtYe05ukcrSn073vrWJqvuug67LaZdXxqpwXreP4dd8O1ZmOzx549BgfagR2VeuS/rwju9UJDnnJGzdYDd8zXVNt+MFuPvVSlzmB2oquqfz9PJX15OR31KtxUGoSBx7R81AZVeLfjKl5apuVbhv5HeVtHW8/e6vM+sOryNMfUPidnk5bcP1sTf7xJFUEhzm9apJxNvfhxuniDxs3vMS2J6fX6HetrvcPQcHkkkavZ+Fvdsz5M7a7oQk2ldm9+X7uP1utCLPy4oqaj5appuaSTh/O0r166UFuusjN++OLfvqSm6kJtWmUeW33Om65r51SZ977Wbz+gyuRydZp5hXnaZOc1hCGOfZ739bufPq9Nh8t1qPYr8z44p7LDZlu+btSh7Z/qZLCkLtSrzKx7U16laiL/xuBCTY2a+hDa2Ovdrfrfye+wDHnnhBw9sCQh/fR1lGrJaPO514vja1DYY/7evH7/YwP7Xkj12trNfjjv7s8SZ+w+dn5tw7N5euynD+sXNoi37YEZemRj9oSl2YLQEAAwnBAaAgAAIFuFeeCghoana5pThjnpW4Pe/kmOfrMifaBVt2Khxv2kmyFKg1DM9qL74zzbG3C2cv64Uns+C0LCwvVegPjp8RadjrSyWChYqjU58/ROSdJ6bQuCuNjwpAnzDpnHhWGlXcdcbdyX+BynD23Tv+e8pLzjqdbRoB0LbCDYTQ/KWOCX1IvStP2v5Oh5r5ejv45l7zckPu/xIv3Vbk9x9+u4EZs9BgeavTbc20s/Ce71ghcQRAO8er15x1xtsEFMc71KjpxVe1ON9r5ve/Fc1ZkjpaqPvZyraq+q0t51W7VjV+KP6u1VpapoaNP5skIVFreZd/9ZVRTUB+vYqjmjluvNglKVVIW9Fq/q/DG7ru3aW2yWG8If6G0d+3KtvT7vA/Pai22AvivsYXhZFQsXaZ4N8sw+2PvMfE19plAlBVU6Ew7B2XpaFVu2a8uWKrM/rqqzocrU2xTN1vkvyzXu11vN8sG+svsxVmefv3/M8t2tfxD1td6pQsP2ghd150obQF5S2crf6qF572j34XLt3vi8fjHlNZV5vRD9x/1iymw9svg1mcPSLPtLPbbdDwft7XumzNXTGwt16HChlj/2sH6x5n298sRLeqewXAXb1+qR++bqnXA00zN5euyBuVqy/YAOFeZpiVneX1eK0NALZGbpF4/M1YJVB7zQsL3sNT308Itan2eWyXtHv5syy7wm2+uxXuunPKx5+3vfA/Kv/+uYDrx2JrjXS0FoOOHmtSpJOh5sqDYhITQ07+ctazX9B2aaeczEW5dpw75IdNdcqg33z9YEM2/czfO1ZFN9N/8goU0VLy3Sz+y67T9imLJVx3clBYF1hVpyd7Cu0ebzdGHwjxCC7bXP7zVv2+w/TFikHQ1SZ8FaTZi4XQnVaC4056C1Kjavr2J+jh+a2+Axsp5YkN5apTfN8TDRTjfPOz0nT/WxBO28Ssx7NdzuxHkDz+5ju6+d8o7RSO/Ya+Y4/LcZeiU6Emo3IbfVVH1A723OU0H1uYReit1NDwP39ZsLVVYfOdZtwH7ULBvctTrPVPrvIyMa7hccjT+uqdq83+0/FDjcNXC/UJvqHxEY1y7p5NFCbbLbEKy/J85Dw+tfqvJwhcISfH36hGrP9f69n5GOL1X7xWlxtVMAGDkIDQEAAJCtwjxwGPQ0bNGuh3I06Y+VKebF27GF8zTuIb/XX5f5Xij2nN451KLTxe/o3+3tSAB4eudLynnKDgkahIrR9nKh6o4XalkPoVrK0NALCoPHeeuIBJcJzR+KtOs6KrUx0mMwZesm8Du4KgwN/XX8fm6q552nt/Z3v44bsQ1GT0M7xOMXJX3ocdIlNGxT4YwcLS82N+2P6LfM1dSJy7XcG/rvrHbcG8yzwdZz8/Wzezdrb0Gp9r60XFN/sEx76+w8/4f4+26dr+m/3qAtNjSMPU+q0NCsa/58Tf311mBdy/TArWbZTH98N9vpb1OiivldezNmwtaxL0Nm9nkfBKHhnLdT9JNKFerVmVrePF/zXjLTduVp+f0L9PyMBX7IkSo0TNHzMBaU9CU0NPtyeRioRJzftMELaXqrr/UOw78FhXYYxXOqOZqnBTZwO3pFqn5T9+TkKXr5uZNbZge9EP3H/S4vHg50CQ3XRHrZXSjU7376W8U6MBoX8p7XT1b54WTBvBlaXhYZIrLjUy2Y9KIKvF/kk4Yn9QKZ57U7FrTU6JUH/qT3ouVs2K2HH3jTPLLv5nz/gBo/j4zT2hvBe3XDwrmasyUaNldpwy3LzPR4b7z295drwsTNqgh/g2o6pCW3Bv/owBzXJbPNcbYueE+0lmq5OZ+kGjL0+JK5mvDgdh1v9j/7249t15ybc+KhYXOR5o2eq+X7gu25elo7Hoz0huzS0zAeGvrbPV9bIvvPCz9nl3qBVOy9EExPfK/UaIN5PfPeDt/XbTq+apkmzijyet55geS9e3TG2+w2lTwzVw+8lObamI7PVXYf233tVHJoqCvatzgezncfcpujff0s/eK53So4fEDvPGdum/eIrXF3023g/rsHfqt5W4LA/YkZesjM8079djuS3sNN2/8U/KOAMNz/rR6et1bveKGh/YcCZt1zUv1DgXT/iOAr8x5+WI+siv8jgcd2Bb2L0+hzaNhSrcK9RdobbZ9Uq+VrM31XkQ4H59Caon3K+8zfjq//VqGDn/fxHwGk0lyhvJ1l5ugGAIwUhIYAAADIVmEeOOjXNGw51U2vuTSteslzGvdf31JJinl+O6pX/mua3ohJoVjZa3P9IT/D+cVvRYYRjbeWEy06XWu31w/e/pqXtO1Vldr/cW18aNF0oWF3AWBdq04fb/WGLO26jhblLc3Rv79Vm/iY2lp9WlCpE6fM7R5DQ38d/u3IMqeC503TW/FGa/bYG4xrGt75H5/WpbZvgnu94AUE9lqDbWpvqlfFprV64NZNqrDhkRcabtZxf0kjEhqWbdZ9E7cr+vN45961mhD8mO6Fhgsj1z1LCCeThie160oaWvDMugW6L9XwiClU2OE1R4Vhps8+v+0tlOoH+p7YOtp69laf94FVV6TnfzxbP7t/rbZsqUkI7xKHD/VD3SV7o9c9rNeWiZGeUckhYbrQ0Ehcf8/Om/XZekcf44UtSdMy1dd6h+Hfw396TctXmfZang4F3XS8cOGRF/3pYfvTbN255FN1puihmBwahrd9NvhLCvbKXgvCCztvhh77c+R5Vq3VYw/M1jvej/+pQsPk+7P1dHQ7V72oh3+6UvtSd8nLyIz/+JG+udiHcU2t8L1qe+NF3v82IJs4u1T1sWDtvPY+2PU9dua1BZrwnP/et8fZA/NLYz2HO1NeN7VKq0cnhnpW+5ZlsSDw/Nvmds6hhF5nXg/afaf9gMke492GhsH5JHY+Om3eL2Gw2fW9kPBeObJJE5LOTVKpWfcy7bVplnneCbduUEkQdqrjstrTdJN2fa6y+9jua6e8Y3KlCoJrGp4sXOkHbN45KV3I/ZXe+/0vZd5ivq8r9c5625u2u+k2cH9YC6I9aa81atP/CXo1ZhIaRsN9+w8F/s/7Ohk57GvyXtOmT7/q4R8RmPfopLl6J8zk6g9o+XtBcJlGn0NDL7ArUeXXrfo6bO2XdD2YHYqGhi2fFWtnUa132wlCQwAYcQgNAQAAkK3CPHBQQ8MLX7bpbH1bykAnbTteqhd/lKP7cw6l6EnYosKcuRr3ozd0MHI9wYSWHIrVFumvT0WvA9igHQvtNQvN+m0QZ6a1lO7Ui0/N1av7/KDwxFZ7DcT12n88WMfxSr1jHvPvm2r8+T2GhpF1fBGEj3W12mafd51/ncNU62jZ94aeeWqptoVDqZ5q0kcr5ypnRZF/fcUeQ8PIOkrDdbRo/6pIcDpCQsNzJ9u9Y3Cg2R+d+8QLCBZo3sJNWm3am5tKVR9+n+zyQ3w8NOzaI8eIBIPRH+I9aUJDb10Tl3vPH2szFmhc0BMoI976/W3zf4SPhJJ90Jd69nkfxFxVZ12N32vz5vnacMQ/DyaGeolhSKh+1fz4MskhYfJ9IzkoSdhXGbHb4a/D238ptqk3+la7ruFfyBumdMkBL/RIaF7w4TI0tCHKXG2qSXoe0/whGHsIDb8+oKcjAU28RXou9sG0b+UFt/og9l61PQVna0mBPQ5t0LbAC/bi733/GLD7rkt7MDhvtNdr73w7fKcdcnSDdhxJjN88CeeGiMj5p8v5JFmXc1XS+6Rmu6aHAai9HRmuNPm9EH2v+Md2itdn2uojdonLqt+yQTk/8IdmXb6pKilgTMHxuapf+zqVSJD99CO/1D3P5elkOI5lDyF3++fv6JEHZujhP72p9w43qj0I8FJPT/G+MmLvvwxCw+j7NDovWfp/RGDmF7ykhx6Ypd8tjlzDtAf9Cw1TBXa1OrCzWGXBwASx0PBEmXbu3BdrYZB4palS+z4Mpu8q0kcHT+hCmDwGwWTZ5yXauyu+zpikbUi7rustqjl4SLuD59+7r0KnUoya6gWb+ytUsc/8P69CLXbi9VbVHjaP3eU/dveHZpsawr+H2nTqM7t9wbx8sz2twd/+aZ8z8XE79xzSwZqWIHQ9p7K8fTpwwrsT0yWATdrO6231OlxQ5K+vy/Olr8/11hM6mB/OK9a+z04rRXkAYMgRGgIAACBbhXngoIaGF7/u8P5AThXo9NgO7tHv/iFH4297SevWHFLhZtPWvKM5t+Vo3LfN9G8/p1diIWBSSxGKeUOSPr1e+8OgsbZGO16ep5ycHL/9fqE2FjTF19HYqk9fX6jfPxXMf2q2nn/9qE6nu6ZhUmho11GxZaX+GK4jx6xj/SHVpV2Hmb5ztf74+/hj/rgiX1VBuJlJaGhbXcFbej62jhz98eU9qghf+wgJDe2xZ4/Bgda/nobd/GidJjS0wxKOe6Y0mB6o26PHgh/mu/zIn/A8iaGht67Zh9RueztGW28vbBj8GN/fH+GHoqdhcg+szl2vxMKLxFCvRhtuWaAdwTCwoYR6pwoNk3ppJQclCfsqY2Fo1L/AsL89DVOFhrpwQE/f96J2e79cG9fMsr9/WE8X2CFJXYaGZu76WXp4fU2sZ5IdvvEXU95UZSwYWal94SkgOTQMhkZ8OjJUqg04fjLvgGz/5As1Xa/LlgknPQ3t7bLNesCcA87Y3sBTCr3XGA/WosMVR7Sneu/a658WRoYujTLHUU89De1zJp9vrl4254mgx21PoaHatHdKjheA2qFQp4dDphrpQkO73q49Dc1rMc/b5R802KF+Z8+ND5majqNz1cD1NAyO0eo3I70MjQxD7s6GGu1eNTd2HIcSp/uBe6yHX+DQn39p3qeX/O34t/e9636G0oWG3j8U+HN5cC9R+n9EELh2xbtOojd8anQs4m4MWmhodOlp+FW1PjLLHjTb4GVXV86pcl+Rdh865d/3nmOf9hadUNPXbfomDABD0W3oYV3fVJdoZ95RNdldfL1VX+w38w6fsksm8LbRrOfAF18GPSevqv6QWfajSv+x9n1z6qjydh1RhT3dnTmqvbtL9IX3936nmkrN4wurvessdv+cV9X4qVku/6jqv7LvwGCdO4t0oNZGdRmGhtHtvH5KB/eY+WVn5G2meb6aoiLt/MjflvT1uaQv9pnHlvqPvd52Qvt2x4eYBYBsQmgIAACAbBXmgYMaGl6//nc1njjfh+saBq2qVnlPL9Uv/9H+wJej8f84T7/LyVdJVYtK/vhc+uAw09Zw0fwRnzQMaUIz84PhRFPPz6y1nOj9OrzHJA2h2tvWYr6g9Hcdw7Wdrmn2jsGB5u6ahhFpQkPvGmM3L9OOuvC9el7FOXM1fZU/YGnPoeFaFYc/2HrrWq69sd4Q5nkenK157w98D81UhuKahvbab2Ht7P36vyyIBRs2yJgam+df/80b8jG4b8Nae/23hNAwGhLaYSZH2yFog/veteUSg5Lo+gdbf69pmDI0NNprduvpB2boF//2W/3ivof1yMYw2HMbGuraV9q3fLbueeC3eujhGfrJwy+pIBaEXFHZ+tn6yU9/6S/fJTQ0LtbrnXkzdM8vzeN/+bB+8sQ7qvSutVav9VMe1rzo8I0ZcnFNQ/+9asM2c7zdOte87/33ejRYs4H/xAfDa/oZ9ti61Q/nwqF0c14LC3feD+72dv18969pGFmPd21E85kbnn/sNiWcb4LrB4YBnQ01E4ZSTg4N5Q+vmrPBHPvLIueaxHOV9w8YgnDU51/TMHYtRfPePPPaMk0Ieip6y9trGvozUw+jOoAG/pqGl3TozzP08FuN3r30Ifc57f7TXK3/PJhx8YDmTbLr6W66H7j/YmV5vEdizTt6bNJK7bOH7jUbKs6OX0v0WqPeMe/b7kJD/x8KmPdpuDOunTPLB8OfpvtHBJ2VeuX/rFRBOM9sw0O/z0sIO1PpX2i4T7tj1zT8LBjmO/PQsKX8kHc/IQs86weB3lLec5SoJjksDEVCw57Wdd32dNxTpi+8kM7c/6ZNX1/ueoT7PfhORNaT+Hp8V1Wz37yuclNsbxsOqawxGJr1SntsmNbun9Ous0gl4eEY8J77k+P6JtPQMLqdtea59h5Vwio7vlTtF6fUYp4yfX3M6zHr3l10Qn5uflXftLfqkncbALILoSEAAACyVZgHDmpoaLWea/f+SE4V6vSvtboLDmk3XPOOOXPsDYaF//qO3l76SXCvF/oaGhqdVds17wez9bMfz9cD5v85C0tjy6YPDa+qYsl8TbQ9bYLwIVzXA3eYdd08W4+9VDVoP7wns3W09eytPu8Dq71Kb95vannrfE29dbamPl4UCyLUUGhqE+3Rd1aFj8/XhJvnauqP52q6WbbktUhvwY4qbZg42/tHDuG+OvP+K5pqh4g09Z16/1ZtmBnZP13WP7j6Wu+MdQzSL7jXrqizPwetfXwfOwcm++v/OqYDr8WOoN5JOifYsC0MyazE3niXVb9uuT/86B1zNfHm+VqyJRKc1xVpiTkWJ/zAvq9zEo/rBOaYzvHPCT8z54GJ925WyduJ55/Osq3BMKDzveebnhNd11nt/bV5ntg5pWto6PdozNGEpGGPE85V7cdi753YtOZDWh68hqn2fGfePxWx39yC7TbbY9+3E378igqTegEPJLuP7b52KjnYtoHbpD/FewR2G3Lb0C8S1D/wW80r8IOa7qaHgftP7pvlBe73PLJS79XEQ3JvWNP7HtY9D5vn+j8v6ZU/z+0+NDTs8o/FnmeGnt5SH+8B3O0/IjAvcf9aPWzmPWTm3fOADTh7Dur7Fxr2r6ehnRcOpZnYDumoDT+7fY5AZH6P67LDgR4tUd5uM23PIR34rD4+dGlE8jb6z5G8zqAdsMtd1YWaz1S419zfXazCw8fVFCt7N8/Z3euyIaM31GiGoWFkO7tsd5Ie63PptI4W+UOp7i4oUVltOFQqAGQXQkMAAABkqzAPHPTQ8Pq16zrzt/NqOZWuN19fWxgcvqRdN/hQm7TMmz3WGk80e8feYDiwo1KP/PcVwb1B1uHw/doeDDc4hGwdbT17a/D3wdWEIU2Hq77WG937eNVprfrfKf8pwIDpTHceuGqO1eBmehkc0y7PN72R9jWYeQM/CnUXdh/bfT0k0oXc3QX1aQL8fgXuyTrT/EOBdNvQi39gMJShYXg/4a8L21Pv63Z/iM1ehIY9riviylenVREdBjWiS/h2PXVPQ9sTr/2bxPfw9W++9K59GBsSNCLhOcN1JpX966PmsV5Pw0uq/GSfPvo8+qN4qyo+6r6WXq/GvAolrPK6Hb7WH9Y18/p06uvT1dq3p0gHT94AH8wAbjiEhgAAAMhWYR446KGhZa8r169hStO2VtWV0dOQ5jd7jNljbTCuZRhlh3g8sKMquIe+sPXr21CZPvZB7/S33kjt4vkrmvatPLWdyzwEwfBi963dx3ZfY/ANZmj49edHtLOgMh6o2evs7TqksqYgaQ2vw7fvhLyr6vYiNOxpXd5z21DNS82u6oIdrtML6BJ1CQ3Nst41DYtOqD1I3K402ectVonttXryM+3eXaKwY+mV2jLtDoYJ7f45k6+TaB7XctwL6vxrGpr9Yq+NGF4P0bjUYK952H1oqA5Td/v4muCahQqurxi9pmG39QkCybIv/cdeb9HRgn0qrOq5pyoADDZCQwAAAGSrMA8cktDQ+qrZ9v4aqOCQRvMDQ/uFzB5rg60gt1xT/t+lwT30ha2frWNfsQ96p7/1RvfeeLRa78xOGqcPNwy7b+0+xtAYzNBQl2p10A7jGQm/bBj2kTd8Z5F279qnvfviQVqvQkMj7bquf6mKfcXec+/eY5bZe0QVZ7v+jd41NDSut6iyKPLY3Yd02NTND+faVH84GNbTzttVrMN1wbVD0z2nWWfNQX/eTrOt9nEHayJDgkYfa17T3k+qVWavo9hdaGhcP1utfd4wqf7r353/meojuV+6+iQ/1j6fH3YCQHYhNAQAAEC2CvPAIQsNLYJD2kA1e0ydrmkeksAwZK8N9+xDbwX30Bu2bi6urcc+yIyreiO11tPfaMZ//Ei1h5MH/MNwZ/ep3bd2H2No9Dk0dOz6N5e6DCPaV+nX1alvkoYVzVy6x14187obmzbd4zp16bLLMW2NK5e8IUm7k7Y+PTwWAIYaoSEAAACyVZgHDmloaNlhI+01Du0fzoSHtP42ewydrW/zrmE42EOSpvKH//kqoVUv2XrZurnCPkjPdb2Rmr3e3bwxh/TNxe4uPofhxu5Lu0+H7FqG8GRLaAgAQCYIDQEAAJCtwjxwyEND6/q162o91+71OrR/QJ872a6WUxcJEWk9NnuMhEGhPXZs70J7LNljKlvYHlx26Eeur5eerY+t00D0eGMfdDWQ9UZqb+fU6MU7SwkObwB2H9p9afcphhahIQBgOCE0BAAAQLYK88CsCA1D16//3esdduHLNn1Zf8HrLWZDIBqtu2aPEXus2GPGHjv2GMpG9lpxv/qnJXrkv6/Q20s/0Rclp3WpbWQPZ2dfv62DrYeti63PQF5Tb6Tvg8GuN1KzIZPtncZQpcOX3Xd2HxIYZgdCQwDAcEJoCAAAgGwV5oFZFRoCN7oDOyq9nl02sLnzPz6tcaNyRmyzr9/WwdbD1mWwjNR9MFT1Rld2OEt7Hbx3Zp9Q2zlXV0HDQLP7yu4zu+8YkjR7EBoCAIYTQkMAAABkqzAPJDQEAGCQtZ7+Rm88Wq1p38rTqv9doQOvnVHj5xcZujSL2H1h94ndN3Yf2X1l95ndd8gehIYAgOGE0BAAAADZKswDCQ0BABgiF89f8Xqt/fV/HdOc7x/werHZcIo29M3uC7tP7L6x+8juK2QfQkMAwHBCaAgAAIBsFeaBhIYAAAAYlggNAQDDCaEhAAAAslWYBxIaAgAAYFgiNAQADCeEhgAAAMhWYR5IaAgAAIBhidAQADCcEBoCAAAgW4V5IKEhAAAAhiVCQwDAcEJoCAAAgGwV5oGEhgAAABiWwtCQRqPRaLTh0ggNAQAAkI3CPJDQEAAAAMOS/eGVRqPRaLTh1gAAAIBsE+aBhIYAAAAAAAAAAADACBXmgYSGAAAAAAAAAAAAwAgV5oGEhgAAAAAAAAAAAMAIFeaBhIYAAAAAAAAAAADACBXmgYSGAAAAAAAAAAAAwAgV5oGEhgAAAAAAAAAAAMAIFeaBhIYAAAAAAAAAAADACBXmgYSGAAAAAAAAAAAAwAgV5oGEhgAAAAAAAAAAAMAIFeaBhIYAAAAAAAAAAADACBXmgYSGAAAAAAAAAAAAwAgV5oGEhgAAAAAAAAAAAMAIFeaBhIYAAAAAAAAAAADACBXmgYSGAAAAAAAAAAAAwAgV5oGEhgAAAAAAAAAAAMAIFeaBhIYAAAAAAAAAAADACBXmgYSGAAAAAAAAAAAAwAgV5oGEhgAAAAAAAAAAAMAIFeaBhIYAAAAAAAAAAADACBXmgYSGAAAAAAAAAAAAwAgV5oGEhgAAAAAAAAAAAMAIFeaBhIYAAAAAAAAAAADACBXmgYSGAAAAAAAAAAAAwAgV5oGEhgAAAAAAAAAAAMAIFeaBhIYAAAAAAAAAAADACBXmgYSGAAAAAAAAAAAAwAgV5oGEhgAAAAAAAAAAAMAIFeaBhIYAAAAAAAAAAADACBXmgYSGAAAAGBzfnFfN4SqVm9bQGkwbSK21+mhlkaqbg/vD0cWzpmbH9GlhlWpq23UtmOzx5vn1rK5p1ZVgsuebVtWXfm4e97mqq86rI5jsSbdOAAAAAAAw4oR5IKEhAAAABocXGpYpb3Ghys4E0/rskv72fqEKqy4F91O4Yp5vf5XOtAX3B8OZz/XW4s/lJKdsO6XClYXKO9igL2tqtH+juX2s3Z93uVHFZt4Hez9X+eFj+mhNoXZ9GiSxV8+r3Cy7K/9vOlN7SmVbC7V531k/HEy3TgAAAAAAMCKFeSChIQAAAAZRs8qSQsNrba2qP1al8mMNunDxejDVZn5n9eX5Dl1pPau/nUoMtq6cb1DZ5kJ9sL9BX5762utl12X5q5fUfOq8Lto/Z8Pb33ToQs3fEp7LW760xjzGrCf+9J7utk3q1NenTqn68N9Uf/aSH8jZ5/isTG8tLlP1qbNqbjPLJzxvo5q/8R4s8we4vqyqUXnpKX3Z2hlMTNRRdURv7WmI9SC8+PkhvfX+Ka/X4NflxQnzdPYLbV95TF/a12qDy9e+0AV/jnQ6HmSmWycAAAAAABiZwjyQ0BAAAACDKDE0vPhFid5duU+FhVUqLzyidxcXmXn+35/NxYV6a2ORdq0p0gel571poYsnjqnwtUJt33VM5YcbddFM67K87VW3+Ij+ZnsaercLtXlNsYr3V6lsb7E2m+c6XFiiXe+WqSzorbd51ylvXVb323ZJ9bvMslvL4738Dp7XNduT8sNDemvxIRUfrlLNmc7gec02bdynbbnlajArv3amSh+Y9eZ9+LnK95eZ2z30mAx4AZ/Zvg5d15nCQn1Q/nUwx7japE/N8/4tMinGhoYrq1L2foyvEwAAAAAAjFRhHkhoCAAAgEEUCQ2vntWnKwv1aX38780rNSWxXnJeCPhalZqTev/5ug5P2mX5FKHh4drwua7qTL5dPtIj73KD9i8u0udnze202+a/hnBd186eUvmnTX7YmDw8afC8+78IY7l21bxbqLxo4Gd7CS4uU0PYCzGVK2dV9lqhik/YXomphmbt2oPT5y8bG7o0KmGdAAAAAABgpArzQEJDAAAADKJIuBUEattyi/XB5qBt3Ke3Fpeo/mIQAu63CV4q3YSG0eW7hIbB7YA3VGfC0JyZb5vXC9GbX6KyqmZ1hEFlytAw2gPQf453N0bWm7tPm8208i+DRZJdb9ffbM/GWI/ATjV8mBwanjXrLVZNQjbYqS+Li/TWxio1J/9J32WdAAAAAABgpArzQEJDAAAADKJIMHfRD9Sqz3bqyjfRdtW7RqAXAhanGlTT6iY0jC7fn9Cwh23zXL+qi2cb9Pn7+7T5vdo0PQ2jz3te5bYH44mOpPV26lqqHpVXzuvzrYV6d0982FTrwqdFiQFp69/0QUJvxUtqyC/S5twqNccufBjoZp0AAAAAAGBkCvNAQkMAAAAMokgwJ//agLv2Nfk99cLebx82yuZcmYSGH5W3ekGe5TQ0TLdtV/2hSws/b7cL6sqJ8vg1A73Q8JjO2CDQblaX572u5oNF2rzrb7rgBXxhb8DIMKmhrxt1eGOhtu09pa8vh+FiEFqe/UK7Fh9S2al2XbnYqppI3cJQ8K2tVfry66RQMt06AQAAAADAiBTmgYSGAAAAGETRYM64cl7VO/zhOd8ybduOGl0IesalDw3tEKFl2rbSPs7v2ec2NDTSbFvH6S/00Rp/+lsri3X4RNDj8UqzPn/XDmMa9IJM8bxeL8DCYm94U7vcu+8eU0PkEoehjhPl8SFMY61cDV73wOu6WHNMea/adezTrj3xbdOXNSkeV6zqL3taJwAAAAAAGInCPJDQEAAAAEPv+tXUw3Nmg3TbdrU/G31d1/hTGwAAAAAADLEwDyQ0BAAAAAAAAAAAAEaoMA8kNAQAAAAAAAAAAABGqDAPJDQEAAAAAAAAAAAARqgwDyQ0BAAAAAAAAAAAAEaoMA8kNAQAAAAAAAAAAABGqDAPJDQEAAAAAAAAAAAARqgwDyQ0BAAAAAAAAAAAAEaoMA8kNAQAAAAAAAAAAABGqDAPJDQEAADAgGtu/Dq4BVeoqXvU1D1q6h41dY+aukdN3aKe7lFT96jpwKCu7lFT96hp5rK5VmEeSGgIAACAAceXCPeoqXvU1D1q6h41dY+aukdN3aKe7lFT96jpwKCu7lFT96hp5rK5VmEeSGgIAACAAceXCPeoqXvU1D1q6h41dY+aukdN3aKe7lFT96jpwKCu7lFT96hp5rK5VmEeSGgIAACAAceXCPeoqXvU1D1q6h41dY+aukdN3aKe7lFT96jpwKCu7lFT96hp5rK5VmEeSGgIAACAAceXCPeoqXvU1D1q6h41dY+aukdN3aKe7lFT96jpwKCu7lFT96hp5rK5VmEeSGgIAACAAceXCPeoqXvU1D1q6h41dY+aukdN3aKe7lFT96jpwKCu7lFT96hp5rK5VmEeSGjYW9c61dkZ3AYAAMhGl8zfK8HNbMGXCPeoqXvU1D1q6h41dY+aukdN3aKe7lFT96jpwKCu7lFT96hp5rK5VmEeOLxCw2udamtN+gns1DZNHzdJr58wt9vKlbsyV+Vt/qzeaVP55hXKLbMPjt6Oazm4VtMnzNLulmACgBuTd65pS2zm1NN5ZKluHzdf+X06xyDBpXhdE5zK14qV+WoM7qL3Or1jln/d4lpnW9e6etPCSSnOG53XgnkZcnKOudaiw6un6/bHdyvb/lzJ1j+MO1pb1WpbRzAhplWVW5Zr8cLFpq3RzrouCwy5rP5idrXDr2tCYWu106unae/XBtOyS9bWtD04TtuD+zH+cfrklHv06DNrlN8UTM4iw+6931qpd196UtPumKYnX3pXla3B9CySlTVN+Z5P0l6rAwX5yj/SpGw7ow6nmrYWrwk+myJt3QFzNsguw+047ajbqTU50zR+ypNavqWSYzRjYU1bIzVr1YF1ScdoFh6nWVvT7j7zrzbpwKbI36Y12fcBlbU1TfPebypYozkz7tE9M+ZoTUEW/iFlZFVde/M3flO+1gTTl28q5f3fk1S1bT0Qq+GaYlvB7P0+NaQ1TXHejP+9tEYHYgdfdnx3ytpzpRHmgcMrNCxbqjFjlqo8uOu5VK3cF1do/1lz++w2zRozS9vs7V5r0baZYzTrPfsTW/S2r2XnHE3/825VZ99nMjDiVVZWqrm5ObgX1930HnnnmjEJzTsfNO7XihdzVT1C8hjndbVaDmvtI7dHajtWk5/dptpLwfxU5/kb0KVLl3TkyJHgXlx30zPSmK/594/VmAm363ZT27H3z1d+mL72uq7lWmrWsbQsuNuj3i4/sFIdo1euXNHhw4e9//dW24dzdPu0+VrxzBRNWlftT6zL1ZRxc5Qf/l3g/Q2SeN7oqR4t783SmJnb4uFev88xLdr9h+lauqdabb0MLDPVn9pm3R/GHbXaOOU7GjVqVNC+o3v+Uhr84NWh0ufGetO/c+t4jb3Zzr9La2q8mVkjW79stBbM0fjRYV1HafSPn9TOBjvngJ4N6z3/gLdstsm+mrYq/5nxGh3WbdRojX98p/zvtx06MN8ep+bYzXlSk38wWqNGP6qdffyIHijD6r3fUapnbzXTbr5Lj9rwwB7Hty5WqffA7JFtNe3+PR/Vqp0zzDFql7l3Y3AMZ4/hVNOmTfeYad/R2DvGa3zYYueF7DGsjtOGjbrHTPvOvU9qcc49+o65fc+m7Kpo9n0+mVNmzUZN8/5GCtrN92h5mT2bNmnn45Hj07Tv29pn2Xs/+2qa7jO/Se8+aD/nx2vaM4v15L32c2ysnj0SDW6GXjYep2nPp29PNvUere/f/6SevP/73u1H38++H36zpa69+hu/4V1NtsuO/r7G/9jW1iyfkx/5xwVDa9h8RgWfT3aa/7mUvd+nhqam3Z83/b+X7LR7tNE7TrPnu1M2nitDYR44/EPDzkaVHyxXo/2BLQwNG9tUe3CbXl+Zq92fJ/07+2udavx8t3JXrlDunmq1xH5USx8adjZWa/fmFVqxebeq+xRKAhgI9sfr5cuXa9u2bV1+sO5faJgiYGmt1eGDtfI6AYXnnrYWVe/JveHODQNS185yrfj5GE1auD9+7m0t19ppYzU27BUV1P5wm6n1e6+buu5XbXKvK7sfzLzX3zts5plz+tHDKvc+BKS2E4d1+ESL2uoOa1tRkJjFzvvBZ0J0P1rXws+M17XNTo+GLbHtMPs3eA4X8vPz9e///u86efJkMMXX99CwU/sXjNHYBfv9ISmv1er1X5n7fzZHsT1WN+aYuubo9YPxWsVe94ZtOlzXZhYr1+GjjebxtqavK2fMGOVsNPW006KftQG/1raKKZb3FxkS3R27mQZbqZT/OQgA7d8ZXsjXpvw/jE34OyHtP1xKdRyZ43D3i5M15sGl2m32S639bho9NoPbLcFj/ePdzjB/pcSOZ1Pr6PHa7d84bvS3ttn2h7H9kWDUqB9qzt5WddgQwf4QM2qy3rXfMFp36lHzBeOuVcG/3mzP15PmS9xovphloFTP2i+8965RbUeH+QL8rMaaWo5+Loxdgi+6hIaZOfKs9yX4nnW15jg1X4q9L7qj9az9qAiO0/HhcVqzRuPN/Wz7sWtYvfePLPd+3F4cfBS3vv+omRf+0JA9squmPb3nfbWbJmv0aPM33y12WULD9NLX1P8R7FlzNs1uw6mmpUt+qFETzTzvnvm+8/5iesX1yIZYpqa3zFF+c4cXIHoBwYPvdn1/d+Rrjpl3l/ksyyZZV9N0n/lN72qynfdaWMMDmmPuExr0JN17v0kb7zXzprwbvNc7tHOmuT9jZ1a9963sqGvv/sb3zqujn1R+0POrdtVdWfU31XD6jAqDw/g/ZsnO71NDUtN0503D/5spOO6y6LtT9p0r48I8cPiHhtEf6bzbd2vy/Xfqzsdf0IoX52jyuDGa9Ofy4EfURu1+6naNnThLL6xcoRdsb5efm/V5PVy6Dw0bd+bo9nF3ataCFVqxYLpuHzNJS8uG8idRAJb9AXv37t367LPPvCDL3o7+aO08NIxO9843YzV2wmTNeXGFlv5hssaac8OKo8P/3DBQdfV6VT34umqTg4zOyFCOXo1NXSdOj5+nx83S7iCI6SxbYc7rY2Pn+CkTJ2nS3fHztQ13xvzcTJswSZM3mD0VnPfHTJji7acXHr9Tk8382H68VK4V94/V7b+ao6Url2qOuT328W1qtNtydrdmmeea8mz83O9i/9rA0NbQhoP2djQ47HtoaEMsPzTs0sPMDt39zBTzmk0NbJhkh94OXrf/eWhe96/u1KSf3x30erNDdJvajhmjKc/YfyxTrrYUgZhXaxtKplreX2TQpTt2Mw22UrE9DSf9IVfbVk7R5JXlail6QWN/vlbV0Vp3Fxp2dxydyjfHo6n53f7fJPmnzLLRc0w374X5z07RpF7/jdN/LmqbbX8Yx4KDghRfEoqfNfNG6dni4L46lJ9jv8jxL+R7FvnSm/JrBKFhr0S+CHfV4Q/DE/6T7bLF+qFZ9sm99DpIJ+17P2SHh2qq1Ls5P6SnYY96es8bdTZMGK3Jbx/wf6AlNOxB+pr6P4A9quVbntW0O8brnhmLtbMumJlFhk9Ng/Brfr6aijdquR0CblctoUGPIqFhD8Vq3TLNHLPT9O4Q9OZIJ+tqmvYzv1LLbx2lHz6T7x+bdWt0Txb2isu+4zT9e9/7TIr0fjvwjLk/+lk+91Pqzd/4QW2jn/dBQBP/fjW0hs9nlEFo2L20583wb6Z4T8Ns+e6UfefKuDAPvAFDwzGa8lbkQLHDh425W2u/kDoPvqCx417Q/tgPaG3a/dQY3e0NNdZNaNh5WC+MG6sXiuI/FLftydGYu9cqGKAMwBDrLsTqa7jln2v8gGWFbQVBj7XoOSg438wvDM8Nndo/b4zGhD29bgCu6xoPmdLwajzZv06tZXvMPThGk73zeqNyf2XO2S8ejte40d8PCaHh3StUHoQ53nnffkbELpLYqcMv3h3bj42bp2jMr3LjQea1aq29e4zmfNgWbMv84DOjU9U7V2htoZurLQ7E8KSdX7yu6RPGaOxEe+z6vQdjkj4/vdd991IdDj8PrzV6n3vxoTKThhtNGxp6927o4UktO+LAYa9nnzlGfp74d4HHq9HdmrUwOG+E1+ZMcxx1GZ40up+6eS+MeWp3PJT9fK3uHjPHuwZi+r9x3OlPbbPuD+N282Xrx/5Qed+5dZqeXLfT7/FpeaFh4r+EPTDffDHLsp4d2fplo/btad7QbnY4ortmLNbG4mg8QGjYO7V6NxhKc/QP7tKjCzfqQMq0JRi27BZzjGZXZji83vuh4B8OjPrHyVpzLMsKamRbTdO/52u9Hw5He72PUvyImCWGU03D4bZG3/2kFi+co2n2eB5t/h7gvZ9W9zX1j8sf3jpW3/mBHUrT/N8sN9Z8TmVTSbPv80nqMOdKfzi972jslCe7CVtrtWaiOV5nZ8+whKHsq2n6z/yOI4u90MX7fDLt+79O0atziGXjcZrufFq6JByqcLEWPzPN692VjT25s6Wumf+NH3zeR//e7xJ8Da3h8xllEBqmkf68mRgaRg3td6dsPFeGwjzwBgwNJys34V/ZNWrbv/k/KHs/zo27U5MfnBxrkyaM0RhvWLxuQkNvnWN15/3xx0z++e1mO2Zpd+xXPgBDyXW45Z9r/KEcD9vmDcEYTg/OQSlClC4BwDDnuq5eyPTi4eBeN1Kc5+PhVKpgKrFnePJzpNwnkefwlre9EiOfC3eOG6OxK83csJei/dz47VJtK3O3ZwciNPSEw1N6PdrGatbOYJuT6poY+PkSa0Vo2B1bp7F/yFfbNTs08TZtOxgMxxr8DbJ0T3DeCIcZTXMcdTk+o/sp7XshENkv3rq6/RvHnf7UNjv/MO5QU9m7WpMz2b/Wzq3PqtR+afACg/iwJpYXGv7LRvO1JHtk85cNNVcqf9NiPTrRfomzPYyy+0tuKFtr2lqVr40LH9Vd9tpRoyfr3YQvvuH1Ocbq2eJs+0l2mL33Q2FPw9mmrvZaJ9nVkSM7a9rNe94bjix2zBIa9ko3Ne1oKFV+wQHVBkO+ZVvvjdDwqWlwXEaHJ/3LeDM/u9772fr5pI4mlW5ZE1wPbpTGPhdeH9rXUTDHTP+hFmfJ94SobK1pys/8YIjXsbPfVWVTq2qLl3vDwY5dkl194rL2OO3279JWHXjpUd3j9dpebupuAwZCw7Qy+hs/OK9GhysOgq85+4L7Q2z4fEYZhIY96u67UurQcOi/O2XtudII88AbMDQcm/ij5bVyLR3n9xpp2TlLY6a9rupWfyi8WGuzP/d1Exq27DbrnKLXP096jGkJ1xECMGRch1spzzVWdHqKECVlQDWMua6rHeIxoXdbwLuW3sFqtdhTcdqgpFwrzPk8sYdXrXIfTAoNI6GKd95/MDfhR/7Oohdiz1G+cqzGLMhXS9L5vS26jZcaVb1nraZPGKvpW7K4p2Fb4nY3bpkePx6T6uq/7sResbVvTSY07Mml/Xph3BTl1rUpf94kvbCnXLsXTPJ7pqaoUYIUx5HT0DDt3zju9Ke22faHsf+ja6magu8JHbvstcuCH12DL2bTtoS/FtZqzR3mC0gWXbzfys4vG62qLMhXflVYu0ott7WLhQSEhr1ifzww9awM33ZVy71wIP6jQa12zrTB1ng9uy/Lkq3AcHrvtxav0eKFa3QgLGXdGt0VnheySHbVNN17Pni/p2pZFhwOn5qGx3BlvEcXoWEG0tfUG5Iwch0z/0fG4FqnWSLrPp/sP744Ymp6pCn42yi4HlxC4NKqd6eYaZFANptkXU3TfeZ3GTo/O/8RRvYdp+nf+zZoyC+ujf19X7tqfNb9I0ErO+rau7/xD8y3vbjiQ7x37H3SHMPjtaYmmDDEhtNnFKFhGj18V+oaGmbHd6fsO1fGhXngDTk86ZhfrVW53e/X2lS+eorGhMN1edcVmqQXCoOf506Z5ceN9X/siwaFSbd3Pz5WkxbuV4sNCe0Qbua+18vA3AUw9FyHWynPNVZ0eoqAgNCwB+H5c9oKHT7Vps7OTrV8vk3zfx65LlvaoKRT5SsnaczPzTm90SxtzvHVb83SWHPe7y40DK8nN+utau9af52N+/WCeb7wOTqPrtCkcbOU+4V/Rm87slSTxkyKDGlt9rG91px5rvx5QQ9EB9yHhp06vHCs//lnX0pno3Y/Y2q9MBjK1aurqZsNkcwE73Wb1/lCoR1u07zuz3NNnUxdkkLDFwqD0CkYtnXSnw/7dayzn5/RWictP8T6E2x1zxx/f75bd3vHqh0qNwjrzPveOy66CQ3THUfeOePfcr2gL35Nz+D4T/teCCT8DZTubxx3+lPbbPvD2P+X76N01/x81YY9ikbdFXyRDX6IGX2Xnly4WHN+Pd4sO1pzCrIpMszWLxv+MGSjbnlUG8uaYv8SPj4sGaFhr9T4odUPZ2xUaVOtDrw0OX4sdpRq+d12mM3va/KSnd4XZq/FfnDIDsPqvX9suTc02djZG71abvTmpRrSaGhlV03TveeDH8Fi7V3NsT+C3TFH78aChuwwfGpqeNfgGa3xj6/RTlPTZ+15wPaI7cOf5wNpONXUPy+M1aPrzLl01xo9eqtZNsuCrqz7fDKVy59tP4Pu0rMFtWqqMu/v5Lp5n2HZ9/dTKOtqmu4zv/ldTfM+n+yQ2q1qKlvjH8OEBj1I/95vff/RyHvfn3dXN9dGG0rZUdfe/Y1vhy+214sbO2WOFi98UvfYHmBZdF4dTp9RhIZppDtvGgmhYRZ9d8q+c2VcmAcOw9DQ/tgbNPvjZpfQcLpe3+lf18kuM3biHOWeiP+A2fn565o1caz/+HF3ataGav8H1W5DQ+NStV5//E7vh+kxdqjSx19XdVJPGQBDx3m4leLHek90OqFhcK+XrrXo8OpZ3hCg3nl4whTN2XDY/0cZVk9BybVG5T87OTgf364pC9ZqaTAEtdUlVDHseT/+mTBLr6+en/AcjR++oCnBfLs9L3wY9Cb0ttUO8xk89v75ynfT0XBAehqm/ay6VK61v7JDa8dr1fjhfE0O9sPtv3pBa1+M9Ey0AdnqKf5rD6Yl1NHUYr75nIzXuuvyQ6k/wVa37DWSI9cMbDTv9zsfydH0iZP1+hdmgndO8OsTNq/nZbrjqHG35gR/k3jLRo//nt4LVtJ5qPu/cdzpT22z7w/jDpWaLxXe0IT2S9fNd+nJ9yNfY5sPaPEU/7pG3rxNlcEX4uyRtV826nbqSW9YHVvb0fr+/ctVGg6jR2jYa7XvP+kPtWPrNtp8yX0pGPqtydT5Dnv9raRm5meT4fbeT6h38nkhS2RdTdO+56MYnjRjPdS0dos5Tn9gf/jyr825vCzbPqGGW03teWGaxnrvfTPv7meV38evOwMlGz+f1F6q5cGwpN6xOPFJ7YxdLsgO//ZDRXsaZZtsrGm3n/nBPP8akkG97+3uXDt0svI4Tfveb438TfAd3ZWzM2tCraisqWuv/sbvUOWm8LPKLrtYB7LovDqsPqMIDdNKd95MCA2z6LtTVp4rA2EeOLxCw17qTPdL2aU+/Ix2rZMhSYEslPwjtr29bt065efna/fu3dq2bVvfg4IRLKvr2ofzcewzoZtQuDPN50Laz5M+SBUO2rramtr/r1+/XidPngzmDCzXry0bJB+7n332md566y2vtvb/9r4Tl3o3VPmg1bovf+NkqD+1zeY/jIcrauoeNXWPmrpHTd2jpu5RU7eop3vDs6Ydam1tVWuWhYUhjtOBQV3do6buUdPMZXOtwjzwhg4NAYwMqXq+2FDGBi/OwoER6Iaoa+tu5YwZq1lbav1wJ0uGmO6uR6Gtq62vnY++S3Xs2hB2+fLlXaajd/pTW75EuEdN3aOm7lFT96ipe9TUPWrqFvV0j5q6R00HBnV1j5q6R00zl821CvNAQkMAw16qH7GtlpYWwpd+uFHq2nJkbWxYTdtuf+R1/7p/Q6i70ND23Dxz5kxwD33V3bE7WL03b2T9qS1fItyjpu5RU/eoqXvU1D1q6h41dYt6ukdN3aOmA4O6ukdN3aOmmcvmWoV5IKEhAGBE6GxtU1vbDTgWJzBM8CXCPWrqHjV1j5q6R03do6buUVO3qKd71NQ9ajowqKt71NQ9apq5bK5VmAcSGgIAAGDA8SXCPWrqHjV1j5q6R03do6buUVO3qKd71NQ9ajowqKt71NQ9apq5bK5VmAcSGgIAAGDA8SXCPWrqHjV1j5q6R03do6buUVO3qKd71NQ9ajowqKt71NQ9apq5bK5VmAcSGgIAAGDA8SXCPWrqHjV1j5q6R03do6buUVO3qKd71NQ9ajowqKt71NQ9apq5bK5VmAcSGgIAAGDA8SXCPWrqHjV1j5q6R03do6buUVO3qKd71NQ9ajowqKt71NQ9apq5bK5VmAcSGgIAAGDA8SXCPWrqHjV1j5q6R03do6buUVO3qKd71NQ9ajowqKt71NQ9apq5bK5VmAcSGgIAAGDA8SXCPWrqHjV1j5q6R03do6buUVO3qKd71NQ9ajowqKt71NQ9apq5bK5VmAdmbWjY0XaNRqPRaDQajXaDtLaWy+b/qf/WpPWtUVP3jZq6b9TUfaOm7hs1dd+oqdtGPd03auq+UdOBadTVfaOm7hs1zbwNRK1cCddHT0MAAAAMOP7loXvU1D1q6h41dY+aukdN3aOmblFP96ipe9R0YFBX96ipe9Q0c9lcqzAPJDQEAADAgONLhHvU1D1q6h41dY+aukdN3aOmblFP96ipe9R0YFBX96ipe9Q0c9lcqzAPJDQEAADAgONLhHvU1D1q6h41dY+aukdN3aOmblFP96ipe9R0YFBX96ipe9Q0c9lcqzAPJDQEAADAgONLhHvU1D1q6h41dY+aukdN3aOmblFP96ipe9R0YFBX96ipe9Q0c9lcqzAPJDTE4Giv04rb8jTvzZZgwnDVoh0P5Wnmn+p0KZjSRUeTcs0yTyxIWqb5hJbZGmwe7jUAAKD3+BLhHjV1j5q6R03do6buUVP3qKlb1NM9auoeNR0Y1NU9auoeNc1cNtcqzAMJDTEILvQctGWi/bKuBDeHRqeOLijQtIcqdCaY0q3241p2U56W7b0cTAjUlOupb32s3JrrwQQAAEYGvkS4R03do6buUVP3qKl71NQ9auoW9XSPmrpHTQcGdXWPmrpHTTOXzbUK88AsCg2vq7nmrL4K7qV09bK+am0LWroAqVOXWi9G5l/XV8cq9caiEq0yLbfgQuJjr17QwfX+vFUvV6qqNRrodP/Yk9uDx6w/mX67Oy7629zuqJY11eZ5q3UyuDt4rutKd6/De42dwZ1EVwoOadpNxfqkPZhgtTbqg5cPad6dRVpman4iOi+Z3T+LPtH0hyrVHEwaEr0M/L7aWqRpPyrR0eC+77qOLirQtKmV6Y8ZAKld6VB76yV1XgvuAxg2+BLhHjV1j5q6R03do6buUVP3qKlb1NM9auoeNR0Y1NU9auoeNc1cNtcqzAOzKDSs04pv5Wna+GLtqErqnRUqPqJpdpmw3VSgp19u6Np7raFCT3/rE+1oCO6XlWimWf7p35Vo1dwiPXFTnp7b3hbMbFPBI/Z5i7RiUYmW3Wdu31aiqmBuusfa0HDZQwWadl83Pc/aG7XjiY8Ttnn6fSU62NzPXmZeHY6oJLg7mE6uN6/nrvKkwLJTn/wuTzMXhQWPSjGv46RW3WamzSrXJwXVetXWvMs6Qxe0418/0YqtDfoq6VA88+Yn3dd+AJxYbV57b8K+jhNeb8MVxUn72wsfI8cngIy1FFfqo3f+ptPBfQDDB18i3KOm7lFT96ipe9TUPWrqHjV1i3q6R03do6YDg7q6R03do6aZy+ZahXlg9oWGQXt60Qk1Jz91Ulh2pa5cT3+rQK+WBRNCCaFh19DK6wEWhlQ15XriW0X6INaFrUGv/ihPywpsr7keHmt0H1z5Q3JOe6g83nOxo0kfzCrQtNuO6GjHVZ0pO6GDVWF4aXXqzJETKqm56N+92qYTBRV6Y1G5PiiO9MLsEhqax5VVK9f2hNza0LVuMdd1paFBH9heleurVdUUX/CrKrstX+mrmhPa8XKZdhR00+vTq63tbRfct1qr9Zy3H1KFoSe1Kjk4C3pKngjuqq5CTyXsg6huXluzqeXcjzXtzkP6oOCETgSPvWKmH3yzTG+8eUInWy979Tza4PeA9F9jm640+TXwl4luc/f1Cffn029eCO6HLupkuI/KWpJ6vwbHz9LkdLBJuXdGg2sA+rpVpRWt+jrVaSTmoo7vPKaP9pw27650runSqSadOnXRvKsBZAu+RLhHTd2jpu5RU/eoqXvU1D1q6hb1dI+aukdNBwZ1dY+aukdNM5fNtQrzwKwNDb1mex0eCwI0q0tY5j9mRXFwN5QQGvoBzbK9kZ+YvaDwkA6am1f2FmvaneXxACsIep56vcXcTv9Yq9vQ0NvWpCE5rWCI1UumrF6vvejwlV7PtCB8a6/TqvG2Z+IhrVp0SM+Z27Fr6SXUoUU7ppp5//SJlsV6Spp5XYb7vK4zm4s03fbOtL0mf/eJpn+rwNTO79VZ8ifzuJviz/f09+zzVaYIQ9v0gXm+aBDmBakJNYxI7vWZ5Er7BVWt9oce7fpcaV5bTbXfy/NH/ryCGumSqYvtCTp9snkNc4v1xD8VaOaP4kGf9xpv+9hM/1jPzQ3Wd5PZtjobK6SvT+pjLQiGf1ocq9nMBScTgkOvd+LvjqcME59Y3RTcB0aKqzp14LR+/ud6fXdpvW55pVEftfifMac+PGmmndRrp7y7qV1rUknuMRUdDj5cr13Q8Q8q9ZGZZtu+vNP62hu29Lwqtplp22p1zlsQQDbgS4R71NQ9auoeNXWPmrpHTd2jpm5RT/eoqXvUdGBQV/eoqXvUNHPZXKswD8zu0NC2m47EQzUvLCvSGwUndNC0DxZ8bOYXqSC5h1pCUJUi7InMTxX6eeHSn+rMrfSPtboLDTMaOrO5UvO89ft9YaK9GMNhQGNBXHuDdiwq0Sd2syKhYdfrBXYN9TzBUJnL9saHfg2vuWeHYvVe851l8eerKtMTyT0KA17QGgs7/ed7av1Z714XXr3iIWuUVyO7j/9/RfqgoWt/oJ5eW2KNzyr3LjNvbl18uNo6+9xJoWHC+i574d20R6r1VQ/18Y+FT7TF1j/GPz4W7fYfc6WsUquWHk8YZrW74yB+jAEjyPmzmrG0XnfmfqkDh5v0+7/U67sbzsr7qLzSrlONXf61Q6KTtdqXW6GK4E3WfqRKH5n7Rw426sSBL1SYe8ycHv0evFfPX9C584P1+QUgE3yJcI+aukdN3aOm7lFT96ipe9TULerpHjV1j5oODOrqHjV1j5pmLptrFeaBWR0aetf/iw4R6YVleZp558d6YuohrXq5QkdTXR8wIdjzhxtNCP684TCL9UmH9NX2oqRQ57oOzg17gaV/rJU2NLynh9BQnTr4B/Na/3BCV2yvtfvyNG+r/4N32lApEhp6z3NTgZ6wNQnazKCXYEKW6tXE1HR8fLknbrN1NnUyL7Xr86UITEPRHpHeersbWtQI90W3neo6dWZ7sWb+yLyeoKahnl5bYu1Tba9f04TQMLnX375Dfi17qE+4/lVHvEcFgt6J3uOKtOLNk12Ghu3u+CA0xEh07pNT+u7S0zoQnLa/+fS0ud+gPeaz8txHdt4p5X4Zv/3cew26ZWmjSv3FdeGwDQlrVO/1Jvxa1e8f00cfNgZDkH6jE3vM/Z0NalerKt8zt9+rN2eB8PZxleww/8+jhy8wVPgS4R41dY+aukdN3aOm7lFT96ipW9TTPWrqHjUdGNTVPWrqHjXNXDbXKswDszM0vOljLXqzMd5jLBQJy5JdaW/TV+3BtiaEhm0qeCQcbtQX9pTzepCVlWhmQk+46PXmenis0V0o5K/X9kxLCjXtNfcK6nSyNbjvLVesT46V66mbzHYEwdnRBSkCrlCkDs2bzfP/tExVreb1J7SkK3412V6NH+uNsuTlLnrP0avQUNdjy5+wPSKnVqa+/qHVcVzLknos2usGHjwSvf6ffa6uvRp7em2JtfevnZgwlGywLxNCw6R95a3D7s8e6pNyqNrQ1cs6WVatV+8z67+nIqGnobcfu4SD3V0fEbix1ew9qe+u/lKxEUiPNXYJCuO363XL2tN68b1zwfLRUNBqVsWWYyoqjr+P6vOSg8LIbTus6Qc1+qz0fLA0gMHGlwj3qKl71NQ9auoeNXWPmrpHTd2inu5RU/eo6cCgru5RU/eoaeayuVZhHphFoaEf+ky/r0xHW1P0HrTShIb+cJ4lKmm+6PX+mhYJ4LzehD8q0payC/qq7riW3RYdvrNBr5r7T/3phE62+tfXiw55mv6xaUJDXVbJnwo07bZi7TCPvdTRqUt1J7Tqp3nxaxN6gmE1f1SgmYvi671iXuvMmz5RrndNx6v6au8hzQyDtWgdGio176YCLdt9wQu3rtRVmPth6BnlB1Uz/3Dc7w139ay22Ovx2aE5zd3ehYaGDTvN9j1ltn1ZQYogLSYxuPPUlOspe73AgjazzUFPw2+ZmodBaqiH1+bV/p5yL1S8dLVTRxfYeh/SJw1me662+fvSvIaE0NA873Obm8z6rutKTaWe+5HZ916v0vT1Ca9DmFCjYEjTea+f9db3lXkdCcPpJgTQEV6QantqBveBEeJU/il9969Niv37gLShobmdcGI9p8/eiYaEF7wwcN/+eDfntKGhuR3/5x8AhgJfItyjpu5RU/eoqXvU1D1q6h41dYt6ukdN3aOmA4O6ukdN3aOmmcvmWoV5YBaFhtKV9steONStNKGhvebfG7anV9hTcXv05+GLOvpykT+05U0Feup31Qkh35W6Si37aYH32Om3FemNsvh17Xp6bPehoXVRVW8e0hP2sd52FejpP1XqRNJlu7x1dOlpd1UntxbriZuCx37vY63YG/TnS6rDpbIyPf1Pked4uaFrL03L1miy/zq91zq5TEeDbel1aBgEYtFwtjvh9RnjPfCu68z2SF3+6RO9ui91X8W0r83st+eCef52tqjgCfNcdlnTnvhdiVbckxQa/qFcH0SX+dPx+DCuaepj+ddYjL7e62reV6KnY/s36bjzepF2Hbo1vFZiPFwERoavDzSoN8OT2tsxjfUqyq3QZ7ELr17U8Z3HejE8qb0NYCjxJcI9auoeNXWPmrpHTd2jpu5RU7eop3vU1D1qOjCoq3vU1D1qmrlsrlWYB2ZVaDgyXdfRRQVphvi8risdme2DHkPX0NXLujSYu7W5Ws/dVKAV+6JhbO9k/Nqsq50pl00IRrtZxtNtffxeqU9HhqsNXelI7m3pD23rX68yKujZuv5scB83rKMrNHbBfqXrh9s75Vox7gXtd7fCwXf+rGYsrdedm5r00eEm/f4v9fr+a2dlPyp7Cg3bS7/QR7lf6ETkNNJ+xF7jsEKHDpzWiQNfqDD3mIpLbc9eQkMgG/Elwj1q6h41dY+aukdN3aOm7lFTt6ine9TUPWo6MKire9TUPWqauWyuVZgHEhoOtWCIy/RDfA5/Z+z1CW87opKkXpaDqWtvyt67csQfNnZH8rUqE1z3e492eb3BkLUJw9PiRlX71mTNes/hgJh1uZo8c9swH2Lzqs6VN2rqS/Wy1yz8b+sbdaDF/4xJHxpe84cejV3PMHDta9V/VOWFhd41Cz9q1NfX7AxCQyAb8SXCPWrqHjV1j5q6R03do6buUVO3qKd71NQ9ajowqKt71NQ9apq5bK5VmAcSGg6xkTNU5XVdsdce7EgXtg0sF6GhdaW9TV+1p3tfXNWllK+105/OW2p4aKvV/s0rtGLl69pWlhTVXWoM5q1QbmFjit6ELdr9+N1a+0Vw14qtL1f766LXuWxT7cHDOpzQytWYtNKWnbN097rq4J6Rbvu6fS7jWovK33s92PZatXkhm6+tbr9yzfQVG7apfJA7w6YckjSmWRVbEq9fmB5BYTqdbW1qM+eiWEs5njWStR/Zqpwf5GjcKNtma3pOnuojKfb5fZsj83P0s7vXam9d5ITfXKotCzdp9cLtKokcyp1leWaamf5aVWIofgPiS4R71NQ9auoeNXWPmrpHTd2jpm5RT/eoqXvUdGBQV/eoqXvUNHPZXKswDyQ0BIBklw7rhYlTtGJPucrL9mvt47drzodB+HatWmvvN/MKa9Vytla7F07SlLdq/Xmhzv16YdxSlYeBXGu+5kyYrPmb9+twYa7m3x9Zn8q1dEyOXk8bGnZq/4KxWloW3E23feme61qtcv/Nn1deVq5tZtsnBUFk58EXdOe0FdptppcXrtWsCXOU3+rNGnDfnDmv3Lds78NGlQbTEnxpr2d4TCXRELZb36jli3odeueYPsprCqYhrkXbZo7R7T+frMkPBm1DeTAP3arZrulBGDjx1rmaGNyeMLvU/0cDZZv1QGz+fE0Nw8PRa1Vir4PbcUzLbzHL/yCYd8sGVXjXxz2rHff6yy7Z2/chvIcLvkS4R03do6buUVP3qKl71NQ9auoW9XSPmrpHTQcGdXWPmrpHTTOXzbUK80BCQwBI4vXqWx3p1WevT/j4bm9oUBuuTdkYCQk7q7V74+HEYUO/WKu7/5CvMBZseW+WJkeDxYShRm1ouNT8N51qrb17jvKDFabbvrTPZZd7andsu9SyW7PGrTDPHfSM/DyYbpSvHKtZOxNe1YA5d+C0fvLXU/r/Drj40Pxax/dUaN97x3W8MdKNEgE/NIwF0DGdajx6WLUtbaot263cDdt0OLmXapKWzw9r9+Zc7T5YrZakUrfVlZt5r2tbYeK8thPmORLCaNvTNgjJOxtVfrBWLW21OvzefjXa2deC7dm8W+U9bM9Aql813w8BZx7yQsLOXa8EoeAmVZj75zct8u9PKfR7C7Yf0vP2vmmrj5j7DXnKMbeX7zO3920w0xdpR4NZz961mmCXuzdP5+3jbnB8iXCPmrpHTd2jpu5RU/eoqXvU1C3q6R41dY+aDgzq6h41dY+aZi6baxXmgYSGAJCss01t0Z5+R5ZqTBAC2msVLi3rVOPBbXp95Qq9/l55l8DELjN9ixd5eA6/mBzSRINC/3b+F7v1+oIc5Sx4Xbu/SApHbPD3b9v8EMVKs31pn+taZ+JQlI3bNP3utbLxox2ysjPyOux64r0hke3+fvGYOj8bp28++b+8Zm/baV11Fxr60yfdP0dL34v3Uk0dHHeq/M+TNOm35lg9eFi7N+Ro0s/NMeYdW2beysm685G1wbw5mjwxR7uDg7f8z6mOz1naZofDPbtNs8aY9f5qul5YmW+O9zbl/+F2TVm5W4cP7taKad1tz8BrrypVSUGpKhr8v4ls2OeFhLds1nF7vyAI/yZuV71doClPc+z90a+o0IakrUWaZ+4/MHu7tsycax67XIXNNdpwqw0W52pDl/1xY+JLhHvU1D1q6h41dY+aukdN3aOmblFP96ipe9R0YFBX96ipe9Q0c9lcqzAPJDQEgLT84OKFIj+ls6GHDVbs0KDVn5dr98opuj3Sq9BfPno9w1QhTSQo8W6bdS7crdqzbWqp260Xfj4p4XqIbR/OSbyeYYLo9vX0XImq16UYWtXyhjh9Qfu51t2wEQ0Mo8FhV/4xMuUZ/5qctuWfik/P2RMJim1Y/WCuuhwhtiftr8z0SMhc++EK5R5pSTmvs+gFjQ3eIz2HhjnaHeuJWK4V46ZrW5iWn8rXii3lkffaUIkPKXrfwqpg2mVVzLdhoD/db3O1el98a+01D+f8eK4e+PEybdh3XmeC3okTcvzeiyMBXyLco6buUVP3qKl71NQ9auoeNXWLerpHTd2jpgODurpHTd2jppnL5lqFeSChIQCk0bhllib/uTz2o74dtjPai1CqVe6Ds7Q77AB17bBsz77DsdDEhnqpgpIXtD9YaWdrYi+/5JDQ6z1ohzhMIXH7en6uUNuRpZr8+DZ1GcHzWqO2Pe73psTwkRwYhq2rIBzcGL+Gpj9caHeBc9ehc+0QuGPMMZdKynleGOivp+fQMPH5Gj+cr8kTJylnQa52fz40vQwTRcLBWzeowhuL1CjbqqmjbVA4Ww/cMV9Tb53ddZmo9kNa4i0fDFPaUKOSgirVN9/Yf3PxJcI9auoeNXWPmrpHTd2jpu5RU7eop3vU1D1qOjCoq3vU1D1qmrlsrlWYBxIaAkBKnapeN0V3PrU7IViz1xNMHLbThi2RnnxJ1zO0qtfdnfiYtnzNCYYF9YYMbU0M6LyeWSvD6CTxeoZxqbcv7XMFvCDm/hXBcJIRl8xzTbtTOTujoSiGg972NEwM7qzMQ0Mbao958XBwL1HKeZFhcG1oGPba9aUPDT3mPdJSd1i58yZpUrc9bgdDm0qem+8PQzp6mXbUBZONkmdsAJijqX/xBic14r0R573f5c2r40v84NH2VDz//nJ/nV6bq9VHbty/u/gS4R41dY+aukdN3aOm7lFT96ipW9TTPWrqHjUdGNTVPWrqHjXNXDbXKswDCQ0BINm1Ru2eN1mTVx5WW3JPvFO5mjIzNx7UmfuzbCAS3G/cMj2pJ6Lx+VrdHXlM4+ZZunt1GH40KvdXk7T0SBAseD39btcLB4NgxQYu0esZWum2L91zXWtTuRc0puhheGq35t8/WSvC7chSVy9eVPvX3+h6cB8+V9c0zCQ09IevnRUfNtQeszPH+mFgOM8b8tTOa9H+BXfHhsFt25OjsQv2x47btoNLdXd3oWFnudZOe0H5YQfDE69r8uO7zZYOgfZ6bZkS9h58RYWRwNAclSrOSQ4NT2vLRH9azqbwXxQEGvKUY9cz2l7X8Lz2Pmhu/8senVGplpvpE54Lhzy98fAlwj1q6h41dY+aukdN3aOm7lFTt6ine9TUPWo6MKire9TUPWqauWyuVZgHEhoCQBJviMUxY5JaPMxoKVqqKT+fpMn336k7f/WCtp0Ie04lX88w1KnazXM0aYJdz+2a9EyuaqO9/Br3a+njZl0/n6w77VCMG6pjw6Gmup5h+u1L81xlS5MeY5sNbPzAqMu8boagHDoXVPneMRV+fC64j97z9/Xt5lib/GDQNtj93IvQ0Oj8/HXNmninJpnHTzL/n7O5NnbMdp7I1ZyJt+vO+/15s1YfVksYUl9rVP6zkzV2gn3/TNasDWs1P01PQ++9ZtZht/POidP1+ufhswyuiuf8ALBr84cXbY/1FkwanjSYH3c1Nrzp9FU2YGxT4Qyz3B1bVVGXpzlm+n1LavxFb0B8iXCPmrpHTd2jpu5RU/eoqXvU1C3q6R41dY+aDgzq6h41dY+aZi6baxXmgYSGAODKtXItHdf1+oH9Uf7noAcXpNYGFece06HPvgkmYMh1pjk2083rpc5LQ/seqHhpvqbaMLBLe0WFTXaJy6rf9EpwXUO/TfjBIr2Z3HO3Zrum2/m3bFBFhz+ps2y7Hrs5eMyPzfoSQsYbC18i3KOm7lFT96ipe9TUPWrqHjV1i3q6R03do6YDg7q6R03do6aZy+ZahXkgoSEAuJLieob90931DIerqzp14LR+/ud6fXdpvW55pVEftfifMec+OmWmnVLul97dlK5X1uij3CpVh6M9tn+po+8fM9P8VnygWX4O06QSOy3PS3OAQXRVna1tam/t7d9OV81jLge3b1x8iXCPmrpHTd2jpu5RU/eoqXvU1C3q6R41dY+aDgzq6h41dY+aZi6baxXmgYSGAIDBcf6sZiyt1525X+rA4Sb9/i/1+u6Gs7IflZmEhl/ur9BHW2rlL3JNpz8y93OrdLSsUcfzK83tCn123I6DSWgIZCO+RLhHTd2jpu5RU/eoqXvU1D1q6hb1dI+aukdNBwZ1dY+aukdNM5fNtQrzQEJDAMCgOPeJDQZP68B1//43n5429xu0x3xW+qHhSf1m0yndsrRe3/1zvX7zSfRD9GtV216FeU3yH+4Hg0XFF7x75iNXFVvC6x0GoeF7X+iQmeb1RNxSo/p2f0kAQ4MvEe5RU/eoqXvU1D1q6h41dY+aukU93aOm7lHTgUFd3aOm7lHTzGVzrcI8kNAQADAoavae1HdXf6lTwX0da4z1LvRDw3pN3dGiU19/pY9yzbJBoOi5fFqHco+puPRiwv0jn9uehVarKt8LexcGoeG7x3W8/mtdOFGrInPfDxQBDBW+RLhHTd2jpu5RU/eoqXvU1D1q6hb1dI+aukdNBwZ1dY+aukdNM5fNtQrzQEJDAMCgOJV/St/9a5NqgvtdQ8PI8KQnm/STpfV67lhw/8TfVJhbqcrG4P61Rh3JPaZDn30TTEgRGsaGJ/1GJ/aY++/VK+yXCGDw8SXCPWrqHjV1j5q6R03do6buUVO3qKd71NQ9ajowqKt71NQ9apq5bK5VmAcSGgIABsXXBxqUfnjSSGj45ZeaGgkNW4or9dE7f9Np/65xTp+908PwpJFrGtbnERoCQ40vEe5RU/eoqXvU1D1q6h41dY+aukU93aOm7lHTgUFd3aOm7lHTzGVzrcI8kNAQADA4zp/VjKX1unNTkz463KTf/6Ve33/trOxHZfrQ8KKO7zymj/acVqc307qm0x9V6KPcSpV82qjj+ZXmdoU+O2GHKyU0BLIRXyLco6buUVP3qKl71NQ9auoeNXWLerpHTd2jpgODurpHTd2jppnL5lqFeSChIQBgkFzVufJGTX2pXvb6hf9tfaMOtPifMWlDw2t+CBi7nmGovVmVH9iw8Jg+ertSRw42q8ObQWgIZCO+RLhHTd2jpu5RU/eoqXvU1D1q6hb1dI+aukdNBwZ1dY+aukdNM5fNtQrzQEJDAEB2O1mrfbkVqjgZ3AcwLPElwj1q6h41dY+aukdN3aOm7lFTt6ine9TUPWo6MKire9TUPWqauWyuVZgHEhoCALLahYO2N2GNTgX3AQxPfIlwj5q6R03do6buUVP3qKl71NQt6ukeNXWPmg4M6uoeNXWPmmYum2sV5oGEhgAAABhwfIlwj5q6R03do6buUVP3qKl71NQt6ukeNXWPmg4M6uoeNXWPmmYum2sV5oGEhgAAABhwfIlwj5q6R03do6buUVP3qKl71NQt6ukeNXWPmg4M6uoeNXWPmmYum2sV5oGEhgAAABhwfIlwj5q6R03do6buUVP3qKl71NQt6ukeNXWPmg4M6uoeNXWPmmYum2sV5oGEhgAAABhwfIlwj5q6R03do6buUVP3qKl71NQt6ukeNXWPmg4M6uoeNXWPmmYum2sV5oGEhgAAABhwfIlwj5q6R03do6buUVP3qKl71NQt6ukeNXWPmg4M6uoeNXWPmmYum2sV5oGEhgAAABhwfIlwj5q6R03do6buUVP3qKl71NQt6ukeNXWPmg4M6uoeNXWPmmYum2sV5oGEhgAAABhwfIlwj5q6R03do6buUVP3qKl71NQt6ukeNXWPmg4M6uoeNXWPmmYum2sV5oGEhgAAABhwfIlwj5q6R03do6buUVP3qKl71NQt6ukeNXWPmg4M6uoeNXWPmmYum2sV5oFZGxp2tF2j0Wg0Go1Go90gra3lsvl/6r81aX1r1NR9o6buGzV136ip+0ZN3Tdq6rZRT/eNmrpv1HRgGnV136ip+0ZNM28DUStXwvXR0xAAAAADjn956B41dY+aukdN3aOm7lFT96ipW9TTPWrqHjUdGNTVPWrqHjXNXDbXKswDCQ0BAAAw4PgS4R41dY+aukdN3aOm7lFT96ipW9TTPWrqHjUdGNTVPWrqHjXNXDbXKswDCQ0BAAAw4PgS4R41dY+aukdN3aOm7lFT96ipW9TTPWrqHjUdGNTVPWrqHjXNXDbXKswDCQ0BAAAw4PgS4R41dY+aukdN3aOm7lFT96ipW9TTPWrqHjUdGNTVPWrqHjXNXDbXKswDCQ0BAAAw4PgS4R41dY+aukdN3aOm7lFT96ipW9TTPWrqHjUdGNTVPWrqHjXNXDbXKswDCQ0BAAAw4PgS4R41dY+aukdN3aOm7lFT96ipW9TTPWrqHjUdGNTVPWrqHjXNXDbXKswDsyg0vK7mmrP6KriX0tXL+qq1LWiXdSWY3FWnLrVejMy/rq+OVeqNRSVaZVpuwYXEx169oIPr/XmrXq5UVev1YIaV/rFXmk4od9EhLfudmbf7rC4F06OutNvt7QzuJem4GH8tNRV66qYCvXHMmzPgruw7pOk3FaugNZgwUGqqTe2qdTK4i559VVyuVetPpn8/ACPRlQ61t15S57XgPoBhgy8R7lFT96ipe9TUPWrqHjV1j5q6RT3do6buUdOBQV3do6buUdPMZXOtwjwwi0LDOq34Vp6mjS/WjqrLwbQkxUc0zS4TtpsK9PTLDV2DuoYKPf2tT7SjIbhfVqKZZvmnf1eiVXOL9MRNeXpue1sws00Fj9jnLdKKRSVadp+5fVuJqoK5aR/bUKl55v5TC6p1cGuZ5t1mbq8/68+LKPmT3dYiFTQHE2La9MFU+1qOqMTebW9Q7twSHQy327Ezb36iafdV6ExwX3XHzWsqV1VHcH+gePsteI3ZzMF2dqlxH7laD3CjaSmu1Efv/E2ng/sAhg++RLhHTd2jpu5RU/eoqXvU1D1q6hb1dI+aukdNBwZ1dY+aukdNM5fNtQrzwOwLDYP29KITak5+6qRQ50pduZ7+VoFeLQsmhBJCw0598rs8zVwUT+K+2lqkaXeV+z3fasr1xLeK9EEs0GvQqz/K07IC2zMw/WO9YGdqZaw32JnXUwc9XmhoXlOXQNE891Pe6w1eU0eLjhac1JlYiNepM2XVyl1Urg/KLuhKc5MOFjT5zxcu23pBVVurdTToLegt82aZ3njzhE62XtaZIyd0tMG8FjP9g7kfa9qdh/RBwQmdsK83uj7PRZ0sts9Xph12eqz+Zju89VxUc3R7grldJW13chh3tU0nCir0hvc8Sb1LW896279qfbWq7HandF1XGhr0wfoS8zqPq6op8UC50tSgT1KtI3i9zcFz+DUKepXaeq40+9YcC2+Y+oQ1iy9vlvUWjD937tYGc4za1xKvZ5ca62pQs+SaJglr8nKFDtZc7Boa9rtmQJb7ulWlFa36OtrRu4uLOr7zmD7ac9qcZdK5pkunmnTq1EXzjgWQLfgS4R41dY+aukdN3aOm7lFT96ipW9TTPWrqHjUdGNTVPWrqHjXNXDbXKswDszY09JrtdXjsYjDf6NITzH/MiuLgbighNGxS7p15WrY38hOzFxQe0kFz88reYk27s1wn/DmGHxQ+9XqLuZ3+sTZAivJCw4cqldyh0AsNbyvQzB+V6GgwzT726KICPXXXx/HXlLDdLdpheyF+72M9N7dEyyYX6AmzjsRlzTpvy9N0U6eCJumSqY/tCTl98iGtmlusJ/7JPmeenn7zgjdE6LKHzON/9ImWLSpRQY1ZR0I9zfM9ZJ7vn+z8Q3puvN1mM6/dzrugHbYHpln3E/9q1+33uJy54GSK4LCH7W6v0yqz7ul3FWtF+DwPBeFY2HPziRKt+t0nmm5e36ojydHAdZ3ZXKTpN/nrD5dbUez3TrU1sD1Dn3jEbKc3L0/z3rT70vBeb/gag16lNwX1bj2pLY/YfWHWa+ZtKW4LlvdrPPPOMrPvgueOrn+8mR8eg11q3KmjC8z922wv1vC1VnbtPRjUJFb7u+xzmseFoWG/awZki6s6deC0fv7nen13ab1ueaVRH7X4nzGnPjxppp3Ua6e8u6lda1JJ7jEVHQ4+XK9d0PEPKvWRmWbbvrzT+tobtvS8KraZadtqdc5bEEA24EuEe9TUPWrqHjV1j5q6R03do6ZuUU/3qKl71HRgUFf3qKl71DRz2VyrMA/M7tDQtpuOxIM2L8Txe4IdNO2DBR+nHvYzIXxLESxG5qcaBtIL+f5UZ26lf2yCdrPsj6LDnsb566v0hiKdtzWY31ypebaH49ZIcBdZ95WCQ2b6J9pSFwaTl3VwbiR885Y169sc9jk7q9y78jRzbl18uNY6fxkvNDS6vNZIaOjNSwg1W7TlvrCXZRAazjoeW/el3cXmscX6JGlo0562++R6s8/uioa0fs9Or27e9ph1ekFlp6reLNGru5N6Z3ac0LKbbJAbDmF7XWf2lmnV6yfNtpl9YObFamxc2ndIM8OepN76P9YbVeG2NeqNO/P0xOom/26kHh7vvg3hgvdA8NxPe4Gyz19//BhJrLFftydWNnr31HBCbyyq0FHv9cV5NfnRIR2MTfdrH66n3zUDssX5s5qxtF535n6pA4eb9Pu/1Ou7G87K+6i80q5TjUlvjmQna7Uvt0IVwQVS249U6SNz/8jBRp048IUKc4+Zt4T//r96/oLOnR+szy8AmeBLhHvU1D1q6h41dY+aukdN3aOmblFP96ipe9R0YFBX96ipe9Q0c9lcqzAPzOrQcPp9JToYHXrSC0hsr6+P9cTUQ1r1coWONqcYfC4h2PMDloTgr65CTwWB11fbi5JCw+s6ODcMktI/NubqWW2xvfRS9SIzwhDSC9SCoU29IOgPJxKH7uwhzEwItYJlt9hs05Mi4AxCq0xCw3hQGhdfPnE9noQax/W03d7zfK9AT9h96LUCTb/JTFtgqxL0UrzJzJ96RDuKUwyB2s3zelLOi9QlWr9AwutOnu/dD3uVGj2t30h+/bHen7d9oudePh4fDjUife0d1AzIEuc+OaXvLj2tA8Hb4JtPT5v7DdpjPivPfWTnnVLul/Hbz73XoFuWNqrUX1wXDtuQsEb1Xm/Cr1X9/jF99GGjOWtb3+jEHnN/Z4Pa1arK98zt9+rN2Su8fVwlO8z/84J/JABg0PElwj1q6h41dY+aukdN3aOm7lFTt6ine9TUPWo6MKire9TUPWqauWyuVZgHZmdoeNPHWvRmY7zHXChF6BO60t6mr9qDbU0Id9pU8Eg43KjPG5L0RyWqsnfKSjQzGgwFQ5L6PQZ7eKzV3qBXf5qn6VNTB4ZWPBQy676rQCv21enVH32s3Jrria8pst3Nmz9JGjY1eO4Uy/pOatVNSUOpBq8lk9Dw6AKzjb87Hgmc/OFTpz1Sra96ERr2tN3+81SrudXsr2gL951xpf2sqraW6Onv2don9Zprsj00be2C+1Gp5nk9OoPrXqY4fnoODSP3U62/47iWpQkNfZ1qrjqh3Cc+1rTvmWMtqXdm19pLJ1abZYP19LtmQJao2XtS3139pWIjkB5r7BIUxm/X65a1p/Xie+eC5aOhoNWsii3HVFQcPy/V5yUHhZHbdljTD2r0Wen5YGkAg40vEe5RU/eoqXvU1D1q6h41dY+aukU93aOm7lHTgUFd3aOm7lHTzGVzrcI8MItCQz/0mn5fmY6m6I3lSRH6hPwhHEtU0nzRu+7ctJvi4YzXm/BHRdpSdkFf1R3XMnuNuqVh2tWgV839p/50QidbL6hq9ScJQ56mfWxdtRbZawr+a4VONIdhzsUuPb2iwdRXW836bDA6tVLewKLR1xQN4oJr1c1b3aCvrl7XlQb/uVMu6wmvn3dInzR0Slfb/NdinishNLynXFVmOy/Z3Rp57itH7LUAC7SioM1s/1V9VVbuPb8/DGjmoWFP2+09z02fKNe7VuV1fbXPf95Xy8yytiemmbelzm7cRRXMMo/zetNF+dsy8w/H1WwX62jyh/K0vTbtPK/HZ4VOdphjqKNFn/zB1CQc2jPF8dM1NDT1s/Wxj++yfLh+U0P75OH6k0PDWI2DIWPN+u2+vnKsTE/YmiV1dAprv2x3S0Ltw9Cw/zUDssOp/FP67l+bFMvd04aG5nZC+n5On70TDQkveGHgvv3x8anThobmdvyffwAYCnyJcI+aukdN3aOm7lFT96ipe9TULerpHjV1j5oODOrqHjV1j5pmLptrFeaBWRQaSlfaL3cJ3BKkCH1i2hv0hg2Pwp6K26M/D1/U0ZeLNPN7dl6BnvpddUJPsCt1lVr2Uz/8mX5bkd4oC6+XZ3X/2ObtxZEhI8NWrIKkUCghmAqvyVcQ9AiMvqakIO5SWZnXc8x7Tf/0id5YlK6nodWiAtubzS5v2hO/K9GKeyJhn3mdz/2TP6/rcJ3XdWb7IT0RPt/3PtayWG/PXoSGRsJ2fy9pu1M9T2xffaWDiz7RdDvdtvGmlrFrI0a0nozva9Om/2u5ToSXQrPHwWR/X3rzJpfoYDiEbYrjJ2HftNfp1bv8x3mvNdXxlnCcFejpl0u0yNwOQ8PkGl+qqtCi8cHydr0vN3TtQevVxBxLNii0y5nX/ercaI9FBzUDssDXBxrUm+FJ7e2YxnoV5Vbos1g35os6vvNYL4YntbcBDCW+RLhHTd2jpu5RU/eoqXvU1D1q6hb1dI+aukdNBwZ1dY+aukdNM5fNtQrzwKwKDZHKdV3pCPZButA06mpn+vA1LfN87dEhTvsqst0ppXueq+axGQRf6V7n1ct+b8qB0tHLGme0fE+v20HNMEhatPvxycoN8mgXWnbO0uS3aoN7w9T5s5qxtF53bmrSR4eb9Pu/1Ov7r52V/ajsKTRsL/1CH+V+oRORf9PRfsRe47BChw6c1okDX6gw95iKS+3Q0oSGQDbiS4R71NQ9auoeNXWPmrpHTd2jpm5RT/eoqXvUdGBQV/eoqXvUNHPZXKswDyQ0zFbetfjyNO/1Jj9sunpWW+zQmN41BgFktc79emHcUpVfC+73W6f2LxirpfbanMPaVZ0rb9TUl+plr1n439Y36kCL/xmTPjS85g89GrueYeDa16r/qMoLC71rFn7UqK+9mhMaAtmILxHuUVP3qKl71NQ9auoeNXWPmrpFPd2jpu5R04FBXd2jpu5R08xlc63CPJDQMGtdV/O+kvgwn6alvd4jMtdepxW35WnemzfAFc4yeS3NJ7zrSs7bnLjMVwWHNPN7RdrBcKaptdVq/+YVWrHydW0rS6xdW91+5a6083J1+GwwMeroCo39Q75sn7dQS9k2vW4e8/p75WpJDhNbyrVtQ/BcR1Pty3KtGDdH+ZEVhutbsXm/aqNPZKR7rti2b9im8qRtT7fOgZZySNKYZlVsSbx+YXoEhel0trWprTXSuo6ZjBTaj2xVzg9yNG6UbbM1PSdP9bEU+7LqN63V9Juj84sShkJP1LvlOws2aOod87325pFgonF+33atXrhJq9eV6nwwzYbzxzeZaWb6jiPR4daHHl8i3KOm7lFT96ipe9TUPWrqHjV1i3q6R03do6YDg7q6R03do6aZy+ZahXkgoWFWu6xLHVd1qbVNX7W6GDLUsusMbo5IF7TjoTzN/FNdimsL9s6l9qH+MbYXr6WmXE9962Pl1kQDwus6sfpjTburXLHLxMF36bBemDhFK/aUq7xsv9Y+frvmfOinaG0fztHt01Zod5mZV5ir+T+fpLVfeLNiat+arFnvxcO/6nWTdPsja7X74GHtXj1dt/98rarDMK81X3Pun6/cska1nSr3nuuFoqT3e12uJs/cpnCNtZuna/K8XO232/DeC5oUWV+65+o8+ILujG37Ws2aMEf5rf68dOscaN+cOa/ct2zvw0aVBtMSfGmvZ3hMJUl1Tu0btXxRr0PvHNNHeUkXmIXRom0zx5jjYrImPxi0DeXBPHSrZrume+FejibeOlcTg9sTZpfKvls7967VhGBatE1fVe8/Pkmvlm8u0rzR8WWWB9fQ7SzeoPvM/Z/9eL5+ZubfN/+Yty1qyFOOXXb0WhUndM0denyJcI+aukdN3aOm7lFT96ipe9TULerpHjV1j5oODOrqHjV1j5pmLptrFeaBIyQ0bNPR9SXaUmx/9I/edqimQk/dVKA3jgX3u3Fl3yFNv6lYBcEP9aldVXOB7WX4iXY4+827r+s8qy335Gnmy43B/f7J7PUHaqq1alG1TgZ3XbhScEjTzPN/Evsh9awKFpWY54m2ch1Nt32tjdrxxMeavsDllvVe19eSznUdXVSgaVMrk4a3bdCrP8rTvK2D3K0sy9nrB969ujq4Z9ieg4/vVos6Vb1nhfIj1yps3DI9ISC055j8P9wdDxKvlWvpuBe0P5YDJg412rh5iuYXRkLCs/v1+p5a/8f/gA0q714Xbo/tdZij3bFj1F4/caxWHDU30z6XXc5s1+feDE/5yrGatdNue5p1DoJzB07rJ389pf/vgIsPza91fE+F9r13XMcbByn1HFb80LDrULedajx6WLUtbaot263cDdt0uC79eaHl88PavTlXuw9Wp+jRWm7mva5thYnz2k6Y50g4v5rnO1iuRnvMdjaq/GCtWtpqdfi9/fI+da4F27N5t8p72J6BVL9qvh/azTzkvTc7d73i3x+9SRXm87U4xw/0YqFf1VY/ZLxls477UyJ6s/xZ7X3QXzZsYWh4ftMic3+Dd53jkmfMvHvzdF6XY+vO2ZSqG/TQ4kuEe9TUPWrqHjV1j5q6R03do6ZuUU/3qKl71HRgUFf3qKl71DRz2VyrMA8cIaHhBe24L09Pv2kHqove7o86rfhWnlYEP96pvUG5c0t0sCG4352641o1t1xVXm+/1NvSvLlIT/+pUlXNfal90nYF+r7Oyzq6/pBWFQTbWHxE0751xPuRsk8SXn8P+vtcXXTqk9/laeai6E7y6/XUI5mGhif16l1FeqOgxb/WZEzqug+cVK+lB15vw0+0I+khJ9d/rGn3VaQZRm8E6mxTWzS1O7JUY5KGG/Vca9S2xycn9jS01zMcs1SHw6CkcZumR3oJWi3vzQqCRhvqzdK2xhZV78nVipUrlFvY6IUScXaZMVoaGZKwM6HnsdmGfwtCyrTPZV9WmzojAc7hF8fEelB2u04MC3+/eEydn43TN5/8X16zt+20rroLDf3pk+6fo6Xv7ddh24v2/tuDUDlZp8r/PEmTfvu636N1Q44m/Xypyr0uz2beysm6M+ztumGOJk/M0e7g352U/zn5ucu1dIx5D9h86+w2zRpj1vur6XphZb45Cm0Af7umrNytwwd3a8W07rZn4LVXlaqkoFQVDf5nqO0p6IV4Xsh3PhbsLdkbfMZ2HNISL+Rbpr1d/qFO5suf2bTM65E4IWe73rzXf0wYGra/v9zcn6sl67br+VvNvBlFai/brAfsem5NFVYOPb5EuEdN3aOm7lFT96ipe9TUPWrqFvV0j5q6R00HBnV1j5q6R00zl821CvPA4RcaXm3TiYIKvbGoXB8Un03qNXVRJ4urlbuoTDsKmvRVbNPTh4ZXmpt08M0yrXq5QgdrLgZTAymfr1NnjpTpuW/l6bmVJ3TwSIuudLToaMFJnemw88y0qmi8cNls1wmV2HXb57LbZqZ+VVWpFXfm6Ym5lbFptkfYlYYGfbC+RKvWV6uqKVr/q2ouS/X6Qim2y5ve3Tr9bT3acNFbb4HtfRlsX3PrWVOTEzoZW6bTHDXmNa4s0rRv2dAsmObpru7drz+238L6BrW/1HAyvt3JoWFsX9jnSdr33vaafWhfX2y7kp3UqptssBcdorOXYV/Kbei57rlbG9TsPfaETniXZQtrc1lf1ZzQjpfDZbwHBswy3v5ONS/VazHS1qFJueZ4e257UvRVU64nzD7NqPfniOQHF4lDhtqgY4zGjJms+QVJvXC/WKu7owFj2VKNSRHkjfmzHRLSBjV3a9Ij85VbWK3qz/crd94kTYr1KrSqtfbuxOsZJjDPN+lXuaq1YWDa50pih0Wd8IL2pxrbNrpODAvRwDAaHHblh4NTnrHX0PRb/qn49Jw9kQPNDov7oDkOgrsx9hhPOj5qP1yhXHPuSzWvs+iF2DU+ew4Noz1ebQ/Y6doWvsVO5WvFlvKu4f2gO6sdQYB338Iqb8rxJXO9++NuXaY3txTqzSnB/VGLuvxDDSuj5ev2RIYZjT9nGBra8LFk4TJNvXWupk7ZrJLm+DJL9mbXtQxDfIlwj5q6R03do6buUVP3qKl71NQt6ukeNXWPmg4M6uoeNXWPmmYum2sV5oHDKzRsr9Oq8Xmaft8hrVp0SM+Z29MeCntItXjXd5v2T59oWTjvtiMq8YZu7D40vFR8RE/8/9n79+iqrjzPE8xyVv1Tlc/pXj0xdK/pLneWe3JWlsdtr1mZpse9XPYk1bjTMavCpHusSXsCVBOh8GrINKuACJukCjsL0laFJRvLREBhTECauIGTh8EpwOJKCIReFrIelmRJoSdCCAkk9OTq4e/svc8+955z77kPwU9Cgu9nrR+cc/Y5++zzvede6Z6vfr+9oggbX1V9biszy9sP20fuSc+nS5yWY8tDNkNtfzdGehux1WZxmcyt5+piZTUHm7DdzCenlj1GWPfJSmx/vAjrX9H96zKcc7h6pAw5K8LYuln1u7kUOQ+FUVCuH/5FUL8zrK6pDAXRsTTFZYcFjCtln44W61eGkfNoGLknlSZmfGG1TW1fVYt6r17D3Tj6qro2dS07ct0Sr+l1T+zfGoFW3+ixz+nzqmt0s94C9s15rtxz/Xa/XqWvet22bIxd357qAOPQ8xrFcEzD3N1NKFhXgo2rlL7H+oLnCEw6hhS6q23m3tLjekZdn1p3DEqrzTMlSpsg7ZSu61xtapCv9o21KYKuJa0OTnbixr1xaS9Trch370+SQN/RDch6r06pF0Ckw2QaFtTHWnW50pyjHiNRmygBRl7WL7UVo8uA+rMITabiUwWI2nw6e/CHxxFnTTqMViHvJZ2paNdTnsuDzZDMqw24qvg+ybIg3jB0IxFrDv5dFaoqnHDKhTrbEw29vNi9aElqRCsC24wZ6PST3jT0n6/vizeRtXoNNu0MofBr7519r5hE45uu4XcAje5n8lgD9v4rx7Az8QdvYt1jejnYNEy/fxeOrnbatn+mf9YGmYZ+ovMkmjKlM7haexk15V0YW0K/xvFLhDzUVB5qKg81lYeaykNN5aGmslBPeaipPNR0YaCu8lBTeahp5ixlrVw/cFmZhq4Z127XdUnQU7k1KO0Erh4uRfbjNYhNwTWEo9qUMeUbvUahd3kAoeeKsMVrotTWYL3Nukp1voQMNa+J4zUJFSPHymImotcI841FMdWO/BVFyPdkCJhj1XU123037rZP8nvbcSi3EfXuA8socePKoE89z51JftNY03BPtfu6x43RN/7MdE/s3zne6Pt4JSqi1+AcG2QaJrwWdi4+kzVn9nPn9oug+XANPi4MmMvJvEbqfHbVwdEr+7vVOBNuR8WxamxReiVk4ylSjiGJ7lsPxh5yT1yoTDAN/f31m/txfV5vwHyFozizzmkzBF1LBjrUvKXO+ZZnQj5D3NiJJYKWj9Zi1ZZCxKbGG0VHtZ1/zUVn90VNkrj5DDWj5/DG8/vgyx386PloWdC63WviyoD6jRr/fIYe+s7hzZeyUOA1/tKcyzDRgn3Zq7Dp8wBXMKhPsiyYb6ah37jTZG4a6nvyiZ9W2TU/gW3a+Lb3pTYNE7N2k5uGhtkIhjqrArJwF5tR1Ox40zHmvpOPU/EfpZjBjeZma9R14eifapPvA5xPmsWdfP8bv8o3BuFTv/ET/MWfvol1Kv5f39Hrm7D6T97E3352w/bh0oYDukTpb2zDgdobOP8jZ18Tf/IJGjMpCb4I8EuEPNRUHmoqDzWVh5rKQ03loaayUE95qKk81HRhoK7yUFN5qGnmLGWtXD9wWZmGwYaHQ1CbMbSMAeU1vrzLjlmSs1JnmNl4JoxstW1PderzJRgtvswvx+BxMrqc820/Zh/a+0w371gUpg81nmc841mpxqD7VV25WZE5K0uxY1cruofjSlMagsaVrE/n/Fs8xpYzPq8ZFTdG3/gz0z2xf+f41Mcq4vd9JBy7hlVh5CgtsndqK9Zm5a1Q7euqcar8Ztx8gxb3NfIl2jklQ5sHY1q27y1B9ubWhD5SjyHV/eDi3cfRJj7r7+pB5/rrtA76eqLnKsH6R9S5XrEGbOC1pNch+J6OGzsxmXiF27OQtbsKo74SnRFUvfM0NngyCVv2rsHaI3Z9tsqYLNH5DA2jKNzyPPIq7GeAzuR7PlaCMVLxNtb8NHae0Yo8PL+lUB3loOcd9GUiKkbr92Ht6k04bspKekl9LvQUOqZgtcdEtCTvc2kxMz6OsVu3EfTp9yDzrdCchpmYhk5pW082qs5cXf+kYwa6be59NDuEizufx1qb7Tp6ehOe3HnRf78nMw0jddiX/TbOuT9C2g8i67VCNdJ7wFgXjq79iTXhfo7zcR+jNz7bZ4y9dW9edrKSB8/jDb2vmfNQM4qu8stoteXB0+1/45PcmOkXEJs+8f9BiLv/s3pew/4iU9b0L3+h9rlwwGzfG/cZcq/glwh5qKk81FQeaioPNZWHmspDTWWhnvJQU3mo6cJAXeWhpvJQ08xZylq5fuCyMg3rdxYFmjmaxLY51OeGkf1qC0Z8xpd32ZkXLv/kCEaGR30xoS471fnSmUQmU0xn85ntZTjjptr5TLc4Q67fyVA8VOsfy8jwuGcMEQw2tyO0sQTZj1SiIiF7IG5cKfuMO78mzhRMZxpmrrvFc3yQvsawCzANnX1bMOi7BhWeumvTYwNoPlaDrY9oo9L/QNUQVIYzOhelXVcY486M30/qMQTr7j+XPr/fNPQbeHOOqafO3XFEjeG7tWiOP9ewzdBJUVI0uQ7qnK/EvR4aM9Z4g/PBxpRYNHMWesOaGRMtOPjaKjy9OgtZq59G1t8cR4dbz1aXB/XOZ+gydBF52avwpOrnydVrkVfmtT0i6vV+A2teWIOsF1Zh1Wv7UBVtDprPUBs58WN7AhtO2IOSnssxheKPc7Ik0/S5ZLiJphMNOF9y3a6T+ePcB0+/oO7fl20c0PfAPExDReTrg9iwehXWqOPXqP/fONLhmF+6rT2EN9R7Y9VLTtuGvVUYco302T6c+5ssPPmsut9V+4YD+/BmikzDobI8rFV96HGuWp2Dg1+7Z1lcGncEm3fRcqKDZdjuyQT8iz9wlnM+umKOv/rRTmf/7+xDjf55k2Z/TE1iTH3mx6IS7+rjVbz7D2rd+7N/qgEfmNKmO3FU/0wYVn2r/da934yrn3ygtuvsQ2fXew2/RMhDTeWhpvJQU3moqTzUVB5qKgv1lIeaykNNFwbqKg81lYeaZs5S1kp7gdorXFam4XR5NdavKEWoYVytzWDkrC736Bgn09WqTc/VFx7FtG6rrTPzuzllOb3mlXfZzhP4Sh2aTdbeOCreUusrdenO1OdzTaL8QmvkxGeWmfKUYWx/pQTZr7fHjDGf6eaMZcvePtXHpGPivVKE9a+3YlDLPjOAo3q+QGNgOaVU17/Vacys6YZabEzINNPEjStln14tLL7xaeL2Me2VKB0excTU3Dx0t3j6d4/NLxzyHRtkGpp9o6/FHEYuOMd+XKvGYEp5luJop77AcYQ3qD5M9l88/QitihuPq6vSp1ubcp2tyF/pyQz1kGoMyXQ395YWfmoIpa87Waw+01DdTx+XW+3Ka8y8iEY7Mz+h1sbJFpzubDTaxMqmJl5LWh2M0ajHa9ct02fLbblacrcEzh94N2gT5eUQBHtc3gz3ojzUgMqvbtsN5J4TSWHipWqbJ5EJub7uhMb3nRKhifFznLc/hyPNRXh3tc1G/M5PsOmdy3CLiI79w8+xWm1/9l8ds5mHqfdPpAEf6P1UxM9p2LXHMSRffLPBGrczaP0w15xPb1/3WlmKfhcXfomQh5rKQ03loabyUFN5qKk81FQW6ikPNZWHmi4M1FUeaioPNc2cpabVt99+Gw3XK1xWpqF+ENZ9rNyU6NTmS/YjJSg46+aDzeHqyUps1CUcbVv+4T44CUBe8yreyBpCeHMJcvQxKnKeq0S40y18l+p8k6jJtcdpkyuhHKXNuFPt+WHPw06fKafGfKTMKXHpbhvrxaEs5zgznqza6LyFE82NyH3GjkXF1l299vq8xI1Lb0raZ2pTzyFun7FOfPycPb/ZlqnulvjrPxnTV2v/8bbg8qSB5znpZkGNoCK3NPoaZj9T7nkN/bjzEvosxUF1Ta4+j4SxfVd3QpahQ6oxJNFdXb/Zd0VYvV41yFXLXtNwy64m3z479rvaqde7thZbH/Ue73+9E68ltQ7uXJax+Sc1dq5EMwcluTsC5jO8S5LOZ7hsmUHPpSt44b0uPJzXhcd+3ofiIednzPXiHrWtB6FrZjWQuaY2FIea0eIm0I5dQ/1nDWqbE+WXBuEkYPWjRm8rSvirCkLuHVOL/PuUzlb0ZOMvBfglQh5qKg81lYeaykNN5aGm8lBTWainPNRUHmq6MFBXeaipPNQ0c+6lVl6DMCiWqWnoMofppA/fVNvYnWQkREzmXDCpzrdAzEyaEqmBTEVM9tm8SdXnXXOnumtmlL7JtI8n1Xky6GewBTtWhFFwQWdC3inzvNbA1yvOUE3xmk6P6SzUAJJeS5AOvfh4ZRG27I8r21pb48meJWSBuTGAH+V1YVXoGi5V9ePHH3bh4QMD0D8qMzENr11sRPHRDji7zOJKsVoPNaO+tg+t55rUciO+atV1MGkaErIU4ZcIeaipPNRUHmoqDzWVh5rKQ01loZ7yUFN5qOnCQF3loabyUNPMWWytgszBZLHMTUNC7pyrer7AldWosRmc94aALMw7ILNrmUSNLrv7is2AdBnrRIEuxXp4qc1bR+5XrpdqY/AKLllP+/aXV9R6L06rn5WOadiNv/qkB4/ldeHh97rwV6XeH6K30KKzCov64RzuGINl5e57aBCNR935Dq1peOIbVKptJhPxaBu67ul7nhDCLxHyUFN5qKk81FQeaioPNZWHmspCPeWhpvJQ04WBuspDTeWhppmzWFoFmYLpgqYheYCZw7Sdk/HeIWMaZnYtEUzofeLfylPjdi5NQhaHtrPdeHjvNfTYdTT0RbMLHdOwC+tODaHn1giKQ2pfaygaJq+gMtSA8st6TtHYevXXOrNQM4ymE252oTUN/74VrV23cLO9A2Vq3TEUCSH3Cn6JkIeaykNN5aGm8lBTeaipPNRUFuopDzWVh5ouDNRVHmoqDzXNnIXUKsgInE/QNCSEELKo9JzrwcM/60e0Gm6CaegpT9rdjz/L68KOBrve/mucDzWhqc+uz/ahOtSAyq9u2w0BpmG0POlttJ9W6ye6cLc2PSHkzuGXCHmoqTzUVB5qKg81lYeaykNNZaGe8lBTeajpwkBd5aGm8lDTzJHQKsjwkwiahoQQQhaVW5d6kbo8qcc0vHYN6zym4VB5E4o//TWuOKuK6/jq0zTlST1zGnYV0TQk5F7DLxHyUFN5qKk81FQeaioPNZWHmspCPeWhpvJQ04WBuspDTeWhpplzN1oFGX2SQdOQEELI4nJjAD/K68KqT/pRXNWPH3/YhT/8xQD0j8rUpuE4Wj9vQPHpK4iYRs0srhQ3ojjUhJov+9B6rkktN+Krdl2ulKYhIUsRfomQh5rKQ03loabyUFN5qKk81FQW6ikPNZWHmi4M1FUeaioPNc2cO9EqyOBbiKBpSAghZJGZwfW6Pqx7vwt6/sI/3t+HS0POz5iUpuGsYwJG5zN0GRtE0xltFjag+FdNqK4YxJRpoGlIyFKEXyLkoabyUFN5qKk81FQeaioPNZWFespDTeWhpgsDdZWHmspDTTNnPloFGXsLGTQNCSGELA+6O3Ah1IjGbrtOCFmW8EuEPNRUHmoqDzWVh5rKQ03loaayUE95qKk81HRhoK7yUFN5qGnmZKJVkKG3cKHP58TkrRkTNA0JIYQsaW5W6GzCNvTYdULI8oRfIuShpvJQU3moqTzUVB5qKg81lYV6ykNN5aGmCwN1lYeaykNNMyedVsHGnlTEDMKgoGlICCGEEEIWDX6JkIeaykNN5aGm8lBTeaipPNRUFuopDzWVh5ouDNRVHmoqDzXNnFRaBRt9dxOJxmCymJv7FhMj0yZoGhJCCCGEkAWHXyLkoabyUFN5qKk81FQeaioPNZWFespDTeWhpgsDdZWHmspDTTMnmVbBpt+dRKIhGB/aIIyPb1VMjkyboGlICCGEEEIWHH6JkIeaykNN5aGm8lBTeaipPNRUFuopDzWVh5ouDNRVHmoqDzXNnCCtgs2/+UaiOagjmUEYFDQNCSGEEELIosEvEfJQU3moqTzUVB5qKg81lYeaykI95aGm8lDThYG6ykNN5aGmmROvVbABOJ9INAp1pDMIg4KmISGEEEIIWTT4JUIeaioPNZWHmspDTeWhpvJQU1mopzzUVB5qujBQV3moqTzUNHNcrYINwPlEcqNwvmahGzQNCSGEEELIosEvEfJQU3moqTzUVB5qKg81lYeaykI95aGm8lDThYG6ykNN5aGmmXP9ygiCTcBMI7lZGGQEZhSqEx2uV0jTkBBCCCGELDj8EiEPNZWHmspDTeWhpvJQU3moqSzUUx5qKg81XRioqzzUVB5qmhnamLtz01DILFQHJguahoQQQgghZNHglwh5qKk81FQeaioPNZWHmspDTWWhnvJQU3mo6cJAXeWhpvJQ0/S4xtydmYbBZmFGhqE5Pjjm5uZ8MTESMbFkTcOp0VkGg8FgMBgMxn0So0OT6v/g3zUZdxbUVD6oqXxQU/mgpvJBTeWDmsoG9ZQPaiof1HRhgrrKBzWVD2qaOlwPTsetwQnfevrQx8diYmTahDv/oI5MzcJ4kzA+lrxpSAghhBBC7h/4l4fyUFN5qKk81FQeaioPNZWHmspCPeWhpvJQ04WBuspDTeWhpsmJN+7ml2kYnGEYaBK6YY6LRZA5mCxoGhJCCCGEkEWDXyLkoabyUFN5qKk81FQeaioPNZWFespDTeWhpgsDdZWHmspDTZMTb+JlZhourlnoBk1DQgghhBCyaPBLhDzUVB5qKg81lYeaykNN5aGmslBPeaipPNR0YaCu8lBTeahpMPFGno7UpqHfLNSR1jBUO3kjyAxMFbOzszbmMD4cMUHTkBBCCCGELDj8EiEPNZWHmspDTeWhpvJQU3moqSzUUx5qKg81XRioqzzUVB5qGky8oacjuWkYbBgGGoU61A5uBJmBycJrEsYHTUNC7muGcOqVIqx/qxMTdgshhBByL+GXCHmoqTzUVB5qKg81lYeaykNNZaGe8lBTeajpwkBd5aGm8lDTRLymnjeCTcNEs1DSMExlFHqDpiEh9y0R1O8MI/uVRly1WwghhJB7Db9EyENN5aGm8lBTeaipPNRUHmoqC/WUh5rKQ00XBuoqDzWVh5r68Zp68ZFoGs7DMDT7OxFkDsZHJkahN5agaTiHwbYBjNi1QGYmMTI8amMS03ZzIhFMDI972ucw0tCEQ7k12KMiFL7pP3bmJir2O217djWheXjONmhSHzvd347QtnJsfbEcBfs7MWi3+zDj9o7Hix7rKCbutTfb1qKurwXddnWh6T6p9Dw5YNfmQwQV24qQvaE19b1yr/DoOH2hEjkryhEedpoWjbY6bHmoBKG2zO9jQpYN01MYG55AZNauE0KWDfwSIQ81lYeaykNN5aGm8lBTeaipLNRTHmoqDzVdGKirPNRUHmoaw2vsBYXfNFwYw3C+ZuHMzKyJsZu3TSwh07ATBQ8VIfuZcpxqnrTb4iivRrbex40VYWzd1ZtYfrG3EVsfKsWpXrteW4P1av+tm2uwZ1sZNq4owo6To7ZxFOFX9XnLUJBbg/wX1fLKGjTb1pTH9jZhu1rfsrMFFYV1yH1GHft6e6IZY8cdO2eMkWNlpq2g3G5IwdXDpch+0Zs95miWybFpMWOsRo1dXWhq3lJavdVp11Ljv+45XD1bg4L9vUvT9PLq2Nmq7pk6NE+ZlkWjfW8Jstc1+U3VlO8BQpYPQ+VNKP7017hi1wkhywd+iZCHmspDTeWhpvJQU3moqTzUVBbqKQ81lYeaLgzUVR5qKg81dfAae8kiZhomGoaBZqEOs7+cWeiahN6YVTF+87aJpWca2tia247B+FPHGVvTnXXY+lAYH9faDS4+0zCC0s1FWJ/rOojWqHuuzsmqa6vDxofKcCaaItiLjx8vQn44opZTHztSXoc9eztj5syFSmQ/UoN6uxrFNTvdc0YZQOg553pjxl8EV2tbENLZYMd6YxoM9uPMthJkr6rEmXA72gfVftW12KGO3bG7HRXVQ5ieGkJ9uBtXh2+i+VgL6m2G27Q6tuJwLfbsakRF27izMZ4E09AdRx3O1N50+gj3B2b3Tff34sz+Ghw6rMflfdFmMFjbilO7nGu5OhXLfPOZhgl962trR32veg0Srlvp3qyut9lreI2ju1yPtRandD/RIbj9jKtxeK7FtiYwM4r2cCMOmX48Wa8+XdVrvr8Fzf1J3hdeHeOvy+3fvg4Tvd3O66bb7L6DwwPmtdJadsdlvE73OjqnPD9umrkMtx6+adc1ad4DhCwFbg3jcuMwbnlv+wTG0fp5A4pPX1F3dSpmMdHTj56ecfXOIYQsFfglQh5qKg81lYeaykNN5aGm8lBTWainPNRUHmq6MFBXeaipPNQ0M8NQR5BpeLeGYSZmYZBJGB9L3jQ0obMOGzwmV4KxlSTTzmca9iO0qgj5Zz2PmI1RWIkKtTh9thzZq+rQ7rQoHINly8EhtZz62BhzmB4eQOnrYazf2Z0k01C1rdQGp+cRts7+eq4EW6LXMIRT69R1P1qK/GjWo7reMdXU1oL8V8LIftxpC7eNon5/uTl2y6vaSOrGiLlufZ4i5Cjtwv3AhDq3zirb+GplNMNs+2F9bXH4tLXjeKQEO7apcWSFsVGN3a+9w3R1Ndarc25X+xX8oATZK1zdJ1HzljrG7UNfi27rdK7fZxomvK43cUrtb4yvhOuOz1JUY31FrRvNKrFDZ3u6mtl+svX1/yB2/YGv0Vgn9qhjc54rR4HbjzsnoNFVrdtrMdeprnlPdYBt4b0W77LtPzrO55z7IZpBafZ12z16GS3ncPVIGXJ0Zq3OFNxcihx1/oLyoIzcoPdEpvcxIQvNDHouXcEL73Xh4bwuPPbzPhQPOT9jer7oVtu68YsesxrMbD9qQg0oq7K/iMzeROuZJhSrbTouFF3BLVO29AYaj6ttxztw3exICFkK8EuEPNRUHmoqDzWVh5rKQ03loaayUE95qKk81HRhoK7yUFN5HnRNXWMvk3BMw8UxDDMxCt2YmZ7B2I0pE0vbNNSxojqWuWeMlTIcCrejQsWZndqkKkM4fiJBn2kYYKJ42hNLfnpNqdTHupj99Vi/WxPN7vNhzaMzOrsrWjZyFGfWFWH7saboOabDlep6ylFqDC+Ns8/6POdkacuTWnNr+xE3t83JZNyyt9+uK0yZSqVZ/Dg9BpcZh7rGo9bg0wZgxbZg09CMaVWtNV1vomJXDY5Wj0dfq1gGp+3DXn/GpqEi/rq9x5q2x73ZnUM4qo51suqsabihNVrCdqKwXJ1LaRxXMrR7v7qXnvOax07GqSnhaXXNLXRNukmUblD9bm5NYhAnmoam/8crURF9bZ1x+k3DEhxqdjXvw6FVRdioX7upduSv0KZfzCQ0mYLquqNldKPoe0K/dnbVkNl9TMiCc2MAP8rrwqrQNVyq6sePP+zCwwcGYH6tmB5DT1/0DRJMdwcuhBrRaFNkx6qbUazWqyv60H7pG5wPNai3kpOFPHPjJq7fWKyfX4SQTOAXM3moqTzUVB5qKg81lYeaykNNZaGe8lBTeajpwkBd5aGm8jzImnoNwUzi+pVb6v80hqFn/yCjUMfdmoXaJIwPxzRc4pmGOS/WoMJbhtEYK0VYv6oEG9dVmnKb9YMBxed8hohj/vgMk85GbLHG0cjJsjgjbg4V24ocsybNsT5mRtG8O9GANLjmkTF/ShBqU9va6rBlRSUqpmKGjjHAVoSxUV+fjfWPKC1eaYL23jIzDb2GkdOeszLW38ZntPlXhD3VdhcXj8GVeB6Fp92Hm0H3SBhbX61FqS1/mq4PKdPQ148ltr+/H0MSs8z0o64hpn0YOSvUtp3dgccEXp/Gey3Jrtfi6yNA3+gx5vw6e9TzOq5UbXpMHj/YwXnN/a/vPO5jQhaQ66U9eDjvCi7Zj+3bX15R6704rX6vuF6s23oQuhZb3nGiF4/l9eGysztuVmmTsA1dJpvwFlo+a0DxF322BOlttJ9W65/3YgzDaDqhlk90qU8Bd7kVNafU/0UJbxpCyCLBL2byUFN5qKk81FQeaioPNZWHmspCPeWhpvJQ04WBuspDTeV5kDX1GnyZhGsaasMw0DT07BtkFupIZhjemVmotzmhDcOlaxquKEHu4b5odliUAGPFZXpsFCNjdqw+k2cU4VfdcqMOpiSpm6VlMu+8ZRqdUo4mwyzNsSNtnf659cx5VV/xkkXHPYf2vSVY/5Y6LjdsMwBjxt/gkVJkf7cWzcPqWnzhlJVMNKqCTcOYudWNPTpD7eRIXH+jmEg6RjsOX8lWe91JtNdGq5nzcH+5Kf9ZcCES2Ic3O85noiW8rpmbhvU71bIv428O9Urb7FdbMDIP09DppwWDcTqZeyrgmPmahonjhLkXMjIN+5uwXWch1saNbXg8MdMxqBRpuvcAIYtE29luPLz3GqIVSBv6EozC2HIXHtt3BT89cd3u7zUFNYNoPNqAsvLY+7urKN4o9CzrsqZn2vDV5Rt2b0LIYsMvZvJQU3moqTzUVB5qKg81lYeaykI95aGm8lDThYG6ykNN5XmQNfWafOkDPtNwoQzD+RiFOqYjMyZGb0yZWEKmoWNw5bxYi/rhgOxBTYCx4uKUl6xBzeC4mf8t22TxOW0mm/DxMhytvYmRzlbkr4yV/ITOwlLrW95qR/fwTTTvLfWVPE11rFNOtBRH2yKxTMMgI8Y77kFtABWpdbd0p8f461VtK8LIL7xpzKDpzka17hqY1qj6Xp0xFR3Tzzk2v1AbSGoMCeZWBPU7w8h+RR+jNR1HhZ5ncGWaMZpxFGH73l6MzMxhute57iDtje4rq1Gh+59xSmpuP3Iz1sfBfnUtsT7cUqk+09Bq4uw7g5GwnicxzjT0XLf3WHdOxYLwqHNsbZ05r1PKM3PT0PSjXsuQmUNzDiMXnH7NHJQCpqE7zvzCId84MzIN9XW8ou6711sxqF/3mQEc1fM4GmM0HmdOzqi2ltTvAUIWh55zPXj4Z/3QydaGlKahWva9wa7jq0+9JuFNYwZeuBirT53SNFTLAbO5EkIWEX4xk4eaykNN5aGm8lBTeaipPNRUFuopDzWVh5ouDNRVHmoqz4OqqdfkSx9OSVJtGqYrSxpkFupIZximNgsTTcJptd0bS9A0BKbHJo1ZlpQAYyXKWC8OvVik2lXoTMWT3sfD46jfVeaU+lwRxpbNLT6zZ7qzCfnfdcp25qwsw6Ha2NxxqY+dVG2lThlLfexzlTjV7D3W4ht3BBWvq/1fb7fX6s8WnKitxdZHnf70+bbu6o1lXKpx7rBtzv6TqMktQY7eV5tPgYbYEMKb7T4q9BjD0bkKPcRpa8ahr1kf92gpDuUmyTQc68OpjSXOfrp/bfraackSriW305RZ1fhMQ8zh6kknS9Hpoxw7VnnMvrjrTjy2EhvdsT5SgvxolmrmpmFgP+49JGAaJlyjeh0+3ubpI+De9l2nvr+znHvUHJ8V0zkex8yOmeYOqd8DhCwGty71Yj7lSfVylL4ulIUa8VU0fXkcrZ83zKM8qV4mhNxL+MVMHmoqDzWVh5rKQ03loabyUFNZqKc81FQearowUFd5qKk8D6qmflMwVTiGoY6kpqHdN8gs1DEfwzClWWgNwqBYkqYhiZHWQJ03EUxMBZiFKZnD9FSmr38E6r4KRP5aglBjHfOW5LxTpPpJhnoD2tchqfGYipnJxNKyCTjZs1s95UjJPaC+AE/uvKjeGVIMofC1LIT8SaTLixsD+FFeF1Z90o/iqn78+MMu/OEvBqB/rUhnGo5d/gbFoW/Q7vm7jLFqPcdhIyovXUH7pW9wPtSA8ss6M5umISFLEX4xk4eaykNN5aGm8lBTeaipPNRUFuopDzWVh5ouDNRVHmoqz4Ooqd8UTBcx03Cgd+QODMPkZqHXMLxTszASmTZxa2jSBE1DQhYDM3emW0ZVMdyJggUsEeqWWz0VlFVKFoWOX2ZhwwlB4zZyEW8/lYe6Wbu+LJnB9bo+rHu/C3rOwj/e34dLQ87PmNSm4axTejQ6n6Fl9ha6ipuNWWjmLCzuwy2jD01DQpYi/GImDzWVh5rKQ03loabyUFN5qKks1FMeaioPNV0YqKs81FSeB1FTvymYKmKGoc4wTDAN7X5BZqGOIMNQR3LDMDOz0DUKvTE6NGmCpuFdM+TMN/dWZ6yMaDxT/QipfTbujNtnsN3MLbf9CDPC7n8m0X44Vp5Ux8aNTehewLfX9NgoRsb4/r1jZkfRcT6Egt0FCJ3vwGicWTdUexwHVVvBgUK0ONOOetBZgc9j3zd2VZOuv3q3v+OoC/pI0JmLr59D9FSzQ6g7cTC4v1TnSnXcaAcuHlFj2H0Qx2sX93MpsCRplEE0HvXPX5gaGoWpiIyOYnTYE0l/eBEfY104telNrP6NTXhKxbN/lIsDF27YRoVqP/v+J9j7zjGc9ZYq772Mw++o7e9WPvBlofnFTB5qKg81lYeaykNN5aGm8lBTWainPNRUHmq6MFBXeaipPA+apn5TMF3EDEMd1+dhGgaVJE2dYTh/s3DaE6NDUyaWtWk4MRYwf+CiEkH9zjCyX8mgxORYK/JXFCH/bNyY2+qw5aEShNqYEfZgEMHEMM28pc8ozr3+NLL+JoSLFRcR+pssPO0x7Fo+WoM121VbbR3qThdg7bNv4NywbdQkZAWm7m/0izeQpfqr6xlFX+0+bHj2bVyMM3J8mYuzHQj9MAtvHrmIOjWG4++o8XzU4rSlOleq4yaq8PbqtSg4ra6p9iL2vfY03vgiwQ1dEG5fvYHQL3X2YR8u220+run5DBtQ4zVhk3IbQ990ofLTBhQX9dttJMYQjq9/Ak+/kIWsl20cqLNtJDmjOP8jxyz0xzYcqNXtAzj152r9D7Zh3Z/8RG3PtfPgzqDxzW1m35w9XXrDAw2/mMlDTeWhpvJQU3moqTzUVB5qKgv1lIeaykNNFwbqKg81ledB09RvCqYKf5ahNgl9pqHdb6ENw+RGoWq7rbbZuDU4aWJ5mobDfTi1sQQ5O7vthnvEPA2/kWNlyH68BvV23WEO9blhZK9rwojdQgi5xwwcx4aXQ+iwq1BLoZc34PiAXh5C1d+FUOcxCat++gTyjHFg+WYfnvdmBabsrw+h77/pMwmHyg6isN07G6I2Aj2ZizrrcEthrP+hQmx4qgDG+kl1rhTHDX2+Ac/vdY1Hhd73tUJ1tQvP9UtX8Gc/68G/vyTxC8YttJ5uxIUTrWjti0vnJArHNPTdr4YI+uqr0DE0io7aQoQOHEdVZ2rTeOjrKhQeCaGwogVDcVKPdtaptoM4ft7fNtquzuE12NXd2FFRhz59u0f6UFfRgaHRDlSduKjeGQqdNavHc6QQdWnGs6C0ncQ6YxLm4nDtDYwNX8FZayI++5PLSr0GfKCW//IX6o3WeRp/qZY/KHeOy9HHPXYAjVNOVw8y/GImDzWVh5rKQ03loabyUFN5qKks1FMeaioPNV0YqKs81FSeB0lTvymYLvyGoc80tPvM1zB0zcJAw9BjFAYZhsnMwvvANOzGx8+V4VB4yJkbLspNnHqxCFsPL14xuva9JfMz+6baTbZhQXmcyWjMx1KblUAIuedU5+GJ9/zZV3XvBRktitEq5L3kzzTUWYE5R43l4ZCqP52VuP44+oZaUGhKg4ZwscdrGCr0Pk/koco1X2Yj/pKSfceR8/w+GMsv1blSHRcZxaj3tLofr/FJljTfjjcg8tVTuF36j0zoZb0tkWSmobN9jbqX805cRNX5EN586Wls+DzINo6oe2oN1vy7gyisqELhgU1Y80Ie6sy9pdp2Z2HVq/ts2xvIWr0JhfbtkPg+qkPeE9bU1ob3E6rf7+fg7d3n0GfM8qexdnchqioKUZCdbDwLz41f5RuD8Kk/L0K0IOmFA862x46gFW048NgmPPvyMZzasRPPmgzEWHbi9s/4TtLwi5k81FQeaioPNZWHmspDTeWhprJQT3moqTzUdGGgrvJQU3keJE39pmCqiBmG8zENpQzDILMwyCjUcXsqYmJkcMLE8jMNZ0bRHm7EodxanAoPRA27keYmFKwqwsZtTagI99vtc5ju7cWZ/TUIHevFoDm2He1mWqwIrla3o753EiNt7Ti1y93HHGiJHb9nfwua+72NN81chokm5Ti6zfjqcKY23tiMoHRzEdbnxbuD/Qipse84yYeKhCwFhk5sCDTeouVBNcbgeAJPrFqLffUpsgIVKfvT/Ty/Bjm6nOjXLWjRZs0La/zzIcZnLsahy6Wu/aWTW5jR2C3e4/w4Zs3bZXHmJVmyeA1Dr3GYiGMOrv1rbVA7ca4ntn3Tac9d1hlCli9r1aLvx++r7Z4Mwo4vChCqVvdYQFuk7O3ofJzpTcNNKIwa8HUoeCoHx13/veccCo7WJX0fLCQ3Psl1DMI3PUZs7RG8qLf9xgE0qtVIcxHe/fNt+Is/ycW7n3ThRvkBp331SbAwqQO/mMlDTeWhpvJQU3moqTzUVB5qKgv1lIeaykNNFwbqKg81ledB0dRvCqaLxCzDqGlo94k3DB3TMDHiTcNMDcNMzcLlbRqOdWLPM0XIea4cBbmV2KGW3fkEu09WYvvjRVj/SiX25LagG3O4eqQMOQ8VYeOratvmUuQ8E8Z6tV6gS4bZzMT1z5Qg59FS5Lv9raxGzZhut8evCGPr5hrn+IfC6lh3TsJOFET7cnGMxOzvlqsxVGLrI6r/nd0+49BkJ25uDTQTN+7l/FuELAX0HINBxlugiTasMw03oNCUGlXMqnVvVqAiZX+6RGjc/sZk2R3bv+9ojj9z0cNodR6yXjsOtxJnpmOPP85L39ENyFJ90DJcPsQbhm4kYs3Bv6tCVYUTTrnQoAxEbejlmfK1XoKMaZfANmMGOv2kNw395+v74k1krV6DTTtDKPz63mQZajIxDf104ehq3bYNH5Sr36MGu9AYvozW3iX2h1iLDL+YyUNN5aGm8lBTeaipPNRUHmoqC/WUh5rKQ00XBuoqDzWV50HR1G8KpgrHMNSRzDQMNgxno0ahjGGYWIY03ij0xvD1cRPLyjTs3l+C7Ofq0G7XgV58/LiboRdXntSWAt16MPaQceJCZYJp6O+vH6HnbCagPT7/rGsSxuYkbDZr2jQsxdFOs2JxjMTcQueY6dom7MlrhXfmxauHS5H9omN0eql5S43lLV9nhJB7RUJmnyd7MDKElooOX7aTNkqimXxBWYGp+kMdCl6wJUJdar0lRhMzF12MofJSgS0LaUl5LofA4wwRtHy0Fqu2FAaaiWTpMt9MQ79xp8ncNDTG9E+r7JqfwDZPGdxEAzu1aWiYjWCoswqh7Wuw5iPfO2XRGPvsA8c0/DenYz+/3fKkf5qYSaj3f1a3rT2PG7VH8BfGXHRi06/cvzB48OAXM3moqTzUVB5qKg81lYeaykNNZaGe8lBTeajpwkBd5aGm8jwImiYag6ki2DA0puGVYNPwXhqGU5O3MaX+Hx6cMLGsTENjrD0SxsZVJTbCyFmhtu3UtlycadjbiK0J8wR6swOd/eOz+64etKaeOb4IOc+451KxUp1L92kOcfraU20Os8SyG3OeKUPB4e64cqc0DQlZFsy2YN/zGxAyZRsVPSFs0KaHMdL6EPr+GuRVW1tudgiFupRnhWOEBGYFpuwvgqp3VH8Vbn+jqPrp87EykQGZi3qfOmPuBWQKpjpXyuP6ULg9C1m7qzAa37aEmBkfx9it2+rTlnj5VmhOw0xMQwyfwxvPboiVDVX3zvH1TzpmoNvm3n/q/XFx5/PRMrijpzfhyZ0Xo/fYaEUenk9mGkbqsC/7bZxz//an/SCyXitUI70HtJ1EjjH9tuHdf7iCsf42HH3ZMQGf9WYfaqYa8MFjzr4HlJ6NO/TyAdRgAKf+jVp+2TMv4gMGv5jJQ03loabyUFN5qKk81FQeaioL9ZSHmspDTRcG6ioPNZXnQdA00RhMFo5hqCPBNFQbtWkYbxg6pmFqwzBmGqY3DOPNwiDD0BiF1ix0Y1mWJ63fWYTszS0YHB7FiDfG9BjjTMP+Jmx/qAShNmfVMNWK/DjT0G/UzTnm3astGLHHH6qNO9fwuC0t6sxDmH82oIDfzCS6a1vwse7/e42+TENzDQnmoBpL4PyIhJB7RaQ9hDdeeBpPPPEEnn7hDYTaPe/1vnN4+/tPq+1ZWPPs08jZW4UhY4IkzwpM2d9EB0J/vQZrdH+rV2FDtD9FUOaizkTU8yn6whoviqTnSnGcKSuZ0BZgGN1TbqLpRAPOl1y362T+OOagvnezXrZxQL/K8zANFZGvD2KDulfXqOP1PfvGkY5oOVtz/61+GqteCrifZ/tw7m+y8OSza5Cl2jcc2Ic3U2QaDpXlYa3qQ49z1eocHPw64GfuojCJ8k2OSeiL7+TjVNyPdLeU6bObKo0mre9uU+s/x/nOBuz9U3XMj8pgqqA/gPCLmTzUVB5qKg81lYeaykNN5aGmslBPeaipPNR0YaCu8lBTeR4ETRPNwWSRxDBMYRpmnmU4P8NQH6PPO1+WlWk4XV2N9StKEWoYV2tzGLmg1h8K4+NanXPimIBb9vZhZHgS09aIy36lDs063W9qCKWvh5Edbxo+VIKPy0fV/jMYKa/BFtXulCR1jl//equTLTgzgKO6P20o6sPhzEPoMwBtSdPtBwdUf2p8J8uRvaIa9bbZNRqdcqoejJmpr8OuE0KWJ7N1yHvqbVwU9DW0mZdls7QeeIZ7UR5qQOVXt+0Gcs+JpLjZU7XNk8jEvTILPczcQM07+Vj3R9ow/An+4s/34VRzrIS5YawS735Ht+fGKh30luFv/5U1Gf8gF4drl87vVYsNv5jJQ03loabyUFN5qKk81FQeaioL9ZSHmspDTRcG6ioPNZXnQdA00RwMihRZhjpUw0DvcIBpmIlh6JiGuuxoOsNQ76P7uVOWlWmojcKrJyux8RFt9ql4pAT5J91CZbY0qC5X+lA1avSmsV4cMsagihVhbN1Vg9w403DLribfPjv29yE6zZc+PssxGnXkZNWi3pMeMB2uVMdUomLKblBjGLxQg63u+FaUIDc6PkVtDdY/VIYzg3bd4s6VGDMXCSHLkqCswLsieebi8mQGPZeu4IX3uvBwXhce+3kfioecnzHXi3vUth6ErpnVQOaa2lAcakaLOyXc2DXUf9agtjlRfmkQzsdxP2r0tiJ/+WlC7h3ql7jhyWg25oMKv5jJQ03loabyUFN5qKk81FQeaioL9ZSHmspDTRcG6ioPNZXnQdA00SAMiphhGFSaVEe8aRifZXi3hqGbYXg3LDPT0GUO02PzePQ2FbElRb04pmG0JGjgPpaZSUwEytCLj1eqPg4mzrA0rfrzM4rwq0XIfr097jxOH1v2u0/BCSHkPuXGAH6U14VVoWu4VNWPH3/YhYcPDED/WpGJaXjtYiOKj3bA2WUWV4rVeqgZ9bV9aD3XpJYb8VWrroNJ05CQpQi/mMlDTeWhpvJQU3moqTzUVB5qKgv1lIeaykNNFwbqKg81ledB0NRvDgZF+ixDbRImmob+CDYN9f/+sqTJDEM9X6Hu925YpqahBHGm4R3ilkw91ZnqhZjD1cOlyF5ZjRrfREaTqHkrjOxXGnHVbiGEkPuV66XaGLyCS/bj8vaXV9R6L06r3ysc07Abf/VJDx7L68LD73Xhr0q9v3DcQovOKizqV5+oGscYLCt3P8MH0XjUne/QmoYnvkGl2mYyEY+2oetBnUiOkCUCv5jJQ03loabyUFN5qKk81FQeaioL9ZSHmspDTRcG6ioPNZXnQdA00SSMj/RZhvGm4Z1mGXoNQ73daxjq0Oe6G2ga3qVpqJkeG8XIWCqdZjAxPIqJqXhjMeJsv18lJoQQD21nu/Hw3mvoseto6ItmFzqmYRfWnRpCz60RFIfUvtZQNExeQWWoAeWX9Zy2sfXqr3VmoWYYTSfc7EJrGv59K1q7buFmewfK1LpjKBJC7hX8YiYPNZWHmspDTeWhpvJQU3moqSzUUx5qKg81XRioqzzUVJ77XdOYMZgs0mcZ6kg0Df3hNQzTZRkmMwx13C0PsGlICCFkMek514OHf9aPNrueaBp6ypN29+PP8rqwo8Gut/8a50NNaOqz67N9qA41oPKr23ZDgGkYLU96G+2n1fqJLtz9n4kQQu4UfjGTh5rKQ03loabyUFN5qKk81FQW6ikPNZWHmi4M1FUeairP/a6p3yAMivSmoWsUuqbhvLIM4wzDZGVJaRoSQghZVty61IvU5Uk9puG1a1jnMQ2HyptQ/OmvccVZVVzHV5+mKU/qmdOwq4imISH3Gn4xk4eaykNN5aGm8lBTeaipPNRUFuopDzWVh5ouDNRVHmoqz/2saaJBGBSZZRnO3zRMnmWYzDCcmnQTLO4cmoaEEEIWhxsD+FFeF1Z90o/iqn78+MMu/OEvBqB/rUhtGo6j9fMGFJ++gtjfysziSnEjikNNqPmyD63nmtRyI75q1+VKaRoSshThFzN5qKk81FQeaioPNZWHmspDTWWhnvJQU3mo6cJAXeWhpvLcz5r6zcFkkVmWod809Mf8sgyDy5Jqw3BK/X+30DQkhBCySMzgel0f1r3fBT1/4R/v78OlIednTErTcNYxAaPzGbqMDaLpjDYLG1D8qyZUVwxiyjTQNCRkKcIvZvJQU3moqTzUVB5qKg81lYeaykI95aGm8lDThYG6ykNN5blfNU00B4PCMQx1JJiGdp940/BOsgzTlSV1DUO9nIxvJ3syCpqGhBBCljbdHbgQakRjt10nhCxL+MVMHmoqDzWVh5rKQ03loabyUFNZqKc81FQearowUFd5qKk896umfnMwWSQxDOdpGgZmGUbmkWXoRorypEEGYVDQNCSEELKkuVmhswnb0GPXCSHLE34xk4eaykNN5aGm8lBTeaipPNRUFuopDzWVh5ouDNRVHmoqz/2qqd8cTBapTUOvYRgzDeeXZeiaht4sQ59h6MkypGlICCGEEEKWBfxiJg81lYeaykNN5aGm8lBTeaipLNRTHmoqDzVdGKirPNRUnvtV00SDMCjmZxpe67mZ1DS8myzDqHlI05AQQgghhCwH+MVMHmoqDzWVh5rKQ03loabyUFNZqKc81FQearowUFd5qKk896umiQZhUNy9aSiZZUjTkBBCCCGELAv4xUweaioPNZWHmspDTeWhpvJQU1mopzzUVB5qujBQV3moqTz3q6aJBmF8OIahjgTT0O6TaBrGypMmK02aaZZhkGE4OTFlR59IkEEYFDQNCSGEEELIgsMvZvJQU3moqTzUVB5qKg81lYeaykI95aGm8lDThYG6ykNN5blfNfUbhEExP9NwdnY2wTT0G4bWNLSGYaZZhq5hSNOQEEIIIYQsG/jFTB5qKg81lYeaykNN5aGm8lBTWainPNRUHmq6MFBXeaipPPerpn6DMCiSGIbWNPQahpmZhvMsTer+7zEMaRoSQgghhJBlAb+YyUNN5aGm8lBTeaipPNRUHmoqC/WUh5rKQ00XBuoqDzWV537VNNEkjI/5moax8qQLVZp0coJzGhJCCCGEkGUAv5jJQ03loabyUFN5qKk81FQeaioL9ZSHmspDTRcG6ioPNZXnftU00ST0hmMY6sh0PsOMTENrGN5pliFNQ0IIIYQQsizgFzN5qKk81FQeaioPNZWHmspDTWWhnvJQU3mo6cJAXeWhpvLcr5r6TcL4mJ9pqEuTxpuGfsMwc9MwVZbhxPh9XJ50anSWwWAwGAwGg3GfxOjQpPo/+HdNxp0FNZUPaiof1FQ+qKl8UFP5oKayQT3lg5rKBzVdmKCu8kFN5eN+1dT1zoJDtzsxMaLWvWH3mRiJRGN8+LaKCIYHxs3/YzfVuo2xG1Mq9P+3MaqWddxSmuoYHVLLg2pZxcjghInh6+MYdv9X4WYZasPwvjYNCSGEEELI/QP/mlMeaioPNZWHmspDTeWhpvJQU1mopzzUlBBCSDr8mYXxkSTL0GYaerMMnUzDWGQ6n+H8SpM6WYZ3ZBreasXMhfcxsy8L0+/8TzQNCSGEEELIwsMHM/JQU3moqTzUVB5qKg81lYeaykI95aGmhBBC0pFoFLrhGIY6RE1DaxjeTWnSO800nP3ql4i89l/i9vrfpmlICCGEEEIWHj6YkYeaykNN5aGm8lBTeaipPNRUFuopDzUlhBCSjkSz0I0UpqHdJ1PTMGg+Q20YpjMN/YZhrDTp5B2ahjpc45CmISGEEEIIWXD4YEYeaioPNZWHmspDTeWhpvJQU1mopzzUlBBCSDr8RqE35mcazs7OJpiG8VmGwaahWs7INIxlGU6MTdrRJxJkFMbHbNMxmobkfmMIp14pwvq3OjFhtyxP5nD1cCmyV1ajZsxuSiCC9v2lyHkmbp+pfoSUBht3LncNCCGE3E/wwYw81FQeaioPNZWHmspDTeWhprJQT3moKSGEkHT4jUJvyJuGUvMZ3q1pqIOmIbmPiKB+ZxjZrzTiqt1yZ0xCvdfuKdPV1Vi/ohSnOufslmRMonRzEbI3t/oNwrFW5K8oQv7Z5B8ShBBCyGLCBzPyUFN5qKk81FQeaioPNZWHmspCPeXRmmY/VMRgMBgMRor4Ikk47ets+I75TTfUfjbW/eZZFfp/N86q7d6w+/xjN84g2xN63YnTWPdP1DYV6/6JXi404RqGujTpfWYazmGwbQAjdi2QmUmMDI/amMS03ZxIBBPD4572OYw0NOFQbg32qAiFb/qPnbmJiv1O255dTWge9ho1aY6NMonu8nZUVA8Ftk+PqTGPLaCWbY3YsiKMQw1qebgbR3PrUD/sNCXg3XfRmcO0fv0StIh/zTR2XxsTU2kMtLY6bHmoBKE2737jaD5Wi4LNlSjY1Yj6wVR9zGAwXIOtj5TiVL/ddE8YQOi5ImzZm+EgBpuw/aEwPq71X9vIsTJkP16DertOyH3B9BTGhicQmbXrhJBlAx92yUNN5aGm8lBTeaipPNRUHmoqC/WUR2uqH+4SQgghQfgzC+MjSZahzTT0ZhlmnGloswxTZRoGlya1GYbWMJwYv0vTcKJ7KZmGnSjQTuwz5TjVnOTCyqv9ru2KMLbu6k0swdjbiK0PleJUr12vrcF6tf/WzTXYs60MG1cUYcfJUds4ivCr+rxlKMitQf6LanllDZpta+pjY0yosen9sl8MznKreUu1vdVp1wQwWlSjxq5irBehbTWo0Nccf/3xePddbIZbsEPr9LhHY03gmG/ilH499P42cp6rRmkS4699bwmy1zV5jGebebiyHKHCVpx6XbWvqERFkizCwSNl2PpWE5oH/fe8KROa5HVdENrqsPGhMpwZtOtpiaDi9YD7a6rdZBsWlKcxWwlZRgyVN6H401/jil0nhCwf+LBLHmoqDzWVh5rKQ03loabyUFNZqKc8WlP9nIkQQggJItEo9MZ8TUO/Yeiaho5h6DcNY/MZZmoa+kuT3q1pODdYtwRNQxtbc9sR590kGGXTnXXYajKs7AYXnwEVMeUb1+fG3CiTgfVcHbr1SoJB04uPHy9CfjiiltMc6zKmxv54GHt2ls/bNJwe7EfF4VocOtyO7uFJXK1uR32vPreD275nfwvq28adjVNDqN+txqHGfShs99fbwt24qg0x9/o7x9EdbsSh3DqcqfVkSHr3NURwtbYFIXc/fc5wv2O+ufsO30TzsTozjuZ+/wsTHeOuRlS4Y0yC0W9VidI8LjMuhWm49fBNuz7ulOJ8tSUgI1Xt+4p3X42+p7znce6xgnK76mMO0729OKMzTr3XqK7tzLYSNeZKnFFat7v3ycwo2rW29ponertjWaaufjNWswBdUmk2eCTIpJzBoHmNanHK9G03W6bPqnsv3oh17988n6iELE1uDeNy4zBupfS4x9H6eQOKT19Rd3cqZjHR04+ennH1ziaELBX4sEseaioPNZWHmspDTeWhpvJQU1mopzxaU5qGhBBCkpFoFHpjMUxDtRxgGkbNw4UyDTuLl65paEJnHTZ4DJX47LpkJpDPgOpHaJWe283ziNkYhZWoUIvGbFlVh3anReEYLVsODqnl1Mc6OHPKrd/ZjWk9vnmYhjo7UWcu5mRVYs+2cmx8NIz1j8eML7fdm+W4/bAaly4/+mqJ0qIEO3JrcLR81H/NZjmMjc+Ebd/OsevV+U1Wpk+fIZxap8b2iOprWw3ys9RxK8Mxnc2+sfaCH+jzhrGn2tHEHePGV2PnMWMMZBRn1Lm27O9LMGP9Y3KJNw2BqweTZf0F3QvxdoGzz55quxplDlePlCFHZ65qrTeXIkddY0G5eoO1tSD/FaXH46XIV1qH29TuY53Y84zS5FG9rRI7nlOvm9bMHZe5Tx39jS6mv5gu6TRLvFfcjEmdDavOp8/9SpNfA3NflqM0LovSZF9ubk1SUpeQxWYGPZeu4IX3uvBwXhce+3kfioecnzE9X3Srbd34RY9ZDWa2HzWhBpRV2S/MszfReqYJxWqbjgtFV3DLlC29gcbjatvxDlw3OxJClgJ82CUPNZWHmspDTeWhpvJQU3moqSzUUx6tKU1DQgghQSSahPGRxDS07fMzDfX/GZqGHvMw3jR05zO86/KkYx1L3DTUsaI6NiebMWOc7LoKFWd26nKTZQjHl3H0GVABZpKnPaj0ZMy0SX2sZuRkGbJXqjFqs0aPL2PT0Jm3bv02a+RpOnXfrkmWOK/dRG0j9uS1OlmORguPgeodl1mOmxOvTc/3Z7MyPftOhytVP6U42ukabJOo2JZoGuYWujfbJEo3qGsxRlTA3HumnKt6TYLmUzR96TkH7XnVaxs4/iiOabhxW5N5vSsK65C7MlnmnH6t9HXY1QTmHMPRW3rWxZbxzD8be0O58wHqfePvke796r57vBIVY3YDhnBUl1H1mYb+/ia0OW10Sa+Zvlcc09rF6rC7z1ntbceh3EbUR8+vCNTvHpRWJSQVNwbwo7wurApdw6Wqfvz4wy48fGAA5uvv9Bh6+rw3dQDdHbgQakSjTfUeq25GsVqvruhD+6VvcD7UoN5+TvnomRs3cf3GYv38IoRkAh92yUNN5aGm8lBTeaipPNRUHmoqC/WUR2uqn90QQggh8fgNwqC4O9Mwfj5DMdNwXMA0VLGkTcOcF2tQ4S2Fac2Y9bq85bpKU9qxPmh+O5+B4pQb9Rl/nY3YYrOyjOnnM1XmULGtCBuNqZP6WPQ2YfuKWNbd/EzDAEPSl1kX1O4hrWnomHMxhnD0e7Zvz76BppK37wAzKnaMM8acler10K+Jjme04RiUzWfNNre0q2vUmTKwioDzuHpkP6qzH/U9UYLcI30BpUk1zliCzqtf05ELes5Jz2vlxZxbXccznusw51PjUbdBvEaJr2XcPka/+Kw/9/VMr5npf6evAG4sK3VlKXbsakX3cNx9H6gfTUOytLhe2oOH867gkr19b395Ra334rT6/nu9WLf1IHQttrzjRC8ey+vDZWd33KzSJmEbukw24S20fNaA4i/6bE7xbbSfVuuf92IMw2g6oZZPdKlPEXe5FTWn1P9FHsOeELKo8GGXPNRUHmoqDzWVh5rKQ03loaayUE95tKb6WQwhhBASj98gDApZ01AbhF7TMGg+w3jT0DEMbVlST5bhuPo/GUEGYVAsTdNwRQlyD/fFMvBc4o0yD9NjoxgZs2P1GSijCL/qz9zyzf9msry85UadkqQ7TupsldTH1u+0402IxDEmGk3d2GOy27wmlnNuxzQMaveQ1jTUBpXXWFL6qv7MdXn2NfPn+cqz2mvMyDS0Yzw5gpFhpb8nJhJuGyfDLvuRsDXLwshRx2a/3u6Uzgw4j89EnVLjfzwuQ89HQClZwxyunizHenVP7dHlRoPob8L2h0pwqNZ/DSPD42Zs8cabed3jSn6aMqA+0zDuWsz16UzP9JolLykawWBzO0IbVfsj6p71mpLVwe8NM9Y4g5OQe0Xb2W48vPcaohVIG/oSjMLYchce23cFPz1x3e7vNQU1g2g82oCycv156dBVFG8UepZ1WdMzbfjq8g27NyFkseHDLnmoqTzUVB5qKg81lYeaykNNZaGe8mhN9TM8QgghxIvfHEwWi28amuzCB880dMyUnBdrUR+fReWSwjR0sthqUDM4buany14RM1VMNuHjZThaexMjna3I95W47MXHan3LW+3oHr6J5r2lvpKnqY41RqXX+CmsRPb36tA8PJlg+CSahu48dZUo7Y0AM6POudUvLI5pGFHHqPZXdH9KD9VeqsuGupl6Rgt1rDabplS713Qzy+p8Rg/1+qlja3KVPivKUaqftvv21dmSRdi+txcjM3OY7nWuMTPT0F6DO0aMo0KPOagEqJlzrwR7jjmlZU3sVdpGszYTz+PPvLSvxYr4fVycuSizfRpPoj5PXbc+74Wh2OvkmstR1HleUa/r663QcmFmAEfVevarLSar0VyveV0dY2+62slazC8cUq/zDEZq64yGftNQ9fdqE7r1azPVj1OvOq9dewaaGdPWW7rVGq56Tko9numGWqWl0sHjnxqj0Y43htcAJ+Te03OuBw//rB/RJOiUpqFa9qXIXsdXn3pNwpvGDLxwMVafOqVpqJa9RX8JIYsPH3bJQ03loabyUFN5qKk81FQeaioL9ZRHa0rTkBBCSDx+czBZZG4azs7OipqG5v8HxzTUJlyi2eYjhWmIsV4c0qUstVmmMxVPeh8Pj6N+VxnWP6LbwtiyuSWaNaaZ7mxC/nfD5ticlWU4VOsVNvWxPvT4PBlpXoxpqMdmwzHChhDWWWN228bNNShwS4hqZgZwxtOe81w1St1yrGOd+Fhn7rl9JZiGpTh0pBZb9bj18Y+WIdRsryvOoJuo9e6njsvNNNNQo65hcwlyomOsRDg6P6LLHOpzlb7rmuJMLaf86/ZjbvajHYMJfX6/aRidO3Bza2IWqsKZJ9GbgafuCbcEqDd2BbiO+v7Jcu4Bcx1ZtbE5A9X9seNRZ7tTLtbJXtTlQs2+6po/3ubRxBq6R4959/G8duk0iy/dqphobkTuM87+Oraqa4hp4NHRi50r8Uz8nJ+E3CNuXerFfMqT6uUofV0oCzXiq2ha9DhaP2+YR3lSvUwIuZfwYZc81FQeaioPNZWHmspDTeWhprJQT3m0pvr5CiGEEOLFbw4mi6ViGt6+/03DB5aZSGqzFKr9jl+GOUxPZXJwpvslI+JkPN5TnKzRrZ5ysvNmRr25MpZBvZGDrtlnbifZx5BMszk054WDDWj1wRB/rzgZmHHlSm1p3Wj5V7LIDKHwtSyEBCvDDn2+AVm/7LBry5QbA/hRXhdWfdKP4qp+/PjDLvzhLwagv/6mMw3HLn+D4tA3aPf83Bur1nMcNqLy0hW0X/oG50MNKL+szXOahoQsRfiwSx5qKg81lYeaykNN5aGm8lBTWainPFpTmoaEEELi8ZuDyYKmoe2SkKWPKR2qS5gmZDsuIqkyYjNlqht7VhZh++E0BmhnI7avCKPAN1/jnJMNulKNwc2WJItL5CLefioPdbN2/a6J4OLOJ5FXa1eXLTO4XteHde93Qc9Z+Mf7+3BpyPkZk9o0nHVKj0bnM7TM3kJXcbMxC82chcV9uGU0p2lIyFKED7vkoabyUFN5qKk81FQeaioPNZWFesqjNaVpSAghJB6/OZgsaBraLglZHpi5JhPmLVxEJExDzcwkRgLmx/TizKsZK2PqMIMJd65LcueMduDikQIU7D6I47V+83a08yJCu3VbCFUDdqOX+gI8+fo5eAvGDtUex0F1zMETdRiKMxNHO6tw/IDT38XOoDko61Dw1Bs452ly+ys4chEdcYekPpcd+4HjqPOOfXYIdScOqjEUIHS+A6NihmdmBJYkjTKIxqP++QtTQ6MwFZHRUYyqz4hoBNV7Jh5u4Pxrb2LdnwbE+3o22uTtf/vZDacLTKLr6DHsfecTHD7ahdin9gDK3/9EbT+CcsHM5KUKH3bJQ03loabyUFN5qKk81FQeaioL9ZRHayplGk70TuLCy5Uo+7dfovG9Vpz9bhlO/69lqHmrGTMTi/zlmhBCyF3hNweTxb0xDaPmYZxpOJmhaZgpNA0JISSeiSq8vXotCk7Xoa72Iva99jTe+MJx5ka/eANPZxegsFa1nQ/hzRfWYN83pilKxy+zsOFEzGhs+WgNnn51HworqlC4NwdPv7APLfZ7w2j4Tawy/bWgpbYQBdmxc0XpDCFr/XG4PXYcyUHW9hAu6jGceBtrPP2lOlek4m17Lj32fdjw7Bs4N6waZjsQ+mEW3jxyUV1vHY6/swZrPmpxDloEbl+9gdAvdfZhHy7bbT6u6fkMG1ATp3MwtzH0TRcqP21AcVG/3UZiDOH4+ifUfZGFrJdtHKizbSSYAZz680146jcC4s2GlO2bPnGc+Ruf5Kr1n+Av/nQbVnu2R8oP4EW97+qT6DJb7m/4sEseaioPNZWHmspDTeWhpvJQU1mopzxa0zs1DW+1jaHj0yuofacF9e+14dd/fwX1bzfj5J+cw4HfO479v3sc+37nBPaqOL/+K/MAmRBCyPIgZgymCpqGdldCCHkw0PMHPr/XY5rpzMHXCjGECFpOF+CcJyOo72iOzyAERnHu9edjRuJsHfKeehsXo6lF3lKjat/tT/jLjmqD0JwrhjYqn4+aeDrrcBMKtdln0PMnPomCerWY8lx6PzWur02DoW73k9jwuTqTvr4thbHMyKFCbHiqQJ1pcbh+6Qr+7Gc9+PeXJL4I30Lr6UZcONGK1j7+RWcijmmYWOo2gr76KnQMjaKjthChA8dRFZj1GmPo6yoUHgmhsKIlIKO1TrUdxPHz/rbRdnWO6L2rUeerqEOfvmcjfair6MDQaAeqTlxEn26eteM5Uoi6NONZSCLDoxiLRheOvuSYgm8c1WOKmYbv/oN3PxV2rtnGN1X7vzmNq3rff6OWjdmo+lmtj9uGD8ofjN+1+LBLHmoqDzWVh5rKQ03loabyUFNZqKc8WtM7MQ0rN9XhF79/AkX/Wzma/3MHvnq3FYf/5Rf4aMXn6LswiBP/cwn+8++ewJ7fOYGf/fYJfPjbn2GgxvcliJB7wAwmOntREe5G+2B8xTLNHKYH+1EfbkdzZ1DVs3TtS5DOJuxYVYqCsP7eHsHV6nZ1/f0YcVoT8e1PHmT85mCyoGlodyWEkAeEyChGvb9DVefhibhyo4bZPhx/LcufaajnM3wiD1WuUdJ3HDmeLEHN0IkNUaOx48AabDhq7BGDzjz0Z/lp4+8J5FXbVUXEV5JWjeGH1qRMcy5dljLiMXCqfvqEk9U4G/GXqNT9PL8Pi5drSO6Wb8cbEPnqKdwu/Ucm9LLelkgy09DZvualN5B34iKqdBbtS087pnICEdS9twZr/t1BJ6P1wCaseSEPdeYeUm27s7DKzXY98AayVm9Cob3F696LP3cd8p7YgOM68W7gODY8ofr9fg7e3n1O3dnagH8aa3cXoqrCycINHs8i03YSOTo78Dv7UGNMwZhp+MGvmnHKlBs9hlPlbmlSoPXdbWr/fBz45BPkfGcTXny3DWOffYBn1THP/qjMP1fnfQwfdslDTeWhpvJQU3moqTzUVB5qKgv1lEdrms40/Hb2W/R+1oea1+vR9H4bzn3vEi7+sAZjXXFzPHwL9J67jk/+xyL0FF3H3z9Vgt2//RkKVOxS8fWBHrsjIXdG/a4SbFzliXXVOFUdZH/dRHij3qcW+m/LDVO9OPTdInO/u7FxZydid7E6ZkPY156zrglXbWv6di9DOPWK3e+tgDk4+luQq8e/q9dukCLxukcKy8041u/SDyRu4tSLelzJp5Py73+vmEPz7lLnNc7rttssybSrro3dFybKkL+/HYO0dO4YvzmYLGga2l0JIeRBxDEu3i7zGnXa6HgCTzyRhTfDcb9MfLMPz3sNxto8PBFg5D3xns3jM8bjk1j1UhayXlqFJ18LwZ8g14J9z/vnM/Shzrfm+yF06GPSncvL8Dm88ezbuBgwn50ucbr2lx12jSwHvIah1zhMxDEH1/61nkPTiXPm+6uzfdNpz42ms15fVveWXY2i73H3nrN0fFGAULW68wLaImVvR+f4TG8aerNodVZtDo67b7Gecyg4Wpdo3i8yre9sMwbhi+/o+Qw16cuTYqwLpzbl4i/+ZBv+clMRugYb8MFjep+dONrm7PIgwIdd8lBTeaipPNRUHmoqDzWVh5rKQj3l0ZpqgyApc0DN5jqceaYEl7c2oPSVShz8/RO42Zg0T8lkGn74X5xCw55OfPDbn+F9Ffm/9Rm+fL/d7kHInVHzlja8wtj+eg325FZixzOOMZd/Nt4cSDTHuveXmH2372pHe3MvTr2uDcAwPq5VN7liOlxp2te/3ojm5n5U7Cp19j/mfPtO1x5jDlcPqrYVztgCTcPeRmxN1nZXBJmCc5gedrMi05uG/v3vFb34+HGr34pKVNjqRYZk2pVXm/3Xq8+oPbk1yM+yBu+rLcmzKklK/OZgsqBpaHclhJAHj76jG5D1Xh2Cijcg0mEyDQvqY626XGmOJ3PQmCgBRl6WNeVaPsrChl+2YEh3ERlCyy9V227P+XTW3w+PO6Ua4xmtQt5LG2KmSppzRbEZknm1iVc1Wp2HrNfU+XzGJVnqxBuGbiRizcG/q0JVhRNOuVBne6Khl6f+9ZPUiFYEthkz0OknvWnoP1/fF28ia/UabNoZQuHX3jv7HjF1Ge9+J97si5mGz758Gl3DN9C6J99kET71nU/QaPfy0rVnp9n/xTcbEJkZRVf5ZdTUDgR/ztxH8GGXPNRUHmoqDzWVh5rKQ03loaayUE95tKb6wXoyrnx+FWefKbFrDt/s78SFHya3HDSf/uuLaA71Yu8/P4O83zqJn/6zk/jZI1/YVkLuDMc0LMUpN8lsrBW5gcZQvDmm1nXm36o6RK3r4Rbs0MfudDLZ6nfq/ctRGjWorHH1ShMG1Vq69ihtddii+t1+uBEFuv95mYZzGDxbjY2P6HOpeLQMod1O5t/WwzedXcb6cGpzCXJ0u9mnFIdqHXPE0ScW5hhrpjnHu7qU49Dhcmy0xmbOc5UIdzrmqX9/hTpf6AexDMuNb9Vhz/f0stXWvZYNNThk+laxogS5Jz3PLoLGXD1uGwNwx/CiY8zmhz1PCdKYhtFxI4LSzfp86n7pt5vIvPCbg8mCpqHdlRBCHiQiaPloLVZtKfQYaKPoqLbzr7no7L6oSRI3n6Fm9BzeiCv12fLR805ZUOhMKu8chIrZKp9R45/P0EPfObz5UhYKvMZfynNZJlqwL3sVNn2eaEMag+alAltmkiwn5ptpmKw8aSamob4nnwmqKooAAP/0SURBVPhplV3zE9jmKXerTcPErN3kpqFhNoKhziqEtq+JK927+Nz4JNeYfU+tPZ+6pGhvETbp/X4jN/alzmWwDNuN8ZiPs/1tOPAnjuHomI5FiBU1vf/gwy55qKk81FQeaioPNZWHmspDTWWhnvJoTfWD9mRU/VUtLr/hn/JBPwj+7Gm/kehlrG8Klwt+jS/+969w+t9eNobhOyre/q1T6mC7EyF3QIJp2N+E7dpA2twalxkXbxp2Ogaez+DzbrP7r6iOlTP1bUvXbpnqxp6VTp9X3f7nYxrW1mC93v5IKQoOt+LMrrKoseeYYZPWCAtj+64WVBTWIVefb4WjyUhzEwpW6fYyHAq3o743ksQ0VKHO8fGxVpx6q9Qx81aq69CGqG//UYRfdfbf+INanClsRIF7fLxpqI/J9YxJjfGQ+ehw+wgjd38rKsIt2GPKxJYg1GaNSh8RVLyu28tROtiOfH393tc3Y9NQabVB91OGMKdTvSNixmCquDem4dRdmob9129nFDQNCSEkntk+FG7PQtbuKoz6Mu4iqHrnad8chC1712DtEbtuDb/ofIaGURRueR55Fda409mBz7slGLVR8zwKYr95mZKQa78fimYW6nkHvfMZakbr92Ht6k04njAtQqpzKXoKHaOxOq6ExOwo6oxBuvQzDGfGxzF267auFEM8SM1pmIlp6JS29WS46szV9U86ZqDb5t6bs0O4uPP5aLnb0dOb8OTOi9H31WhFHp5PZhpG6rAv+22cc/9Ir/0gsl4rVCO9VzTjgCkpugnvhr2/G93A2Zed7TkfdpktkQsH8KIxAg/EZRrOoPFNp7zpX7zbBlR/YjISP7gAXP2Fzj7URqLd9T6ED7vkoabyUFN5qKk81FQeaioPNZWFesqjNdUP2uP5duZbfPNBGwr/H+dw7fx1uzXG1PXbdimRz9ZU4pf/6gL2/csinHzlS1T+tA35//UZfPB/OWf3IOTOcDPpcp7Rc9aFkWMMtTD2VHv/KFfjmmNxpuE2r9Fkt73YiKvu/t/Tyy7ePtK1aybV+MJRAy/a/zxMQyebMVYyVTNyrExts2ZYgEk63duNinA7mnv19/P4MSkCTUOvYTeH9r1O6daCcrXNu797vnVNnkxOt3RonGnoNfYC+sjZ1o7B4VGM6KitNdmY6/Pi/7pYMdWK/Gh/roHoMf7SmIbZj4adOQ2NcanOsbM7zlAmmeI3B5PF0jINTdA0JISQhcOUWDRzFnrDmhkTLTj42io8vToLWaufRtbfHEeHm5mny4N65zN0GbqIvOxVeFL18+Tqtcgr89gefYXYtHoV1v51HvL+ei1Wrd6EULv7S1/QfIbayIkf2xPYcML2mfRcjikUf5zJktTZkvHbXSNnSXETTScacL4k8YsbyRTnPnj6BXX/vmzjgL6z52EaKiJfH8QGdd+uUcevUf+/caRD/Upr29pDeEO9N/Q8nbptw94qDLlm9Gwfzv1NFp58dg2yVPuGA/vwZopMw6GyPKxVfehxrlqdg4Nfx38hWjwi4X1OydHHjqDVbnMZ++wDpy0u/mJHc1QXg5uB+J19KNepirVHjLn4t0evoOadN9UxH+D8ffyXgHzYJQ81lYeaykNN5aGm8lBTeaipLNRTHq2pfrAez8CF6/jlf3kct4eSm4OZUP1eO376+5/j8t4utJ/hd1hyd/jnNFSxvwXN/UHP7OPNM2t0GYPQxZp6xpxys+E8Zpvbhylpmq4dmK6uNlmCORvrjIlXEa51yp/+oBYVzXFPyJIYX871ec+h8Bpw9jjHAAwiU9MwxTnSni+uj6Br8R7ntgdFgKE6ctIxSd2SpO5cktG5I4POp7Hj1nMa5ppMxjB2HBuiYXgX+M3BZEHT0HZJCCEkFYHzB2ZIZHgUoyoi3kw/baK8HMKd9XgfMtyL8lADKr+6uy9vRJBIChMvVds8iUzcO7PQYRRn1zpGYM5HV+w2LzO4ET6CN/7kJ45h+Afb8MY7l+NKjU6ifJPTx6ZPXEd+AOdfe9Majj/BX37Y5jcZ7zP4sEseaioPNZWHmspDTeWhpvJQU1mopzxaU/2gPZ7yH3yJPoHyH3PT3+L4/+dL1Pw80RwgZL4klCf1MFJehz25tagwbfHmmJ3fbkU5St05NpprsVHd+1v2O99LnWw7TwaeO1/i6+3GeErXfvWwM/9eYMQbXEmMr2WdaZjMNLR9rM/1vGhT4ybjcGIqdp0OozizTvcdEO4Y0piGPqPSlIkld4rfHEwWS8U0tIYhTUNCCFmKBMxneJcknc9w2TKDnktX8MJ7XXg4rwuP/bwPxUPOz5jrxT1qWw9C18xqIHNNbSgONaPF9VvGrqH+swa1zYnyS4Nw5uXuR43eVsQZn8kyYWwUY9FJ5e9f+LBLHmoqDzWVh5rKQ03loabyUFNZqKc8WlP9oD2ewqfCdunuGemewK/WBM8HT8h8SGUauqZR9nercWp/uTM3oMfsmlbtZtujpcjfVo6Nj6jlFWUIu5McukbTIyXYsa0SWx9Vy14DL127NcKi0VBnSnBmv96KkbE4X8HtS2chmqxEO/9g2jkNY/MDBs1pGGsvQb46PuWchivLcOhYO87kunMa1qBZd+Hb3+2vKP2chslMQ888jGnnNBy0JuWrbramEyEzBnuNybTzjXsOzXlhs55/NrlxRFLjNweTReamoWMc0jQkhBBCErkxgB/ldWFV6BouVfXjxx924eEDA9BffzMxDa9dbETx0Q44u8ziSrFaDzWjvrYPreea1HIjvmrVqZo0DQlZivBhlzzUVB5qKg81lYeaykNN5aGmslBPebSm+sF6PKf/VYl54CvB7dFp/N3/Wm7XCLlzUpqGmET9rlI7z6GKZ8oR7vSaUjPoLqzGdjvXXc53K3Gq2WsqzGGkug47vuuYTTkry/DxhVh+Xfr2OILMNBe3zROu2TV4ttoxNPX2R8sQ2l3uaVeM9eHU5hLH6DP7lOJQbew6pmtrraFpjwk0DctxaH9ZVKuc5ypjWvn2V6jzhX7gXLOOjW/VYc/39HKmpqFiZgBn4sdcPe60eXCzNd3SpFHsmExWaDLtEsbdinx9fY9XosLNLiXzImYMporFNw2Ncej+T9OQEELI/cD1Um0MXsEl+/vY7S+vqPVenFbffx3TsBt/9UkPHsvrwsPvdeGvSr1fjG+hRWcVFvWrXyU1jjFYVm5/KcIgGo+68x1a0/DEN6hU20wm4tE2dPGXJULuKXzYJQ81lYeaykNN5aGm8lBTeaipLNRTHq2pftAeT93fNqNqS71duzsK/7IeZe+02TVCSHrmMD2VzouYUfvEZerNm3n0MRMRmB9QYsxkMfEbhEEhaxoa49BjGjrGoVqOzzbMwDTUkYwggzAoaBoSQghZFNrOduPhvdfQY9fR0BfNLnRMwy6sOzWEnlsjKA6pfa2haJi8gspQA8ov27/IsuvVX7uTQA6j6YSbXWhNw79vRWvXLdxs70CZWncMRULIvYIPu+ShpvJQU3moqTzUVB5qKg81lYV6yqM1DTINx3RJ0X9RiG8OdGFm/M6eic7cnkPD4V7k/p9OY7hzwm4lhBCyXPAbhEFxd6ahaxzejWkYMw5vG9Nw0mMcJiPIIAwKmoaEEEIWhZ5zPXj4Z/2I/p1lgmnoKU/a3Y8/y+vCjga73v5rnA81oanPrs/2oTrUgMqvbtsNAaZhtDzpbbSfVusnuuDmJRJCFh8+7JKHmspDTeWhpvJQU3moqTzUVBbqKY/WNMg01MxOzeLT//ELHPg/nsRnf1qKz1ZfNHFcxTEVR/+Xi/j0fynDERWhf61C/X9Y/f/Jv76EQ//PMvyn/6oQ7/+LIkwN331+EiGEkHuD3ySMD0nT0JYozcQ0nLyd1DT0ZhsmI8ggjI8LX96gaUgIIWRxuHWpF6nLk3pMw2vXsM5jGg6VN6H401/jirOquI6vPk1TntQzp2FXEU1DQu41fNglDzWVh5rKQ03loabyUFN5qKks1FMerWky01AzMzmLwcvD6Dl7DT1nrqH7zICKa+hS/+vo1HF6AB02fm2jXcWVipu4zeephBCyrPGbhPGRxDS0xqGMaegYhvGmoc42XCjTUBuG//fvldA0JIQQskjcGMCP8rqw6pN+FFf148cfduEPfzEA/fU3tWk4jtbPG1B8+gpiU0LP4kpxI4pDTaj5sg+t55rUciO+atflSmkaErIU4cMueaipPNRUHmoqDzWVh5rKQ01loZ7yaE1TmYaEEEIebBKNQm/M1zScTTAO4+c1dE1D1zjM3DS0huFdmoY9fZP44V9/hR/nNtE0JIQQsljM4HpdH9a93wU9f+Ef7+/DpSHnZ0xK03DWMQGj8xm6jA2i6Yw2CxtQ/KsmVFcMYso00DQkZCnCh13yUFN5qKk81FQeaioPNZWHmspCPeXRmtI0JIQQkopEs9CNmGmYSYnSjEzDSOamobscbxqaeQ3v0DTs7J3A/3fTZZw8d42mISGEkCVOdwcuhBrR2G3XCSHLEj7skoeaykNN5aGm8lBTeaipPNRUFuopj9aUpiEhhJBU+I1CbzimoY7FNA2NWegxDWPGob9EaTKCzEI3XNPwF0d7aBoSQghZ2tys0NmEbeix64SQ5QkfdslDTeWhpvJQU3moqTzUVB5qKgv1lEdrStOQEEJIKvxGoTfkTcPgeQ3VckC24UKYhjre3NWCDW/W0zQkhBBCCCELDx92yUNN5aGm8lBTeaipPNRUHmoqC/WUR2tK05AQQkgq/EahN+7eNHSNQ8c09M9rGDMNE7MNjVmYYBpaw1CFLlGajCCj0Bvnq4bw5J+X0jQkhBBCCCELDx92yUNN5aGm8lBTeaipPNRUHmoqC/WUR2tK05AQQkgq/EahN+ZnGjrGYbBp6CtRak1D1zjMZF7DmHEYyzZMRpBR6I3e/in8+/xmmoaEEEIIIWTh4cMueaipPNRUHmoqDzWVh5rKQ01loZ7yaE1pGhJCCEmF3yiMjySmoTUO78g0FJrXMBlBRmF81LeM0jQkhBBCCCELDx92yUNN5aGm8lBTeaipPNRUHmoqC/WUR2uqTUMGg8FgMJLHFykitt86z7KJ33RD7Wdj3W+eVaH/d+Os2u4Nu88/duOMiWy1nG3+d9adOI11/0T9/0/0/6etaRgrUZqMIJMwKGgaEkIIIYSQBYcPu+ShpvJQU3moqTzUVB5qKg81lYV6ykNNCSGEpCMxu9Ab8ytRGjSvoT/TcP7zGibLNkxGkEEYFDQNCSGEEELIgsMHM/JQU3moqTzUVB5qKg81lYeaykI95aGmhBBC0uE3CeNjfqahYxz6TUPXOAwyDe+sRCkzDQkhhBBCyDKBD2bkoabyUFN5qKk81FQeaioPNZWFespDTQkhhKTDbxLGRwrT0BqHmZqGqeY1dIxDtZwk2zDeNNTZhskIMgiDgqYhIYQQQghZcPhgRh5qKg81lYeaykNN5aGm8lBTWainPNSUEEJIOhKNwviYr2k4m2AcxpuGd1+i9D7ONJwanWUwGAwGg8Fg3CcxOjSp/g/+XZNxZ0FN5YOaygc1lQ9qKh/UVD6oqWxQT/mgpgwGg8FIF653ljz0PjZG1Lo37D4TI5FojA/fVqH/d2Lsplq3MXZjysZtjKr/3bilfl7pn1m3Bp0YGZyIxvD1cQyr/x8Y05AQQgghhNw/8K+55aGm8lBTeaipPNRUHmoqDzWVhXrKQ03loaaEkPuNxMzC+EhRotTuk5ht6M80lChRGp9tmIwggzAoaBoSQgghhJAFhw8R5KGm8lBTeaipPNRUHmoqDzWVhXrKQ03loaaEkPsNv0EYFClMQ2scJpqG8ytR6hqHQSVKvcahaxrqSEaQQRgUNA0JIYQQQsiCw4cI8lBTeaipPNRUHmoqDzWVh5rKQj3loabyUFNCyP1GokkYFHdvGrrGoWMa3n22YTKCDMKgoGlICCGEEEIWHD5EkIeaykNN5aGm8lBTeaipPNRUFuopDzWVh5oSQu43Eg3CoJifaegYh8GmYbJsw5hpmDrb0F1ORpBBGBQ0DQkhhBBCyILDhwjyUFN5qKk81FQeaioPNZWHmspCPeWhpvJQU0LI/UaiQRgUqU1DHYmmYWK2od80tNmG1jR0jUNtGgZlGxqzkKYhIYQQQghZTvAhgjzUVB5qKg81lYeaykNN5aGmslBPeaipPFrT7IeKGAwG4z6KLzKIoONs/KYbaj9PrPvNsyr0/27o9bOqzRt233+s2kycMZHtCXebaxa6xmEyggzCoFhCpuEcBtsGMGLXApmZxMjwqI1JTNvNiUQwMTzuaZ/DSEMTDuXWYI+KUPim/9iZm6jY77Tt2dWE5uE526BJcexwN47a7bFoQbdtjjGH6ei4RzEx5e1/AWlrSTIe4jJSXoc9+7tT33cZE0HFNvUhsKH17vqbGk+8vwO2TY/p+0l/COj7PXZ/mXvMvG39952zLyHLnOkpjA1PIDJr1wkhywY+mJGHmspDTeWhpvJQU3moqTzUVBbqKQ81lUdrqh+SE0LI/YQ/qzBZ3F2J0vlkGyab29BrHCYjyCAMiiVkGnaiQLuvz5TjVPOk3RZHebXfqV0RxtZdvZiwzVF6G7H1oVKc6rXrtTVYr/bfurkGe7aVYeOKIuw4OWobRxF+VZ+3DAW5Nch/US2vrEGzbU15rDlPGNtfT2ca3sQp3a937I+W4uN481Iao1c1auzqA8E8r/nq4VJkv9iIq3b97pjD1bM1KNjfa19X554uKDcrmWPuuTKEh+06IijdrO8bdU/32032vl2fp25ycx/67y/nnAH33SOlOFSb5P1FyDJgqLwJxZ/+GlfsOiFk+cAHM/JQU3moqTzUVB5qKg81lYeaykI95aGm8mhN9bMnQgi5n0g0CINCpkRp0NyG2iBMNA0dwzCZcXi3LD3T0MbW3HYMxp86zhCa7qwzpt3HtXaDi880dAyX9bmugwiMHCtD9nN1jrnXVoeND5XhzKBpUvTi48eLkB92MrhSHhtvTibFMW+2Hr5p12cwUluH7SuKsP2Iu01dz2A/Kg7XYs+uRlS0jduto2gPt6O+1+sQj6BZbWvudQQKPk6RYKDNYLC2Fad21SB0rBdXoxmPEVyt1ueYxEhbe7Q9pn+6ds0cpnt7cUZnbO5vQXN/rHGkuR0VzSP22FqcCtuM0pmbaD6mM/3U/r7rS3FNenu4H4PDA6b90OF2dLuZoVNDqN+tXh/1eh5K0Mwyo/VsxCHbr880tH3HsgTd6w5y58fRrfvJrcOZ2qGo+etcqzaV9bG12KHu5R271bZqdx+1vbYFodwgDV3Ue0HdG/ln3fN2Y49a1++L6LapVuSr9YJyde1J78PE+655V0ns/iVkKXFrGJcbh3ErZSL2OFo/b0Dx6SvqnZSKWUz09KOnZ1x9MhFClgp8MCMPNZWHmspDTeWhpvJQU3moqSzUUx5qKo/WlKYhIeR+xG8QBkXMNEwwDu0+d2Yapso2TG4c3i1L1jQ0obMOG1KZYEkyuXwmSj9Cq7wGjMIYhZWoUIvTZ8uRvaoO7U6LwjEKtxwcUsupj3XPs+dgLXa8WIKNL5bj0IWgwpTx5o2DMSAfd7IaJ9S16SzGja9WRjMatx/WY4ig4nWlxevtsaxEk4lWjtKpVMcpfHpNouatMLIfKcGObTajcoXSqFM/UnfGt/6ZEuQ8Wor83ErseEa1r1THjulj07XP4eqRMuTozE+dkbm5FDkPhdXr4mS01bylz1WEnBfVGNWxWx9R66+UI/c5Z/+CH5Soccb2T39N6ngzDs916Ndal4t9VfelrlG1HS13s0ktY53Yo8ftXoM6//qVShPXNPTppQl+3cz2V1Q/3y2PXs/6nd3m9THX+lanWhpF/f5ybFFj3fKqNlJ1CdQhnFoXN/aohl5sZqHq06DvuRWVKNClT03fimo1VrWtQt0DmZuGwNWDpTQNyT1kBj2XruCF97rwcF4XHvt5H4qHnJ8xPV90q23d+EWPWQ1mth81oQaUVdkvd7M30XqmCcVqm44LRVdwy5QtvYHG42rb8Q5cNzsSQpYCfDAjDzWVh5rKQ03loabyUFN5qKks1FMeaiqP1pSmISHkfsRvEAaFYxrqmF+2oT+8pmGybEPXONSmYbIypXfL0jYNdayoRr3dwzF1nCyyChVndpao9jKEo1mCFp+JEmAsetqDylPGjJ/UxzrLRVi/oQ6lajyl+8ux3mQ+xue2JDGfOhuxxfQ1gNBzRdiyN1p70l+i0mMSaoOuPjdsTcQ0x3lNMKtdLKNyEhXbVD/rmjBix6fNpJh52m/6NuUv07VPtSN/hTZXY2UvvYao0XNVbezY5lpsVLptP+aaevaaXm1RY8nkmkpwqNnVuA+HVhVho7t/gvEXo3u/ul8er0RF1KQbwlF9XfM2DZ37IrfQud7p2ibsyWs1Rlzs3tH475/pcKW6X9XrGD3/KM6sczX2M3JS6WfNbHOPqj4nPAZ3+151LZtbHSPZ3IfeMrluiVz7uj0axsZVJSrCyHm8DKc6F+s9TUgcNwbwo7wurApdw6Wqfvz4wy48fGAA5qva9Bh6+hIcdD/dHbgQakSjdb3HqptRrNarK/rQfukbnA81qLex87kyc+Mmrt/gvU7IUoIPZuShpvJQU3moqTzUVB5qKg81lYV6ykNN5dGa0jQkhNyv+E3CoFg62Yb6XHfDkjYNc16sQYWnzKVj6hRhvTZA1lWa0pX1gwHF53ymoVNu1Gf8GbPOMeGMOeMzDedQsc01oVIfa8phhrvRHX3O7WSIRQ2sKOlMQ+fac1ZqY8fGM2FzrXuq9Y62ZKrJeFT7rnCNyTTHeUywwLn7ou3O+OLHbbLSzDFp2q15mvOMZxwr9Wuork0d4jfSNH4zTRMbX+bX5OLrP6DdJXEccbokHJvMNLSZleaay1BwuDtaZjSVaWjOpV676HWpWG+yLpsQ73tjuAU7zL3hzF1oXvvoNmdc/rk1S1BwxDHTYyVW7eu2rclub8Ge76r1nZ2J84ASsghcL+3Bw3lXcMl+bN/+8opa78Vp9V3terFu60HoWmx5x4lePJbXh8vO7rhZpU3CNnSZbMJbaPmsAcVf9Kl3pOY22k+r9c97MYZhNJ1Qyye61LvAXW5FzSn1f1H85zMhZLHggxl5qKk81FQeaioPNZWHmspDTWWhnvJQU3m0pvr5HSGE3I/EzMFkkT7bMJ1p6BqHQdmG8zEOdd93w9I0DVeUIPdwX6KxkcIQmh4bxciYHavPNHRMF6fcqIMpSWqz4GCy2Gy5UYNTktQxZNIcmzAHnmM4JmaOBZtPxkQyfTlz1uWfHMHIsLoOT0zYSzJZcjoTT2ugjnGyL9Mc59Fr8Ig6l68Mqzcb0Bmf31Cbcwwwk/2Xpr2/Cdt19l+tfwwjw+NxJTtdUpmGmV+Ti6//FPdI/U61n5udZzEZe/M2DS0zk+iubcHHWpvvNabNNDSvwXdr0Rx3XSPDQSnDzrnzj7Ug382ytNt2HG4026JZo7773UvA+I1R7fZHyOLSdrYbD++9hmgF0oa+BKMwttyFx/ZdwU9PXLf7e01BzSAajzagrDx2f3cVxRuFnmVd1vRMG766fMPuTQhZbPhgRh5qKg81lYeaykNN5aGm8lBTWainPNRUHq3p3ZqGjf+pBV++841dI4SQpUOiSRgUC5xtGFCmNMg41PvfDUvINHTMopwXa1E/nMQJTWEIGVPtuRrUDI6bLLDofG8Kk034eBmO1t7ESGcr8ld6jb1efKzWt7zVju7hm2jeq7PByqIlT1Mea8tybt/bi8HhUQzW1mF7NAvQi9e8mcO0Ok/7sUpsVPs68/hFUL8zjOxX6tBsrn0cFXr+wZXWnNS01ZmsxO2vqLHuH7Ab0xzn1au3SY1NjfVgP6b1GHqda3HKgDrj02U/Py4fVe0zGCmvUefTGW56fBm0q3Gtf73VybibGcBRPeefMRznaxrO45osiaZhJUrV6zEx5X8dpqurocvH5hcOOddgXi91rGsaDmrz09VItYf1/gGmofu6HxwwWo6cLFf3jFNGN8g0zC+0xqB5DfT5b6rj1Hg6G835oxmDcRhDU2cimhKynm3eMWsyNQ2nRtC8W9/fwe8hQhaannM9ePhn/Wiz66lNQ7XsS42+jq8+9ZqEN40ZeOFiLE83pWmolmN//kEIuRfwwYw81FQeaioPNZWHmspDTeWhprJQT3moqTxa00xNQ/3gfLw7sQ7WxewvUbjOrTcUY7R70hxDCCH3Ctf0Sx2OaajjTk3D5MZhYrZhMuNQm4u6nztlCZmGwPTYpDFTkpLCNMRYLw4ZY0uFzlQ86X08PI76XWVOKcgVYWzZ3BIzXBTTnU3I/27YHJuzsgyHamNz86U7dqK5EfnP2fM+WoL8Y9pIisc13WKxfl01zjSM23bNEMKbS0zJSzOO5yoR7vS+sM78d9q4C0WfuGtSHBen10RtLbY+asegrmVrbqcti+mMb8uuJo+GYezY72Z7pmtXaP2zHA3NOLJqUW/Lts7PNNRkfk0aX/9jnfjYvh6JGYJzuHqyHBu16ab7fqYcH2/zntffnvNiOXasCu5n8EINtup7Qvfjud/81zqJmlx7HfYcCa/Brt7kpUJNFmzc+e02X6lYWx7W9GnD0TbxvtNanmr23t+ELB63LvViPuVJ9XKUvi6UhRrxVTRdehytnzfMozypXiaE3Ev4YEYeaioPNZWHmspDTeWhpvJQU1mopzzUVB6tqX72lAljHeM48s//AZPXb9stDhf+bQ1OrfWbhrdvRLDvvy3EjW+i80MRQsii4zcHU0US03CBjEPXNEyWcajPO1+WlGlINJGEDLnMyPy4RHM2PiMtMs92DzOT0ZKqd8+dapEO9YYS6ndaaXEnpDXIyfKnvgBP7ryo7uI7Z+jzDcj6ZYdduw+4MYAf5XVh1Sf9KK7qx48/7MIf/mIA+qtaOtNw7PI3KA59g3aP5z1Wrec4bETlpStov/QNzocaUH5ZZ+7SNCRkKcIHM/JQU3moqTzUVB5qKg81lYeaykI95aGm8mhNMzUNNZc21ePw06WYvR17Rte8rxO1e7vsGjAXmcPnf3oeJX9VZ7cQQsi9wW8Mpor5Zxs6xmEmpuH8jUM9x2FQTE3edkIv2xgZnDBB05Ao4kzBBNK1E0Li6fhlFjacuJuCmBFc3Pkk8mrt6n3BDK7X9WHd+13Qcxb+8f4+XBpyfsakNg1nndKj0fkMLbO30FXcbMxCM2dhcR9uzeoGmoaELEX4YEYeaioPNZWHmspDTeWhpvJQU1mopzzUVB6t6XxMw1tdE3j7n57EjXZvJTY/OiPxP//OCYx2Jq3TRQghi4LfGEwXC5ltOH/jMCPzUMXw4IQJmobLkInyaqxfUYpTvvKld8O9Mg3nnLKkK6tRk7TCQATt+0uR80zcPlP9CL1ShI07O5OX9yTkbhjtwMUjBSjYfRDHa+PMv4k+21aA0Pm+gGzCIRS+9jz2mbm7R9FRUYWqijr0eXccqMPxA6qPA8dR505T6qMOBU+9gXOeKS+Hao/joDpnwZGL6IibCtNtO3iiDkPGOIuR9LjZIdSdOGivowOjccctJoElSaMMovGof/7C1NAoTEVkdBSjw57gh2hmjHXh1KY3sfo3NuEpFc/+US4OXLhhGxWq/ez7n2DvO8dw1lsGuvcyDr+jtr9b6Stv/iDCBzPyUFN5qKk81FQeaioPNZWHmspCPeWhpvJoTZOZhvoBeeRG4tOTyJjz3FlnFF4rHUTLng40q7iqlvU2zfRY4sOKqaGI6ZMQQhYT1/BLH/M3De/EONRzF3qNQ695qI1D3Z6peahj+Pq4CZqGy43eJmxfEUZB+d3OSzeJiSm7eI+Yrs7U/JxE6eYiZG9u9RuEY63IX1GE/LOco48IM1GFt1evRcHpOtTVXsS+157GG19Yt222BfteUm3nOzA00IHCd9ZgbXwJ0chFvP1UHurM77V9OLf7Dax9YgOOu+bgN/uw5tkc7DtdharT+5Dz7BprMHroDCFr/XG4dmXHkRxkbQ/hYq0a04m3seaFfWixvze3fLQGT7+6D4UVVSjcm4OnPW1Jj5vtQOiHWXjzyEV1jXU4rq5jzUctzkGLzO2rNxD6pc4+7EPidOeKa3o+wwbUxGsUyG0MfdOFyk8bUFzkmfuTWIZwfP0T6h7JQtbLNg6wzEt6RnH+R45Z6I9tOGCygQdw6s/V+h9sw7o/+YnanotTvXr7DBrf3Gb2zdkTK7HzoMIHM/JQU3moqTzUVB5qKg81lYeaykI95aGm8mhNk5mGw3Uj+PS//wdc/k+tmLoZm7BHPzjv+lUvTj1RhEO/dxwHfvc49v/uCZNdePj/VoS2X12xezpE1LFf/advsO+/O43+L4ftVkIIWRxipmC6cExDHfM3DhPDaxqmyzjMxDhMZh4uz/KkM5MYGfbOBTeH6eFRtS3uL1XMfuNxc8a5+zqRMFdeQt8K77aU5/b3bcL8pUyac0ax+9m/rklOBBWvB5hnMzdRsb8Ge3JV7GpC83AqE24Gg+EabH2kFKfu6fP0AYSeK8KWvRkOYrAJ2x8K4+Na/7WNHCtD9uM1qLfrhEig5xJ8fq/HQNPzE75WaAy8SMXbWPt3HpMw0oLCv6uKmnuGb/bh+dfPIZbUV4c8j2lY996TeLss9rkVKXsbT77nN25Gv3gDz0dNPJ11uAmF0d+HdSbjkyjQN/6s6vupt3Ex2p23rGmK4/Q1bSmMjXGoEBueKlBHLD7XL13Bn/2sB//+ksSXtltoPd2ICyda0dqX+NeIxDENE8veRtBXX4WOoVF01BYidOA4qjrj0lnjGPq6CoVHQiisaEnIbh3trFNtB3H8vL9ttF2dw/e9Tmfi2izcSB/qKjowNNqBqhMX0aebZ+14jhSiLs14FpS2k1hnTMJcHK69gbHhKzhrTcRnf3JZqdeAD9TyX/5Cvck7T+Mv1fIH5c5xOfq4xw6g8R7/oc5SgA9m5KGm8lBTeaipPNRUHmoqDzWVhXrKQ03l0ZqmKk96o+EWPvofvsA7v/c55macB+ZV/3sNfvn7x/B3v3ccv1Dx8e+ewD4Ve3/nBH7225+hQMUXOc4X2G9nv8Un/9Vn+Ls//AKDqq8lz9QI2svbUVE7gImgR74zk+iuVe3l/RgMfGY8g4nOXlSEu9E+GPfse2rc/xzaRPyz8KXBSLO6RnUNV/mdeJ5EcLVaa9ePEbtFhM4m7FhVioLwPXzGssyJGYPpImYaJjMOg03D2UDT8O6Mw+TmoY7lbRqWV6sfPtWosaumTOdDiVl3zXlh80Nqx0nvze+U2NTb3ch5rhqlg/ZDOa5vg3dbynMn9p39Vmfgdt85XYZbsEO3P16DZrspkKlW5CcYZ6MIv6qOfaYMBbk1yNfnW5m8n8EjZdj6VhOaB+Ne16DrX0ja6rDxoTKcybTaoGuYGl09TLWbbMOC8qAfroTcIZFRjHp/H6vOwxPWBNRzFebVRtBXkbwcqN4n56ixPCxe07APx3/oyTrUDBzHBk9Wob7fL+58AnnVdlUR8f1xhO7Dlj/tO44c37HA0IkN0fkUkx43G/GXpdT9PL8P9ybXkNwt3443IPLVU7hd+o9M6GW9LZFkpqGzfc1LbyDvxEVUnQ/hzZeexobPfXa4JYK699Zgzb876GS3HtiENS/koc7cT6ptdxZWuZmvB95A1upNKLRvh7r34s/teW/o98ETqt/v5+Dt3efU3TqKc68/jbW7C1FVUYiC7GTjWXhu/CrfGIRP/XkRogVJLxxwtj12BK1ow4HHNuHZl4/h1I6deNZkIMayE7d/xl/GNXwwIw81lYeaykNN5aGm8lBTeaipLNRTHmoqj9ZUP/tMRWR0BoPNzvxDXb/sQej3j+HYvyhE19EruH0jgqGvRoxp+PPfOYHdv/0ZPlDx3m99hq8PmVIuGGkZw3TapAsB+luQu6oEG6NRih27WtEdOL1SLw7pfTa2wH3MebWwHOs9z4OzHynzVVqbrq3FlhWe9hUl2ON9vj2l+vyup12Fd4omM92Tp82JUlvxxk/9Lu91lGDrq5UIFQ7IGlEpqHkr+dgeJAZPlhv9D3me9aXG9RVkn9ePqHtT3y/rdzkPauY/rhjNu/U9pe7tNrtB0X2wzPS3/aDnwWd1jdm24/BQwHtLR62TEFRdG7dd9fNWI+rjvRSN3Tf3pDsx0RyuHnGuJf/YkC/xq3l3qdNfXrfdZgl6n+d6E7JuIrxRb7fjs1z/7JLaVoyDVd/i26vNeEctb3y/J2oWjl/6ElvVtv/wfjfGv72Jc6qP1/5U7eOJQ5XOsbn62Gicx398pxFf35iB3zicwdcfnsdrq8J47aedd2QcZmoe3hqcNLF8TcPORmxXH67b9c3moxcfP64+SNULnb2uyfMBGD8v37hT8vLVFmefINPMuy3lueP7dklzTovJltM3ZkAmnY9qNYYVcWNMMN+c688Px/0FimEO0729OKOzEve3oLnfvrZTQ6jfrcag+jkUbkd9rz12ZhTt4UYc2tWIirZxTPR2o6LavukG+52/dJi5ieZjddhj9/HhHp9bi1Nh/w+jwSPqh9uLjXHzO6lfHGpbEDL7677tZsv0WfWhlmCsRoym6/Me8J88ZAFxjAs3M1CbHtpY0aVLW76uQ+HutXjal1Wo93fnM3Txmob+rEODMUvyPFl+Ldj3vH8+Qx+6vOn3Q+jQZmVtHp4IMA2fiMtcNHiPi0OXOE0os0qWDV7D0GscJuKYg2v/2pmTU8e5ntj2Tac9N50ukfuyul/sahSdSRt3H3V8UYCQ+vkQ1GYyae17JL1p6M2M1ZmyOTju+u8951BwtM7zXls8bnyS6xiEb3qM2NojeFFv+40DaFSrkeYivPvn2/AXf5KLdz/pwo3yA0776pNgYVIHPpiRh5rKQ03loabyUFN5qKk81FQW6ikPNZVHa6rNiEyYm5rDqT86jdDvH8e189dxpfAaQn9wGh+5WYYqPvztz7Drtz5Dvoq9/0MRZiYDHmYsFL2N2KqNuOfKncpum0uRY9br0G53idGJAt3mPue0CQ7ZKytxqrYf7eFa8xw59pzaqb6WvaIUh8KqvbYR+SvVuqeSWvf+EqPl9l3taG/uxanXdYJM7LmxYxqWoOCIzkRzIzibzzHtwtj+ur6OMmzU59Lj/a46X6AJKgtNQwfX6C3QVYkyYmFMQ+MPeKopzn9cMcyzen2fHnG9D3fMKjz+R/tefT/r+1etxL+3TLTA2HnGfynC+lcq/e+7oAQpu6/ruzgJXurYt2LmuoPjlZgxrahEhfc9EjeWgldL4s4X/Bo4mn2BDy59i297GlQfXyD7zQ7HNOxowH9YodZfaUCfMRFv4qTpowT/8Z0vscdG+BvV1q2O/U19/kv4udr2wavFyPlNdezKL/G1L+OwGx89/gXWqbZ1K8pRNhYzDQONwxTzHKYzEJe3aTimPozVB1ziTaCorcF6fQPUxptpicbe1YMe48prCrp4t6U8d2LfDmnOaRjFmXVF2LK/zzG/cpN/gpobMs5oM2/OVd4fWI6JtuVgvJmq3fYy5KwIY+tm901nMyWHu3FUvSn0zbtDvUGOlo8C6jr3PKNu2kdLkZ9biR3PhbF+pfoB5dMrjI3PqHhVvZHtmzhqpNrjc9SbrkAfr/t6JTZ28wPDlzUYQf1O1f9KnTHp7t/ku1bHIC1HadwPQPPBs7l1Sabgk+VP39ENyHqvTt2hDnW7n4zLIuxA6OUNKHTfcrNVyHsiD1W+32W9RqE2BANMQ685o7P+fngc3rNEGVX9v6SOdxu1SRNgGmbFG4Dxx3kYrc5D1mvqfIv4+zeRJd4wdCMRaw7+XRWqKpxwyoUGZSDq+9ZrZjskNaUVgW0eUzy9aeg/X98XbyJr9Rps2hlC4dfxP9cWj0xMQz9dOLpat23DB+Xq96jBLjSGL6O1dwn9TnUP4IMZeaipPNRUHmoqDzWVh5rKQ01loZ7yUFN5tKb6wXwm9P3DVfzq94/h5ONnMX5lEr/4/RPRuQz3xGUZ5v3WSfynf3YSbZ9fs0cvAq6ZEH12OYf23R7jw0ecaaiTPtR6/tlYQodTFc9OFdWvp2AqwkbPlE0jJ3UyRxH2mGyvmzj1iurP+7zXrVK308mUckwLbcTNYMKUJo2bcstDomk3g279fFr1F0vCGEFFbily3OzHR3S21oDpczpcabb5nnvr5+9q28bd+iHTHAYv1GDro/ZYvX1zE7rt19+E8w924uMsp0qgjpznKnGm0+7s6r6hFqc2Osap01+L/5my6m/PQT39ltOun18fqvVkao714dRmawC57dU22SV6jhocetG2r9AZa0MYaW5Ern4mrbc9UoqPL3hSYO6wT4N5jm6364h7vm9Q/Yd+ENNl41t12PM9vez1JvzmXnLDbxL1u7yvp+dabD/m9Uw2rlTX6sW9L7fZ94m7bs7rPsO397ObCJXw3vLgHZthDhXbdF8BprN3X5vg5fUeorj7veho5Uu0ChiLY3B63ovm9fR7RklNw9EOfLBSm35V+HJUG4Ze07Aa1XNxZUq1aWjO7xiOujRp655iZP/mF/h5lWd+w7IqYxi+8eJ58/+7X0ymLVUalHWY2jx0DMRlbBqWYru60QINQ3UjmQ+O19vVh5rzVxuxm8x5kTdua3L++qKwDrna/HM/HE3f/hvAty3luZ2+oy64irBJy01zTo25OUsQUvubD+H4TEIP5oZ034SWICMx0ZBT2L9yyT8b+wB15wM0znnc9Zu/aHm8EhXRvzgZwlF9g/tMQ39/E+avC8oQHrbH+/76xnH13ZKxeox+Y9NqZX7YKHrbcSi30f8XL0arxA+JIA0IuXsiaPloLVZtKfSZaXq+wze+8OY6abPFYwJqE8+XeajxmoYBmYhxx/jnM/TQdw5vvpSFglrPD7jRc3gjrqxoy0fP+8cYdJzFmDIvFdjSkmS5Mt9MQ79xp8ncNNT35xM/rbJrfgLbPKVvtWnonc8znWlomI1gqLMKoe1rsCbofbEIjH32gWMa/pvTsZ81bnnSP03MJNT7P6vb1p7Hjdoj+AtjLjqx6Vfevxh4sOCDGXmoqTzUVB5qKg81lYeaykNNZaGe8lBTebSm+llhPG37OlD943qUbWnAN3/vPPdr+k8tZi7D2q2N+OY/d+Lj3z3umcvwhJnL0M0y/Ok/O4lcFZf+ttUc2/1pL6o2foWLr9Wh7mcBxoMECWbCjJPsYJ/h+vGbhq6R45gODr5t9plqLDtL4dtm+3ulKVruNH6b059O8FDb9HYVOS/WBmYOJph2hn6EVqntK6pRj7noVF9bdragItyK0AZn3Xnuq86tDRnPs1dnf6uFNRCzv1uNM+F2lO63pVk3t5rn577zT3Vjjx7zihIUHG5F6eFKp0zrinKU6rG7uqvIebEGZwobUaCfR6v19Tu7jYnp9Of0kbu/FWd2lWGj6cO9RjuVl9JHt1eEW7DHlHrV453znWPrW40oPVaL7a6OK8LYvqslNq5oQtI8+sxVGloPQO9/SP/t8WA/zmxzzKgdu9tjlfyiuP0XYeMPan3X7fcmMjQN7Wuy/vVG83oeMqadzbKz/RjPJHBcaa7VhzXVXH/hgjaYS3Bot/7fGuxmujW1j5vw42r1emtsPk635LAd25a9fc72/l7HhE2VabhbaaW1Xql0Srj/7XRn2sActBnA3sSjhPd5/B8H2OuL84wc3eNMw20NOPmK+n/FeZzsmLWGoY4b1jSsxPmbo7h54xaGb0wgEmgazqD1Q20ansP+y65pOIlLP9FZhpdQcq0Nef+1Wt70DSa1UWgj0ThMnXUYZB66MTo0aWLZmoaBzrFrjFnH2DWunL/BsC/yo2Gbhq0+WI6oG9C0KUzfcYadd1vKc8eZgyrazQdKmnMqfGOMG3885ob0/cCwf4niM8wcB9771yoG+ybIecZTp9eMSX2g6l3jrj/IeDTn95mG8Vl/zg8w/UFljn9EXbd7rlVh568b7F/EmHa77KLTiPWHfM5KWyc8Wj/YYq6BpiFZBGb7ULg9C1m7qzAan33XE8La9aGYkajWN2hDxK73Hc2Jy0TUeE1D9avA6U14/qe279lRVP30eV9ZyKqfPuGbz1AzWr8Pa1dvwnFTStLLKAq3PI+8Cnu8zih8PlbiMelx6rx1xhRdXhmGM+PjGLt1W33SES/fCs1pmIlpiOFzeONZdT+7t7l6vxxf/6RjBrpt7v02O4SLO5+Plr7V9/6TOy9G31ejFXl4PplpGKnDvuy3cc79+5L2g8h6rVCN9B7QdhI5xvTbhnf/4QrG+ttw9GXHBHzWm32omWrAB485+x5Qejbu0MsH1M/XAZz6N2r5Zc+8iA8YfDAjDzWVh5rKQ03loabyUFN5qKks1FMeaiqP1lQ/xI/n8vavcfqlSpz436pQXeB8N/z67RYc/v3jOPLffo6//6OzJstwnyfLUJuGbpahNg3f/qcncfE/OqZhy+5f4+z/uxInVX/FW5vMNnFcM8F9tmmeoaqIr4pmsIaezzQsxVHPY1VnmzV3zDNVtXzB82TDbnOSX2x/vsSRoHNoU0g/P72J5r3O+pb9iX+k6jPtPDjb9bPgbuzRz2yz6tDumjiDLY7RY0pMzqE+V5uEbh+23KMdS/1Op/+jzfbY4RGE9fRcNrHEe343ozK30JOEYufYM4apq7svEaXflnN1nls7/QUlslj9bCZnzrZ2DLrXo+eQVNtMIo97Dq95ZPX3VgA0yTZqm3nN7qJPN6HJdw/EY/v3T7XmltX0ehP+45P2GTUNW9A+GMH01Lga87gztnTjSnetcTiZeer17bdmsjYQbcah8SfsWNxEoqhW3nA9CDs2X/xfSxFqCPBKfPuGsUdXeYrHZ1i6BqJzXxri3+fPOGZ57H2eyjQs8puGNrZ+csNjGLqmoW7T/Tix7qEqfOk1Dc35i53z6/KkrzTiypxjGs5NtCDvN88ao3BqdsoaiBdRNDQXNQ3TZR0mMw7d8JqGt4YmTSz78qReA85Nl44aY9aoc/4CxHmRzRtiSh2v3nRbvMaaSR2PM8Hc83mXA8/t6dtHmnPC1rCOmmvWWDOZkokkliJVmDdeJSrsqvkgXeV5I7qYN3wJDtXaN3s0vB8YsTeA+cD3ftApzIeAzzSM+4Fj3miOE+8c3xL7cHHD/uVA8pKiEQw2tyOkU9AfiaszbF4j/5tUY84VZ3AScjeYEotPPBEXMTNjqCwPa19Yg6yXVmHV99/G8Xb3h1fQfIYav2lojJT31mLVU6rfp1Zh7XsXMRQ17oLmM9THx4/nCWw4Ye2ToYvIy16FJ9W2J1evRV6Za6ukOE7PhZjQ5hnjkuQmmk404HzJdbtO5o9jDj79QhayXrZxQN/Z8zANFZGvD2LD6lVYo45fo/5/40hHtIRvpD2EN1Y/jVUvOW0b9lbF7u/ZPpz7myw8+ax+/2Rhw4F9eDNFpqF5r6k+9DhXrc7Bwa+D/6hm4ZlE+SbHJPTFd/JxKu7Hj1vK9NlNlUaT1ne3qfWf43xnA/b+qTrmR2UI+OPPBwI+mJGHmspDTeWhpvJQU3moqTzUVBbqKQ81lUdrqp/LZkLP0Sv45PeP4+DvHceB3zsRncvw57/zmTOXoTUN3/0tJ8vw7X96Cl8fif8D7QXENROi867V4lR4wPccOobf0HONsURzx5+Z53uObJ6zaiNMf4v0m3IO9hzus1SvCWSw7Z555FyCTUOvGWKPDQp3DN4x2+Xtx5wHV66JlxjOOb3nd3QIep6s9tHPdr3LHrx9BF5PUB9BkewcdlvQa2JeR4E+kxp8mqDz+14jhXc8luR9TqL9cCU2uuVbPeVm3X6SjivdtcZj74f8s71O9qrZx45d3Y/N8a+523+GmYYhkyVZhrA3i0rj7rut2ilNGpBp6L4X3QQt1zty793oWPT0auscw3BLXm+C5xPvR7ia+UzDDVVOadLATENtGjqZhsMmJnHbaxquvoSCtdow1OfvwU3XMFRx87OLxkjMK5qELlU6VVRhSpT+h78fMevpjcOYeZiJgTh6Y2oZm4Z62daqjZUKdebyy361LprtZ9Jnn3Oz7jwGnsLcNNG0ZYVr6uV2Y3BsEhPuTekaeCnP7e87Rppzmjn6SrDnmDteFXv1zRyfwWcx+8d9KOofJCvVuN9qj/1lSdAbSY9FXY/+C5RB/ZLODOCovj73h4m5vkqUqjfkxNQcpqv15KFh5BfqtOQZjNTWOW9An2mo+nu1Cd1qf0z149Sr6ua2fwlijlfXGmrQ9Y7nMHLB6c+dsNcYoL5SrI6B6pqx0w21zrV6PFZjNCb88EtikhJyL5itQ95Tb+Pi3fga2jjxzm9IYgz3ojzUgMqvbtsN5J4TSXGzp2qbJ5EJub7umJkbqHknH+v+SBuGP8Ff/Pk+nGqO/WWjYawS735Ht+d6fiEuw9/+K2sy/kEuDtcuod+rFhk+mJGHmspDTeWhpvJQU3moqTzUVBbqKQ81lUdrqp8VZsL02AyO/PPP8YvfO46PfVmGTmnS9z1zGb7zT0/ivf/mDG7fSkw9WDBcMyHIJFF0n9RGYhOazfNbv2noPL8t8iSOTKJ0g2p3y0N6sp+c58puSUQ38cU+43ZLdmqa9XNS1afNJOwu1Of3TOvk9hk3rZUmyGTT1d600eM897aZht4st5lJv5ljn9vqawyb0qSxbC0n09At46nxz7PoPf9iZhp6swYdk9V55h342tptvmf79tm3MdME+kxpGs4j09A73Zc7/15Cn+7YZtRr0dmNkH5m795ftp+k40p3rfHYe2/9hnJznDuXpzO2cuTqe9+bBBWklUvc2DTu/ZFwjZ59o/ezrzrkKM6s0/oFhKuzdyzWG9LmY33Ul7HvRe3VRA3JWOatziaOmoZ6TsOOBvyHFWrZN6ehaxqqbd+q/W2YuQ1d01AfO9GBgifU8v9UhboJ1zQcwel16lidfWhjnc461P+v/Ro39HyHNoKMwzsxD7VpqGP5moaKaWvebT84gOlBfUPHTCkXd96++gRjz87RF/2A1v01IV9/CNkbaOPmRrS7N0Sqc9u+fTefufFTndPeYL4PA43zgRB1vH04H9DxqeZm3N/VN6su7Vnmn/jVy1gvDnknms3y1Loe68TH9tqd8c7h6slypya03ve5Sny8TX2I+EzDShw95t2nGqWDrv76+Li/aHAnf9UElGKd8E42q8exqzf62iTVxfw1g/cHEyH3kMD5DOdH0vkM7wtm0HPpCl54rwsP53XhsZ/3oXjI+RlzvbhHbetBKMW85nNNbSgONaPF/Qgcu4b6zxrUNifKLw3C+bnejxq9rcib2U3IvWQGEfWFaQlYn/cUPpiRh5rKQ03loabyUFN5qKk81FQW6ikPNZVHa6qf56ViNjKHiQHnD4GbCtpx4HePmyzD/2yyDE/4swztXIZvq6h8/9fmmCl17JzqY8FJZWwoXKNl/YY6nNrpGDcxkyX2nHjjq5XIt89iY6UdI6h5yz7HzapEwaslyFHL3kSJadcEebQU+dvKneerniQRJ9lDbftuOUKHY/PfBU155ZhsYWx/XRuNKjaXOud7pAxnzJDmouZT8JyGDmaKLX2cfg7srZLXVmdKV2Y0p+FYqzOvXAZzGq5fV6v6a8HH9tpc/VzTMNqHOp8zp6Grz6Q1etLMP5jC4DOYZ9+uWXX3fbqG6ZbNjSi9kzkNh1uRa7XTCUixeRcTDTX3/jHlSTv7ceZ1/XoGm4aJ40pzrQnExu4r/WkzEPV2X1lTVyt1nbHEr37n3rdji04BF50b0o7di+865mLvSfUaGD/BeEXqWF+CWTtCZqz2fox73aJaeCpFRt+Lz5ShwPv+sSVMfabht99i/FKV2l+tv9KAPp9peBEHz7Wh/Fy7ibbratRe03DuWwybrEJ9/quOaTjQiP+gzcJXv1LHtEbj8I+0cXgen3XFTMNUWYepzMOogWhNxOVpGhLn5n28EhVRd/sOmJnERMYvq7phgv6KwLwxXRM1yT6GOUyPBT0mtZPsuiakl6lI3AenvW73L3Ki2A+lJOVcCSFLjBsD+FFeF1aFruFSVT9+/GEXHj4wAP1VLRPT8NrFRhQf7YCzyyyuFKv1UDPqa/vQeq5JLTfiq1ZdB5OmISFLET6YkYeaykNN5aGm8lBTeaipPNRUFuopDzWVR2uqH7gnIzIcwYl/fQF5v30SczPf4lsVn/3Pxdj3u06W4c9+x5nL8H0V+b/1mZnL8B0VHz153tl/9lv86v9wDKefu4Dbqq8FJcgE8jGE8GZr9qnIedGTmKEZ1tldql2bOo+EsT23E758h5kBhN8qw3pjBoaNYRNNXDHMoLuwGtuNYaL6/25lXKWbOQxeqIm2Zz9agvzDfZ7kixhRk82NR9V43mpC87D3We446neVOuPV+3jLWbq4JowKvzk5h5HqWmx91B6rYuPmJnTbZ88+01ARn7ST82I1SjvtWFzdN9Qi9APHuHT6a4k+P3b727O3Opas8mipP4lG6XvG8/qY9mpdDU8R9NrabclNQ8Xd9jnVi5CbzBP0PHysz3/NG2tQ8D29HEtimqhVOrvX/Ey5k+CjlhOy8Ex50liij77Hduy394fPbFMEjSvVtQbgGna+63KzX1UUlHvuNVcrX9hrtGPzhTr3xxf8KVeG+OtQ11yxzbmO7YeHomNKMNLtcSYpK+F1s1mtJovQHbN6Lx7zJEap8CWamT5ipuG3386i7xfn1X5fYL3aNh41Db2hS5smmobfzl1FaLVa/83zONoxiyufqH5+8wvknZuymYc2LlWZjMPNH/UbszCZcZjePEw0EMdu3DZB03DZYcuMqps56AfBomHeYLEPrTtiqht71A83/UZOicnqDKsPGP8PR/PmD6hXTAhZmlwv1cbgFVyyP3dvf3lFrffitPqu5piG3firT3rwWF4XHn6vC39V6v0SdwstOquwqF+9+zWOMVhW7v5yMIjGo+58h9Y0PPENKtU2k4l4tA1d/Kwg5J7CBzPyUFN5qKk81FQeaioPNZWHmspCPeWhpvJoTfXD8CBu1g3j7/75P6D4f/8KIx2xJ5pz03P46t1WfLTic5Nl+IGbZfhbJ/H+d06j4qftmFX7uIx1jKN0w1f48L85jf5avobyzGF66i68gIBEkKQEJbXEmzgzif35Tch0402V6HKnLESfHgKu+W6YVq/JnbPA13qfEJu/MNOIK1MaFNF9v/Ubhp6YnZ1NMA3dSGceBhuIMzQNlzcRTPgmu70HSJiGGlMj26lxnYzpMV0HO/4DzqmPHVhLmRCyJGk7242H915Dj11HQ180u9AxDbuw7tQQem6NoDik9rWGomHyCipDDSi/bP+yya5Xf60zCzXDaDrhZhda0/DvW9HadQs32ztQptYdQ5EQcq/ggxl5qKk81FQeaioPNZWHmspDTWWhnvJQU3m0pslMw7npb3GjPiBbyDI1dBtff9SF0s0NKFFRv78bkzeSmx0DdbdMqVNyn5GQ+ZVIfOYiIUsBr8mXWSy8cagjE/NQR8w0nDJB05AQQsii0HOuBw//rB/RMuQJpqGnPGl3P/4srws7Gux6+69xPtSEpj67PtuH6lADKr9y5kIINA2j5Ulvo/20Wj/RBU+hCULIIsMHM/JQU3moqTzUVB5qKg81lYeaykI95aGm8mhNk5mGQUwNRfDR/7kQY32+uYh8TF6dwrH//h8wNeh+9yeEkKWJ1+RLH37TMKlxqMMeE2QaujFf8zCZgTh+87YJmoaEEEIWhVuXepG6PKnHNLx2Des8puFQeROKP/01rjiriuv46tM05Uk9cxp2FdE0JORewwcz8lBTeaipPNRUHmoqDzWVh5rKQj3loabyaE3nYxpe3tGMA//yHGYm3ApCQPeRXrT+MpZCNqvajj/2Bar+Y7PdQgghSxe/MZguFsI41JFoGnojyEDUQdOQEELI4nNjAD/K68KqT/pRXNWPH3/YhT/8xQD0V7XUpuE4Wj9vQPHpK4gVJ5nFleJGFIeaUPNlH1rPNanlRnzVrr9s0DQkZCnCBzPyUFN5qKk81FQeaioPNZWHmspCPeWhpvJoTTM1DSeuTOLQf1eIm9+M2S0Ol/5/X+L0ust2zWGkbczMYXird9JuIYSQpYvfGEwXMeNQx90ahzoyNQ/d8BqHYzdvm6BpSAghZJGYwfW6Pqx7vwt6/sI/3t+HS0POz5iUpuGsYwJG5zN0GRtE0xltFjag+FdNqK4YhFPUhKYhIUsRPpiRh5rKQ03loabyUFN5qKk81FQW6ikPNZVHa5qpaajnOOw9O2DXYlz8tzX4fK3fNNS0nx7gHIaEkGWD3xhMF4nGYVLz0OzvRJBh6I35moc6aBoSQghZHnR34EKoEY3ddp0Qsizhgxl5qKk81FQeaioPNZWHmspDTWWhnvJQU3m0pvMpTxpE5Y8bcG5To10jhJDli9fgSx8LYxzqmI95OD4cMUHTkBBCyJLmZoXOJmxDj10nhCxP+GBGHmoqDzWVh5rKQ03loabyUFNZqKc81FQerendmoaEEHI/4TX40sc8jEMd5hgngszCoIgZiMEmIk1DQgghhBCyaPDBjDzUVB5qKg81lYeaykNN5aGmslBPeaipPFpTmoaEEBLDa+xlFn7jUEdK41CH2smNIKMwVcQbiDQNCSGEEELIosEHM/JQU3moqTzUVB5qKg81lYeaykI95aGm8mhNaRoSQogfr6mXeSQahwtpHroxPnzbBE1DQgghhBCy4PDBjDzUVB5qKg81lYeaykNN5aGmslBPeaipPFpTmoaEEOLHa+bNL/zGoY60xqEOtaM3gszBZDExEjFB05AQQgghhCw4fDAjDzWVh5rKQ03loabyUFN5qKks1FMeaiqP1lSbhgwGg8GIjy/uIvx9rbPh3SZlHtI0JIQQQgghiwYfzMhDTeWhpvJQU3moqTzUVB5qKgv1lIeaykNNCSEkOfEm3vwiMeMwo6xDHeb4xKBpSAghhBBC7il8iCAPNZWHmspDTeWhpvJQU3moqSzUUx5qKg81JYSQ1ASZd5mH3zjUMS/zUIc6KFXQNCSEEEIIIYsGHyLIQ03loabyUFN5qKk81FQeaioL9ZSHmspDTQkhJD1BZt38QsA89IbqwA3XK6RpSAghhBBCFhw+RJCHmspDTeWhpvJQU3moqTzUVBbqKQ81lYeaEkJI5njNuvlHonGo467MQxWTI9MmlqxpODU6y2AwGAwGg8G4T2J0aFL9H/y7JuPOgprKBzWVD2oqH9RUPqipfFBT2aCe8kFN5YOaMhgMxvzD9efuLPTxM0nNw/kaiEveNCSEEEIIIfcP/MtjeaipPNRUHmoqDzWVh5rKQ01loZ7yUFN5qOnCQF3loabyUNPMCdIqOJtwPuE3Db3hNRDTmYg0DQkhhBBCyKLBLxHyUFN5qKk81FQeaioPNZWHmspCPeWhpvJQ04WBuspDTeWhppmTTKtgM3C+kWgaxke8ieg1EmkaEkIIIYSQRYNfIuShpvJQU3moqTzUVB5qKg81lYV6ykNN5aGmCwN1lYeaykNNMyeVVsFG4J1GomGYLFzzcGJk2gRNQ0IIIYQQsuDwS4Q81FQeaioPNZWHmspDTeWhprJQT3moqTzUdGGgrvJQU3moaeak0irY/JOKRLMwPtw5EmkaEkIIIYSQBYdfIuShpvJQU3moqTzUVB5qKg81lYV6ykNN5aGmCwN1lYeaykNNMycTrYJNv4UImoYPEJOYmLKLhBBCCCFLAH6JkIeaykNN5aGm8lBTeaipPNRUFuopDzWVh5ouDNRVHmoqDzXNnEy1Cjb5FjYcr/BBNw3bWrAntwXddjUVE+U12PhIEbYevqmOa8SWFWEcarCNgoyU12HP/m6M2PUoM5MYGR61MYlpu9nPDAbDNdj6SClO9dtNGdB9sgZ7Tg6opQgqthUhe0Nr4vnvhgXUy88Awrk1CLfZ1QyJXT8hZMkzPYWx4QlEZu06IWTZwC8R8lBTeaipPNRUHmoqDzWVh5rKQj3loabyUNOFgbrKQ03loaaZM1+tgsy9hQrXK3ywTcPyamQ/VI0au5qcfoRWFWHL7j7HrBvrRWhbDSp6TaMoVw+XIvvFRly161HMWItisSKMHfv7MGGbNYNHyrD1rSY0D87vNat5S/X3VqdamsPVszUo2N+bxJTMlE4UqDEWlNvVBdTLT9x5MyR2/fcxCff6nWlFyL1mqLwJxZ/+GlfsOiFk+cAvEfJQU3moqTzUVB5qKg81lYeaykI95aGm8lDThYG6ykNN5aGmmXOnWgWZfNKxPE3DwX5UhPs9WXARXK1uR31vxLM8jsHaFoRy63Cm9mac+aX28bbFGykzo2gPN+JQbi1OhQei5xlprsWOh4qwY7c919QQ6sPduKpLgLrLwzfRfExnCbaguT9OsyT9Gty2XY2oaBtPYxrGxjqtxrTloTA+rrUbMIfp3l6c2V8TOIZprd3hWhw63I7u4UmPbn7TbKS5HRXNo2bZZC4avfS4le7eLuPGPdHbjYrqIaW3fh1iepltXr0s0/29KFXjMWO14zDY13hweMAz3jnbGE/smkPHejE4E2+EpdbEJd40TKWVF0erEYy0tePULs9rO+O5F+KPS6qbJUW7/7VRJOia5Hr1frvL1P1ThkNh5z2S8BqZHd33h6un2UjI4nBrGJcbh3Er2dvdMI7WzxtQfPqKultTMYuJnn709IyrdwUhZKnALxHyUFN5qKk81FQeaioPNZWHmspCPeWhpvJQ04WBuspDTeWhpplzt1oFmX1SsTxNw4RsqZs49aItGWqXs1cUYeMPKrFnWxk2quX1O7utITKEU+tU+yMl2LGtBvlZYWxcGY71N9aJPc8UIee5chTkVmKHWs5+xTHvuk+WY8tDRdjyag2Olo8CvY3Y+lApTunMObMc67fgByWqzzD2VNtH2in6dduyHy1Fvm57Loz1ekwZmIb+TLE5XD1ShpwVYWzdXIM9m0uRo8ZQUD5p9pxQx2otcrK0LuXY+Kg6z+Oubn7TLLYcQf1ONZaVZZ5xN2Uw7lHU74/pZUqtevVS6PGsV+0bX1XjMWMtwvbDQ06juU63b/U6mdc0dmwMe83efp5R41DrmWjixXv96bTyYo7T+76o9lU6bH1Erb9Sjlylhz6ney9Ez5nu9U7THm9u+u7DVNc73I2jr+qxqHtUaXq0vD/xNXLfH17dV6r7bcyciRAhZtBz6QpeeK8LD+d14bGf96F4yPkZ0/NFt9rWjV/0mNVgZvtRE2pAWZX94Tp7E61nmlCstum4UHQFt0zZ0htoPK62He/AdbMjIWQpwC8R8lBTeaipPNRUHmoqDzWVh5rKQj3loabyUNOFgbrKQ03loaaZs1BaBZmA84371zTc0Bot2TlRWK72L0fpFDAdrlTLpTja6eadTKJiWzjaX/f+EmQ/V4d2p1HRi48fL8KOkzqzKy6DLcA0zC10zahJlG5Q49jcaszKVP2atscrURE1ZoZwVF9DUtPQyRSrUHFmpzp2RRnCg6ptqh35K4qQfzZmiI0cK1N916AZAwg9V4T12zpjpUw7nTGnNg0dPTfu7jPb0duOQ7mNqFdjTT/uFHrpNjXW7cdiGXMTFyqxXl3bGX0t5jpLcKjZfZ36cGiVGsfeuEka7TVvPWjNRoXTjz1vSk38xK45vVZezHGramOvbXMtNqp9Y9c2h/pcdY+92mIyENPplq49pWmY7noT3jv+18i8P1ao90r03KM4s05pkZfg1hJy59wYwI/yurAqdA2Xqvrx4w+78PCBAZgfldNj6OmL3oDBdHfgQqgRjXYi2rHqZhSr9eqKPrRf+gbnQw3qVnfefzM3buL6DabLErKU4JcIeaipPNRUHmoqDzWVh5rKQ01loZ7yUFN5qOnCQF3loabyUNPMWSytgkzBdHHfmoY+c8djqgSW/fT0ZwyZR8LYuKrERhg5K9S2nfrpdDrT0DXEHLznStVvggmkSDen4Xp7fM6LNahwy0+aMahtz7jnULFS9a3H1R83doNfK+84vMvRrLuVpdixqzVaJjT9uOenl2//hNc4+Hxp+0mpibO3S6z/9Fp5SRxX4vEJ90IK3ebdnqBriutN0NU/VnOeFd77tATrTeZkE7SXS4gE10t78HDeFVyyfxNw+8srar0Xp9XPyuvFuq0HoWux5R0nevFYXh8uO7vjZpU2CdvQZbIJb6HlswYUf9EHp7vbaD+t1j/vxRiG0XRCLZ/oUu9gd7kVNafU/0VxHwCEkEWDXyLkoabyUFN5qKk81FQeaioPNZWFespDTeWhpgsDdZWHmspDTTNnsbUKMgeTxQNnGg4eKUX2Km/GHzB9VmciOv3V7yxC9uYWDA6PYsQbY/r648ygBLPGLlu8Rk+qfp02JyPRpX1vicd88+C5dsfg8WSF9Tdhu87Oq407x/C46rsbe0wGmncGsH6EVqU3DR0iGGxuR2ijGtcjlaiYcq8p1bhT6GXHGmpzmgyDepudnzFT0zCon6lW5LvnTamJn1j/6bXykjiu1KZhOt3StSecL0DXpNebxjQ074/v1qLZd6yO1DPHETIf2s524+G91xCtQNrQl2AUxpa78Ni+K/jpiet2f68pqBlE49EGlJXH3ptdRfFGoWdZlzU904avLt+wexNCFht+iZCHmspDTeWhpvJQU3moqTzUVBbqKQ81lYeaLgzUVR5qKg81zZx7pVWQSRgfy9M0NOZSEbYf7Mc0ZjASdubGy8Q0RK86doU6dm8vRmbmMN3binyTieUYKdPVqq8VpQg1jKu1OYxc0H1rI0vnsNy5aZiqX9OmlvMLh5zrqa0zY4yZbx58pk8vPlZjj83XqK79FbX+eisG9cs1M4Cjat0pi+nOTViJ0t6IahtF8141vqhufjMqtmxLdaplXVpzukGX3lTX2W+vKeW4Hb3yC63p5NPIGaue17F7Smk7NYTS19X43BKumZqG0X7q0Kwv2u0n+jql0sRPrP/0WnlJHFdq0zCdbunaTblRdS8dbXPGVvGWvl6/rkmv1+iqrmt4FBNa94TXSL8/9LlvmntqurPRnNspz0uIDD3nevDwz/oR9fpTmoZq2fdBeB1ffeo1CW8aM/DCxVgubErTUC3HihkTQu4F/BIhDzWVh5rKQ03loabyUFN5qKks1FMeaioPNV0YqKs81FQeapo5S0mr+8M0xByuniw3JTO1kZPzYjl2RLPAbqY2DRUTtbXYqksuqmOzHynFodxYpqHTdyU2RttLkH/SfcR856Zh6n7915P9TDk+3uY91kOcmebM36cz7Wydv7FeHMpyTDMdOVm1Zv5BhyGEdaagbdu4uQYF30tnGqpzNDci9xnnGB1bd/Xauf7iXofnKuPGPYma3BLk6OP0tniNEsZag4pBex0Zm4YK3Y96zWPjq0Gu+j/6OqXUJIa//9RaeZmvaZhetxl0H0t1P/jHtnVjmWPkJtXVc71jnfj4OXucuZa410htMe+PR519dKnS2OtNiAy3LvViPuVJ9XKUvi6UhRrxVTRdfBytnzfMozypXiaE3Ev4JUIeaioPNZWHmspDTeWhpvJQU1mopzzUVB5qujBQV3moqTzUNHOWslbL1DSUYA7TU6muSbWPReyyJKn6nVFjsk/R75aZSUwku7yZiM1MnCdTyY67y3GnGut8SDo+y52c5061yoh0usXa/aZjhtylrtNjkwt47fc59QV4cudFyH2C1KHgqbdxcSE+ku4FNwbwo7wurPqkH8VV/fjxh134w18MQP+oTGcajl3+BsWhb9A+aTcoxqr1HIeNqLx0Be2XvsH5UAPKL+vsWJqGhCxF+CVCHmoqDzWVh5rKQ03loabyUFNZqKc81FQearowUFd5qKk81DRzlrJWrh/4AJqGhCwf7sg0JPeMjl9mYcMJwSKYnSFkrT9+H5XVnMH1uj6se78Les7CP97fh0tDzs+Y1KbhrFN6NDqfoWX2FrqKm41ZaOYsLO7DrVndQNOQkKUIv0TIQ03loabyUFN5qKk81FQeaioL9ZSHmspDTRcG6ioPNZWHmmbOUtbK9QNpGhKyhKFpeA+ZHUXH+RAKdhcgdL4Do8aMUkT6UFdRhaoKtc1uchhC4WvPY983dlUz2oGLRwpUHyFc7IyfHzKCPtt/wZGL6AuoBTv0+QY8/1GLXVNE+zuI47VxVmKqc80Ooe7EwcRr0aTqcxEJLEkaZRCNR/3zF6aGRmEqIqOjGB32BOsQZ8ZYF05tehOrf2MTnlLx7B/l4sCFG7ZRodrPvv8J9r5zDGebPSmxvZdx+B21/d3KB/6znF8i5KGm8lBTeaipPNRUHmoqDzWVhXrKQ03loaYLA3WVh5rKQ00zZylr5fqBNA0JISSBUZx7/Wlk/U0IFysuIvQ3WXj69XOOSThah9A7G/D8E3moM/taIhfx9lNqm2vIDZ/DG89m4c0jF1F1PoQ3X3oab3wRM/NaPsrC2t0X0TEwhI7Tb2PN90Po8Jp5iODizieRV2tXJ6rw9uq1KDhdh7rai9j3mqe/VOea7UDoh05bXW0djr+zBmtcIzJVn4vI7as3EPqlzj7sw2W7zcc1PZ9hA2q8hmxSbmPomy5UftqA4qJ+u43EGMLx9U/g6ReykPWyjQO+O5kEMorzP3LMQn9swwHzHh3AqT9X63+wDev+5Cdqe66db3YGjW9uM/vm7OnSGx5o+CVCHmoqDzWVh5rKQ03loabyUFNZqKc81FQearowUFd5qKk81DRzlrJWrh+4rEzD6QuVyFlRjvCw3XBHRFCxrQjZG1oxYrf4GUX9/hocLV/8B+eEkCXCwHFseDmEDrsKtRR6eQOOD9hV3R5vGn6zD8+7xqJi6MQGZP0y1oOv1GikCm9//6DHJIyg5fODqPIl+rVg3/Nv4Jzt0GQd7vVkHer5E18rNP2lPJfeb0thdFwYKsSGpwrM2FP1uZhcv3QFf/azHvz7SxI/NG+h9XQjLpxoRWufz4UlBsc0jJrRUSLoq69Cx9AoOmoLETpwHFUJ2bF+hr6uQuGREAorWjAUJ/VoZ51qO4jj5/1to+3qHL6f4ep8FXXo0/N2mizeDgyNdqDqxEX06Wad8avHc6QQdWnGs6C0ncQ6YxLm4nDtDYwNX8FZayI++5PLSr0GfKCW//IX6kOi8zT+Ui1/UO4cl6OPe+wAGqecrh5k+CVCHmoqDzWVh5rKQ03loabyUFNZqKc81FQearowUFd5qKk81DRzlrJWrh+4vDINO1uxZ1sdmu/qwdscrp6tQcH+XkzbLX5u4tSLRdh6+O6L2rG0JCHLlOo8PPGeP/uq7j2P0RJgGur5DHOOGpvDUPXTeGOmDnnuMdrUU/1Heqpw/EABCg4cR128U6f3+eFxxzjRREYxqo0VFz1Ga1KmPNdsxF9+su84cp7fB2MVpuiTLC++HW9A5KuncLv0H5nQy3pbIslMQ2f7mpfeQN6JWMbqhs+DLOSIej+swZp/dxCFFVUoPLAJa15Q95u5z1Tb7iysenWfbXsDWas3odDeyL73kUHfq9aQN+8r1e/3c/D27nPq3ncyftfuLkRVRSEKspONZ+G58at8YxA+9edFiBYkvXDA2fbYEbSiDQce24RnXz6GUzt24lmTgRjLTtz+Gd9VGn6JkIeaykNN5aGm8lBTeaipPNRUFuopDzWVh5ouDNRVHmoqDzXNnKWslesHLi/TcLAfFeF+J0PQLg8OD6DicC0OHW5H9/Cc2c1lWu+j2vbsb0F927jdCow0t6OiOfYAz93P6WMowTSM9rOrERWeflKO4f/P3t8HR3Xee6JvxnX/mtmvt27dSlFTZ2Y8OZ7aVft4fMycm5gq32KbG90LFXLujglzrBu7YnRuRvY90o41AySGsAs7A5tox5KDZWLYGDDEpIO3ACNHgEVLCITeLBq9WBKSrHchhAQSLSTRevH3Ps9az+pe/aJWC34NLfh+qpbd3avX6tXfbiG1vnqepdad2VaGjLRqnPF2oMOcimt6sA9nDtRZ9+0Y5tSvRKlIj9yLVRpmnzSFRVRpqMsN9/kMYxUzrnLEl4flL6Zjy55i1H/ZivrTBXh11Racc43A8n++Jfx8hmHsMmVXhW78FnisCK0frsOr7lGJQe590lLjLgzdxWE0+/3y6i/0eSzt5Vxv6PaNp13lli6uw0bcGnpUbcR0up2fF8BTq74+YqwLVOzCc6aMXrg03Iji4NdBPQqez8QJpznvPYeCwnprPw/azY9z7YLwLVcR6zuG9fq2bxxCk7oaaCnBOz/chh99JxfvfNyNm5WH7PWrT4ETk9r4IUIeM5XHTOUxU3nMVB4zlcdMZTFPecxUHjNNDuYqj5nKY6aJS+WsnD5waZWGlbXIeKIWdcHLJch4uhz5uXXIX68uLys35xACJtT6nGUl2LqpDnu3VViXtx+1f+Ff97a679td1mXnfpnp1ep+lch52ousZ0OlobM+53W9Pnw/cY+hvRX5r3iR8ay9ztsOTNfWIusJL7Zvq0PBT8rCjpeIUocu7GKVhsFCLbI0nK2xRvbVBIsSXcDFKkd24aLehZ4G1D2KUNEjFd2jqKzRg7XmSoSBwmx7pKJ1bYHHcvHX5iH9DfW4EVNJauH7pKUmsjB0lmimHPxdDWqq7MWeLnS+8tldjttileqOmOtcXy8Ll4bhjzfw+VtIX70OG3d6UPxl6OvjQUukNAzXjcLVet02vFepfo4a7kaT9zLa+h7vPxbihwh5zFQeM5XHTOUxU3nMVB4zlcU85TFTecw0OZirPGYqj5kmLpWzcvrAJV4aluFIizO6cABH0kqQs29QXR6CZ00JNluXbRO+JuzNa0OPuhwqDe37ZW3rQnD2vq4mbH3CKQ2j9wNfHbKeqLDPqxj3GKKnJ7Wup/nQYV27harddSisdY1cJKLUEHF+QruYc40kjCw3ou6vR/StxZbPXbf4z2GLMy2oPq9gxP112RIcyRhxPsOQgNrvq0jbXBxW/MV9LMMqX14qMFNIusXeJy0tix1pGF7caYmXhlap/usacy1czHWuKXHDyndL/NLQMhvASFcNPNvXYd28o2+Ta/zT9+zS8G9Ph6Ycd6Yn/W70SEJ9/1V63avncdN3DD+yykV72fiHGEOAHxP8ECGPmcpjpvKYqTxmKo+ZymOmspinPGYqj5kmB3OVx0zlMdPEpXJWTh+4xEtDc9kIlYFdKHiiBAWV9u2R4t/PfU5De33mijLkpJnlBa963BLs1SOA4h5DjHMajndh7wtq/VNebH3dh3L3VKdElDpmdWmXDY81baPS60G2Lj2cUi2i3BgozAw7n6Hly/1Ym+UJFnEDx7Kxdp9TeAzA82PX/mfV9ay12P+lua5LloiRiPo+xdvTkb6nBv7Ici/eY836UW+VgjFGGMbbZ4qauXMH47fvInwyapI6p2EipSFGz2HLquzQtKHqfXQi6zm7DHTWBd/bI7i4c21wSlz/6Y14bufF4PvNX5WHtfOVhoF67M/YhXNOl95xGOlvFKsjfQjaTyHTKv224Z0/9mN8sB2FL9sl4Cr36ENtqhHvPWPf95DKs2mHvnxI/awwhKK/VZdfdp0X8THDDxHymKk8ZiqPmcpjpvKYqTxmKot5ymOm8phpcjBXecxUHjNNXCpn5fSBj2hp2IO9y0qQfzb2RHvx7zcIT5pTGpr1p8YwNuoPWyZ0LIstDS1z9jkSD1RaU50WXOBkgESpKNDhwZYXV2L58uVY+eIWeDpcX6th5UbEKMSgADqPbcG6VcvVPlZi3S886HSP8hu5iLyMdVj3UjrSVr+KXSc7g1ODxjqfoTXtozqW8MU5hjiPpc+fGLWdXdLE32cquoXmk404X3bDXKfFs8vBlS+mI/1lsxzSr/giSkMl8OVhZK9Owzq1/Tr1/y3HQu9f62tn9Uqkqfe2Xpe9rwYjTik9O4Bzv0zHc6vWIV2tzz60H2/FGWk4UpGHV9U+9HGmrc7E4S8f1vfMSVRutEvCsOWb+Siyv+UHOVOZrtpYbWXS9s42df0DnO9qxL7vqm1eq8C4fdfHDj9EyGOm8pipPGYqj5nKY6bymKks5imPmcpjpsnBXOUxU3nMNHGpnJXTBz6ipWFAXfYi45V6tIzOATN+lG9T19fUR0xPGkDDTnX7imqU9wWs+7XsK1f7dUpDs97ZD+6gSu93RR1a1LWESsMf6G3tkrHnQJnathZV1jHZU5luP2afO5GIlqjZeuQ9H33+wPtR/64ZtUXhRvtQ6WlE9ZW75gZ66AJx3qfx1i1SYCIFvh5mbqLuV/nY8Ne6MPw5fvTD/ShqmTQrjfFqvPNNvT43dM7ivgr8w9+YkvFbuTjqS6Gfqx4wfoiQx0zlMVN5zFQeM5XHTOUxU1nMUx4zlcdMk4O5ymOm8php4lI5K6cPfERLQ2VmCGdyyqwCUC+Za2pRPmxPaBd2P4zA67pfTk4dCn7glIZm/aYyZAb3Uw1vl5kYb6Fj6GrGjqft7awpUMcHUOQ+pvU+NDyuww2IHhUxzmd4f+Y7n+GjYAa9l/rx4rvdeDKvG898MIDSEft7zI3SXnVbLzzXrasxzTW3o9TTglbnlHDj19HwaaO6zV4qLw1jyloxiDp9W4nrfLRED9UMAqOTwdGYjyt+iJDHTOUxU3nMVB4zlcdM5TFTWcxTHjOVx0yTg7nKY6bymGniUjkrpw9cWqXhPQlgOpGnMKPuZy7GFsDElCkL71uCx0RE9Ci5OYTX8rqR5rmOSzWD+Nn73Xjy0BD0t8pESsPrF5tQWtgJ+y6z6C9V1z0taPANoO1cs7rchCtteh5MloZEqYgfIuQxU3nMVB4zlcdM5TFTecxUFvOUx0zlMdPkYK7ymKk8Zpq4VM7K6QMfg9KQiIhSwY1yXQz245L5+4u7X/Sr6304rb5X2qVhD376cS+eyevGk+9246fl7m+it9GqRxWWDMLe3C4GKyqdUeHDaCp0zndoSsOTV1GtbrNGIha2o5sju4keKn6IkMdM5TFTecxUHjOVx0zlMVNZzFMeM5XHTJODucpjpvKYaeJSOSunD2RpSERED0T72R48ue86es11NA4ERxfapWE3NhSNoPf2GEo96r6mULRM9qPa04jKy3fCrtd+qUcWaqNoPumMLjSl4T+3oa37Nm51dKJCXbcLRSJ6WPghQh4zlcdM5TFTecxUHjOVx0xlMU95zFQeM00O5iqPmcpjpolL5aycPpClIRERPRC953rx5G8H0W6uR5eGrulJewbxvbxu7Gg01zu+wnlPM5oHzPXZAdR6GlF95a65IUZpGJye9C46TqvrJ7vhjEskogePHyLkMVN5zFQeM5XHTOUxU3nMVBbzlMdM5THT5GCu8pipPGaauFTOyukDWRoSEdEDcftSH+JPT+oqDa9fxwZXaThS2YzST75Cv31VuYErnywwPanrnIbdJSwNiR42foiQx0zlMVN5zFQeM5XHTOUxU1nMUx4zlcdMk4O5ymOm8php4lI5K6cPZGlIREQPxs0hvJbXjbSPB1FaM4ifvd+Nv/poCPpbZfzS8A7aPmtE6el+BKyV2iz6S5tQ6mlG3RcDaDvXrC434UqHnq6UpSFRKuKHCHnMVB4zlcdM5TFTecxUHjOVxTzlMVN5zDQ5mKs8ZiqPmSYulbNy+kCWhkRE9IDM4Eb9ADb8phv6/IXfPjCASyP295i4peGsXQIGz2foGB9G8xldFjai9A/NqK0axpS1gqUhUSrihwh5zFQeM5XHTOUxU3nMVB4zlcU85TFTecw0OZirPGYqj5kmLpWzcvpAloZERJTaejpxwdOEph5znYiWJH6IkMdM5TFTecxUHjOVx0zlMVNZzFMeM5XHTJODucpjpvKYaeJSOSunD2RpSEREKe1WlR5N2I5ec52IliZ+iJDHTOUxU3nMVB4zlcdM5TFTWcxTHjOVx0yTg7nKY6bymGniUjkrpw9kaUhERERESccPEfKYqTxmKo+ZymOm8pipPGYqi3nKY6bymGlyMFd5zFQeM01cKmfl9IEsDYmIiIgo6fghQh4zlcdM5TFTecxUHjOVx0xlMU95zFQeM00O5iqPmcpjpolL5aycPpClIRERERElHT9EyGOm8pipPGYqj5nKY6bymKks5imPmcpjpsnBXOUxU3nMNHGpnJXTB7I0JCIiIqKk44cIecxUHjOVx0zlMVN5zFQeM5XFPOUxU3nMNDmYqzxmKo+ZJi6Vs3L6QJaGRERERJR0/BAhj5nKY6bymKk8ZiqPmcpjprKYpzxmKo+ZJgdzlcdM5THTxKVyVk4fyNKQiIiIiJKOHyLkMVN5zFQeM5XHTOUxU3nMVBbzlMdM5THT5GCu8pipPGaauFTOyukDWRoSERERUdLxQ4Q8ZiqPmcpjpvKYqTxmKo+ZymKe8pipPGaaHMxVHjOVx0wTl8pZOX0gS0MiIiIiSjp+iJDHTOUxU3nMVB4zlcdM5TFTWcxTHjOVx0yTg7nKY6bymGniUjkrpw9M2dJwyj/LhQsXLly4cOHC5RFZ/COT6v+xf9bkcm8LM5VfmKn8wkzlF2YqvzBT+YWZyi7MU35hpvILM03OwlzlF2YqvzDTxJdkZCXF2R9HGhIRERFR0vEvD+UxU3nMVB4zlcdM5TFTecxUFvOUx0zlMdPkYK7ymKk8Zpq4VM7K6QNZGhIRERFR0vFDhDxmKo+ZymOm8pipPGYqj5nKYp7ymKk8ZpoczFUeM5XHTBOXylk5fSBLQyIiIiJKOn6IkMdM5TFTecxUHjOVx0zlMVNZzFMeM5XHTJODucpjpvKYaeJSOSunD2RpSERERERJxw8R8pipPGYqj5nKY6bymKk8ZiqLecpjpvKYaXIwV3nMVB4zTVwqZ+X0gSwNiegBG0HRKyXIersLE+YWIiJ69PFDhDxmKo+ZymOm8pipPGYqj5nKYp7ymKk8ZpoczFUeM5XHTBOXylk5fSBLw0fV+CSmzUWi1BFAw04vMl5pwjVzCxERPR74IUIeM5XHTOUxU3nMVB4zlcdMZTFPecxUHjNNDuYqj5nKY6aJS+WsnD4whUrDOQy3D2HMXItpZhJjo36zxCvFApgYveNaP4exxmYcya3DXrV4vLfCt525haoD9rq9u5vRMjpnVmjzb9tzymwTtrSix6x3TI/r4w2YaxGm7izwXOIZglc9prfdXNX0c8ktR+YrzRg2NwF+NKjnV1jpV5cDqNpWgozstvhZL1Z7EzYv8+JIo7meNDGeMz1kQyj8QQmydg+oy+73Wgzt9dj8RBk87eZrbLQHheZrh68pJWR6CuOjEwjMmutEtGTwQ4Q8ZiqPmcpjpvKYqTxmKo+ZymKe8pipPGaaHMxVHjOVx0wTl8pZOX1gCpWGXSh4ogQZL1SiqGXS3BahshYZ+j7OssyLrbv7oqc47GvC1ifKUdRnrvvqkKXuv3VTHfZuq0DOshLsOOWUGn54X9ePW4GC3Drkr1eXV9ShxayNt21UafiTMmQ869rWqHtbH2sFvKEWz/DjzAb9XGpRZ25ZHDuzgkpzFbdQ9JNyFBzvw1jYy6ZuV89r69Fb6vIcrp2tQ8GBvnssKh0Rjz3eB8+2OlQ5mSdN5HMmeYvNeBINB6qx16vfX+73WrSOfeprZENzqLC2SsNKbOZrSgkaqWxG6Sdfod9cJ6Klgx8i5DFTecxUHjOVx0zlMVN5zFQW85THTOUx0+RgrvKYqTxmmrhUzsrpA1OvNDTL1twODEc+tFUahgq26a56bH3Ci4M+c4MjrDQMoHxTCbJyQ23W2PEKZKypt0cEttcj54kKnAkWen04+GwJ8r16ZOAC24axy8fNB4bM9RCrNFTPKWqdNeoqsjS8g57KVnhyfSjyDkaUf3OY7uvDmQN18BzvU/lEljsBXPPpbZ315uaIImespQNVLU5pOoNha5sYjzfjR4e3CUd2N6Gq/Q4m+npQVTuCaf04tT7sUI+9Y4/al75tagQN3h5cmzLbKtODfSg/6sPeA61o6QuNtLQffwxj7R0o2q0fN94I03jPWR9HBxpc+8bwIKr08zBXg8ztw6NDqFLHdORoB3rCRpQqal3D8Xrs1c9X5RMsVaP26Xpca13481Zf+eq2Plyzsgwdv5XDYPibelpvHzyeSdfzWcRzc7IfV+8d/Xrl1uOML2I0rfU6t6m87RyvTYWee9jr4R2Ifm2te0W+Dvq90YEO6+vGfazxSkO17pVY61gEk3J7FJebRnE74ssy3B20fdaI0tP96l0XzywmegfR23tHvXOJKFXwQ4Q8ZiqPmcpjpvKYqTxmKo+ZymKe8pipPGaaHMxVHjOVx0wTl8pZOX1gypaG1qJHHTbeMeuViNJw3rIhrDQchCetBPlnXb9itorCalSpi9NnK5GRVo8Oe41iF4WbD4+oy/G3DaMLwGXqdnd5ZFil4Qovsp6tQ4O5TZcwDblebF5T5npOI1apkvF0OfJzq7HjBb2dWjdu3//asQpkqueb83o19m4qR+YLap/B56+21aMWrW2dEZPOtuFFjnU8b3epS+b8civ0KEvzeK802+eaG+/CXn3dOZY16rHUc8hYr89Fp6egtEeHbX5dl2E9GIsY3TmhXit9bMFjVZe3H9WZOiMvS5C5Xq1T+976lOtxwyz0nGMUVFHvEcMZperOZ5lrNGpXE7brY0pXj2NGlGapjKxRrFH7dD3uVAfy1X3tklmzX9eMTW2Ydo5fj4jVI1WtHLzq2O2RtDoj/Tj2Y1Yi52n9HnGezyKem5W9Fzkqm5jHj0mVuTqmp8qwY5vruXfZdUrw/fmU2sfu9ujXdlGvQ4zjDpqvHGRp+PiYQe+lfrz4bjeezOvGMx8MoHTE/h7T+3mPuq0HH/VaV2ObHUSdpxEVNeab6+wttJ1pRqm6TS8XSvpx25q29CaaTqjbTnTihnVHIkoF/BAhj5nKY6bymKk8ZiqPmcpjprKYpzxmKo+ZJgdzlcdM5THTxKVyVk4fmNqloV6W1YaKNqs0qcARbweq1HJmZ1nsaT/DCqwYhYRr/bWj5aYICwmVavG3DbGLIveIRDd7f83WVKTbj5sRfsPN2K5HOB4PFUHWsYQViyMoXG9GOppyaqtVZtomLlQHi5tpb7XKohLlVkmo2VOfZuXpYwovckLPz749Z48+F53S14EjuU1oUPvoOaCnWq1GVXB/9rGEsorIJjJzdazB56rYx2qP6LQeP80XKmpbfMixznNnrjsWeM6LKtas28twpMUZdzSAI2nque8bVJft/YS9fl36+ehRrOr+Uft0P667JNRcI1WdQvFsaLpda6SqNYXtEDxr1GNuc4o9xXpMZ7+LeG5W9iXYbD0XwxrFakbhmq+b0GjaSVRtU8dspgm1Xo9n1ddZ8Es94rVd1OsQ47iD9H7LUajfemFifJ3Ro+nmEF7L60aa5zou1QziZ+9348lDQ7C+VU6Po3cg+A9ObD2duOBpQpMZ6j1e24JSdb22agAdl67ivKdRvd3tf3dmbt7CjZsP6vsXESWCHyLkMVN5zFQeM5XHTOUxU3nMVBbzlMdM5THT5GCu8pipPGaauFTOyukDU7o0zFxfhyr3dI5W+VGCrLQy5GyotqaRbBiOMflcWIFllzhhhURXEzY/UYnyKWDsVEVEaTiHqm1OmRR/26DhVuxYFqP0MpySzir2zNSmVin3ZgemXUVQqMwLCZaaMcvKUNli3W+ZFzk6G7NkmRF8wxFFjvtxgqPdVpRjx+624JSdcY/FuhZR9LiPb4Fjjd73PKXRAvtZVLEW4/bQccR6fNe+o7aNeFzrvJfmPaHv6xS/1vGrbF8IvSY5K9Rj6uc0uMBjLua5WY8T+f4bQeEP7O1jFePufVk5bIvzeizqdYhx3EH2NntrzdWgWFnQo+hGeS+ezOvHJfPP9t0v+tX1PpxW3ytvlOp1vfBcD13ecbIPz+QN4LJ9d9yq0SVhO7qt0YS30fppI0o/H1D/amt30XFaXf+sD+MYRfNJdflkt3pHOpfbUFek/l/iKteJ6IHihwh5zFQeM5XHTOUxU3nMVB4zlcU85TFTecw0OZirPGYqj5kmLpWzcvrA1CwNl5Uh9+hAaASWY77SRJke92Ns3BxrWMlhzjXoGiVlTUlqjfZSrMLHPd2oPSXpjlN6tMoC2xpWAWhGbcUSKqfUvtd4UXChCwef1SVP+Ci2hp3qfsERa5oZxfZ6K8YG9cjEiGJoqg35pmwZPlaOjO/70DKqcghb9LSZ4UVOdGkXwHBLBzw56nk8ZU+xGn0sQMc+tT6R0jDWsVojK+2RbwmXhgs850UVazFuDx1HD/ZaIwJd09Cawth6H0RtG/m49qhBfV+9z+CIRXP8R3yRr8kdlWusx7Tfe/OWb/M9N1NOFlS6C3SVqdq/PibrvRE2Ba97xGMCr8eiXocYxx0UY7pfyzyvPz1y2s/24Ml91xGcgbRxIKooDF3uxjP7+/HrkzfM/d2loDaMpsJGVFSG3mvdJZFFoeuyntb0TDuuXL5p7k1EDxo/RMhjpvKYqTxmKo+ZymOm8pipLOYpj5nKY6bJwVzlMVN5zDRxqZyV0wemUGlolyiZ631oMKPdosxXmihWcbemDnXDd6zzr2W4zi9ojSZ8tgKFvlsY62pD/gpn2k6tDwfV9c1vd6Bn9BZa9ukRe6EpT+Nvq7mmo5yHu5Sxypon1HWnZHQ9p+lafR5ALwq8fkxjBmO+eus8e/b0lrfs8x2+Uo+WYfWaTI2g/E2vtS+rbOlrVvf1Ir/4llX0TZtz9NnlZ3iREzoeM0WmuqyPZbpRTxOqR8GFjiW/eCTsWCJLw/xiU0yGFbXOsTahZ0q9ls6xrrGLqwVLqqAFnrNTqq6oRZW1fhCF+v6x3iNxS0Pn3I5mPzN+8z4w071ahWcJth8etLPw2udrdBdj1vtvfbnKyF2u2cef9WYb9G4xM2Qfny6Bg49ZjfI+lZ/zmMH9LuK5mdLQfv/bx1+Xq47HOX7rveEc/xym++z3sTOd6XyvR/C1XfB1cL+/3Jcj2ecLDX8sjaXh46L3XC+e/O0ggl8icUtDdTlseOwNXPnEXRLessrACxdD81PHLQ3V5dCffxDRw8APEfKYqTxmKo+ZymOm8pipPGYqi3nKY6bymGlyMFd5zFQeM01cKmfl9IEpVBoC0+OTVuE1rzilIcb7cGS9LlXUokcqnnL/evgOGnZX2NN1LvNi86bWsKkap7uakf99uwTJXFGBI77QOegW2tYqFc2Uo/MJK2Wc89w5JWPYc5rDtVPVyNGPpZ/HU2XId4+4dD9HtWzdXYdc9X+nbJnw+bD1abNeHevW3X1m2/Aix308Ey1NyH3BvU9nG30sldbUpfr2zDXVOLit3FUaTlrFVKbeTt8WVhoq+ljT7Uyt7dPrUGWmkk28NFQWeM5Rr3u2Lt4WWxpqI/BuMs9HLfr5FrU474OILNZXYkdwRKBhisWo90JUDj7rnJE29Zh6dKdZl7OpDgVmSlFLos/NZH/kmHr9nffO0xXwBI8/xnsjtwtO1RL9ekS8tvqmsGPR7y3365Boaai+1qxzb4YKfRtLw8fF7Ut9WMz0pPpy0EA3KjxNuBIcMnsHbZ81LmJ6Un2ZiB4mfoiQx0zlMVN5zFQeM5XHTOUxU1nMUx4zlcdMk4O5ymOm8php4lI5K6cPTKnSkBxzmB6ff+QipgJxy9UFy9dY5t3nDKb1aMF7NTOJCYm30ALPWU4AE/fzfOcTL4eZ+3xuYYWteu9MzR/4Pb033O77dbBH9m51Tfn7yGoowHM7L6p31D263+1T0c0hvJbXjbSPB1FaM4ifvd+Nv/poCPpb5UKl4fjlqyj1XEWH6286xmv1OQ6bUH2pHx2XruK8pxGVl/XoapaGRKmIHyLkMVN5zFQeM5XHTOUxU3nMVBbzlMdM5THT5GCu8pipPGaauFTOyukDWRoSLXWRozxTnDX17TJ1vF1JKGdTSOfv05F98t7L0fvdPjXN4Eb9ADb8phv6nIXfPjCASyP295j4peGsPfVo8HyGxuxtdJe2WGWhdc7C0gHcntUrWBoSpSJ+iJDHTOUxU3nMVB4zlcdM5TFTWcxTHjOVx0yTg7nKY6bymGniUjkrpw9kaXjfRuzz1r3dFZpGNNLUIDzqPjk7I+4z3GGdW277scdg1BUlzxIrDbXpcT/GxlP83xZ/Jy4eK0DBngJ4qiK+Rmf96Dzvsded74TfKqrcRlD8xlrsv2pf83fUoKaqBvUDoXGD/q6L8KjtCw6dQP2QuTEofHtL8HgO44Qv4niC6zy42KVH2rnE2S7+MTxYMackDRpGU2H4+QvjY1EYT8Dvh3/Utcz7zYvmE/AewobvvmUtR2vNjTGM1x7Hxr/eiOe/oZefI3NjCbp1861ud7YPXz7AeX262fFunP3Nx9j3q+M465pqGn2XcfRX6vZ3qsOmSl8q+CFCHjOVx0zlMVN5zFQeM5XHTGUxT3nMVB4zTQ7mKo+ZymOmiUvlrJw+cEmXhhPj7nMPPgwBNOz0IuMV5zx/cYy32ecyPBtxzO312PxEGTztj/aoK6IlZfQctqx6FQWn61HvuwjP9nVY92GrWenHuTdXIv2XHlysUut+mY6Vb55Tt7oELmLX83moN2XigLcAW368PDhyMFC1C2kZBSj2qf2f34/sVVtwbtRaZYvYHhM12LU6dDz731iJLZ+bR7SONR1vHbuImvMevPWSa12c7RY8hgfo7rWb8Pxejz4cwGVzW5jr+nyGjahzl6jzuouRq92o/qQRpSW6faFwIziRtRwrX0xH+stmOVRv1lFChiuw/ZtOEbgR7813Ptb2U8g091n9nW1YbS6v+vllBCoPBbcPX3JR1DeEoh+qy9/ahg3f+bm5Te9wBk1vbbPul7m323qIpYYfIuQxU3nMVB4zlcdM5TFTecxUFvOUx0zlMdPkYK7ymKk8Zpq4VM7K6QOXZmk4OoCinDJk7uwxNzwkiyz8xo5XIOPZOjSY67Y5NOR6kbGhGWPmFiJ6uAJXi1Hweae5pgycQGbWCViV39AJZL/sQWhtJzwvZ+OEe6Te1f1YG1Ek1r/rlIZmFOGX9u1a/Z7nkP2ZaxRgxPYjn2Vj7T6ntFT0+Q7fKLaOZ+RkNtJ/7zrWLg/SzbHOv10Cx/AA3bjUj+/9thd/f0nim+ZttJ1uwoWTbWgbiBoCSuq116Vhns9cDQpgoKEGnSN+dPqK4Tl0AjWRo1YjjHxZg+JjHhRXtWIkImp/V71adxgnzoev06NuO8PKafV4VfWwBuEGBlBf1YkRfydqTl7EgF6tR/Xq4zlWjPoFjufBGMLZl8OLvvlKw+69b9n3yaq2zk0a+OMH9vVvfoymmUmMj/qDy82zh/C/6nXPHEMbGvGeuvx3H6l/VLpO4++cx3BKyGcOoWnKeoglhx8i5DFTecxUHjOVx0zlMVN5zFQW85THTOUx0+RgrvKYqTxmmrhUzsrpA5dgadiDg2sqcMQ7gmlzi+0WitaXYOvRBzcZXce+ssWVfVMd1mjDgsqIktEqH5fW9JJEj5OBwmykOyMNa/Ow/N3wkVm6EHSXMPp8hJmFVuURFCoNYU0PGXAVKTW/Xh4aHahEbR/wwx+a2dQ+BlMq6m3DC6B65C3PU/9V4my30DHQ0vL1nUYErjyPu+X/wlr0ZX1btPlKQ/v2dS9tQd7J0KjV2EVyQL2f12HdfzuM4qoaFB/aiHUvqvecNc2pWrcnHWmv7zfrtiB99UYUm7dz5NeK/X41pbsu5Jer/f44E7v2nMOAeqfqUb2v7ilGTVUxCjLmO54H59rH+Vj1jY1YtfEUjurRgE6hF8N4y2XUeS+jqc/+OSpwdr9dGlrFoNsM6n5u7yvzw351vR2HnlGP8fJxFO3YqR5vGw75/Dj/mn2f7Z8u3a9TfoiQx0zlMVN5zFQeM5XHTOUxU1nMUx4zlcdMk4O5ymOm8php4lI5K6cPXHql4YwfHd4mHMn1ocg7FCzsxlqaUZBWgpxtzajyDprb5zDd14czB+rgOd6HYWvbDnRYp8UK4FptBxr6JjHW3oGi3c59rA2N0PZ7D7SiZdC98pZ1LsPokvIOeqzjq8cZX2SxGUD5phJk5UW2g4PwqGPfcYq/sCdKJbrgWL58OdJ/eQ7OoDU9si9WaegUgvb0pRHnI1TC7+NiTS+6CxeD55WLvX2IXaTsqtBtYKwCyFXChHFvFyHqGGipcReG7uIwmv2eefUX+jyX9nKuN3T7xtOu70N61GrYqFpDj4T9sbrdVTp3fl4AT616f8dYF6jYhedMWb1wabgRxcGRiPUoeD4TJ5z+vPccCgrrrf08FF2nsVGXft/cj8pxM4VonNIwXOj+63/VYm4zhs9ji97vN/Jx1py2M9BSgnd+uA0/+k4u3vm4GzcrD2G9vs/qU1iaE5Pa+CFCHjOVx0zlMVN5zFQeM5XHTGUxT3nMVB4zTQ7mKo+ZymOmiUvlrJw+cGmVhuNd2PtCCTLXVKIgtxo71GXnfII9p6qx/dkSZL1Sjb25rejBHK4dq0DmEyXIeV3dtqkcmS94kaWuF1i/4LNHJma9UIbMp8uR7+xvRS3qxvV6s/0yL7ZuqrO3f8KrtnXOSdiFguC+HHaRmPH9SnUM1dj6lNr/zp6w4tAanbipLWaZmLOP598iSjmzAXTqkYZ76tVXKuD/fEvM0jBYxs3WWCP9alyliRazNJwdwIk30pHncxV582zvsEY9qse3t9BFYKwSZhcuRnSD4du5xDoGWnIiC0NniWbKwd/VoKbKXuzpQucroM2oVZdYxbkj5jqrDLT3s3BpGP54A5+/hfTV67BxpwfFXz7MUYbdKFxtl372SL/FlIaTwXMRPv+dQ2iyfsYIufbhTmudda5Dc1s457G3qcdSP5MNd6PJexltZgTjUsIPEfKYqTxmKo+ZymOm8pipPGYqi3nKY6bymGlyMFd5zFQeM01cKmfl9IFLqjTsOVCGjDX16DDXgT4cfNYZoRcxPamZCnTr4dAvGScuVEeVhuH7G4RnjRkJaLbPP+uUhKFzEtpjBHRpWI7CLuuKYReJucX2NtO+ZuzNa4P7zIvXjpYjY71ddLrVva2O5e2wnRHRQ+LvqkG9dZI1h6s8iTpfYcTIwBjnM9SiSsOJVuzPSMPGz8KnMZ1ve/3HBa0fvoq0zcXBUY9a64drw6cV9Z/DlrX7ETqTYeztLPMdAy05ix1pGF7caYmXhlZx/usacy1czHX6nKDmPRlWsFvil4aW2QBG1NekZ/s6rHOmCX7Abv4h3y79vvFz/Oi7b2GDWv7Xb9ql4ervvIV/+PSmuWckP+p2vGVNafr8N/NRFPltfqoR7z1jF4KHol4T2/in79nbv3oeN33H8CPrOOxl4x+ihhSnNH6IkMdM5TFTecxUHjOVx0zlMVNZzFMeM5XHTJODucpjpvKYaeJSOSunD1xSpaFVrD3lRU5amVm8yFymbtupa7mI0rCvCVujzhPoHh1o3z9ydN+1w6bUs7YvQeYLzmOpZYV6LL1PaxN7X3trrc2M0OjGzBcqUHC0J2K6U5aGREtBoGoXVr5xIlSyfbkf637sgVWtzbZi/9pseKwpHZVeD7J1IWLuO1CYGXU+Qy2sNOwtxlsvpaOgNroajLn97ACKt6cjfU8N/JHFnzq2tVnq2JzHP5aNtftMsRJvuzjHkMpm7tzB+O276l9bcvta6JyGiZSG9nS22aFpQ/Vo1azn7DLQWed8fcyO4OLOtXj19/Ykp/7TG/HczovB96O/Kg9r5ysNA/XYn7EL55yuveMw0t8oVkf64N38ODdY1MVaNn6sn4Af3ZWX0eZMZT7ejcJXf27f5zsf4HyMb/HjhaaMXH0q6ucCS0Sp2LRDXz6EOj3S8W/V5ZdLMF9dmYr4IUIeM5XHTOUxU3nMVB4zlcdMZTFPecxUHjNNDuYqj5nKY6aJS+WsnD5wSZWGDTtLkLGpFcOjfoy5l3F9jBGl4WAztj9RBk+7fdUy1Yb8iNIwvKibs8u711sxZrY/4ot4rNE7ZmpR+zyE+WdjTCY2M4keXysO6v3/oClspKH1HKLKQXUsMc+PSEQPRwCth7KRtioN6S+lYeVLb+FER+hrPdDhwZYXV1rnO1z54hZ4guvmPx9hqDS0yxm9bdhiTekYe3trysfI+wfLlQA6j23BulX6tpVY9wsPOs25CeffLt4xpLJbaD7ZiPNlN8x1Wjz7tV/5YjrSXzbLIf26L6I0VAJfHkb26jSsU9uvU//fcqwzOLWm9fWxeiXSXrLXZe+rwYhTWs8O4Nwv0/HcqnXqaysd2Yf24604Iw1HKvLwqtqHPs601Zk4/GWM77kPwtQkxtXPAKGlGu+YwvCdP6rrU6FpRvU5D+vUdbvgi7Xkmj9o6g9OebqlMHZ575SVqzZWW/m2vaOnOdUFZCP2fVdt+1oFImY7TWn8ECGPmcpjpvKYqTxmKo+ZymOmspinPGYqj5kmB3OVx0zlMdPEpXJWTh+4pErD6dpaZC0rh6fxjro2h7EL6voTXhz06TEndgm4ed8AxkYnMW2KuIxX6tGih/tNjaD8TS8yIkvDJ8pwsNKv7j+Dsco6bFbr7SlJ7e2z3myzRwvODKFQ708Xinpz2OchDCsAzZSm2w8Pqf2p4ztViYxltWgwq52i0Z5O1cUqM/XzMNeJaGmarUfe89HnE0zY/W7/qBvtQ6WnEdVX7pob6KELxHmzxlu3SIGJVPuiaMR7pgR0zmk4/scPsFoXfH9zHG3qetNv7GlMo5cPcF7PWOA7hvV6H6ZkjDJejXesKVCdklHpq8A//I39uM9/KxdHfanzM1oi+CFCHjOVx0zlMVN5zFQeM5XHTGUxT3nMVB4zTQ7mKo+ZymOmiUvlrJw+cEmVhtb0n6eqkfOULvvU8lQZ8k85E5WZqUH1dKVP1KJO3zTehyNWMaiWZV5s3V2H3IjScPPu5rD77DgwADNIx94+3S4a9ZKZ7kOD60/6p73VaptqVAV/2TeH4Qt12Ooc37Iy5AaPT/HVIeuJCpwZNtcN51yJoXKRiJakec9HmKD73T7lzaD3Uj9efLcbT+Z145kPBlA6Yn+PuVHaq27rhee6dTWmueZ2lHpa0Oqcxm38Oho+bVS32UvlpWHY/xwPok7fVhI+/TRR0k09iJ+ZZhAYnQyO7FxK+CFCHjOVx0zlMVN5zFQeM5XHTGUxT3nMVB4zTQ7mKo+ZymOmiUvlrJw+cImVho45TI8v4tdlUwEzpaibXRoGpwSNeR9jZhITMWPow8EVah+Ho8+wNK32F84P7+slyHizI+Jx7H1sPuD8FpyI6BF1cwiv5XUjzXMdl2oG8bP3u/HkoSHob5WJlIbXLzahtLAT9l1m0V+qrnta0OAbQNu5ZnW5CVfa9DyYLA2JUhE/RMhjpvKYqTxmKo+ZymOm8pipLOYpj5nKY6bJwVzlMVN5zDRxqZyV0wcu0dJQQkRpeI+cKVOLuvQUqfOZw7Wj5chYUYu6sJMPTaLubS8yXmnCNXMLEdGj6ka5Lgb7ccn8c3n3i351vQ+n1fdKuzTswU8/7sUzed148t1u/LTc/U30Nlr1qMKSQfUvqmYXgxWVzr/hw2gqdM53aErDk1dRrW6zRiIWtqN7KZ38jegRxA8R8pipPGYqj5nKY6bymKk8ZiqLecpjpvKYaXIwV3nMVB4zTVwqZ+X0gSwN77M01KbH/Rgbj5fTDCZG/ZiYiiwWA/btj2rEREQu7Wd78OS+6+g119E4EBxdaJeG3dhQNILe22Mo9aj7mkLRMtmPak8jKi/rc9qGrtd+qUcWaqNoPumMLjSl4T+3oa37Nm51dKJCXbcLRSJ6WPghQh4zlcdM5TFTecxUHjOVx0xlMU95zFQeM00O5iqPmcpjpolL5aycPvAxLg2JiOhB6j3Xiyd/O4h2cz26NHRNT9oziO/ldWNHo7ne8RXOe5rRPGCuzw6g1tOI6it3zQ0xSsPg9KR30XFaXT/Zjfv/MxEiulf8ECGPmcpjpvKYqTxmKo+ZymOmspinPGYqj5kmB3OVx0zlMdPEpXJWTh/I0pCIiB6I25f6EH96UldpeP06NrhKw5HKZpR+8hX67avKDVz5ZIHpSV3nNOwuYWlI9LDxQ4Q8ZiqPmcpjpvKYqTxmKo+ZymKe8pipPGaaHMxVHjOVx0wTl8pZOX0gS0MiInowbg7htbxupH08iNKaQfzs/W781UdD0N8q45eGd9D2WSNKT/cjYK3UZtFf2oRSTzPqvhhA27lmdbkJVzr0dKUsDYlSET9EyGOm8pipPGYqj5nKY6bymKks5imPmcpjpsnBXOUxU3nMNHGpnJXTB7I0JCKiB2QGN+oHsOE33dDnL/z2gQFcGrG/x8QtDWftEjB4PkPH+DCaz+iysBGlf2hGbdUwpqwVLA2JUhE/RMhjpvKYqTxmKo+ZymOm8pipLOYpj5nKY6bJwVzlMVN5zDRxqZyV0weyNCQiotTW04kLniY09ZjrRLQk8UOEPGYqj5nKY6bymKk8ZiqPmcpinvKYqTxmmhzMVR4zlcdME5fKWTl9IEtDIiJKabeq9GjCdvSa60S0NPFDhDxmKo+ZymOm8pipPGYqj5nKYp7ymKk8ZpoczFUeM5XHTBOXylk5fSBLQyIiIiJKOn6IkMdM5TFTecxUHjOVx0zlMVNZzFMeM5XHTJODucpjpvKYaeJSOSunD2RpSERERERJxw8R8pipPGYqj5nKY6bymKk8ZiqLecpjpvKYaXIwV3nMVB4zTVwqZ+X0gSwNiYiIiCjp+CFCHjOVx0zlMVN5zFQeM5XHTGUxT3nMVB4zTQ7mKo+ZymOmiUvlrJw+kKUhERERESUdP0TIY6bymKk8ZiqPmcpjpvKYqSzmKY+ZymOmycFc5TFTecw0camcldMHsjQkIiIioqTjhwh5zFQeM5XHTOUxU3nMVB4zlcU85TFTecw0OZirPGYqj5kmLpWzcvpAloZERERElHT8ECGPmcpjpvKYqTxmKo+ZymOmspinPGYqj5kmB3OVx0zlMdPEpXJWTh/I0pCIiIiIko4fIuQxU3nMVB4zlcdM5TFTecxUFvOUx0zlMdPkYK7ymKk8Zpq4VM7K6QNZGhIRERFR0vFDhDxmKo+ZymOm8pipPGYqj5nKYp7ymKk8ZpoczFUeM5XHTBOXylk5fWDKloZT/lkuXLhw4cKFCxcuj8jiH5lU/4/9syaXe1uYqfzCTOUXZiq/MFP5hZnKL8xUdmGe8gszlV+YaXIW5iq/MFP5hZkmviQjKynO/jjSkIiIiIiSjn95SERERERERESUmpw+kKUhERERESUdS0MiIiIiIiIiotTk9IEsDYmIiIgo6VgaEhERERERERGlJqcPZGlIREREREnH0pCIiIiIiIiIKDU5fSBLQyIiIiJKOpaGRERERERERESpyekDWRoSERERUdLp0jDjiRIuXLhw4cKFCxcuXLhw4cKFCxcuQosUpw9ModJwDsPtQxgz12KamcTYqN8sk5g2N0cLYGL0jmv9HMYam3Ektw571eLx3grfduYWqg7Y6/bubkbL6JxZoS2w7egQyufd1jGHaX3M47GznB7Xzydgri1Se6t67Fb0mKtyhlD4gxJk7R4w14W0N2HzMi+ONJrrSTMEr3pNvO3m6lLhzme0B4W59WgYtVfFlbT3AVGKmZ7C+OgEArPmOhEtGU5pSEREREREREREqcXpA1OoNOxCgW5GX6hEUcukuS1CZW14i7rMi627+zBhVgf1NWHrE+Uo6jPXfXXIUvffuqkOe7dVIGdZCXac8puVfnhf149bgYLcOuSvV5dX1KHFrI2/bR8OrihB1gYfznjbUPRmmTqmCniHzeqgWyiK3G+Q2sezat36JlwztyyKlUkt6sxVOZNoOFCNvd5b5vo9ijy+8T54ttWhynltksZ+PxVUmqsPy2JfH3c+ke/jeJL2PiBKLSOVzSj95Cv0m+tEtHSwNCQiIiIiIiIiSk1OH5h6paFZtuZ2YDjyoSOKkemuemx9wouDPnODI6xsCaB8UwmyckPNy9jxCmSsqbdHZbXXI+eJCpwJFn12iZfv1SP/FtjWepxKlE9ZqxR72+iiypSG6nnZ+w2Z9lbbzzmsNLyDnspWeHJ9KPIOYiwshwCu+fS6epzx3cJ0VFnkrK+D53ifK0N1e20HGvruYFit91b6geFBVKn9D48OoeqoD0eOdqAnOFLSub9zvDPWdjGPacaPDm8TjuxuQlX7HUz09aCqdgTTUyNo2KPyUvke8Zp96du8PbgWzEzvtw1Fu+3jvTYVGqk51tKBqpYxjLV3qPX6ceONRJ3DdF8fzhxwnrerNIx6TGffTvnrYjIZm7mFluP12GueU7h5Xh/ncUb1tq1ouB7j+VsiXkPnMfUq97HGLQ3v9X2gqePXr5e1rXqdzK1ED9XtUVxuGsXtWIO1g+6g7bNGlJ7uV+/weGYx0TuI3t476l8GIkoVLA2JiIiIiIiIiFKT0wembGloLXrUYaOrsIkqRuYZTRZWtgzCk1aC/LOuXzFbRWE1qtTF6bOVyEirR4e9RrGLws2HR9Tl+NtiqgP5y8pwpMVk1KUftwyeqCkx7dIwa4UXGRuaXcWXH2c2qMdaU+YqDUdQ9Ip67k+XIz+3GjteUJdXqOc8btap+2c8VYYd2+qQn+5Fjt5nMBOz3trWGTXpbBs6hsynvcg9dcvkGXH/ZU5u9v23HtUjDQNo2KkeZ4UejWmO6ZVm+3jHu7BXX3eOd43Xfp76+ejpNV9Xz01lskPtv1AXlWGvzSTq3lb3dZ6P8/hd9q/5697W10uQub4ae9W+tz7letwwc7h2rAKZ6rnkvK7uu6kcmS+o43DeGzHKN2vfb3eZay5WJipXtX1wX2o/24/q94MW5/WxHkc/f3XM6r3rvRrj+S/0GrqPNcZx2+7zfaCP//uVwUyzdvawOKQHZAa9l/rx4rvdeDKvG898MIDSEfvfz97Pe9RtPfio17oa2+wg6jyNqKi5ba7fQtuZZpSq2/RyoaQft61pS2+i6YS67UQnblh3JKJUwNKQiIiIiIiIiCg1OX1gapeGellWiwZzD7vQsUdtVanlzM55pgMNK1tiFIuu9deOlkdNDRoqlOJvq40VV1qlUqZV2nix49hQjALGFHCHm3HwWT0y0ox90VOfPluHM4dDx2Adj7ot+JwxgkK1rR7taI9KLEehKdV06Va1LVQWWeuXVaLcKoc0u5TMytMHax+DLi2DcVl56tLT2d8AjqSVIGffoLrsLg3tyzl7zPkN+zpwJLcJDepxeg6o1+DZalQFH9M+3mCmkUWvOz/zeoZGeZrnY4pV63VI84UK3RYfcmKVslZ5q/N1ij1g4kL1fZSGuigOTZE7oYtldZze0fivj/04Jdh+zDUeMuL5L/Qahh1rjOPW7u99YL+nc4vt5zfta8bevDaeC5EejJtDeC2vG2me67hUM4ifvd+NJw8NwaoAp8fROxB808bW04kLniY0mTfseG0LStX12qoBdFy6ivOeRvUlZ48gnrl5CzduPqjvX0SUCJaGRERERERERESpyekDU7o0zFxfh6pB1+ObQicrrQw5G6qtqSMbhp3ixCWsbIkxZWhXEzabaUXHTlVElIZzqNrmFGfxt0VfM7Yv8yK/eAhjo34M++qt68FSMChUwFkl25sdmEYAVW+WYPOBobDiMlaZ5ayvj1Fwuksp637q8XN0PmbJMqPzhs0x2CMojYhCSws9vrs0BCbUffX5HDNXlGPH7rbgNKbxjneh0jDsfg7X/aP3HaPE1WKWa677xlgfvzR0TzmrhfYV9/maxyl0r454/gs957Bjjfm8Ft6HtX7e90FoVGamPo/n0Z7oaYCJkuRGeS+ezOvHJfNP5N0v+tX1Ppy+rdaV6nW98FwPXd5xsg/P5A3gsn133KrRJWE7uq3RhLfR+mkjSj8fMFOQ3kXHaXX9sz6MYxTNJ9Xlk93qXzLnchvqitT/S/S/7UT0MLA0JCIiIiIiIiJKTU4fmJql4bIy5B4dwIRZExRRwLhNj/sxNm6ONaxs8cP7enhZZk1J+mwdWvQVPdrPmW7UYk9JuuOUHq0Sf9vhY5HljV042iO63FwF3Hgb8vUUnD5dONqjwdwlUMNO9fw3tblGK86hIdeLjNdb0akfL2wqVXM8JhPreL7vQ8uoyiJs0dOrhpeAlhh5zlca2gIYbumAJ6cMGU+pzKZiHS/QsU+td3KJfAzXa2Mdb8Tzsc4ZafJNuDQcVFlGjkCcUjk7941RvsUvDSOKOmt7+9yZ8V6fsVglX8Tzj/Wc3a9h2LHG2p+y0D7ivw+MmUn0+FpxUL3GGT9o4khDeiDaz/bgyX3XEZyBtHEgqigMXe7GM/v78euTN8z93aWgNoymwkZUVIb+jeouiSwKXZf1tKZn2nHl8k1zbyJ60CRKw6Z/bMUXv7pqrhERERERERERkQSnD0yh0rAHe63z1/nQYEaxRYlTGloj+NbUoW74jjWSKmOZXWpp1mjCZytQ6LuFsa425K9wF3t9OKiub367Az2jt9Cyr1xtG5ryNO62unBcpkeWmYxGO1DwrFM4urkLOFMyPaH2o6e0VNyl4XRtLbKe8KLA68c0ZjBmjV4002VaIxtLsH1fH8Zm5jDdZx9PqHByRj7eskqt6a4m6/728dxPaTgEzxp1vOp2PfHmdKOeJrQcRYOh480vHgk73vDSsBrlo35MTKnXNawUM8/n8KDaNvR8NlujPBdRGupj1efpe6UeLXrY3NQIyt+0M7bva48YzVKvsZVbu51L+L4N63jVfV9vRo8+3qlBFL2u9rXGLunivz4xSr6o57/Qa+jOJ8b+tPt5H5ipXLcf1tPozqn3d6V6v7umACZKot5zvXjyt4MI9vtxS0N1OfQXGcoNXPnEXRLessrACxdD81PHLQ3VZdc4ayJ6CBZTGn799de40xP152O4mPEFijc4449D/D2T1jZERERERERERLR4Th+YQqUhMD0+aZUc84pTGmK8D0f0qKkn1KJHKp5y/3r4Dhp2V9hTNC7zYvOmVtfoQF2qNCP/+3bJlLmiAkd8ofPZxd92Uq0rt6Z6tB5XLTk54fu2RRR27fXY7BoZFz7d5ByunapGjn48vc+nypDvGnU54fNha3BdOY7kukapOeufNuvV8W7d3We2vZ/SUO23pQm5L5j9qiW0X328ldbUpfr2zDXVOLjN9XzGu3BwjdlG7yuiCIs63tyu4DkXEy8NFffrrx9rdx1yXfcNy+2FSuTq+85bGlaj8Lj7OdWiPDgNbpzXJ1bJF/n8lbBjeTriNUykNFTu/X0wh+ELdaFto75WiJLn9qU+LGZ6Un05aKAbFZ4mXAkOsb2Dts8aFzE9qb5MRA/TYkrD8c47OPbv/ojJG3fNLbYL/3sdil4NLw3v3gxg/78pxs2rC5wXlYiIiIiIiIiIYnL6wJQqDZesmUlr+kdrJJmYOUyPu6aTDKPWTcV/XRYsYO/VVGCe/c6oY7r35y92vPMeX4LCitR4zyne65OIhV/Dhd3f+2BaZUVJ1FCA53ZexD2nfL/bp6KbQ3gtrxtpHw+itGYQP3u/G3/10RBuq1ULlYbjl6+i1HMVHa6/6Riv1ec4bEL1pX50XLqK855GVF7WI6tZGhKlosVOT3ppYwOOrizH7N3Q9+KW/V3w7es219R3wsAcPvvueZT9tN7cQkREREREREREi+X0gSwNidzijWYlWoTO36cj++S9j+K83+1T0wxu1A9gw2+6oc9Z+O0DA7g0Yn+PiV8aztpTjwbPZ2jM3kZ3aYtVFlrnLCwdwO1ZvYKlIVEqWmxpeLt7Arv+5Snc7LhjbommRyT+05+dhL/LmZOBiIiIiIiIiIgWy+kDWRouReNdKFhRgu1HH4FCIZHnMtxhnbNv+7Hw+4x5q5H1VAWKugRHeLI0JIe/ExePFaBgTwE8VRHvz1k/Os977HXnO+G3iiq3ERS/sRb7r9rX/B01qKmqQf1AaNygv+siPGr7gkMnUD9kbgwK394SPJ7DOOGLOJ7gOg8udkWcUzXOdvGP4cGKOSVp0DCaCsPPXxgfi8J4An4//KOuhV1LYsa7UbTxLaz+xkY8r5ZVf52LQxdumpWKWn/2Nx9j36+O42yLa0hs32Uc/ZW6/Z3qGNOXP17ilYb6fISBm9FjqwPj9s+hekTh9fJhtO7tRItarqnL+jZtejzqH2FMjQR4jkMiIiIiIiIiogQ5fSBLw3lNYmLKXEwpt1D0Sgmy3u4KnufwXk2Mu8/d+DAs4rkEzwPpLgjn0LGvDBlr6hE8zRmRhNFz2LLqVRScrke97yI829dh3YetZqUf595cifRfenCxSq37ZTpWvnlO3eoSuIhdz+eh3vwee8BbgC0/Xh4cORio2oW0jAIU+9T+z+9H9qotODdqrbJFbI+JGuxaHTqe/W+sxJbPzSNax5qOt45dRM15D956ybUuznYLHsMDdPfaTXh+r0cfDiD8TGXGdX0+w0bUuUvUed3FyNVuVH/SiNKSQXMbhYzgRNZyrHwxHekvm+UQp3VcmB/nX7PLwvBlGw759PohFP1QXf/WNmz4zs/V7bnmfLQzaHprm3XfzL2hKTUfV/FKw9H6MXzy7/+Iy//YhqlboYm1dfHX/Yc+FC0vwZG/OIFDf34CB/78pDW68Oh/LEH7H/rNPW0Bte2Vf7yK/f/2NAa/eEj/qBERERHR42WGAy6IiGjpc/rAR740HKusx94DPRhTl3tO1WHvqYWG08xg2FuHrU+VoygFf9887a1GxrJKlIfN0TeHscZmHMlVz08tHu+t+Of1Gx1AUU4ZMnf2mBsejtjPZT5zaMj1ImNDs/VahvTh4LMl2H48YnQV0X0IXC1Gweed5poycAKZWSdgVX5DJ5D9sgehtZ3wvJyNE+5/Wq7ux9qIIrH+Xac0NKMIv7Rv1+r3PIfsz1yjACO2H/ksG2v3OaWlos93+EaxdTwjJ7OR/nvXsXZ5kG6Odf7tEjiGB+jGpX5877e9+PtL+uyG9+s22k434cLJNrQNRI8+Irs0zLOKLrcABhpq0DniR6evGJ5DJ1ATOWo1wsiXNSg+5kFxVStGIqL2d9WrdYdx4nz4Oj3qtjOsx1GPV1UPaxBuYAD1VZ0Y8Xei5uRFDOjVelSvPp5jxahf4HiSqv0UNlglYS6O+m5ifLQfZ02JuOrnl1V6jXhPXf67j9Q/BF2n8Xfq8nuV9naZertnDqEpJf8Q6cFaaHrSm4238eF/+By/+ovPMDfztVUY1vwfdfj9Xx7H7/7iBD5Sy8E/P4n9atn3Zyfx2z/9FAVq+TzTfkN/Pfs1Pv6/forf/dXnGFb7IiIiSglTY+io7ECVbwgTsX69stD6mUn0+NT6ykEMxzrnvrP9fOsfkLEWdQzeHlxL2s88k6jLLUfOhmT90XCy9x9hagQNXpVZyxL/XcZ4Fw6uL8P2A/Yv0Bb1PkilDIYH1XF3oKHP+mCCa7X6eQxG/P4phplbqFLvm8xXmh77WUWIiGjpc/rAR740vHa0HBnr7W/edW+XIOPtLnvFPIaPVWDr281oGU7m8+5CwRMlKNC/UFyUAMo3lSAr1xq+EOKrQ5ba39ZNddi7rQI5y0qw49R8P3T14OCaChzxjkQUi7dQtF7t4+iDmsxvnucSjzXasNyM3gjpOVAWfI2JkmGgMBvpzkjD2jwsfzd8ZJYuBN0ljD4fYWahVXkEhUpD9e73+xFwFSk1v14eGh2oRG0f8MPvnrVPH4MpFfW24QVQPfKW56n/KnG2W+gYaGn5+k4jAleex93yf2Et+rK+Ldp8paF9+7qXtiDvZGjUauwiOaDez+uw7r8dRnFVDYoPbcS6F9V7zhoyrtbtSUfa6/vNui1IX70RxebtHPm1Yr9fTemuC/nlar8/zsSuPecwoN6pelTvq3uKUVNVjIKM+Y4n+W7+Id8qCJ//YQmCE5JeOGTf9swxtKEdh57ZiFUvH0fRjp1YZY1ADI1O3P4pv7a0RM5pGFA/dw632H9N1P37Xnj+8jiO/4/F6C7sx92bAYxcGbNKww/+7CT2/OmneE8t7/7Jp/jyiP3DwVjrOKbNlKZERET3rdaHnLQy11KBgqM9iDlpvrlv7qnQZ+prxZXWZ3X9/c9aIk6vsdD6aZ8Pm9Xn++D6ZWXYWxmaMUhvrz//B9erJfK0HrZb8Obo4y/Hwdro6cChHmerfn45rbGfWwKs37fE+LwuZwBHVugMKuEVmExg+JTKTj3nI7XmBuH9L6ivCVv1a7bA76geqBjv4QU1+uz3cHabVbAt6n2QShlYp6pxfidm/35swVPXDDZju/r6y1xfizON85+DW8y9vD5ERESL4PSBS680nPGjw9uEI7ubUNV+BxN9PaiqdRVgEetjlYZj7R0o2l0HT/FQxF8NzWG6rw9nDtRh74FWtAyGnrv111ItY/a2XmdIUQDXfK3w6NF9x/sQ6hntv0pq6LuDYWt9Pc74nNF/ep0PO9QPIzv2qH06xz46hKqjPvtxrb9siqUHe9UPJAWV7r8ejC7fxo5XWFN2xhxH6OST67Oeh/P8x1qaUZBWgpxtza6/pgrlYT8/vW0HOqxPEc5znAzlGZaBNl8+WqznosTNYRAedYxRhWh7PXKeqHgwP9jTY0UXHMuXL0f6L8/BGbSmR/bFKg2dQtCevjTifIRK+H1crOlFd+FicI7e2NuH2EXKrgr99RGrAHKVMGHc20WIOgZaatyFobs4jGa/Z179hT7Ppb2c6w3dvvG0699XPWo1bFStoUfC/ljd7iqdOz8vgEd9P4u1LlCxC8+Zsnrh0nAjioP/ltej4PlMnHD6895zKCist/bzoN38ONcuCN9yFbG+Y1ivb/vGITSpq4GWErzzw2340Xdy8c7H3bhZechev/oUODGpLZHS0DE3NYeivz4Nz1+ewPXzN9BffB2eb53Gh84oQ7W8/6efYveffIp8tez7DyWYmXS98YiIiCSYIiHrlWprVp+Cn5RZ1zM2tUWfYiOsdFCmOpCvC70V1SjyDarP0j6rYAjOnrPQegzBs0ZdX1aOI+ozeoevyTrXf8azdWiw1tufqTNW1KJKf9ieGkShVXRUojxqlJdTgqglavYeP7yvm3X38ce4yS8NlRl9GhmZ0ZTW74rUcw77Y27B/S8oFUvDyPdwgqbH7wR/J/dYlYajg3F+f5cE9/j6EBERJcrpA5dWaTjehb0vqG/cT5cjP7caO9Z4kbXCG/rBdoH11g8v6ofqzPX6B/5qbH1KXX+l2fxQPIdrxyqQucxrj9jbVI7MJ7zqB0j7r/isbdW+sp7yIme3/ulnBEUbnMeqQ77+gUL9sF5n/XG8+QFDPVbOT9RjmdF/WTt71A9SfjQcqMRm9Y1+8+u6nOzBWJ/910mbc0KPuzfWX/9ZP1BF/vBlF2n5Z133t0q0alSZq0Emn8w1lSjQ+eiszBQKPaeqsf1Z58NQq/r4YfJQx5nzurpNH9cL6vmr6/YP1fZzzHqhDJlO3np/wQzi5aPEei4L5mAXpDn7IuaNnWpDvnW+Q3OdSNJsAJ16pOGeevUOVB+pP98SszQMlnGzNdZIv5qI313HLA1nB3DijXTk+Vzv83m2d1ijHtXj21voIjBWCbMLF91fOkr4di6xjoGWnMjC0FmimXLwdzWoqbIXe7rQ+QpoM2rVJVZx7oi5zioD7f0sXBqGP97A528hffU6bNzpQfGXsf5q/sFIpDQM143C1XrdNrxXqX6OGu5Gk/cy2vpS6Geqh2AxpeHAH6/hD395HKeePYs7/ZP46C9PBs9luDdilGHen5zCP/6rU2j/7LrZmoiISEjUL+knUZ6tPtvG+qPVyPvW2tfdn9Vb8rzqNvU5WH+kXWi9HsWk1rs//46dqrC22WuNjrNnMMrYFipcrHP+x/yDWldpGPnZ2ZrRx6wLloaT6DhajRz9OxN9u/49yW77tC+2MZS/XWb9vkCvz/xJPY5Yubg+448PoGhT6D76dwNHas1oLKcs2taEop+Y39k4t2XX4YhzrMv0qCrnZ8DIImcEXvf+X6hEUYszCnMOw2drQ8f/dAU8eyqty9brY16r4GI97+iiaKKlCfm6uDX3y0z3oWHUlIpmH5u31SFX/y5E3+cp9Rx9oZGgbhMt9djxtHO/MhTsq7NzN4WZXbaFHjtuceU8dm4TDgaz0q9Rn6vMjv8aOuXekaN11n0KTpr8g4vzuAu81hHFX7zScKEM9GNZU30uC90n//hQsJCc0CNine3VsjW3K/bIWPXe8+j3lblfztv12PsDfdl5Tgu8P4LZV+Lgbv27Kft++rl3BE+vE+9Yne2rUWj9ntHJI5Ftwh9Tj/61viadnIOLeS5drWHv0ZycJtcxEhERLY7TBy6p0tCahvLZalQFvwGO2H9JZ36wXWi99cNLmi80P32LDznOD8zmr/zyz4Z+wLNG7D1bhxZ12dr22Vo0mDiiz8fnx5kNJcjK0z8JmG/22aG/Ppwo1j+AOH/xFzE9qfUDn7OvAFrUD20Hi6OGCZkfEiLLwBhTnVr3i/4hzcpnjXt+fvt8gPbIPfuYgx9wTB5bD4d+STtxoTqqNAzf36D1l5A6g/j5KLGeSwI5WK9D1F+hxciA6D74u2pQb51kzeEqT6LOVxgxMjDG+Qy1qNJwohX7M9Kw8bPwaUzn215/TbR++CrSNhcHRz1qrR+uDZ9W1H8OW9buR+hMhrG3s8x3DLTkLHakYXhxpyVeGlrF+a9rzLVwMdfpc4Ka92RYwW6JXxpaZgMYUV+Tnu3rsM6ZJvgBG//0Pbs0/NvT5hdpijM96XejRxLq+6/S6149j5u+Y/iRVS7ay8Y/xPj+/piYrzRs39+J2p81oGJzI67+s/3vUfM/tlrnMvRtbcLVf+rCwT8/4TqX4UnrXIbOKMNf/6tTyFXLpX9os7bt+aQPNTlXcPGNetT/NvJnBiIiokUw5UyoNByz/zg2+NneJeK+zkg2u+CzuW9baL2zv+3HnMdWwm6bQ8tu9RlfT1l6vANVx2utqUyz1Ofl6AlEnELCiyz9x8LBmYrm0JDrRcaz9h8IO787uXbMPo6sDT6c8bbiyAa7gNlsFZjqca1ys8SalrGoWK13RmAGfw/hjF70IvdAG6rUPvZ+X1/Xv3+ZCy9Anvba06K6btua24qq4nrk6pGVah9HrL/bcp6DXZY4Ber23Xr/ZhSmM+OSOYWLLvEKjrbhzG77D7mtfevXZ3gQZ7bZx7wjOANU+P6dP2rOWFGBIypfvQ9rn87vQMxrYRWb+jma/GNObzrcih3WujLs2N2K8qO19h+x6+3vozTUS05OPcqP++w/4lbXnfdL/NfQeTx7ydLTtFaMoGGPnWloBqoEXmvndVuoNFwwg9Bjbd6pXn9vGzzZ9nX793T276+skbneDpTvtp9fvjfyj19DI2dzfqKee3ETCqwc9WKyXOj9EcxeP+86lV/oWLJ2659VFzrW0Pa6rM1JU++JwcS3ifmY+vyPUa+Pea56NHKxeh8ftX9nt/nA4/t5g4iI7o/TBy6p0jBWYWT9UO0uBRe13lU2mR90Ml9wna/A+gFV/bCjfqaytnX9BZ+1X+ubf+j+WfoHnleaMWy+2Yc+WCjW/p0fnCJLLjMqT+9vg/pBrNKZyjSCs4/QHxoq9g9OYYVZVxM2x/gQYz0HPVIyeMxe+y+cduofqyOOOex4He7jtu8fOerv2mE77/q4+Sgxn8vCOcR6jVkakrRA1S6sfONEqGT7cj/W/dgD61fZs63YvzYbHmtKR6XXg2xdiJj7DhRmRp3PUAsrDXuL8dZL6Sioja4GY24/O4Di7elI31MDf2Txp45tbZY6Nufxj2Vj7T5TrMTbLs4xpLKZO3cwfvuu+phGbl8LndMwkdLQns42OzRtqB6tmvWcXQY665yvj9kRXNy5Fq/+3p7k1H96I57beTH4fvRX5WHtfKVhoB77M3bhnNO1dxxG+hvF6kgfgvZTyLRKv21454/9GB9sR+HLdgm4yj36UJtqxHvP2Pc9pPJs2qEvH0IdhlD0t+ryy67zIj5m5isNL2//EqdfqsbJ/1yD2gL7vfLlrlYc/csTOPZvPsM///VZa5ThftcoQ10aOqMMdWm461+ewsX/bpeGrXu+wtn/rRqn1P5KtzZbtxEREd0Tp5zRxZb+XGtGOdmzCEUw9w0vDctR6Pr46pSC+rPrQuud/RVccP3kG/YYerRUdcQ5Db2ukXluTiFRC4/+Y+Jl1ajSvy8wfyy8+UC99Zna/t2JKWfcf3Ctz/eXpm5bVosGZ1rU4DSpmv1HwsGyyIySzNzWgeFRP8b0os/PqG6z/pDY/P7F+V2NxbltU1so27DnG3oO4aVhD3rGZzA9rh9n0tq2Yae+nxcHfaHsrD8KD+4rImtL+P7tgqcMR1qcfcyhY49dmLlLXffvRKL3aRs2Bd72467PXk5xZX6/Yf2uI6wgDD+eMOaxw6bJHW+zp7tN6DV0Hs+r3l+ukZFheWsJvNbO6xb2PCJ/l5RIBuax0uvR4bxnhluRr9e/3ooxV2l4pmUM0zMBTKj7RE0na9574dPwmm1Nlgu/P5zs3b9X60JBMN+FjtXZXn99O4+R6DbzPaYS9fq4SsPKIUzMzFiZjPH83kREdI+cPnBJlYbWN3b3D5CKNf2G+Qa60ProwslVNlk/WKgfCH3mm3dwsedmj9zW+oHn+z60hN1XL/qvnOxv9qFv5EpYCed6XJfp8SG0HK+z/tpq8+EYfxkUcxpO+4eEza4RgdNnK4MjJN3sfFpDP7Q7i/UDRcQxmzzCHst6fOe4zQ80YXnO2TmpH3g64+ajxJlSdP4c1GO+EpGrZh1r9A+lRPcugNZD2UhblYb0l9Kw8qW3cKIj9BeMgQ4Ptry40jrf4coXt8ATXDf/+QhDpaFdzuhtwxZrSsfY21tTPkbeP1iuBNTX2xasW6VvW4l1v/Cg03xynH+7eMeQym6h+WQjzpfdMNdp8ezXfuWL6Uh/2SyH9Ou+iNJQCXx5GNmr07BObb9O/X/LsU71TjTr9NfH6pVIe8lel72vBiNOaT07gHO/TMdzq9apr610ZB/aj7fijDQcqcjDq2of+jjTVmfi8Jehr8MHaxKVG+2SMGz5Zj6K3N8GFWcq01Ubq61M2t7Zpq5/gPNdjdj3XbXNaxUIDsJ/zCxmetLewn58/JcncPgvTuDQX5wMnsvwgz/71D6XoSkN3/kTe5Thrn9ZhC+PRf/BBhER0X0xv6R3zmm4N7ceZ3zz/JFvxC/0nVLL/bnfLpXsz8ELrYcpVMI+/5rHsKY0HW3FDnU5a1uHKUcm1edxu+iK/pztFBK1qBu2SxVd3thFSQXODNu/o7B/d2Iuh33Wd5dBC61XV5wiKdait4somixxbrMzcD0Ha2XEVI+u6U/tY4ko2yJen4VKwwX3EbE/i7kt8nc99mNF/M4i4vlGP17k83WJ9dhh91/4NQp7vRxR+13Eax32PCL2qyycgXmsWIv5nV7kdLE5m5rRE/kry7D3jGORr23M7M1t7q+RWIu1Ptb297KN+zGVWK+7+to9mG6PSNRL2BS6REREi+T0gUuqNJyurVU/NHuRX6ynjpjBmK/eni7CfANdaL31g0HYDzv2N+1gCfaK+oH7zTboc4hjZgiF6rr9Fz8xtrWmqtCPZX9gmO5qsh4r5lSfmvWDi/MDkv24+cV2iWZP5an/Akk/8B149fzw1ui/SPb5C8N/+DEfNp6tQKH68DLW1WZNyxGcBtTFykc9jqdR/yA9h7ELdl72X1fZx7x534A6Jv3XeXYeGa/Uo8U6qfoIyt+0fxAJ5mX9QFOGg5V+O+9Kez56a2qFuPlo0c9lwRysolEfr7luzFeSEj1ws/XIez76fIIJu9/tH3Wjfaj0NKL6yl1zAz10gThv1njrFikwkQJfFDM3UferfGz4a10Y/hw/+uF+13lzjPFqvPNNvT439AuRvgr8w9+YkvFbuTjqS52fqx60xZSG0+MzOPbvPsNHf3ECB8NGGdpTk/7GdS7DX/3LU3j3X5/BXfXzLBERkaiY5YxjCF5dJB7tsz7zRt23vR456rozHWTwfIjOKL+F1ps/2g2NJnNGuplS0JwTMezYLqjP1Oq2yNIq9PldFxIBVL2pLq+pRK4uYN7sUMdvCg3rdydyIw1D06AqU3esPyS2RoZFFE2WOLfZz9H9HPTPCvr3KXesEWfDLW0o0M/FZPcgRxqG5W9ui8w/8ZGG7pGn9u9MwkskwzzO/Y80jCjxop7TQxhp6B4hODNpvWfsP3S3Rxbqy/oPzev22dPFRk3FKTrS0J29uc3Kd6FjjbX9vWzjfkwl6vUxIwv17xWnxtBRXGufI9L6miYiIlo8pw9cUqWh/iHt2qnK4PQbmWuqcXCb+sHD+QYasV6fCNu9Pn5pqIz34UjkX+iY4QDR2yL8JMzL3Cedtr+xh/3wGFYaTqIu15xI2jo28xdy5nH1cXuDUxiEc85LGF4p3kGDnl9fT/+pjmPzJnOi5Cg6H9eJsPVJl4NTl6h11gma9TrzQ4rOw/qhxd7v1t11yFWX3aXh5t3NYffZcWAg+EPr/PnYop9L/BysH+LCfljVzLkS3R9GiB6Wec9HmKD73T7lzaD3Uj9efLcbT+Z145kPBlA6Yn+PuVHaq27rhee6dTWmueZ2lHpa0Op8Lhy/joZPG9Vt9lJ5aRj2TC6DqNO3lYRPn0z08MwgMDoZHI35uEqkNJwNzGFiyP7DgOaCDhz68xPWKMN/skYZngwfZWjOZbhLLdW/+craZkptO6f2QUREJCJWMRTk/JJfn7evyZyzz11EOOtLkPN6NfLN7xpCf+C70PoA7JGD+ncT1Sh43fwOwfxhszO1qHWON98Qhlta7fP6WSMHrR24OI9lPus7ZU3weN2l4Zw9Y5M+lg33ek7DSZRvsvcf95yG7t+xLLI0dEo/a3rSrh4c0X/07BSuzvOb95x15o+v1fXNm5pQHuuchu31dgGzwDkNw94b5rao0jaBcxqOFVfa179fa53PruhNJ1N3iWSYx9HL5jfV8evzP5pzGtp/qL3QazhPuWdyy3pFn1PvwZ/T0DnmmOf8m1Lv0eD0pEPoOD7f+fskz2nozt7cFvE1Ev/8hO7t72Ub92MqUa+PWW+mJ+2p9NkDJ1gaEhHRPXL6wCVWGjpmMB05b3mYhdYvYGYSE4t42tPj9rz59y+B47Z+0IqYd37R5tQxL+JXl1OBGM/P/uEk+ANyzPvY5s1n3ucSK4c+HFQfgKJ+ILR+aIo1/QoRpZybQ3gtrxtpnuu4VDOIn73fjScPDeG2WpVIaXj9YhNKCzth32UW/aXquqcFDb4BtJ1rVpebcKVNz4PJ0pAoFS1UGgZGAzj5/7yAvD89hbmZr/G1Wj79v5di/5/bowx/+2f2uQx/o5b8P/nUOpfhr9Ty4XPn7fvPfo0//J+P4/SaC7jrTIdORER0P+KWhkpXa9h0iZF/KIvRHnh02ad/kf+UF9tzu+xz/DsWWj8zBO/b7j8QbkKHa57zsD/U1ctToSk6w0UWEkPw6OMO/hGvuzTU9B8mu6b+1EXPAfdzG0P526bEVEvmeh8O6lGS7rJIHfuZTaH7uKcPlSgNo/7o+KkyFJx1xnDp8z3Whv5g+ukKePbYpVzodxh98Dh/NG4978j9z2GsNjzfnJ/UB/+wfFGloTLRUo8dwT+qLkNuXrVdSgaf76Sdub5NLTk5dSj4gb7sLpEM8zibc+vtEZbWPiP/UDv+axi73LsFb/A1C+Uc9lqrDI64X+tES0Nl4Qwijln/ofvxoeDvk/T0pE456hyL++shaHwAnp+Y11YtOW/XY29YlhHvD/11k+t+f0S+FzRz23xfI2HHGmt7bbHbRD5mjNdHT09qbWcvmWtqUT58H78PJSKix5rTBy7R0vDxdk1P67BC/YDwUE+KZP/wMu+HpwQl9lzMuRlecX5QMsbVB5sVJdh+NNaJ3oko1dwo18VgPy6ZzzB3v+hX1/tw+rZTGvbgpx/34pm8bjz5bjd+Wq7rRMdttOpRhSWD6iOeZheDFZXOv0HDaCp0zndoSsOTV1GtbrNGIha2o/uh/ptJRPFKw1v1o/jdv/sjSv+PKxhzTsyqzE3P4co7bfhw2WfWKMP3nFGGf3IKv/nmaVT9ugOz6j6O8c47KM++gvf/9WkM+tz/hhARET2qnCkKpf6Y2W2hPzgOYHrBXxnd5x91L0gd49R8BxFv3SJMyWU7PSXwh02RhWWcP+Je+DVMVCKvdWIWzmCB120m3vN1WfB+Eu+Pe9mH0PsyjNzrQ0REjy+nD2RpuCSpHzDUhwLrXAAPjUxpmNhzseeujxr9aZ0TIRkfjIgoGdrP9uDJfdfRa66jcSA4utAuDbuxoWgEvbfHUOpR9zWFomWyH9WeRlReNn+dbK7XfqlHFmqjaD7pjC40peE/t6Gt+zZudXSiQl23C0UieljilYZz01/jZkPozDORpkbu4ssPu1G+qRFlamk40IPJm/P/wmmo/rY11SkRERHRI2ehEbBERERE98DpA1kaEhHRA9F7rhdP/nYQwdmEo0pD1/SkPYP4Xl43djSa6x1f4bynGc0D5vrsAGo9jai+Yp/7LGZpGJye9C46TqvrJ7vBj9VED08i5zR0mxoJ4MP/oRjjA/bZSmOZvDaF4//+j5gadv4tICIiIiIiIiKixXL6QJaGRET0QNy+1If405O6SsPr17HBVRqOVDaj9JOv0G9fVW7gyicLTE/qOqdhdwlLQ6KHbbGl4eUdLTj0P53DzIQzohjoOdaHtt+HTpIzq9adeOZz1Pz3FnMLEREREREREREtltMHsjQkIqIH4+YQXsvrRtrHgyitGcTP3u/GX300BD0DafzS8A7aPmtE6el+hCYjnEV/aRNKPc2o+2IAbeea1eUmXOnQ5QJLQ6JUtJjScKJ/Ekf+bTFuXQ0/Geml/+8XOL3hsrlmG2sft85heLtv0txCRERERERERESL4fSBLA2JiOgBmcGN+gFs+E039PkLv31gAJdG7O8xcUvDWbsEDJ7P0DE+jOYzuixsROkfmlFbNQx7EkOWhkSpaDGloT7HYd/ZIXMt5OL/XofPXg0vDbWO00M8hyERERERERER0T1y+kCWhkRElNp6OnHB04SmHnOdiJakxU5PGkv1zxpxbmOTuUZERERERERERBKcPpClIRERpbRbVXo0YTt6zXUiWpokSkMiIiIiIiIiIpLn9IEsDYmIiIgo6VgaEhERERERERGlJqcPZGlIREREREnH0pCIiIiIiIiIKDU5fSBLQyIiIiJKOpaGRERERERERESpyekDWRoSERERUdI5pSEXLly4cOHChQsXLly4cOHChQsXmUWK0weyNCQiIiKipNOlIRERERERERERpR6nD2RpSERERERJx9KQiIiIiIiIiCg1OX0gS0MiIiIiSjqWhkREREREREREqcnpA1kaEhEREVHSsTQkIiIiIiIiIkpNTh+YsqXhlH+WCxcuXLhw4cKFyyOy+Ecm1f9j/6zJhQsXLly4cOHChQsXLly4cOHCZfGLFGd/HGlIREREREnHkYbymKk8ZiqPmcpjpvKYqTxmKot5ymOm8phpcjBXecxUHjNNXCpn5fSBLA2JiIiIKOn4IUIeM5XHTOUxU3nMVB4zlcdMZTFPecxUHjNNDuYqj5nKY6aJS+WsnD6QpSERERERJR0/RMhjpvKYqTxmKo+ZymOm8pipLOYpj5nKY6bJwVzlMVN5zDRxqZyV0weyNCQiIiKipOOHCHnMVB4zlcdM5TFTecxUHjOVxTzlMVN5zDQ5mKs8ZiqPmSYulbNy+kCWhrQ0jXehYEUJth8dMTcsYYk8l+EO5Ov7HAu/z5i3GllPVaCoa87cQkRElJr4IUIeM5XHTOUxU3nMVB4zlcdMZTFPecxUHjNNDuYqj5nKY6aJS+WsnD6QpSEtQbdQ9EoJst7uwoS55d5MYmLcXHxoFvFc2uux+YkyeNrdBeEcOvaVIWNNPTrMLURERKmIHyLkMVN5zFQeM5XHTOUxU3nMVBbzlMdM5THT5GCu8pipPGaauFTOyukDU6g0nMNw+xDGzLWYZiYxNuo3yySmzc3RApgYveNaP4exxmYcya3DXrV4vLfCt525haoD9rq9u5vRMhpeysTddnwI5QeqsT2tHDtyI7d1zGE6eNx+TEzNNypMH3fs5zY9Htp+bDz8NQlbF1wi92HveyLi5bS2dfZn5Rsv1xD7MQPmmsM5ftdi7dt9u/t1CRd7n9GmvdXIWFaJ8rDC7w5ajvvs1zC3HlWD8d63+jVtQu4LJdhba256SGI/l/nMoSHXi4wNzRFfJ304+GwJth/3m+tEj7DpKYyPTiAwa64T0ZLBDxHymKk8ZiqPmcpjpvKYqTxmKot5ymOm8phpcjBXecxUHjNNXCpn5fSBKVQadqHgiRJkvFCJopZJc1uEylpk6Ps4yzIvtu7uix6h1deErU+Uo6jPXPfVIUvdf+umOuzdVoGcZSXYccopWPzwvq4ftwIFuXXIX68ur6hDi1kbf1t7lFjm+jqc8XbgzM6y8G2D1P30fl3HnrmmGt7glJKT6Dhaae07eJ+nynHwQqgaqnvbtU4vT1fAY3KKWmcttaiz1trGTlVYt2flOaHYrG3f7rKvWPmGbxebXVJlPFEB76i5SbNydx+D2XeM23M2teKa2cw2zz6jBFC+ST2PXPfzmENLntfKLF+9hgU/Ua/DMrWfYbM6Um0dcn7iQ1VfZEFpvwcLKs3VpIv1XBZgjTZ0vbeNngPqOa9visiU6NEzUtmM0k++Qr+5TkRLBz9EyGOm8pipPGYqj5nKY6bymKks5imPmcpjpsnBXOUxU3nMNHGpnJXTB6ZeaWiWrbkdGI586IhSa7qrHluf8OKgz9zgCCsNo4uZseMV1nSOPfpKez1ynqjAmWDBZJdX+V5dKC2wbVcTNj9RifIpa5UyCE9ajOMxpeHWo7fM9Tuo2uZFxuut1oixa8fKkbGsHJ7GO/ZqzGC4uBpZ6rkVVLqKQafcU+s79pQh49nwgvLaUbWfmMWRH2c2lCAnzd6mwdyq3VNpaBWpZWp/EaPbIstaR+Ttox0oUBmHyldlvn1G6cHeZbrYc43WnGpDvvU+cG6zn+/mA0Pmerjp4UFUHfVh7+4mVLU7mQdwrdaHHeq9t2NPB6pqR8yISHW7rxWe3Hqc8d2yt/UO2iP9pkbQ4O3BtfE76PE24YhzH2s7h7N9HTzH+yLe0zGeizY6ZB/fgVa0RBWb+j0WkZ1m3sfxC1eiFHZ7FJebRnF7voHYljto+6wRpaf71VdWPLOY6B1Eb+8dxN0dET1Q/BAhj5nKY6bymKk8ZiqPmcpjprKYpzxmKo+ZJgdzlcdM5THTxKVyVk4fmLKlobXoUYfBIk2JKrXmGRkWVlLZJUv+WdevmK2CpRpV6uL02UpkpLnPB2cXhZsPj6jL8be1L7tLwxEU/qAE24855aAjsjQErh12Cj71HJaVILc4cnTlnF0MmhIwvDRULlRHFXzzlobDzdiuz4XXGFmu3UtpaKbIfLMDLfpceu6pMhMtDU1OoTzi7DNSrMeIeh1gn+dvmysvY0I9Rz2iM+f16uDI0e1H9WvtR8OBSmxW76fNr9dh74EedQwjKNqg8nmqDDu21SE/3YucFeo4nYysY1G3veBFZnpof6HzE5rtn7ZHQNqjWNW2zlSksZ5Ln3qt1D4256hj2FSOTLX/vbXuesR+f+bsGzTXDas41ec7NNeJUtIMei/148V3u/FkXjee+WAApSP295jez3vUbT34qNe6GtvsIOo8jaioMd9cZ2+h7UwzStVterlQ0o/b1rSlN9F0Qt12ohM3rDsSUSrghwh5zFQeM5XHTOUxU3nMVB4zlcU85TFTecw0OZirPGYqj5kmLpWzcvrA1C4N9bKsNjQyziq1KnDE24EqZzrQWNNQhpUxMYpF1/pYRVuoSIu/rbqCgytKkJVdj3J1POW71b7U/d3loM0uDXO2NVvHXVVcj1y9nZ4qNFZx5HCVeNYx6Sk1refeir3fV9fNSEXHfKWhdbs1OjKAqjed52ZbfGlol5zWSMz2iKkyrefixfY39XkFneLNub0MBcfs1638QKU1ijJUXsbZZyRrX6a0dcQ47thZDMGzpgSb3YWbNcLRGaEX/npb5xtUx1LomkbWGiEaVhpG7M86fnu0afT5Cu0RkMEpYud9Ls42AbQcrcPB4vARk1EFsiXGe5Uo1dwcwmt53UjzXMelmkH87P1uPHloCNa3yulx9A4scHLPnk5c8DShyRrqDYzXtqBUXa+tGkDHpas472lUX0L2KNyZm7dw4+aD+v5FRInghwh5zFQeM5XHTOUxU3nMVB4zlcU85TFTecw0OZirPGYqj5kmLpWzcvrAlC4N9bkCqwZdj28VKiXISitDzoZqa3rJhuEYk89ZZYyr2Hs2okxxTStqnesvrFyaQ9U2ZyRX/G0tw1048nq5NfXn9rfbUPjm/KVhxtNedb9y6FFrnuIhezSaOdbC6EFx0aXhU/aoNquYjDF9a9yizEzVaRdZ1agyx7/Y0jB8+/B9288lVA4Gp/g05VrmC+p1W1+Jgtx6lHeFRlbG3Wck57V1D7Szir+I0lCP5NzUFjFVqP0ey1yhp0E1i8lzb21ovfN6x8zTnZF5vuGj+0KjKK3tl+nXPPR4WU+pvF9phtVzx3ouzuhEvd2GWhRVRk53ytKQlq4b5b14Mq8fl8w/23e/6FfX+3Bafa+8UarX9cJzPXR5x8k+PJM3gMv23XGrRpeE7ei2RhPeRuunjSj9fMBMQXoXHafV9c/6MI5RNJ9Ul092q399ncttqCtS/y8J+4IjogeIHyLkMVN5zFQeM5XHTOUxU3nMVBbzlMdM5THT5GCu8pipPGaauFTOyukDU7M0XFaG3KMDZopHlzil1vS4H2Pj5lidMsYqDf3wvl5iphu1WVOSOucDtAon92gv9znjFthWre/w9qDHNZJM37/gQmSRGT09aYhdTEavC6DubW9wqs5QUWQKyE1tUfnELLmskW+uosyUZPY5GxdbGpqRiq4izCrBnHM8huXuMt/tlgX2GSnWNJyjrdih9h8qXs25KJ0RfUH2OQTzT41hbFS9X1zLhPXWCS/ehvW5JsOmrjWvf1hpqO/vfr3VPtRj6PePtf33fWiJeKyxUTPdaJwpRafHh9ByvA5bVRabD7sLVPX6vxLj/TKop6CdL2Oi1NB+tgdP7ruO4AykjQNRRWHocjee2d+PX5+8Ye7vLgW1YTQVNqKiMvS10F0SWRS6LutpTc+048rlm+beRPSg8UOEPGYqj5nKY6bymKk8ZiqPmcpinvKYqTxmmhzMVR4zlcdME5fKWTl9YAqVhnahk7neh4bRGKMHtTilVs+BMmSsqUPd8B1cO1YB92g6azThsxUo9N3CWFcb8p2pQS32FKOb3+5Az+gttOzTo8NCU57G39ZMN6m2HR71Y9hbi6xllWaqS7d4paF9nr2sZWUoOD6I4ak5qzCq212BzGXlKDJTY4aVe1bRGXmuu9iloXVuvzW1OGNNa2ovntfVvswovEWVhlbJVYId+0L7qjpei81O8XUvpeFC+4xil7rhWdplbdbrTWgZ9KOnuDpi+lNHAA07vch4pR4t1nvsDqp0MbvCKYHt0jC/2BR75vyC2/f1YWxGvS599usfWRra7zv1dTLjR12unjLXTC9qbe9V+7NHC053NVn7swtpLfq52KMudQGqv+7uwJut9r/TVZ9aednTn7qFl9lEqan3XC+e/O0ggl/acUtDdTnsLyBu4Mon7pLwllUGXrgYmp86bmmoLof+/IOIHgZ+iJDHTOUxU3nMVB4zlcdM5TFTWcxTHjOVx0yTg7nKY6bymGniUjkrpw9ModJQj66ajJqKMUy8Umu8D0f0CDxd4uiRiqfcvx6+g4bdFfYItmVebN7UGlasTXc1I//79gi8zBUVOOILTZ250LZ6etKD6fa2GU+X4+AF91kGHfFLQz0l6lhjE/LXmOPXx5FeC69VHNnCp6Q059ZbEz4KLro0tEcxbj/ulFSGOY/fmeFYpWHoGCILyLHjukCtC51j0mKK09y++cvBOKXhgvuMwS6II0YijvbgyAYvMvVxP12G/LDX320E3k1l9v3UkrmmWuXslIuTVulnrTPPfcLns0b7WXmo1/dIbuRIQ3XbMfd9KuBpCb1/rO2fNuvU+2fr7r6wEaLRz2UMVbnlwePLeKHSdXz3lhdRqrh9qQ+LmZ5UXw4a6EaFpwlXgv/o3UHbZ42LmJ5UXyaih4kfIuQxU3nMVB4zlcdM5TFTecxUFvOUx0zlMdPkYK7ymKk8Zpq4VM7K6QNTqjQkSshwK3Ys86LggrvcXawAJqZCZVx8c5ieivF1EFaGznMfY95CfN7nMqP2F3l8ZlRs5PkerRJ4vpGZ9OCMoPiNdHiC0+Qu1v1uvwTcHMJred1I+3gQpTWD+Nn73firj4agv1UuVBqOX76KUs9VdLi+VMZr9TkOm1B9qR8dl67ivKcRlZf1H0mwNCRKRfwQIY+ZymOm8pipPGYqj5nKY6aymKc8ZiqPmSYHc5XHTOUx08SlclZOH8jSkJaka/p8gStqURc8n+RDEGcE5WIk9lwmYZ3j8pWIc1aOd6FgRQm2H+XEiw9d4CJ2PZ+H+llzfbHud/slYQY36gew4Tfd0Ocs/PaBAVwasb/HxC8NZ+2pR4PnMzRmb6O7tMUqC61zFpYO4LaVH0tDolTEDxHymKk8ZiqPmcpjpvKYqTxmKot5ymOm8phpcjBXecxUHjNNXCpn5fSBLA1piZrD9Kh/EaMFk0CoNEzsuQQwoe8T+eU4dQdjowtM60v3xt+Ji8cKULCnAJ6qUCnr76hBTVUN6gfCzymKhgI89+Y56HFugYF66z41Ha6pgYP7O4wTvhglr2t7y+wI6k8eth//fCf87jJx1o/O857Y65QR3wkcVusKjl1Ep3t24nj7fMhiTkkaNIymwvDzF8bHojCegN8Pv/r3JLi450ym+Y13o2jjW1j9jY14Xi2r/joXhy7cNCsVtf7sbz7Gvl8dx1nXNNXou4yjv1K3v1Md/kcfjyF+iJDHTOUxU3nMVB4zlcdM5TFTWcxTHjOVx0yTg7nKY6bymGniUjkrpw9kaUhEFGn0HLasehUFp+tR77sIz/Z1WPdhq7VqwFuALT9ejuyT4cVf5+/Tg7f5fR7semMtlr9bb13HRA12rQ7tb/8bK7Hlc3ebF749Zjvh+S/peOvYRXX/epz4Vejx9Tksz725Eum/9OBilTq2X6Zjpats7DyWifTtap3arv7kLqx7cT9adTkYd58P191rN+H5vR59OIDL5rYw1/X5DBtRd9Vcj+suRq52o/qTRpSWDJrbKGQEJ7KWY+WL6Uh/2SyHzPuU4vDj/Gt2WRi+bMMhn14/hKIfquvf2oYN3/m5uj3X/EHJDJre2mbdN3Nvt77hscYPEfKYqTxmKo+ZymOm8pipPGYqi3nKY6bymGlyMFd5zFQeM01cKmfl9IEsDYmIIgSuFqPg805zTRk4gcysE3Bqwvp3I0tDXeStxX5XqTVyMjtYGo58lo21+1wFnR5V+EZxcH9R2+v1m4uDRSBGipH9fAGsvQ2dQPbLHoSOrhOel7NxwjrVZT0Knt+I4lFrhaLPk/gcChrUxXj7fMhuXOrH937bi7+/JPFN8zbaTjfhwsk2tA2k0FDKlGGXhnlW0eUWwEBDDTpH/Oj0FcNz6ARqusKL7UgjX9ag+JgHxVWtGImI2t9Vr9Ydxonz4ev0SN3O4PtTU49XVQ9r4G5gAPVVnRjxd6Lm5EUM6NV6VK0+nmPFqF/geJKq/RQ2WCVhLo76bmJ8tB9nTYm46ueXVXqNeE9d/ruP1Bdi12n8nbr8XqW9Xabe7plDaJqyd/U444cIecxUHjOVx0zlMVN5zFQeM5XFPOUxU3nMNDmYqzxmKo+ZJi6Vs3L6QJaGREQLGCjMRrprVF5UaajPR7g8DzWucsRdGiLgh989m2ltHpa7pyKN3H42ED5lpC4t1+6HdQR6W2e/hj4epwQKjLofaAAn/ospI+Ptk5a8r+80InDledwt/xfWoi/r26LNVxrat697aQvyTl5EzXkP3nppJbI/c5fjjoB6z63Duv92GMVVNSg+tBHrXsxDvfX+Uuv2pCPt9f1m3Rakr96IYqsBDH+v2uqRt9yU3roQX672++NM7NpzTr177VG1r+4pRk1VMQoy5jue5Lv5h3yrIHz+hyUITkh64ZB92zPH0IZ2HHpmI1a9fBxFO3ZilTUCMTQ6cfunD7HwTCH8ECGPmcpjpvKYqTxmKo+ZymOmspinPGYqj5kmB3OVx0zlMdPEpXJWTh/I0pCIaB664Fi+fDnSf3kO7kFrUaXh1f1Y6y4BlbDSMIxdhOyqcJV7MbZ3a/1wHV79vT22MNZ+o47Hofa77scedEaMAtPc+6Slz10YuovDaHY5+Oov7PN16uVcb+j2jadd78IuD9LDRrUa+v0a8b7q/LwAnlr1HoyxLlCxK3i+zoVLQ/dIWT1yNhMnTOGI3nMoKKyf9+skmW5+nGsXhG+5iljfMazXt33jEJrU1UBLCd754Tb86Du5eOfjbtysPGSvX30KnJjUxg8R8pipPGYqj5nKY6bymKk8ZiqLecpjpvKYaXIwV3nMVB4zTVwqZ+X0gSwNiYjimQ2gU4803FMPp+aLLOkGCjORWeg0G7b5SkNr1KK6PWw8YIztHf7aPKS/cSJYWvo/3xKzNAwrITV/DfJeyg4VLi6R+6SlL7IwdJZophz8XQ1qquzFni401ghEXejlRU1hO38hPs86qwy097NwaRj+eAOfv4X01euwcacHxV8+nFGGWiKlYbhuFK7W67bhvUr1c9RwN5q8l9HW93j/TMUPEfKYqTxmKo+ZymOm8pipPGYqi3nKY6bymGlyMFd5zFQeM01cKmfl9IEsDYmIIvi7alBvnWTNEV6ehJeG0ecz1KLLkwBaP3wVaZuLI8q62NtrVmHyUoGZ9tGIGpUYY/uBc3jrpXQU+CKKRCXmPmnJW+xIw/DiTku8NLSK61/XmGvhYq5zTYUbXXDHLw0tswGMqK9Jz/Z1WOeaJvhBGv/0Pbs0/NvTuGZuC05P+t3okYT6/qv0ulfP46bvGH5klYv2svEP+sk+nvghQh4zlcdM5TFTecxUHjOVx0xlMU95zFQeM00O5iqPmcpjpolL5aycPpClIRFRhEDVLqx0j8T70p7m0xm0F1YaztZYxYr7fIZaWGk4O4Di7elI31MDf+Tovljbz/pRbxWMMUYDzrZi/9pseKwpJZVeD7J1IWPu52/Yj1dXb8QJZ70j3j6XkJk7dzB++y7mzHWySZ3TMJHSEKPnsGWVaxSren+fyHrOLgOddc77b3YEF3euDU6F6z+9Ec/tvBj8OvBX5WHtfKVhoB77M3bhnNPPdxxG+hvF6kgfgvZTyLRKv21454/9GB9sR+HLdgm4yj36UJtqxHvP2Pc9pPJs2qEvH0IdhlD0t+ryy67zIj5m+CFCHjOVx0zlMVN5zFQeM5XHTGUxT3nMVB4zTQ7mKo+ZymOmiUvlrJw+kKUhEVGUAFoPZSNtVRrSX0rDypfewomO0OiosNJwnvMRuktD6/Jy+/yIocWUI7G29+XFuL8pVpRAhwdbXlxp3b7yxS3wBI9NlzyR25ljXWCfS8MtNJ9sxPmyG+Y6LZ5dDq58MR3pL5vlkH4nLqI0VAJfHkb26jSsU9uvU//fcqwzOOWu9f5cvRJpL9nrsvfVYMQpqmcHcO6X6Xhu1Tr1tZWO7EP78VackYYjFXl4Ve1DH2fa6kwc/tI9SvFBmkTlRrskDFu+mY+iLnMXw5nKdNXGaiuTtne2qesf4HxXI/Z9V23zWgXG7bs+dvghQh4zlcdM5TFTecxUHjOVx0xlMU95zFQeM00O5iqPmcpjpolL5aycPpClIRHRfdCFYLoZRXUv7nf7x8poHyo9jai+ctfcQA9dIE6JF2/dIgUmHlZZ6DJzE3W/yseGv9aF4c/xox/uR1HLpFlpjFfjnW/q9bko6jO39VXgH/7GlIzfysVR3+P7cxU/RMhjpvKYqTxmKo+ZymOm8pipLOYpj5nKY6bJwVzlMVN5zDRxqZyV0weyNCQiumfzn48wMfe7/VIzg95L/Xjx3W48mdeNZz4YQOmI/T3mRmmvuq0XnuvW1ZjmmttR6mlBqzM6cvw6Gj5tVLfZS+WlYUxZKwZRp28rGbSuET18MwiMTgZHYz6u+CFCHjOVx0zlMVN5zFQeM5XHTGUxT3nMVB4zTQ7mKo+ZymOmiUvlrJw+kKUhERE9GDeH8FpeN9I813GpZhA/e78bTx4agv5WmUhpeP1iE0oLO2HfZRb9peq6pwUNvgG0nWtWl5twpU3Pg8nSkCgV8UOEPGYqj5nKY6bymKk8ZiqPmcpinvKYqTxmmhzMVR4zlcdME5fKWTl9IEtDIiJ6IG6U62KwH5fm7Ot3v+hX1/twWn2vtEvDHvz04148k9eNJ9/txk/L3d9Eb6NVjyosGYS9uV0MVlTesq6pb7loKnTOd2hKw5NXUa1us0YiFraj+3E9kRxRiuCHCHnMVB4zlcdM5TFTecxUHjOVxTzlMVN5zDQ5mKs8ZiqPmSYulbNy+kCWhkRE9EC0n+3Bk/uuo9dcR+NAcHShXRp2Y0PRCHpvj6HUo+5rCkXLZD+qPY2ovHwn7Hrtl3pkoTaK5pPO6EJTGv5zG9q6b+NWRycq1HW7UCSih4UfIuQxU3nMVB4zlcdM5TFTecxUFvOUx0zlMdPkYK7ymKk8Zpq4VM7K6QNZGhIR0QPRe64XT/52EO3menRp6JqetGcQ38vrxo5Gc73jK5z3NKN5wFyfHUCtpxHVV+6aG2KUhsHpSe+i47S6frIbzrhEInrw+CFCHjOVx0zlMVN5zFQeM5XHTGUxT3nMVB4zTQ7mKo+ZymOmiUvlrJw+kKUhERE9ELcv9SH+9KSu0vD6dWxwlYYjlc0o/eQr9NtXlRu48skC05O6zmnYXcLSkOhh44cIecxUHjOVx0zlMVN5zFQeM5XFPOUxU3nMNDmYqzxmKo+ZJi6Vs3L6QJaGRET0YNwcwmt53Uj7eBClNYP42fvd+KuPhqC/VcYvDe+g7bNGlJ7uR8Baqc2iv7QJpZ5m1H0xgLZzzepyE6506OlKWRoSpSJ+iJDHTOUxU3nMVB4zlcdM5TFTWcxTHjOVx0yTg7nKY6bymGniUjkrpw9kaUhERA/IDG7UD2DDb7qhz1/47QMDuDRif4+JWxrO2iVg8HyGjvFhNJ/RZWEjSv/QjNqqYUxZK1gaEqUifoiQx0zlMVN5zFQeM5XHTOUxU1nMUx4zlcdMk4O5ymOm8php4lI5K6cPZGlIRESpracTFzxNaOox14loSeKHCHnMVB4zlcdM5TFTecxUHjOVxTzlMVN5zDQ5mKs8ZiqPmSYulbNy+kCWhkRElNJuVenRhO3oNdeJaGnihwh5zFQeM5XHTOUxU3nMVB4zlcU85TFTecw0OZirPGYqj5kmLpWzcvpAloZERERElHT8ECGPmcpjpvKYqTxmKo+ZymOmspinPGYqj5kmB3OVx0zlMdPEpXJWTh/I0pCIiIiIko4fIuQxU3nMVB4zlcdM5TFTecxUFvOUx0zlMdPkYK7ymKk8Zpq4VM7K6QNZGhIRERFR0vFDhDxmKo+ZymOm8pipPGYqj5nKYp7ymKk8ZpoczFUeM5XHTBOXylk5fSBLQyIiIiJKOn6IkMdM5TFTecxUHjOVx0zlMVNZzFMeM5XHTJODucpjpvKYaeJSOSunD2RpSERERERJxw8R8pipPGYqj5nKY6bymKk8ZiqLecpjpvKYaXIwV3nMVB4zTVwqZ+X0gSwNiYiIiCjp+CFCHjOVx0zlMVN5zFQeM5XHTGUxT3nMVB4zTQ7mKo+ZymOmiUvlrJw+kKUhERERESUdP0TIY6bymKk8ZiqPmcpjpvKYqSzmKY+ZymOmycFc5TFTecw0camcldMHsjQkIiIioqTjhwh5zFQeM5XHTOUxU3nMVB4zlcU85TFTecw0OZirPGYqj5kmLpWzcvrAlC0Np/yzXLhw4cKFCxcuXB6RxT8yqf4f+2dNLve2MFP5hZnKL8xUfmGm8gszlV+YqezCPOUXZiq/MNPkLMxVfmGm8gszTXxJRlZSnP1xpCERERERJR3/8lAeM5XHTOUxU3nMlIiIiIiIpDl9IEtDIiIiIko6/pJbHjOVx0zlMVN5zJSIiIiIiKQ5fSBLQyIiIiJKOv6SWx4zlcdM5TFTecyUiIiIiIikOX0gS0MiIiIiSjr+klseM5XHTOUxU3nMlIiIiIiIpDl9IEtDIiIiIko6/pJbHjOVx0zlMVN5zJSIiIiIiKQ5fSBLw0fWJCamzEUiIiKih4y/5JbHTOUxU3nMVJ7ONOOJEi5cuHDhwoULFy5cuHAxnxLun9MHPt6lYXsr9ua2osdcjWeisg45T5Vg69FbarsmbF7mxZFGs1LQWGU99h7owZi5HjQzibFRv1kmMW1ujjaDYW8dtj5VjqJBc9OC/Gg4UIfCSr+5Pr/pC9XIXFYJ76i5IWUNwZtbB2+7uUpEj4bpKYyPTiAwa64T0ZLB4kAeM5XHTOUxU3lOaUhERERERCTF6QMf79KwslZ92KpFnbk6v0F40kqwec+AXdaN98GzrQ5VfdZKUdeOliNjfROumetB1rGGN8g5m5rQMjpn7mAbPlaBrW83o2V4Ma/bLRStN4XoQrrasHdbPVoe+CjGRRyjpQsFKqOCSnM1UQm/J4joYRipbEbpJ1+h31wnoqWDxYE8ZiqPmcpjpvJYGhIRERERkTSnD1xapeHwIKq8g65ReAFcq+1AQ1/AdfkOhn2t8OTW44zvVsSIPHUf97rIgmjGjw5vE47k+lDkHQo+zliLDzvUh7Ide8xjTY2gwduDa7o4cy6P3kLLcT1KsBUtgxGZzbNfi7NudxOq2u8sUBq6jlU9bvmbXmSsqEVDsMCbw3RfH84cqIs4DiebSYy1d6Bodx08x/sQ6hVjFHKjQ2jQz0cfV4s/lKP7NZj3uc+Zx9HPV903LA7nNYg8hviv31hLMwrSSpCzrTniPeAIPXd7v5Gl4XzZuOjns6dC5VyBI17nfaXEe/0i31P3nc8d9FiPpfc3EmdEKdEj5vYoLjeN4nb430FEuIO2zxpRerpffeXFM4uJ3kH09t5RX21ElCpYHMhjpvKYqTxmKo+lIRERERERSXP6wKVVGkaNAnOXXfbljGUlyPlJNfZuq0COupy1s8cULyMo2qDWP1WGHdvqkJ/uRc4Kb2h/413Y+0IJMtdUoiC3GjvU5YxX7PKu51QlNqsPZZtfN1N49jVh6xPlKNIjDa3Lof0W/KRM7dOLvbXmV9px9uusy3i6HPl63RovsvQxJVIaWvpw8NkS7DilpxWdw7VjFchc5sXWTXXYu6kcmeo4Cion1To7m6wXypDpPJZ+3BVqf+N6PxGlYVcTtqvsMtNdOb7dhQm9zn0c8zz33E0VyDLPd+tTrufrvAbWMajXQL9eEccw3+vXc6oa29VzzXpFrYuaUtY8d3UsOa+r9fq5v6CyVNft0jBeNi6jPSh8XT8H9XzU8VmvdbzXb6H31KLzURm8oq5/v1I9R3td6P1L9CiYQe+lfrz4bjeezOvGMx8MoHTE/h7T+3mPuq0HH/VaV2ObHUSdpxEVNeaXj7O30HamGaXqNr1cKOnHbWva0ptoOqFuO9GJG9YdiSgVsDiQx0zlMVN5zFQeS0MiIiIiIpLm9IGPXmmY3WaXW8pEcaW6fyXKp4Bpb7W6XI7CLmfcySSqtoUKnp4DZchYU48Oe6XiLuQiRq3FKA1zi50CahLl2eo4NrXZZVec/Vrrnq1GlVWaaSMo1M8h4dJwTj0Hdf+3u9Qr2oH8ZSXIPxsqwsaOV6j916HFySbsOAbhWVOCrDz9JKJzzMp1zb3apZ+jFwd9KrsYpWHUc1eP2WBuwXAztlvbmtdgmXo9gs/XjzMbwo9hvtcv/BgjmOe+9fCIuUFte6E6VBrGzSZCRM7xXr+F3lOLzcd5nzn3n/Y1Y29eW0Ln3CRaEm4O4bW8bqR5ruNSzSB+9n43njw0BOtXidPj6B0I/uMQW08nLnia0GS+KMZrW1CqrtdWDaDj0lWc9zSqL2H73KwzN2/hxs0U+v5FRCwOkoCZymOm8pipPJaGREREREQkzekDH7nSMKxUcpV7Maf9dO2v7u0SZDzlRU5amVm8yFymbtupfzu9UGloLhvux4q3X2udLvxcEp6e1OIqDU1BlfmC8zhqWaHW6WMbtLPJ2TdotrNdO+w8lju7WOcCdK2PKg3nf+620P6sdcvcWZQhyxpp14zhBV6/uKVhjOMIex5xs7HvHRSRc7zXb6H31GLzcY+YzHyhAgVHe1zTtxItfTfKe/FkXj8umZ797hf96nofTt9W60r1ul54rocu7zjZh2fyBnDZvjtu1eiSsB3d1mjC22j9tBGlnw+orxztLjpOq+uf9WEco2g+qS6f7Fb/cjiX21BXpP5fEvlFT0QPCosDecxUHjOVx0zlsTQkIiIiIiJpTh/42JSGw8fKkZHmHjEGTJ/VI9ns/TXsLEHGplYMj/ox5l7G9fO/99Iw3n7tdfaIREfHvrLoIkqLVRpOqeNyRkMO6hFrZTjii3ic0Ttq/3Y2GWEF5ZxdiL3eirGw7Hqw1xqV5z5jmGvU5X2UYtZr8H0fWsKOTy/6seK/fnFLQ/PcPe3mujbVhnznNYubTYSInOO9fgu9pxabT9DMJHp8rTioX7MfNHGkIT0y2s/24Ml91xGcgbRxIKooDF3uxjP7+/HrkzfM/d2loDaMpsJGVFSG/k3oLoksCl2X9bSmZ9px5fJNc28ietBYHMhjpvKYqTxmKk+kNJxTn11cn/WLV53HWKc958vXX3+N2bvObCpERERERPQ4cPrApVUaWlM5lmD74UFMYwZj3lprCspESkP0qW2XqW339WFsZg7TfW3It0ab2QXPdK3a17JyeBrvqGtzGLug922m5LyP0jDefq116nJ+8Yj9fHz11jEuWBrOTGKsqwdH9Pn0Is6Hl/Vmmz06bWYIhfr8eK5SUJ+r72Cl336syjrrPI32lJ3u7AJo2Om1zjVYpXc040fLPvV8nGlF76M0tF8D/XxvWWXdtDl3oj0F7AKvn1m/ed8AxkYnI8o++7lnvFKPFn3MUyMof1NPE+q8Zvb62NlEsJ5fNcpH/ZiYMq/RfO+LBd5Ti87HTKO6/fCQen7qsU5VqtxrQ1OZEi1xved68eRvBxHs9+OWhupy2D+EN3DlE3dJeMsqAy9cHDbXFygN1eXQBMZE9DCwOJDHTOUxU3nMVJ5EaTjaOIbf/5vPMBuwy8GP/4c/YqjRnub96sFuXCn4yrpMRERERESPB6cPXFqlIeZw7VQlcnSxpj4kZa6vxI60BEtDZcLnw1Y9HabaNuOpchzJdY0Ks/ZdjZzg+jLkn3J+xXzvpWH8/YY/n4wXKnFwW2SpZFhllrmfXp4uw47dHeHTV4734Ui6XZbpJTPdhwZrSI4p3HY344j6v7V+mRc7DgyY8wdGZjcC76Yya5pMaz9rqlHUYs7Ldz+loWK9Bk+HjmHr7r55jkEJ27+ZutPKynnNXPRzd56bWrburkOu63HnzybCeBcOrjH7sI4l3usX8Z56OuI9teh85jB8oS60v2VlyHU9FtFSd/tSHxYzPam+HDTQjQpPE64Eh/beQdtnjYuYnlRfJqKHicWBPGYqj5nKY6byJErDuZk5nPn/1OKr00PW9Z4z1xEYn8XU0F0c/GYRxvutE8sTEREREdFjwukDl1hpKGEO01PxnpNaP+6emlNKvP3OqGMyv0WXMDOJibCnGFHITQUiRurNJ2CNtkuG6fHI0YJCFnpuUdkkKt7rt9B7avGm1fOgpW4ExW+kwxN+2tJFuN/tU9DNIbyW1420jwdRWjOIn73fjb/6aAj6V4kLlYbjl6+i1HMVHebvF7TxWn2OwyZUX+pHx6WrOO9pROVl/RfyLA2JUhGLA3nMVB4zlcdM5UmUhtrXs1/D3zWBr470oHpTA+rz2nHj8ijuXLMLw6nhAJo/6lUfoawTShMRERER0SPM6QMfw9LwcRRjFB8RJVfgInY9n4f6e/0dy/1un5JmcKN+ABt+0w19zsJvHxjApRH7e0z80nDWnno0eD5DY/Y2uktbrLLQOmdh6QBuW3mxNCRKRSwO5DFTecxUHjOVd6+l4Xj3BCr/6xV8+jdlOLu+El/9cz+m/dPw/rASB//8JPb92Uns+bNP8eXBHkzfnsaRf12ES2+3Ym72a7MHIiIiIiJ6VDl9IEvDxwJLQ6JFm/Wj87wHBXsK4DnfCX9EeefvqsGJQwVqvQcXu+zzv4RpKMBzb56DtSYwgPqqGtRUqf1YKxV/Jy4e09sfxglfjGlo3dsbI74TOKyOp+DYRXRGPKSz7vDJeoxEHOu8282OoP7k4Xmf44MUc0rSoGE0FYafvzA+FoXxBPx++Eddiz1HNC1kvBtFG9/C6m9sxPNqWfXXuTh04aZZqaj1Z3/zMfb96jjOOlN6a32XcfRX6vZ3qqOnHn/MsDiQx0zlMVN5zFTeYkvDmTszOLe+CkV/U4arB7vQ//kQuk5ew4WfXoHn215cPdqHureb8cGfnUTBn36Kd//0FK7V3MKdPtf3MyIiIiIieqQ5fSBLQyKiKH6ce3Ml0n/pwcWqi/D8Mh0rXQWe3/sW0jIKUOxrRauvGAUZK7Hl8/AWr/P36cg+acpAfz08v8rG2uV5qNfXJ2qwa/WrKDhdj3rfRex/Y4Htlc5jmUjfro7Hp7Y5uQvrXtyPVlPytX64Ditf34/iqhoU78vESte6ebeb7YTnv6TjrWMX1THU48Sv1mHdh632Rg/Y3Ws34fm9Hn04gMvmtjDX9fkMG1F31VyP6y5Grnaj+pNGlJYMmtsoZAQnspar90g60l82yyHrXUlx+XH+NbssDF+24ZBPrx9C0Q/V9W9tw4bv/FzdnmvOZzuDpre2WffN3Nutb3issTiQx0zlMVN5zFTeQqVhYHQaHYfUz0PZl1H/Dy04/h/Pwvd2szUdaaT+smF8/J+8GKq7heNpF7D7Tz7FO//qFCp+eRWzE7Pwt41jnOUhEVHqm+Hvb4mI6P44fSBLQyKiSEMnkP2yB53mKtQlz8vZODGkL/txbvty5FlFgdHlQfobxQhVfLp0XIv97pJL79OUhiOfZWPtPldBp0cVxt2+HgXPb0TxqLlqne/wORQ0qIuz9ch7fhcuBk+DGcDFnc+Z44uznX7MzcXBIhQjxch+vsAuNR+wG5f68b3f9uLvL0n8UvE22k434cLJNrQNPMShkynLLg3D3r+WAAYaatA54kenrxieQydQE2sErcvIlzUoPuZBcVVr1OhWf1e9WncYJ86Hr/N3qMcIvh819XhV9RjQ719rRG4nRvydqDl5EQN6tR7xq4/nWDHqFziepGo/hQ1WSZiLo76bGB/tx1lTIq76+WWVXiPeU5f/7iP1j0TXafyduvxepb1dpt7umUNosk8P9VhjcSCPmcpjpvKYqbyFSsPP/x9lKP3bi7hRNYIrv2zGoT8/gbGr838f7b8wjPf+/BSaj/Qi/08+xT/+q1P4Y+YV9P3xGvb+6Ul8+J/KzD2JiJaQ4UFUeTvQ0Bf8sBzf+ADO5FZia5oPDZhEXW45cjbUo8OsFjc1ggZ1fFUt9/k5Z+YWqtSxZr7StLiZTRaVzxyuHatEzvpaVCU6AVAqkMqYiOgx4fSBLA2JiCLV5mH5u+H1Wf27oaKl89A6ZBdalYZFjzwMG6Wnz0e4PA817iLFVRoi4Iff/XO5fjz3VKQxtg+MujcYwIn/YkrFgRPIzDrhKhyBkZPZwVGK8243GwifllLvZ+1+PJyxhnS/vr7TiMCV53G3/F9Yi76sb4s2X2lo377upS3IO3kRNec9eOullcj+zP3OcgTU18M6rPtvh+3RrYc2Yt2L6r1tvZ/Uuj3pSHNGvh7agvTVG1FsvlzcX0e2euQtN4W89TWi9vvjTOzac069W+0Rv6/uKUZNlT2iN/bxJN/NP+RbBeHzPyxBcELSC4fs2545hja049AzG7Hq5eMo2rETq6wRiKHRids/5YdUjcWBPGYqj5nKY6by4pWGX33UjdIfVJhrytdAm7rt0htXzA3R5qbn8NH/fA4dn17Db/4vn+FX/+oUvni/y6wlIlqiKmutfysTO1VPAFVvllj3z3xBl4YDOLJCXV9WCW/YHz0K6mvCVvV4GW9H/3vbsLsMOWmhZevr1fAUD2HMrA8abMb2ZeqY19fiTOMdc2OCFpWPH95snY8XR2J9zHxAhk9VWnkcqTU3LCROxguq9VmPlXuKJz0hoseH0weyNCQiiqBLt1ilYXC60NkBnHjjOaS9lI70l9Lw3BsehA1qu7ofayPORxhWGoaxi5FdFa5yL9b2bmr9uh970Kkf05eH5TFKw8jjt7i3i6CnOH3196GxlbS0uAtDd3EYzS4HX/2FPp+mvZzrDd2+8bTrXadH0IaNuDX0+zPifdT5eQE8tepdGGNdoGJX8PycC5eG7pGxeqRsJk44/XzvORQU1s//dZFENz/OtQvCt1yfkH3HsF7f9o1DaFJXAy0leOeH2/Cj7+TinY+7cbPykL1+9SlwYlIbiwN5zFQeM5XHTOXNVxrq6Ucv/KgKDTubzS0h53/yhbkUTm/Tc+4G/vjjL3D+51/i3H9txJ7/UIKRlnEMlt7A1zPRU5oSES0JiyrFerB3WQkyfuAarTcziYmpOXMlCeIUWnVv2wXd9jfrsHdTBXJ0ganv+/06NIybO2mjg2hJdCRlpEXlowUwMf5wf0d87Wi5dcwFelaXRNxPabjofIiIlj6nD2RpSEQUwf/5lpiloVPstX6Yjuzft2JEXw2MoPX32UjfU69+hLYNFGYi0zUS0TJPaThQqLZVj+X+MT/m9g5/DfJeyg4VKbqkiVEapkcWgJHbufhr85D+xonw4pOWlMjC0FmimXLwdzWoqbIXe7rQWCMQdaEX/Z6dt5RWYq5zvfcXLg3DH2/g87eQvnodNu70oPjLhzPKUEukNAzXjcLVet02vFepfo4a7kaT9zLa+h7vn6lYHMhjpvKYqTxmKi9Wafj13Nc4t/o8zq29gGn/tLl1YbN3Z3Hib6tw4gdVeG/ZH3Hg2VJrX7pMLPnPVdjzb89gajTx/RERLZopdsLKmbDC5haK1uvSrBIHd5cjU5dAasnJaXVNxzmH4bO1yHnKlGtPV8Czp9K1D2V8AEWbyoLbZzxdjiO19ug8u6RzllrUBR9TX1bM8WzeVofcF8z9nlLb+1znfI2zf22ipR47nna2LUPBvjps1pfnLQ3LzXnStRn0HLYLs6w858Yxe1pSXXaafeYfH4L9L3YosyNHK5Fj7pO5phreLlOERpVi8fYXcUxOGZddhyPW46hlmR6VN4KxlqawjA5eCI2PnFDr8teYdWrJTPehYTT8eObN2KwPLuujp2NdOGP1PrlQh63OfdSSs6kZPZEf05znF1zM++A+X2Mnw4I812uyXmdgsjf7zclpQkewHB6B1/2YL1SiqIXnGiai5HD6QJaGRESRdBEXNtLPfY5BPfrJfQ5BZbbGVa7EOJ+hFlWIBND64atI21wcUdbNs702cA5vvZSOAp/rwf3nsCViWtHWD9diy+eu8VixtjOsUualAjO1JC1Vix1pGF7caYmXhlap/usacy1czHWuqW/d5bstfmlomQ1gpKsGnu3rwqcBfoDGP33PLg3/9nTog6kzPel3o0cS6vuv0utePY+bvmP4kVUu2svGP+gn+3hicSCPmcpjpvKYqbxYpWHfyQF89u0STKvP9vdqZnIWX7zXiQ/+2msVhXMzX+Na3aj1fyKipEm4NNQFSx3OeNvgyfZa17N2m7+K9dUhS13XJVPB0Tac2V0RLGXsffjhfV1f9yL3QBuqvK3Y+319vQye9jmMtfiwQ2+fVq32P4ixeUpDqxjT2x+vxWa9/+D0pfH3j+FW7LDuX4Ydu1tRfrQWW52CM6HSUBuEJ03voxYNmENLnp3B5p2t6vFCmeSf1YVSKDOruDvehqK3TSm1Qm2vz7celnEADTvN/t5sQnlxEwqs43f2N09pqLd/W93/uA/bndGQy7zYbj3HajujJypwRp8H0clgRSU8xR2hDNeY80YulPHwIM5sK7Pus2OP2r52JFhoWhLJ2HmffL9Wvc4dKD9QaV/f1IawX4nocyHuqbC2zdnWrPLV74n7f43tDNXyQgWO6NfkTfv5ZOjtvl+NouJWHNlg3tu59os/dso+ju279WM2IV/nrDLrsdYSEcly+kCWhkREkWZbsX9tNjzWtI1KrwfZuvSwyj1drqxFQYO1xtblwas/9sD6uGIKxLDzGWruQmR2AMXb05G+pwb+yPvNs72/YT9eXb0RJ5xjCvKjePNa5FWZklCPKFwbmuJx3u1m/ai3SsulNcJw5s4djN++qz4ikZvUOQ0TKQ0xeg5bVrlGrerperOes8tAZ53zfpsdwcWda4NT3/pPb8RzOy8G3/f+qjysna80DNRjf8YunHMGGHYcRvobxepIH4L2U8i0Sr9teOeP/RgfbEfhy3YJuMo9+lCbasR7z9j3PaTybNqhLx9CHYZQ9Lfq8suu8yI+ZlgcyGOm8pipPGYqL1ZpWJ5ehbGW+89aF4QfrjiP1pOR4zeIiJJkESMNy3XZZelCgS5azGizhp16vRcHfaFPimPH7bLF2oc+95+6nLmtA8OjfozpxeezRoHZI/fU/tTl0Oi12KVhzr5Ba60WNlXmAvsfPmbfd/tx1x/3OgVWwqWhc7s+JjOdano9OpzHG25Fvt7f662u0tMUWpY5dOyzS6qCSnWbO+PRVrs0zXaVZ+NtyNW3vdIM3fnFLA03tYWKO7M/p+zSnNdAZ+RkUHB2zD5etbTs0cejXzd154UyjnHdLZGM7fdJOQpbTGajY/Bu0rdVRJ+7Muw9qAi8xnaG+jWxrirO62SKVUsfDj6rbjPvxVBp2IOe8RlMj+vHngwvTImIhDh9IEtDIqIYAh0ebHlxJZYvX46VL26Bp8M1OmqgGBtXp+HVX+Qh7xevIm31xtD6qFGKhqsQsaZwVPsNX0xZEnN7Xd5E3t91jsWRi8jLSMNz6rbnVr+KvAqnVomznT4XYtQ6U96krFtoPtmI82U3zHVaPLscXPliOtJfNssh612ZeGmoBL48jGz1NbBObb9O/X/Lsc7gFLvW187qldY5P/W67H01GHGK6dkBnPtlOp5btQ7pan32of14K85Iw5GKPLyq9qGPM211Jg5/6R6l+CBNonKjXRKGLd/MR1HEZ3xnKtNVG6utTNre2aauf4DzXY3Y9121zWsVcJ+G5HHC4kAeM5XHTOUxU3mxSsPTz3vNpfvX/MkAvL+IPi8iEVFSJFwamgLPYm4zxUqoTHNx78M1Mi5qsQqdxErDWMdoFVgL7N8uuyJKQGebhEtD9zGZ4421WM8hVmaK+3nEyCfs+UXsI2Zp6D72WPtwZeQUfrEWK8OFMlbilYaJZGw/h1hLZNZK5PE4+4q1JPgax3pdo9+74e/tqGljI6ZEJSKS5PSBLA2JiO5RYNQPv1oCrpF6Mc8nuAj3u/0jbbQPlZ5GVF+5a26ghy4Qp8SLt26RAhMPqyx0mbmJul/lY8Nf68Lw5/jRD/dHn0tivBrvfFOvzw19EOyrwD/8jSkZv5WLo77H9+cqFgfymKk8ZiqPmcqLVRqWfO8C7lon3L5/NQWduLCzzVwjIkoyp1jZFiqgps+6z0cYqwALL1YSHWnoHgWHqTvWaLGJKb3NfZaGC+xfYqThhHo86/5vdmDaGWm4oRnBMwbOTNqj38b15w3n+JM80nARpaGdgfs1msO0Pt7RO/aouYUyVuKVhomPNHSP6pvBhHUMMUbuRR6PwGt8L6WhPbJQZTQTwHBLGwr0OSGXVaMqOOqWiEiO0weyNCQiEhPnfIQJud/tU90Mei/148V3u/FkXjee+WAApSP295gbpb3qtl54rltXY5prbkeppwWtzmjI8eto+LRR3WYvlZeGYf/cPIg6fVtJaFoToodrBgH1QTQFqs+HisWBPGYqj5nKY6byYpWGbf/UidL/XIXZqfubd/7u7Wm8++8/R3fZQ5kQnIgeSwM4Yp0Pz5wrznV+PLuwWbg0DJYz857TcBLl1jSU85yP7n5Lw4X2f0/nNPRi+5t12Jurlk3mfIRPVeCMVTiFCsAFz2m4Qp8/rwNn9Gg163odWvQuwp6Tc/yLPKfhIkpDXULm6wwWOKfh/BmHpurcvEkd472c07C93ppOdMFzGmrmPZX1ij6Ppj6n4f2/xvdSGjpFqTU9aVcPjryi1rE0JKIkcfpAloZERPRg3BzCa3ndSPNcx6WaQfzs/W48eWgI+leJiZSG1y82obSwE/ZdZtFfqq57WtDgG0DbuWZ1uQlX2vQvylgaEqUiFgfymKk8ZiqPmcqLVRrOTMziD/9jMS7+/y7j69mvza2LMxuYg+fFGhxcVYGv5+5tH0RE96SrFbkv6PJELU+V40ju4kYa6hJt+GwtcpySJmofyswQzmwqs4szvYRN83i/paESd//AREs9djxt1i0rQ25etV1gzVsaupanvdj+djNaRp1RetodNOx2TVv5VBnyjw+ZIs05/kocOVARvE/mmmp4u8w+Ip9T5PHrAvZs6A9I7rs0VKa7mpGvR8qZx8hM96HBeU6JZDzVB0+6XY6GXquQhTOew1itD1ud+6glZ1MzemL+6vsWvME8zPtgMa+xej0K9tWFPf69lIbB6Umdx9T7PRscX0pEJMrpA1kaEhHRA3GjXBeD/bhkPhPc/aJfXe/D6dtOadiDn37ci2fyuvHku934abn7l4y30apHFZYMqh/zNbsYrKh0PlAMo6nQOd+hKQ1PXkW1us0aiVjYju7H9URyRCmCxYE8ZiqPmcpjpvJilYbazJ0ZXP7vLfjk2RIc+1/O4Q//ixcetRz9T158rJbf/adSHF5eio/UclAtH6pl/7Ol+Kdny7BPLR/8z6W49I8dmJtmYUhES9UcpqcW+j3mjLqPu3yTFn//01PS84/Ees6RRetinvMMJqwpTpNoJhA9HaighDJW97n3Y3jQr7GWyHubiOj+OH0gS0MiInog2s/24Ml919FrrqNxIDi60C4Nu7GhaAS9t8dQ6lH3NYWiZbIf1Z5GVF42f8Vnrtd+6UzBNYrmk87oQlMa/nMb2rpv41ZHJyrUdbtQJKKHhcWBPGYqj5nKY6by5isNHXrUYe1/rYf3xUu4MzCFiWt3Uby2AmWZlzE5HMCEWkr+iw/1eztx8e9bcHjFeYwPTnF0IRHRIyOyNCQiIlqY0weyNCQiogei91wvnvztINrN9ejS0DU9ac8gvpfXjR2N5nrHVzjvaUbzgLk+O4BaTyOqr9w1N8QoDYPTk95Fx2l1/WS3+uhERA8LiwN5zFQeM5ULvqFaAAAakklEQVTHTOUtVBq27evEqWc/x+zkLGbvzuHE86W4lFNvrZtRt515+Qvrsu/9Tnz4H73qtmSOuCEiIiIioqXA6QNZGhIR0QNx+1If4k9P6ioNr1/HBldpOFLZjNJPvkK/fVW5gSufLDA9qeucht0lLA2JHjYWB/KYqTxmKo+ZyotXGjb892aMd92xCkNt+PIoan/xpTX6cLhhDB8+eQadRYMY/GIUH/3fyjB+bcq6HxERERERPd6cPpClIRERPRg3h/BaXjfSPh5Eac0gfvZ+N/7qoyHoXyXGLw3voO2zRpSe7kfozACz6C9tQqmnGXVfDKDtXLO63IQrHfoXZCwNiVIRiwN5zFQeM5XHTOXFKw1HvriFr+fUT0p6itK//xJfz9pTjurC8PffLkXnqUFc+aATTYeDE8YTEREREREF+0CWhkRE9IDM4Eb9ADb8phv6/IXfPjCASyP295i4peGsXQIGz2foGB9G8xldFjai9A/NqK0ahv238iwNiVIRiwN5zFQeM5XHTOXFKw01Parwk//pc1ze2WJd11OUHvzWGasw1I79vyowc8c5LzQRERERERFLQyIiWip6OnHB04SmHnOdiJYkFgfymKk8ZiqPmcpbqDTs+LgXX2xvxuzULL6e+xqfPF+Ozk9Df0xFREREREQUyekDWRoSEVFKu1WlRxO2g5NoES1tLA7kMVN5zFQeM5W3UGlIRERERES0WE4fyNKQiIiIiJKOxYE8ZiqPmcpjpvJYGhIRERERkTSnD2RpSERERERJx+JAHjOVx0zlMVN5LA2JiIiIiEia0weyNCQiIiKipGNxII+ZymOm8pipPJaGREREREQkzekDWRoSERERUdKxOJDHTOUxU3nMVJ5TGnLhwoULFy5cuHDhwoWLFKcPZGlIREREREnH4kAeM5XHTOUxU3nMlIiIiIiIpDl9IEtDIiIiIko6/pJbHjOVx0zlMVN5zJSIiIiIiKQ5fSBLQyIiIiJKOv6SWx4zlcdM5TFTecyUiIiIiIikOX0gS0MiIiIiSjr+klseM5XHTOUxU3nMlIiIiIiIpDl9YMqWhlP+WS5cuHDhwoULFy6PyOIfmVT/j/2zJpd7W5ip/MJM5RdmKr8wUy5cuHDhwoULFy5cuDiLFGd/HGlIRERERERERERERERE9Jhy+kCWhkRERERERERERERERESPKacPZGlIRERERERERERERERE9Jhy+kCWhkRERERERERERERERESPKacPZGlIRERERERERERERERE9Jhy+kCWhkRERERERERERERERESPKacPZGlIRERERERERERERGG6moYeyYUefV81DuLQL0uQk7YPP/jXv8TK/9NmPP+Njdb/9XV9u16v70dENqcPZGlIRERERERERERERGEexYKNpeGjreFiF3629oBVECa66Pvr7Yged04fyNKQiIiIiIiIiIiIiMKwNKSl5Leb/xizFEx00dsTPc6cPpClIRERERERERERERGFYWlIS8Wb/++DMYvAxS56P0SPK6cPZGlIRERERERERERERGFYGtJSIFUYOguLQ3pcOX0gS0MiIiIiIiIiIiIiCsPSkFLd/U5JOt/CqUrpceT0gSwNl7LABMYD5jIRERERERERERGREJaGlMoaLnbFLPykFr1/oseJ0wembmk4dQO+mnpU13TjlrlJG/SV4MDej3DgVDMGZ82Ni9F9Ce8VNmPcXF3KBk+9jb87dcNci3B7AN5jH+E9ldXHNRH3GWrGyY/0uk9w0jfP9kRERERERERERPTYeuxLwznz/0Qs5r6PoeaqXuT+5BOcOXIZM9P38kv9aD9beyBm2Se16P3T42AIRT+0X/ONHz/ef1Tg9IGpWxrebsYn776NH3z/I/jMTc0HsvG9nKMorqlH8T9tw/dePYrmxf4b4/sIaRtLMGiupoZmvOd6nomatzS8dQlb12/DeyXN8DVcwic7svGfD7Tb64ZK8Hfr38aBmm70dNardf8NW71j9joiIiIiIiIiIiISM3V7LHqmsLlrOPfhB/jlW5/gctT1IZx7/338U8VCv68bw+VPj6M8iYOhYhVsn73xAl747gt4r9bcMN6M321cg7/65jfw776Tgfd8U2ZFakqsNJzBYPVx5P+2AsPmlvnynhm8gt/95gjOPd5dQ1xOYaiX/o4Rc+v96Wy6HlXyzb+cxvnGIXSrpWnvxzHWz7981SjbIswMDaCptA21Z9rR5LuJh/bVMnsH12q/Qm1REyrPfIXWzgmz4iEav4nexgH0XrtrbniAKg/9/9u7u9+oDjuPw73of7G96d1W6h/QvdpqV8rFKo12URq0FSKqhFQlqhptNm2TTRQ51ErciABrWQbSUGIUXEhNEkPAW2obEWJTEwKJTUyCWwdweUkImNShYF7y23PGc+wZe8DG+AX7PI/0KQwzjAcfk0T+9pwZPeZ5Hg6zPfDevjxpOnBlY9qN3qh7cF3sH/2bdC32r1qR/IuoeHO84c+jd19rNO7sjN4z14q/mBg/Gt7qcRdPRFf35zH0WV+0/H5zNLb2jZ7ZePbjfdG4uTXaP5442F3s700evyNauk/ExdFB81qc7f4w+r64HCe7R35v14nsL2J63474xQM10ZieWdlf/A+CL0/HkdYdycftjb7SUy1L3Go0HO7bF3WtJ4q3Emda4tHin7l30yPxi9aS/+i4ciheuOdGVAAAAABY4K4cildWronqrceKv1D04ZtRVfdOnM/OTiu7fTX629vj4KTft/4sdq1dEw3vF2/OglsNbJ0rvxHVB0Z+3lv7L/Gjzf0jNwbb4unvPR1ts7SEnPrr2fivp14o/DhdUxkNu5saoqG1LwbLzh6s8PnuaYm6zR3RO1i8PQ/O7t4Ya3ffuyPHbAyGqYbq1rJx7/alo+GFGLoeMdS+s8L9ty79ODPm3Mno2NYT+9sGov/QX+LA9uTnnReKd86lq3Gq7Wjs3f5JHD1yOo7v7Y2923rj6Kni3fPicpxoTV5T8vnp+NM8/YUyHI7ugQtnNCwZvjK3PNPuTPL7lj0bq3d2Rte+1lj92Iqxx5WOhpM9btnP4tHnmkbObHx55MzGxleejefeGHv8o2+cHnl88oV9ZN0TsTx7/JaaWPrj5LV/ld73eTT//OFYuuKl4sdqiedWJB9rd/qxKoyGo2cKJrdbN8ejD/0qmit8nd728qQlTjb/KpYXzzQ88vKKeOHdknF0mmc5AgAAAAC3NtjeEFX1DVH3/M7ozgaoK2ei+43011viYFd/DI6/HVdj4MMP4njJlnD9bF8cbN0Tza0fRO/Z7Hu1xRHrveTxH3VEc1N7HOy7FGXfyb2Z3tcVu3a0xzsfnYkrpa8h+VjnB0/Fwd2Hojj5TTD5aNgfW/7jv8tGwsPPfzuqs7MQZ1A6FD64/LH4h3/85/jevy6d9nA4+Wh4Nc5/0hNtO/ZE25HkeIyeJTpxNLxyvj8OF45LT3K8xj7zg30fRPfApTibHpfG5Hk++mzkuAx/Fr3J47fv7io5jkXJMend3x7N6X0DJWdaXeiPgx+eicHka+Cd3S3Jx+qLs9lrSu5r21wfNZs7kq+dYzFQOA7Xk49b4ZjPg9kaDFOP3/ebsnFv8nbG+4N3PhqmH2emXPxTb+x9++To26Z9cSC53Vz+1mxz40Ic39sXx09mZzxdjN7mnjjw3t+Kt+felY+Ox77tffH+/83jaJjK+XCY7YELZzSscFnRdDS7b11v8VbmcrQ/90jUHSkZxtKz6R58Kdq/TH4++jxTeNyy0sufXoqWZx+O5VtKzuC7uC9+8WDx9X38u1gy7vWdfOOpWFIY60ZGw7Iz/E7siOU/2REnCzfGDXfdm+P+x1pGn+tk++Zo6p54ivBko+GRdQ/HfQ8kr/nXnZH9M2D4wLq4/8mWOFn8l0s6KN7/QOVREgAAAACYjgvRVlcb23qSH+tLxqZJR8PycWro/aaoqWmI7a0fxMHWlqirqU/uS89SGHlczYsN0bC7Kw7u3xPrX1wTa/cUv8l380zsqq2NtZvb452urtj16oaoqm2PgXREOt0ea6vqo2bVxnilsesuRsPOqP5GdfK/Y842LokfvT69Qe9WSgfDrOkOh7cfDb+Kw+kIlxyLtq4Poq2pIfncN8XhwspT4bgkn/uJxyWS51gT1TUbo64pHfM6Ysvq5Dht3RPb1r4Wzfs/iHd2N8WqlRui+S+Fh0cMJMejemPxOLZHQ/L4tbvPjNyXfJyq5+tjbfaaGjdGVc2b0Z0OhBVGw97Xk9sv7ykc8+aXk583HpuXS2DO5mCYWvKt6rJxb/KmNxqmH2em3LwxOjQUFEbDHSfnYTQsce1KXPxzf3S8fiw+Plf8tbk29Nfo2nY03v/kapxonefRMJXj4TDbAxfOaFhhlEtHs+VbszP9MukA90g89r+bo+7lrI3x2LKnomkguXt0NJzq48akI1z5SDc29hUGzEdfKnmupF89FfetPhTDxdGw/FKqpUPhuNHwxufR/usnYsnDNfHC7/dF7y2+Nqd0puGNayNnGr7cm7yO1OXo27kuHn14Rdyf/Flf2NkZm36+MbrK/5kFAAAAAEzX+Y7RMwyvdGyNqt8eGhtv0iFoc0/xRqLsduk41Rfbni8Zl1J9HbHlrZ44X3xcXWvJKYl/2RM1L+4pjIDpWY7VyXOODUZXo/O3yePbLxVHw4ZoG3vDvoruldFw2xsthcuSju+luk3FR0zdbUfDj3ZG9dr2su8H9+/YENWvpyeFjD8uG2NX6belP90Tq5LjnZ7eUhgNSy9Jm34tVNXH9k+KtxPnWxuiqjF9zKVoq69Nnrfk7MLCZW2T45NuJ4XRsORM1fQ4vrImXukYeXz55UkvxB9qk9eYnek52BPNW7si/Vb3XJrtwTD1/W/+smzcm7zpjYbpx5kVQ6fjvaaeOHB4/s7ui3MnCpdLTS8JeuC9izE/J6X+LY7v6ol9bWcL28U9MRqmcjocZnvgwhkNv+yMZ9Iz/wp3jEjfn++Z9vFn4PXFhmXPRmPf5Rj6srzhdBgbHQOn+rgxtxsNh9pfivtWd054rqHCv5nvcDTMDF+KvoMt8dyPfxYbPi7+WolbjYZDJz6MI6Xvz1j6/DeuFV9TJrnvoQofGwAAAACYlnTMGRmbEoURaGt0Zt+Tm+poWBj3muLwyB3jlJ/5NqInGoqPLwxXtU2xpfHN0Rpqa2PVjlOTPO+YyUfDubs86Uy53WiYHrOqVa+Vfc62rN9QGHyvTzguG2J96eMaX4tVVckxHh753Je/z2B6XMaNjKPHPL2vNta+WvpcTbE2HYs/LT5u3JBZOhSOf0/DoZ6WWFudHOf1b8aurlPj3pdx9l2/diP+8NrhwmD46so/xoVzszOKlQ57U2t6o2HajLt2IXp39Mz/WYYFN2L4zEB0NR2N93tLhus5cvHgsdi7vS9O/X3k9j0zGg60xs+zr4EftsZ8vPPkfMj2wIUzGhYuD/pIrD5YHAm//DBWL6uJlgp/s3o3/SxWbOobvT7w0JHNsfTHxUuNloyBU31c5naj4cj7EL4ULdn/eeLG59H85Ip4Jv1/70xpNFwX+4v/gh3u/l2sWNUZF4tn//VteSIe211yadOiW42Go5cgLf7++Oh3sfSnye305wMtseKnTdFXvG/o4MZYWjgbEgAAAAC4e6eiedWawnAzNgIVz/JLTXU0HEzPUGuKgxWHn9uPhr2v18aqt/picPBSWYWTCWZsNIw4vPqf4keNxQucDnXG0997umxEnAnpGYVzcaZh4T0of9s14XM2OJR+f3z8cdka74x/3OBXhfcuvLPRsHg26bGJz1V4P8I7HA1HXI+hk33R1rghquo7YpITSmdF59u9szocLtgzDYfOxQdv9RTe2/CL7Hv3c+3qYPy151x8URzqUulYt79zrqexs/F+8UzHCbWWfsXPsdLBcGXJP6dzINsDF9BomPjiUKz+6SNx/wMPFy6tufrdiUNawY1Lsb/uqViy7IlYviJ5/IraaC9eBrpsDJzq44puOxomhvpa4pllj8TSnzwRSx9aEY9uyQbJyUbDa3Fk01OFP1fhPRrHva4ljzdF78glscvc+vKkl6N3y69iyUOPjP65mvvGzsg8274uViSvb+nDyXM/Wfm5AQAAAIBpSC8TuqolektHoANNUVVXHHCmOhqm74tYX/L+domBtzdG1SuHYmiS0TC91GbNqp3RO3q2RHJfTX1s+yj5+QyOhjF0OOr+8zvx7e9+J77z3X+L6vaZP0sofe/C9D0Mx7+n4XTcbjQsXEZ05WvRlj2k8L6Q6dibjikTj8v6kkvDDqRnKRYHujsbDdOBtz5WbS05sSW5r6YmOXZTHA1r3jpV+Hn6GtvWb4jtPcXv5w91xfqVb0b3yK05N5vD4YJ8T8PTA9G1vSf27joRZ774KoYG04pXPZxTF+LoWz2xr/V0DF3LzjRML5U61yPB9bhS+ByM9ec/9kTHu5/H0FfztEnleDBMZXvgvT0a3q0b12J4KqfQTfVxU3Wl9NKgd2GS1zWl9zQEAAAAAOZM99biZUBL3TwW254vvo/glEfDxNCx2F5bG9XP10fN88mP9XvieGFdmmQ0TJzvaIpV1bVR82J9VK+sj/XZ2RJ3ORrOh9LhcLqDYWqyP9PQJ3uiLvmcVRc+Z2tibdOx4pg3/rj0R3N9dlzWRNXalugurn53OhrGzQvRuXlDVFcnz1VTG1UvvhZt2RsRTjIaxumO5PUmH7/4/GWvP3m+0WM+T2ZrOHz8vt9MGPhu3/RGw/TjzJSLhz6J/W8cHdcncXwe/pqlA+Z7b4yd2dex93R8OV9nPpaY18uT5nwwTGV74OIeDRe74csx5LqiAAAAALC4DV8duVzlNFwZmt57ld1Lo2EqHQ4fXP5Y8db0TPXPdH1o5FKjkxr+aua+P3vz6sjlY2fAlF//HJiN4bChunXCwDcbpR+HHDAYFmR7oNEQAAAAAIAy99poOBMW459pIciGwz+8djiuX7v7U9r6j56bMPDNRunHYbH7LN7+YfGY53gwTGV7oNEQAAAAAIAyRkNm0ofv9MeVr2busnlP/mDThJFvJkufn7zoibqcD4apbA80GgIAAAAAUMZoyL2s+91PK459M1X6/JAn2R5oNAQAAAAAoIzRkHvd+l/urjj43W3p80LeZHug0RAAAAAAgDJGQxaC//n3VysOf9MtfT7Io2wPNBoCAAAAAFDGaMhCMVPDocGQPMv2QKMhAAAAAABljIYsJHd7qVKXJCXvsj3QaAgAAAAAQBmjIQtN97ufxpM/2FRxFLxV6ePT3wd5l+2BRkMAAAAAAMqkA9tijMWv/+i5aKhujcfv+00s+VZ1fP+bvywMhOmP6e3019P708cBI7I90GgIAAAAAAAAOZXtgUZDAAAAAAAAyKlsDzQaAgAAAAAAQE5le6DREAAAAAAAAHIq2wONhgAAAAAAAJBT2R5oNAQAAAAAAICcyvZAoyEAAAAAAADkVLYHGg0BAAAAAAAgp7I90GgIAAAAAAAAOZXtgUZDAAAAAAAAyKlsDzQaAgAAAAAAQE5le6DREAAAAAAAAHIq2wONhgAAAAAAAJBT2R5oNAQAAAAAAICcyvZAoyEAAAAAAADkVLYHzstoePGzoRjoOx+f9n4mSZIkSZIkSZIkzUrpHpXuUtxatgfO+Wh49sTFigdNkiRJkiRJkiRJmo3SfYrKsj1wTkfDdMmtdKAkSZIkSZIkSZKk2cwZh5Vle+CcjoYuSSpJkiRJkiRJkqT5KN2pmCjbA+d0NKx0gCRJkiRJkiRJkqS5iImyPdCZhpIkSZIkSZIkSVr0OdOwsmwP9J6GkiRJkiRJkiRJWvR5T8PKsj1wTkfD1NkTFyseKEmSJEmSJEmSJGk2SvcpKsv2wDkfDVPpkutSpZIkSZIkSZIkSZrN0j3KGYa3l+2B8zIaAgAAAAAAAPMv2wONhgAAAAAAAJBT2R5oNAQAAAAAAICcyvZAoyEAAAAAAADkVLYHGg0BAAAAAAAgp7I90GgIAAAAAAAAOZXtgUZDAAAAAAAAyKlsDzQaAgAAAAAAQE5le6DREAAAAAAAAHIq2wONhgAAAAAAAJBT2R5oNAQAAAAAAICcyvZAoyEAAAAAAADkVLYHGg0BAAAAAAAgp7I90GgIAAAAAAAAOZXtgUZDAAAAAAAAyKlsDzQaAgAAAAAAQE5le6DREAAAAAAAAHIq2wONhgAAAAAAAJBT2R5oNAQAAAAAAICcyvZAoyEAAAAAAADkVLYHGg0BAAAAAAAgp7I90GgIAAAAAAAAOZXtgUZDAAAAAAAAyKlsDzQaAgAAAAAAQE5le6DREAAAAAAAAHIq2wONhgAAAAAAAJBT2R5oNAQAAAAAAICcyvZAoyEAAAAAAADkVLYHGg0BAAAAAAAgp7I90GgIAAAAAAAAOZXtgUZDAAAAAAAAyKlsDzQaAgAAAAAAQE5le6DREAAAAAAAAHIq2wONhgAAAAAAAJBT2R5oNAQAAAAAAICcyvZAoyEAAAAAAADkVLYHGg0BAAAAAAAgp7I90GgIAAAAAAAAOZXtgUZDAAAAAAAAyKlsDzQaAgAAAAAAQE5le6DREAAAAAAAAHIq2wOnNBp+ffPr4m8DAAAAAAAAFoN0A8z2wCmNhjeuGQ0BAAAAAABgMUk3wGwPnNJoOPz3G8XfCgAAAAAAACwG6QaY7YFTGg3Tbt5wtiEAAAAAAAAsBun2V7oFTnk0HL7sbEMAAAAAAABYDNLtr3QLnPJomOYypQAAAAAAALCwlV6WNOuORsO0dHV0qVIAAAAAAABYWNKNb/wZhll3PBpmpQvkjWtfx9c3DYgAAAAAAABwL0q3vHTTq3R2YWnTHg0lSZIkSZIkSZIkLY6MhpIkSZIkSZIkSVLOMxpKkiRJkiRJkiRJOc9oKEmSJEmSJEmSJOU8o6EkSZIkSZIkSZKU84yGkiRJkiRJkiRJUs4zGkqSJEmSJEmSJEk5rzAaVrpDkiRJkiRJkiRJUj4yGkqSJEmSJEmSJEk5z2goSZIkSZIkSZIk5TyjoSRJkiRJkiRJkpTzjIaSJEmSJEmSJElSrrse/w/nujQSTiFfMwAAAABJRU5ErkJggg==;fontSize=22;" vertex="1" parent="1">
          <mxGeometry x="130" y="270" width="1692.19" height="750" as="geometry" />
        </mxCell>
        <mxCell id="aXY6HCCz9jmhqLr8vIO--4" value="" style="rounded=0;whiteSpace=wrap;html=1;fillColor=none;fontStyle=1;strokeWidth=2;fontSize=22;" vertex="1" parent="1">
          <mxGeometry x="350" y="300" width="370" height="60" as="geometry" />
        </mxCell>
        <mxCell id="aXY6HCCz9jmhqLr8vIO--10" value="" style="endArrow=classic;html=1;rounded=0;strokeWidth=2;exitX=1;exitY=0.75;exitDx=0;exitDy=0;fontSize=22;" edge="1" parent="1" source="aXY6HCCz9jmhqLr8vIO--4" target="aXY6HCCz9jmhqLr8vIO--11">
          <mxGeometry width="50" height="50" relative="1" as="geometry">
            <mxPoint x="740" y="340" as="sourcePoint" />
            <mxPoint x="770" y="300" as="targetPoint" />
            <Array as="points">
              <mxPoint x="770" y="330" />
            </Array>
          </mxGeometry>
        </mxCell>
        <mxCell id="aXY6HCCz9jmhqLr8vIO--11" value="button pour changer de trimestre et d&#39;echelle" style="text;html=1;strokeColor=none;fillColor=none;align=center;verticalAlign=middle;whiteSpace=wrap;rounded=0;fontStyle=1;fontSize=22;" vertex="1" parent="1">
          <mxGeometry x="740" y="285" width="230" height="30" as="geometry" />
        </mxCell>
        <mxCell id="aXY6HCCz9jmhqLr8vIO--12" value="" style="rounded=0;whiteSpace=wrap;html=1;strokeWidth=2;fillColor=none;strokeColor=#000000;fontSize=22;" vertex="1" parent="1">
          <mxGeometry x="140" y="370" width="1060" height="50" as="geometry" />
        </mxCell>
        <mxCell id="aXY6HCCz9jmhqLr8vIO--14" value="" style="endArrow=classic;html=1;rounded=0;strokeWidth=3;fontSize=22;" edge="1" parent="1" target="aXY6HCCz9jmhqLr8vIO--15">
          <mxGeometry width="50" height="50" relative="1" as="geometry">
            <mxPoint x="1200" y="400" as="sourcePoint" />
            <mxPoint x="1250" y="350" as="targetPoint" />
          </mxGeometry>
        </mxCell>
        <mxCell id="aXY6HCCz9jmhqLr8vIO--15" value="option de filtrage" style="text;html=1;strokeColor=none;fillColor=none;align=center;verticalAlign=middle;whiteSpace=wrap;rounded=0;fontSize=22;fontStyle=1" vertex="1" parent="1">
          <mxGeometry x="1240" y="335" width="170" height="30" as="geometry" />
        </mxCell>
        <mxCell id="aXY6HCCz9jmhqLr8vIO--16" value="" style="rounded=0;whiteSpace=wrap;html=1;fontSize=22;strokeColor=#000000;strokeWidth=2;fillColor=none;" vertex="1" parent="1">
          <mxGeometry x="140" y="320" width="190" height="45" as="geometry" />
        </mxCell>
        <mxCell id="aXY6HCCz9jmhqLr8vIO--17" value="" style="endArrow=classic;html=1;rounded=0;fontSize=22;strokeWidth=2;exitX=0;exitY=0.75;exitDx=0;exitDy=0;" edge="1" parent="1" source="aXY6HCCz9jmhqLr8vIO--16">
          <mxGeometry width="50" height="50" relative="1" as="geometry">
            <mxPoint x="70" y="355" as="sourcePoint" />
            <mxPoint x="80" y="330" as="targetPoint" />
          </mxGeometry>
        </mxCell>
        <mxCell id="aXY6HCCz9jmhqLr8vIO--18" value="option de filtrage" style="text;html=1;strokeColor=none;fillColor=none;align=center;verticalAlign=middle;whiteSpace=wrap;rounded=0;fontSize=22;fontStyle=1" vertex="1" parent="1">
          <mxGeometry x="-70" y="300" width="200" height="30" as="geometry" />
        </mxCell>
        <mxCell id="aXY6HCCz9jmhqLr8vIO--19" value="" style="rounded=0;whiteSpace=wrap;html=1;fontSize=22;strokeColor=#000000;strokeWidth=2;fillColor=none;" vertex="1" parent="1">
          <mxGeometry x="1680" y="315" width="110" height="55" as="geometry" />
        </mxCell>
        <mxCell id="aXY6HCCz9jmhqLr8vIO--20" value="" style="endArrow=classic;html=1;rounded=0;fontSize=22;strokeWidth=2;entryX=0.807;entryY=0;entryDx=0;entryDy=0;entryPerimeter=0;" edge="1" parent="1" source="aXY6HCCz9jmhqLr8vIO--24" target="aXY6HCCz9jmhqLr8vIO--3">
          <mxGeometry width="50" height="50" relative="1" as="geometry">
            <mxPoint x="1450" y="360" as="sourcePoint" />
            <mxPoint x="1500" y="310" as="targetPoint" />
          </mxGeometry>
        </mxCell>
        <mxCell id="aXY6HCCz9jmhqLr8vIO--22" value="" style="endArrow=classic;html=1;rounded=0;fontSize=22;strokeWidth=2;" edge="1" parent="1" target="aXY6HCCz9jmhqLr8vIO--23">
          <mxGeometry width="50" height="50" relative="1" as="geometry">
            <mxPoint x="1710" y="315" as="sourcePoint" />
            <mxPoint x="1760" y="265" as="targetPoint" />
          </mxGeometry>
        </mxCell>
        <mxCell id="aXY6HCCz9jmhqLr8vIO--23" value="cacher les colonnes du tableau" style="text;html=1;strokeColor=none;fillColor=none;align=center;verticalAlign=middle;whiteSpace=wrap;rounded=0;fontSize=22;fontStyle=1" vertex="1" parent="1">
          <mxGeometry x="1750" y="240" width="190" height="30" as="geometry" />
        </mxCell>
        <mxCell id="aXY6HCCz9jmhqLr8vIO--24" value="" style="rounded=0;whiteSpace=wrap;html=1;fontSize=22;strokeColor=#000000;strokeWidth=2;fillColor=none;" vertex="1" parent="1">
          <mxGeometry x="1510" y="315" width="160" height="55" as="geometry" />
        </mxCell>
        <mxCell id="aXY6HCCz9jmhqLr8vIO--29" value="exporter en pdf,json,excel,impression" style="text;html=1;strokeColor=none;fillColor=none;align=center;verticalAlign=middle;whiteSpace=wrap;rounded=0;fontSize=22;fontStyle=1" vertex="1" parent="1">
          <mxGeometry x="1400" y="230" width="200" height="30" as="geometry" />
        </mxCell>
      </root>
    </mxGraphModel>
  </diagram>
</mxfile>
